<?xml version="1.0" encoding="UTF-8" standalone="no"?>
<!DOCTYPE svg PUBLIC "-//W3C//DTD SVG 1.1//EN" "http://www.w3.org/Graphics/SVG/1.1/DTD/svg11.dtd">
<svg width="100%" height="100%" viewBox="0 0 32 32" version="1.1" xmlns="http://www.w3.org/2000/svg" xmlns:xlink="http://www.w3.org/1999/xlink" xml:space="preserve" xmlns:serif="http://www.serif.com/" style="fill-rule:evenodd;clip-rule:evenodd;stroke-linejoin:round;stroke-miterlimit:2;">
    <g transform="matrix(1,0,0,1,-268,-1)">
        <g id="boxout" transform="matrix(0.016,0,0,0.032,268,1)">
            <rect x="0" y="0" width="2000" height="1000" style="fill:none;"/>
            <g transform="matrix(1.94458,0,0,0.972292,27.5052,-2465.68)">
                <g id="B">
                    <path d="M885.655,3500.26C902.703,3500.26 919.053,3493.49 931.108,3481.43C943.163,3469.38 949.936,3453.03 949.936,3435.98C949.936,3270.35 949.936,2830.41 949.936,2664.78C949.936,2647.73 943.163,2631.38 931.108,2619.33C919.053,2607.27 902.703,2600.5 885.655,2600.5C719.996,2600.5 279.94,2600.5 114.281,2600.5C97.233,2600.5 80.883,2607.27 68.827,2619.33C56.772,2631.38 50,2647.73 50,2664.78C50,2830.41 50,3270.35 50,3435.98C50,3453.03 56.772,3469.38 68.827,3481.43C80.883,3493.49 97.233,3500.26 114.281,3500.26C279.94,3500.26 719.996,3500.26 885.655,3500.26ZM886.106,3435.88L886.106,3275.2L114.485,3275.2L114.485,3435.88L886.106,3435.88ZM885.791,3211.14L885.791,3050.4L114.418,3050.15L114.418,3210.89L885.791,3211.14Z" style="fill:rgb(34,119,179);"/>
                </g>
            </g>
        </g>
    </g>
</svg>
