<?xml version="1.0" encoding="UTF-8" standalone="no"?>
<!DOCTYPE svg PUBLIC "-//W3C//DTD SVG 1.1//EN" "http://www.w3.org/Graphics/SVG/1.1/DTD/svg11.dtd">
<svg width="100%" height="100%" viewBox="0 0 32 32" version="1.1" xmlns="http://www.w3.org/2000/svg" xmlns:xlink="http://www.w3.org/1999/xlink" xml:space="preserve" xmlns:serif="http://www.serif.com/" style="fill-rule:evenodd;clip-rule:evenodd;stroke-linejoin:round;stroke-miterlimit:2;">
    <g transform="matrix(1,0,0,1,-268,-269)">
        <g id="boxout_wysiwyg" transform="matrix(0.016,0,0,0.032,268,269)">
            <rect x="0" y="0" width="2000" height="1000" style="fill:none;"/>
            <g transform="matrix(1.66679,0,0,0.833393,166.395,-2041.98)">
                <g id="B">
                    <path d="M874.941,3500.26C894.83,3500.26 913.906,3492.36 927.97,3478.3C942.034,3464.23 949.936,3445.16 949.936,3425.27C949.936,3255.81 949.936,2844.95 949.936,2675.49C949.936,2655.61 942.034,2636.53 927.97,2622.47C913.906,2608.4 894.83,2600.5 874.941,2600.5C705.454,2600.5 294.482,2600.5 124.995,2600.5C105.105,2600.5 86.03,2608.4 71.966,2622.47C57.901,2636.53 50,2655.61 50,2675.49C50,2844.95 50,3255.81 50,3425.27C50,3445.16 57.901,3464.23 71.966,3478.3C86.03,3492.36 105.105,3500.26 124.995,3500.26C294.482,3500.26 705.454,3500.26 874.941,3500.26ZM848.609,3435.88C869.318,3435.88 886.106,3419.09 886.106,3398.38C886.106,3350.9 886.106,3275.2 886.106,3275.2L114.485,3275.2C114.485,3275.2 114.485,3350.9 114.485,3398.38C114.485,3419.09 131.273,3435.88 151.982,3435.88C282.759,3435.88 717.832,3435.88 848.609,3435.88ZM885.791,3211.14L885.791,3050.4L114.418,3050.15L114.418,3210.89L885.791,3211.14Z" style="fill:rgb(84,93,102);"/>
                </g>
            </g>
        </g>
    </g>
</svg>
