<?xml version="1.0" encoding="UTF-8" standalone="no"?>
<!DOCTYPE svg PUBLIC "-//W3C//DTD SVG 1.1//EN" "http://www.w3.org/Graphics/SVG/1.1/DTD/svg11.dtd">
<svg width="100%" height="100%" viewBox="0 0 32 32" version="1.1" xmlns="http://www.w3.org/2000/svg" xmlns:xlink="http://www.w3.org/1999/xlink" xml:space="preserve" xmlns:serif="http://www.serif.com/" style="fill-rule:evenodd;clip-rule:evenodd;stroke-linejoin:round;stroke-miterlimit:2;">
    <g transform="matrix(1,0,0,1,-412,0)">
        <g id="breakout" transform="matrix(0.016,0,0,0.032,412,1.06581e-14)">
            <rect x="0" y="0" width="2000" height="1000" style="fill:none;"/>
            <clipPath id="_clip1">
                <rect x="0" y="0" width="2000" height="1000"/>
            </clipPath>
            <g clip-path="url(#_clip1)">
                <g transform="matrix(62.5,0,0,31.25,-25750,-3.33067e-13)">
                    <path d="M444,26C444,26.53 443.789,27.039 443.414,27.414C443.039,27.789 442.53,28 442,28C436.254,28 419.746,28 414,28C413.47,28 412.961,27.789 412.586,27.414C412.211,27.039 412,26.53 412,26C412,21.48 412,10.52 412,6C412,5.47 412.211,4.961 412.586,4.586C412.961,4.211 413.47,4 414,4C419.746,4 436.254,4 442,4C442.53,4 443.039,4.211 443.414,4.586C443.789,4.961 444,5.47 444,6C444,10.52 444,21.48 444,26ZM444,15.999L444,16.001C444.005,16.266 443.908,16.534 443.705,16.736L438.737,21.701C438.341,22.095 437.7,22.095 437.305,21.701C436.91,21.305 436.91,20.665 437.305,20.27L440.579,16.999L432,16.999C431.448,16.999 431,16.552 431,16C431,15.448 431.448,15.001 432,15.001L440.579,15.001L437.305,11.73C436.91,11.336 436.91,10.695 437.305,10.3C437.7,9.905 438.341,9.905 438.737,10.3L443.705,15.263C443.908,15.466 444.005,15.733 444,15.999ZM412,15.999L412,16.001C411.995,16.266 412.092,16.534 412.295,16.736L417.263,21.701C417.659,22.095 418.3,22.095 418.695,21.701C419.09,21.305 419.09,20.665 418.695,20.27L415.421,16.999L424,16.999C424.552,16.999 425,16.552 425,16C425,15.448 424.552,15.001 424,15.001L415.421,15.001L418.695,11.73C419.09,11.336 419.09,10.695 418.695,10.3C418.3,9.905 417.659,9.905 417.263,10.3L412.295,15.263C412.092,15.466 411.995,15.733 412,15.999Z" style="fill:rgb(29,29,29);"/>
                </g>
            </g>
        </g>
    </g>
</svg>
