<?xml version="1.0" encoding="UTF-8" standalone="no"?>
<!DOCTYPE svg PUBLIC "-//W3C//DTD SVG 1.1//EN" "http://www.w3.org/Graphics/SVG/1.1/DTD/svg11.dtd">
<svg width="100%" height="100%" viewBox="0 0 32 32" version="1.1" xmlns="http://www.w3.org/2000/svg" xmlns:xlink="http://www.w3.org/1999/xlink" xml:space="preserve" xmlns:serif="http://www.serif.com/" style="fill-rule:evenodd;clip-rule:evenodd;stroke-linejoin:round;stroke-miterlimit:2;">
    <g transform="matrix(1,0,0,1,-316,-1)">
        <g id="button" transform="matrix(0.016,0,0,0.032,316,1)">
            <rect x="0" y="0" width="2000" height="1000" style="fill:none;"/>
            <g id="B" transform="matrix(1.94444,0,0,0.972222,27.4515,214.341)">
                <g transform="matrix(0.977696,0,0,0.977696,-50.4478,-4016.91)">
                    <path d="M563.071,4837.98L563.071,4278.56L950.136,4665.67L775.031,4665.67L839.353,4814.15L750,4858.38L688.808,4713.54L563.071,4837.98Z" style="fill:rgb(34,119,179);"/>
                </g>
                <g transform="matrix(1,0,0,1,0.0991667,-4074.44)">
                    <path d="M949.965,4111.11C949.965,4128.16 943.192,4144.52 931.136,4156.57C919.08,4168.63 902.729,4175.4 885.679,4175.4C720.009,4175.4 279.921,4175.4 114.251,4175.4C97.201,4175.4 80.85,4168.63 68.794,4156.57C56.738,4144.52 49.965,4128.16 49.965,4111.11C49.965,4080.88 49.965,4044.92 49.965,4014.69C49.965,3997.64 56.738,3981.29 68.794,3969.23C80.85,3957.17 97.201,3950.4 114.251,3950.4C279.921,3950.4 720.009,3950.4 885.679,3950.4C902.729,3950.4 919.08,3957.17 931.136,3969.23C943.192,3981.29 949.965,3997.64 949.965,4014.69C949.965,4044.92 949.965,4080.88 949.965,4111.11Z" style="fill:rgb(34,119,179);"/>
                </g>
            </g>
        </g>
    </g>
</svg>
