<?xml version="1.0" encoding="UTF-8" standalone="no"?>
<!DOCTYPE svg PUBLIC "-//W3C//DTD SVG 1.1//EN" "http://www.w3.org/Graphics/SVG/1.1/DTD/svg11.dtd">
<svg width="100%" height="100%" viewBox="0 0 32 32" version="1.1" xmlns="http://www.w3.org/2000/svg" xmlns:xlink="http://www.w3.org/1999/xlink" xml:space="preserve" xmlns:serif="http://www.serif.com/" style="fill-rule:evenodd;clip-rule:evenodd;stroke-linejoin:round;stroke-miterlimit:2;">
    <g transform="matrix(1,0,0,1,-316,-269)">
        <g id="button_wysiwyg" transform="matrix(0.016,0,0,0.032,316,269)">
            <rect x="0" y="0" width="2000" height="1000" style="fill:none;"/>
            <g id="B" transform="matrix(1.66667,0,0,0.833333,166.358,254.405)">
                <g transform="matrix(0.977696,0,0,0.977696,-50.4478,-4049.05)">
                    <path d="M628.406,4773.32C617.405,4784.2 600.94,4787.41 586.656,4781.45C572.373,4775.49 563.071,4761.53 563.071,4746.05C563.071,4642.47 563.071,4475.03 563.071,4371.16C563.071,4355.65 572.416,4341.66 586.749,4335.73C601.082,4329.79 617.58,4333.07 628.549,4344.04C699.886,4415.39 813.336,4528.85 884.669,4600.19C895.637,4611.16 898.918,4627.66 892.981,4641.99C887.044,4656.33 873.059,4665.67 857.546,4665.67C815.512,4665.67 775.031,4665.67 775.031,4665.67C775.031,4665.67 805.893,4736.91 824.862,4780.7C832.982,4799.44 824.988,4821.26 806.681,4830.32C800.117,4833.57 793.18,4837.01 786.496,4840.31C777.022,4845 766.033,4845.57 756.124,4841.89C746.216,4838.21 738.265,4830.6 734.152,4820.86C716.021,4777.95 688.808,4713.54 688.808,4713.54C688.808,4713.54 658.997,4743.04 628.406,4773.32Z" style="fill:rgb(84,93,102);"/>
                </g>
                <g transform="matrix(1,0,0,1,0.0991667,-4074.44)">
                    <path d="M949.965,4132.54C949.965,4152.43 942.063,4171.51 927.998,4185.58C913.932,4199.64 894.856,4207.54 874.964,4207.54C705.466,4207.54 294.464,4207.54 124.966,4207.54C105.074,4207.54 85.998,4199.64 71.932,4185.58C57.867,4171.51 49.965,4152.43 49.965,4132.54C49.965,4098.82 49.965,4059.12 49.965,4025.4C49.965,4005.51 57.867,3986.43 71.932,3972.37C85.998,3958.3 105.074,3950.4 124.966,3950.4C294.464,3950.4 705.466,3950.4 874.964,3950.4C894.856,3950.4 913.932,3958.3 927.998,3972.37C942.063,3986.43 949.965,4005.51 949.965,4025.4C949.965,4059.12 949.965,4098.82 949.965,4132.54Z" style="fill:rgb(84,93,102);"/>
                </g>
            </g>
        </g>
    </g>
</svg>
