<?xml version="1.0" encoding="UTF-8" standalone="no"?>
<!DOCTYPE svg PUBLIC "-//W3C//DTD SVG 1.1//EN" "http://www.w3.org/Graphics/SVG/1.1/DTD/svg11.dtd">
<svg width="100%" height="100%" viewBox="0 0 32 32" version="1.1" xmlns="http://www.w3.org/2000/svg" xmlns:xlink="http://www.w3.org/1999/xlink" xml:space="preserve" xmlns:serif="http://www.serif.com/" style="fill-rule:evenodd;clip-rule:evenodd;stroke-linejoin:round;stroke-miterlimit:2;">
    <g transform="matrix(1,0,0,1,-316,-1)">
        <g id="button" transform="matrix(0.016,0,0,0.032,316,1)">
            <rect x="0" y="0" width="2000" height="1000" style="fill:none;"/>
            <g id="B" transform="matrix(1.94444,0,0,0.972222,27.4515,214.341)">
                <g transform="matrix(0.977696,0,0,0.977696,-50.4478,-4049.05)">
                    <path d="M619.072,4782.55C609.643,4791.88 595.529,4794.63 583.287,4789.53C571.044,4784.42 563.071,4772.45 563.071,4759.19C563.071,4652.87 563.071,4464.55 563.071,4357.93C563.071,4344.64 571.081,4332.65 583.367,4327.56C595.653,4322.47 609.794,4325.28 619.196,4334.69C692.634,4408.14 820.588,4536.11 894.021,4609.55C903.423,4618.95 906.235,4633.09 901.146,4645.38C896.057,4657.66 884.069,4665.67 870.773,4665.67C824.444,4665.67 775.031,4665.67 775.031,4665.67C775.031,4665.67 808.237,4742.32 826.932,4785.48C833.892,4801.55 827.04,4820.25 811.348,4828.01C801.802,4832.74 791.07,4838.05 781.283,4842.89C773.162,4846.91 763.743,4847.4 755.25,4844.25C746.757,4841.09 739.942,4834.57 736.416,4826.22C718.388,4783.55 688.808,4713.54 688.808,4713.54C688.808,4713.54 652.62,4749.35 619.072,4782.55Z" style="fill:rgb(29,29,29);"/>
                </g>
                <g transform="matrix(1,0,0,1,0.0991667,-4074.44)">
                    <path d="M949.965,4143.26C949.965,4160.31 943.192,4176.66 931.136,4188.71C919.08,4200.77 902.729,4207.54 885.679,4207.54C720.009,4207.54 279.921,4207.54 114.251,4207.54C97.201,4207.54 80.85,4200.77 68.794,4188.71C56.738,4176.66 49.965,4160.31 49.965,4143.26C49.965,4103.99 49.965,4053.95 49.965,4014.69C49.965,3997.64 56.738,3981.29 68.794,3969.23C80.85,3957.17 97.201,3950.4 114.251,3950.4C279.921,3950.4 720.009,3950.4 885.679,3950.4C902.729,3950.4 919.08,3957.17 931.136,3969.23C943.192,3981.29 949.965,3997.64 949.965,4014.69C949.965,4053.95 949.965,4103.99 949.965,4143.26Z" style="fill:rgb(29,29,29);"/>
                </g>
            </g>
        </g>
    </g>
</svg>
