<?xml version="1.0" encoding="UTF-8" standalone="no"?>
<!DOCTYPE svg PUBLIC "-//W3C//DTD SVG 1.1//EN" "http://www.w3.org/Graphics/SVG/1.1/DTD/svg11.dtd">
<svg width="100%" height="100%" viewBox="0 0 32 32" version="1.1" xmlns="http://www.w3.org/2000/svg" xmlns:xlink="http://www.w3.org/1999/xlink" xml:space="preserve" xmlns:serif="http://www.serif.com/" style="fill-rule:evenodd;clip-rule:evenodd;stroke-linejoin:round;stroke-miterlimit:2;">
    <g transform="matrix(1,0,0,1,-364,-269)">
        <g id="card_wysiwyg" transform="matrix(0.016,0,0,0.032,364,269)">
            <rect x="0" y="0" width="2000" height="1000" style="fill:none;"/>
            <g transform="matrix(1.68716,0,0,0.843581,-1530.78,-4224.8)">
                <g id="B">
                    <path d="M1800.79,6101.08C1820.44,6101.09 1839.29,6093.28 1853.19,6079.39C1867.09,6065.49 1874.9,6046.65 1874.9,6026.99C1874.9,5841.76 1874.9,5360.24 1874.9,5175.01C1874.9,5155.36 1867.09,5136.51 1853.19,5122.61C1839.29,5108.72 1820.44,5100.91 1800.79,5100.92C1657.19,5100.96 1342.54,5101.04 1198.97,5101.08C1158.06,5101.09 1124.9,5134.26 1124.9,5175.17C1124.9,5360.32 1124.9,5841.68 1124.9,6026.83C1124.9,6067.74 1158.06,6100.91 1198.97,6100.92C1342.54,6100.96 1657.19,6101.04 1800.79,6101.08ZM1812.5,5882.15L1187.5,5882.15C1187.5,5882.15 1187.5,5955.15 1187.5,6001.36C1187.5,6011.18 1191.4,6020.6 1198.35,6027.55C1205.3,6034.5 1214.72,6038.4 1224.55,6038.4C1335.53,6038.4 1664.47,6038.4 1775.45,6038.4C1785.28,6038.4 1794.7,6034.5 1801.65,6027.55C1808.6,6020.6 1812.5,6011.18 1812.5,6001.36C1812.5,5955.15 1812.5,5882.15 1812.5,5882.15ZM1812.5,5507.15C1812.5,5507.15 1812.5,5289.29 1812.5,5200.44C1812.5,5190.62 1808.6,5181.2 1801.65,5174.25C1794.7,5167.3 1785.28,5163.4 1775.45,5163.4C1664.47,5163.4 1335.53,5163.4 1224.55,5163.4C1214.72,5163.4 1205.3,5167.3 1198.35,5174.25C1191.4,5181.2 1187.5,5190.62 1187.5,5200.44C1187.5,5289.29 1187.5,5507.15 1187.5,5507.15L1812.5,5507.15Z" style="fill:rgb(84,93,102);"/>
                </g>
            </g>
        </g>
    </g>
</svg>
