<?xml version="1.0" encoding="UTF-8" standalone="no"?>
<!DOCTYPE svg PUBLIC "-//W3C//DTD SVG 1.1//EN" "http://www.w3.org/Graphics/SVG/1.1/DTD/svg11.dtd">
<svg width="100%" height="100%" viewBox="0 0 32 32" version="1.1" xmlns="http://www.w3.org/2000/svg" xmlns:xlink="http://www.w3.org/1999/xlink" xml:space="preserve" xmlns:serif="http://www.serif.com/" style="fill-rule:evenodd;clip-rule:evenodd;stroke-linejoin:round;stroke-miterlimit:2;">
    <g transform="matrix(1,0,0,1,-364,-145)">
        <g id="countdown" transform="matrix(0.016,0,0,0.032,364,145)">
            <rect x="0" y="0" width="2000" height="1000" style="fill:none;"/>
            <g transform="matrix(62.5,0,0,31.25,-3000,-15000)">
                <path d="M77.999,508.011C77.999,509.115 77.104,510.011 75.999,510.011C70.845,510.011 57.153,510.011 51.999,510.011C50.894,510.011 49.999,509.115 49.999,508.011C49.999,502.856 49.999,489.163 49.999,484.009C49.999,482.904 50.894,482.009 51.999,482.009C57.153,482.009 70.845,482.009 75.999,482.009C77.104,482.009 77.999,482.904 77.999,484.009C77.999,489.163 77.999,502.856 77.999,508.011ZM63.999,489C68.966,489 72.999,493.033 72.999,498C72.999,502.967 68.966,507 63.999,507C59.032,507 54.999,502.967 54.999,498C54.999,493.033 59.032,489 63.999,489ZM63.999,491C67.862,491 70.999,494.137 70.999,498C70.999,501.863 67.862,505 63.999,505C60.136,505 56.999,501.863 56.999,498C56.999,494.137 60.136,491 63.999,491ZM64.999,493.423C64.999,493.178 64.894,492.943 64.706,492.77C64.519,492.597 64.265,492.5 63.999,492.5C63.999,492.5 63.999,492.5 63.998,492.5C63.733,492.5 63.479,492.597 63.292,492.77C63.104,492.943 62.999,493.178 62.999,493.423C62.999,494.841 62.999,497.159 62.999,498.577C62.999,498.822 63.104,499.057 63.292,499.23C63.479,499.403 63.733,499.5 63.998,499.5C63.999,499.5 63.999,499.5 63.999,499.5C64.265,499.5 64.519,499.403 64.706,499.23C64.894,499.057 64.999,498.822 64.999,498.577C64.999,497.159 64.999,494.841 64.999,493.423ZM68.976,488.8L73.199,493.023C73.199,493.023 73.376,492.846 73.565,492.657C73.843,492.379 73.999,492.002 73.999,491.609C73.999,491.216 73.843,490.839 73.565,490.561C72.76,489.756 72.243,489.239 71.438,488.434C71.16,488.156 70.783,488 70.39,488C69.997,488 69.62,488.156 69.342,488.434C69.153,488.623 68.976,488.8 68.976,488.8ZM64.972,486L67.982,486L67.982,485.482C67.982,485.089 67.826,484.712 67.548,484.434C67.27,484.156 66.893,484 66.5,484C65.362,484 62.621,484 61.482,484C61.089,484 60.712,484.156 60.434,484.434C60.156,484.712 60,485.089 60,485.482C60,485.749 60,486 60,486L63.028,486L63.028,488L64.972,488L64.972,486Z" style="fill:rgb(34,119,179);"/>
            </g>
        </g>
    </g>
</svg>
