<?xml version="1.0" encoding="UTF-8" standalone="no"?>
<!DOCTYPE svg PUBLIC "-//W3C//DTD SVG 1.1//EN" "http://www.w3.org/Graphics/SVG/1.1/DTD/svg11.dtd">
<svg width="100%" height="100%" viewBox="0 0 32 32" version="1.1" xmlns="http://www.w3.org/2000/svg" xmlns:xlink="http://www.w3.org/1999/xlink" xml:space="preserve" xmlns:serif="http://www.serif.com/" style="fill-rule:evenodd;clip-rule:evenodd;stroke-linejoin:round;stroke-miterlimit:2;">
    <g transform="matrix(1,0,0,1,-364,-413)">
        <g id="countdown_wysiwyg" transform="matrix(0.016,0,0,0.032,364,413)">
            <rect x="0" y="0" width="2000" height="1000" style="fill:none;"/>
            <g transform="matrix(53.5714,0,0,26.7857,-2428.58,-12785.7)">
                <path d="M77.999,507.677C77.999,508.296 77.753,508.89 77.316,509.327C76.878,509.765 76.284,510.011 75.666,510.011C70.392,510.011 57.606,510.011 52.332,510.011C51.713,510.011 51.12,509.765 50.682,509.327C50.245,508.89 49.999,508.296 49.999,507.677C49.999,502.404 49.999,489.616 49.999,484.342C49.999,483.723 50.245,483.13 50.682,482.692C51.12,482.254 51.713,482.009 52.332,482.009C57.606,482.009 70.392,482.009 75.666,482.009C76.284,482.009 76.878,482.254 77.316,482.692C77.753,483.13 77.999,483.723 77.999,484.342C77.999,489.616 77.999,502.404 77.999,507.677ZM63.999,489C68.966,489 72.999,493.033 72.999,498C72.999,502.967 68.966,507 63.999,507C59.032,507 54.999,502.967 54.999,498C54.999,493.033 59.032,489 63.999,489ZM63.999,491C67.862,491 70.999,494.137 70.999,498C70.999,501.863 67.862,505 63.999,505C60.136,505 56.999,501.863 56.999,498C56.999,494.137 60.136,491 63.999,491ZM64.999,493.423C64.999,493.178 64.894,492.943 64.706,492.77C64.519,492.597 64.265,492.5 63.999,492.5C63.999,492.5 63.999,492.5 63.998,492.5C63.733,492.5 63.479,492.597 63.292,492.77C63.104,492.943 62.999,493.178 62.999,493.423C62.999,494.841 62.999,497.159 62.999,498.577C62.999,498.822 63.104,499.057 63.292,499.23C63.479,499.403 63.733,499.5 63.998,499.5C63.999,499.5 63.999,499.5 63.999,499.5C64.265,499.5 64.519,499.403 64.706,499.23C64.894,499.057 64.999,498.822 64.999,498.577C64.999,497.159 64.999,494.841 64.999,493.423ZM68.976,488.8L73.199,493.023C73.199,493.023 73.376,492.846 73.565,492.657C73.843,492.379 73.999,492.002 73.999,491.609C73.999,491.216 73.843,490.839 73.565,490.561C72.76,489.756 72.243,489.239 71.438,488.434C71.16,488.156 70.783,488 70.39,488C69.997,488 69.62,488.156 69.342,488.434C69.153,488.623 68.976,488.8 68.976,488.8ZM64.972,486L67.982,486L67.982,485.482C67.982,485.089 67.826,484.712 67.548,484.434C67.27,484.156 66.893,484 66.5,484C65.362,484 62.621,484 61.482,484C61.089,484 60.712,484.156 60.434,484.434C60.156,484.712 60,485.089 60,485.482C60,485.749 60,486 60,486L63.028,486L63.028,488L64.972,488L64.972,486Z" style="fill:rgb(84,93,102);"/>
            </g>
        </g>
    </g>
</svg>
