<?xml version="1.0" encoding="UTF-8" standalone="no"?>
<!DOCTYPE svg PUBLIC "-//W3C//DTD SVG 1.1//EN" "http://www.w3.org/Graphics/SVG/1.1/DTD/svg11.dtd">
<svg width="100%" height="100%" viewBox="0 0 32 32" version="1.1" xmlns="http://www.w3.org/2000/svg" xmlns:xlink="http://www.w3.org/1999/xlink" xml:space="preserve" xmlns:serif="http://www.serif.com/" style="fill-rule:evenodd;clip-rule:evenodd;stroke-linejoin:round;stroke-miterlimit:2;">
    <g transform="matrix(1,0,0,1,-220,-192)">
        <g id="date" transform="matrix(0.016,0,0,0.032,220,192)">
            <rect x="0" y="0" width="2000" height="1000" style="fill:none;"/>
            <g transform="matrix(60.7682,0,0,30.3819,-5806.04,-14569.4)">
                <path d="M126.398,508.352C126.398,508.898 126.181,509.421 125.795,509.807C125.41,510.193 124.886,510.41 124.341,510.41L99.657,510.41C99.111,510.41 98.588,510.193 98.202,509.807C97.817,509.421 97.6,508.898 97.6,508.352L97.6,483.667C97.6,483.121 97.817,482.598 98.202,482.212C98.588,481.826 99.111,481.61 99.657,481.61L124.341,481.61C124.886,481.61 125.41,481.826 125.795,482.212C126.181,482.598 126.398,483.121 126.398,483.667L126.398,508.352ZM123.314,508.343C123.586,508.343 123.848,508.234 124.041,508.041C124.234,507.848 124.342,507.587 124.342,507.314L124.342,484.685C124.342,484.117 123.882,483.657 123.314,483.657C122.095,483.657 120.228,483.657 120.228,483.657L120.228,486.301C120.228,486.699 120.07,487.081 119.789,487.362C119.507,487.643 119.083,487.801 118.685,487.801C118.287,487.801 117.863,487.643 117.582,487.362C117.301,487.081 117.143,486.699 117.143,486.301L117.143,483.657L106.885,483.657L106.885,486.301C106.885,486.699 106.727,487.081 106.446,487.362C106.165,487.643 105.713,487.801 105.315,487.801C104.917,487.801 104.493,487.643 104.211,487.362C103.93,487.081 103.772,486.699 103.772,486.301L103.772,483.657L100.687,483.657C100.119,483.657 99.658,484.117 99.658,484.685C99.658,488.701 99.658,503.298 99.658,507.314C99.658,507.587 99.766,507.848 99.959,508.041C100.152,508.234 100.414,508.343 100.687,508.343L123.314,508.343ZM122.302,489.828L122.302,506.285L101.715,506.285L101.715,489.828L122.302,489.828Z" style="fill:rgb(29,29,29);"/>
            </g>
        </g>
    </g>
</svg>
