<?xml version="1.0" encoding="UTF-8" standalone="no"?>
<!DOCTYPE svg PUBLIC "-//W3C//DTD SVG 1.1//EN" "http://www.w3.org/Graphics/SVG/1.1/DTD/svg11.dtd">
<svg width="100%" height="100%" viewBox="0 0 32 32" version="1.1" xmlns="http://www.w3.org/2000/svg" xmlns:xlink="http://www.w3.org/1999/xlink" xml:space="preserve" xmlns:serif="http://www.serif.com/" style="fill-rule:evenodd;clip-rule:evenodd;stroke-linejoin:round;stroke-miterlimit:2;">
    <g transform="matrix(1,0,0,1,-220,-461)">
        <g id="date_wysiwyg" transform="matrix(0.016,0,0,0.032,220,461)">
            <rect x="0" y="0" width="2000" height="1000" style="fill:none;"/>
            <g transform="matrix(52.087,0,0,26.0417,-4833.76,-12416.6)">
                <path d="M126.398,508.01C126.398,508.646 126.145,509.257 125.695,509.707C125.245,510.157 124.635,510.41 123.998,510.41C118.575,510.41 105.423,510.41 100,510.41C99.363,510.41 98.753,510.157 98.303,509.707C97.853,509.257 97.6,508.646 97.6,508.01C97.6,502.586 97.6,489.434 97.6,484.01C97.6,483.373 97.853,482.763 98.303,482.313C98.753,481.862 99.363,481.61 100,481.61C105.423,481.61 118.575,481.61 123.998,481.61C124.635,481.61 125.245,481.862 125.695,482.313C126.145,482.763 126.398,483.373 126.398,484.01L126.398,508.01ZM123.142,508.343C123.805,508.343 124.342,507.805 124.342,507.143L124.342,484.857C124.342,484.194 123.805,483.657 123.142,483.657C121.928,483.657 120.228,483.657 120.228,483.657L120.228,486.301C120.228,486.699 120.07,487.081 119.789,487.362C119.507,487.643 119.083,487.801 118.685,487.801C118.287,487.801 117.863,487.643 117.582,487.362C117.301,487.081 117.143,486.699 117.143,486.301L117.143,483.657L106.885,483.657L106.885,486.301C106.885,486.699 106.727,487.081 106.446,487.362C106.165,487.643 105.713,487.801 105.315,487.801C104.917,487.801 104.493,487.643 104.211,487.362C103.93,487.081 103.772,486.699 103.772,486.301L103.772,483.657L100.858,483.657C100.195,483.657 99.658,484.194 99.658,484.857C99.658,489.041 99.658,502.958 99.658,507.143C99.658,507.805 100.195,508.343 100.858,508.343L123.142,508.343ZM122.302,489.828L122.302,506.285L101.715,506.285L101.715,489.828L122.302,489.828Z" style="fill:rgb(84,93,102);"/>
            </g>
        </g>
    </g>
</svg>
