<?xml version="1.0" encoding="UTF-8" standalone="no"?>
<!DOCTYPE svg PUBLIC "-//W3C//DTD SVG 1.1//EN" "http://www.w3.org/Graphics/SVG/1.1/DTD/svg11.dtd">
<svg width="100%" height="100%" viewBox="0 0 32 32" version="1.1" xmlns="http://www.w3.org/2000/svg" xmlns:xlink="http://www.w3.org/1999/xlink" xml:space="preserve" xmlns:serif="http://www.serif.com/" style="fill-rule:evenodd;clip-rule:evenodd;stroke-linejoin:round;stroke-miterlimit:2;">
    <g transform="matrix(1,0,0,1,-316,-317)">
        <g id="hero_wysiwyg" transform="matrix(0.016,0,0,0.032,316,317)">
            <rect x="0" y="0" width="2000" height="1000" style="fill:none;"/>
            <g transform="matrix(1.6875,0,0,0.84375,156.25,-3212.5)">
                <path d="M74.074,4775C33.164,4775 0,4741.84 0,4700.93C0,4557.34 0,4242.66 0,4099.07C0,4058.16 33.164,4025 74.074,4025C259.259,4025 740.741,4025 925.926,4025C966.836,4025 1000,4058.16 1000,4099.07C1000,4242.66 1000,4557.34 1000,4700.93C1000,4741.84 966.836,4775 925.926,4775C740.741,4775 259.259,4775 74.074,4775ZM741.746,4423.78C831.66,4432.5 893.488,4445.92 937.4,4462.15C937.4,4462.15 937.4,4219.35 937.4,4124.82C937.4,4104.36 920.818,4087.78 900.363,4087.78C757.402,4087.78 242.398,4087.78 99.437,4087.78C78.982,4087.78 62.4,4104.36 62.4,4124.82C62.4,4219.36 62.4,4462.22 62.4,4462.22C106.297,4445.96 168.207,4432.51 258.254,4423.78C286.519,4316.72 384.102,4237.68 500,4237.68C615.898,4237.68 713.481,4316.72 741.746,4423.78ZM660.33,4417.48C633.26,4355.81 571.626,4312.68 500,4312.68C428.374,4312.68 366.74,4355.81 339.67,4417.48C390.007,4414.5 445.475,4412.88 499.997,4412.88C554.52,4412.88 609.992,4414.5 660.33,4417.48Z" style="fill:rgb(84,93,102);"/>
            </g>
        </g>
    </g>
</svg>
