<?xml version="1.0" encoding="UTF-8" standalone="no"?>
<!DOCTYPE svg PUBLIC "-//W3C//DTD SVG 1.1//EN" "http://www.w3.org/Graphics/SVG/1.1/DTD/svg11.dtd">
<svg width="100%" height="100%" viewBox="0 0 32 32" version="1.1" xmlns="http://www.w3.org/2000/svg" xmlns:xlink="http://www.w3.org/1999/xlink" xml:space="preserve" xmlns:serif="http://www.serif.com/" style="fill-rule:evenodd;clip-rule:evenodd;stroke-linejoin:round;stroke-miterlimit:2;">
    <g transform="matrix(1,0,0,1,-316,-49)">
        <g id="hero" transform="matrix(0.016,0,0,0.032,316,49)">
            <rect x="0" y="0" width="2000" height="1000" style="fill:none;"/>
            <clipPath id="_clip1">
                <rect x="0" y="0" width="2000" height="1000"/>
            </clipPath>
            <g clip-path="url(#_clip1)">
                <g transform="matrix(2,0,0,1,-6.36646e-12,-3900)">
                    <path d="M62.5,4775C45.924,4775 30.027,4768.41 18.306,4756.69C6.585,4744.97 -0,4729.08 0,4712.5C0,4571.25 0,4228.75 0,4087.5C-0,4070.92 6.585,4055.03 18.306,4043.31C30.027,4031.59 45.924,4025 62.5,4025C242.047,4025 757.953,4025 937.5,4025C954.076,4025 969.973,4031.59 981.694,4043.31C993.415,4055.03 1000,4070.92 1000,4087.5C1000,4228.75 1000,4571.25 1000,4712.5C1000,4729.08 993.415,4744.97 981.694,4756.69C969.973,4768.41 954.076,4775 937.5,4775C757.953,4775 242.047,4775 62.5,4775ZM741.746,4423.78C831.66,4432.5 893.488,4445.92 937.4,4462.15C937.4,4462.15 937.4,4208.98 937.4,4119.03C937.4,4101.77 923.409,4087.78 906.15,4087.78C770.05,4087.78 229.75,4087.78 93.65,4087.78C76.391,4087.78 62.4,4101.77 62.4,4119.03C62.4,4209 62.4,4462.22 62.4,4462.22C106.297,4445.96 168.207,4432.51 258.254,4423.78C286.519,4316.72 384.102,4237.68 500,4237.68C615.898,4237.68 713.481,4316.72 741.746,4423.78ZM660.33,4417.48C633.26,4355.81 571.626,4312.68 500,4312.68C428.374,4312.68 366.74,4355.81 339.67,4417.48C390.007,4414.5 445.475,4412.88 499.997,4412.88C554.52,4412.88 609.992,4414.5 660.33,4417.48Z" style="fill:rgb(29,29,29);"/>
                </g>
            </g>
        </g>
    </g>
</svg>
