<?xml version="1.0" encoding="UTF-8" standalone="no"?>
<!DOCTYPE svg PUBLIC "-//W3C//DTD SVG 1.1//EN" "http://www.w3.org/Graphics/SVG/1.1/DTD/svg11.dtd">
<svg width="100%" height="100%" viewBox="0 0 32 32" version="1.1" xmlns="http://www.w3.org/2000/svg" xmlns:xlink="http://www.w3.org/1999/xlink" xml:space="preserve" xmlns:serif="http://www.serif.com/" style="fill-rule:evenodd;clip-rule:evenodd;stroke-linejoin:round;stroke-miterlimit:2;">
    <g transform="matrix(1,0,0,1,-220,-317)">
        <g id="menu_wysiwyg" transform="matrix(0.016,0,0,0.032,220,317)">
            <rect x="0" y="0" width="2000" height="1000" style="fill:none;"/>
            <g transform="matrix(1.66667,0,0,0.833333,166.524,-3077.72)">
                <g id="B">
                    <path d="M949.965,4571.93C949.965,4591.82 942.063,4610.9 927.998,4624.96C913.932,4639.03 894.856,4646.93 874.964,4646.93C705.466,4646.93 294.464,4646.93 124.966,4646.93C105.074,4646.93 85.998,4639.03 71.932,4624.96C57.867,4610.9 49.965,4591.82 49.965,4571.93C49.965,4517.75 49.965,4454.07 49.965,4454.07L949.965,4454.07L949.965,4571.93ZM949.965,4389.96L49.965,4389.96L49.965,4196.75L949.965,4196.75L949.965,4389.96ZM949.965,4132.82L49.965,4132.82C49.965,4132.82 49.965,4068.91 49.965,4014.61C49.965,3994.72 57.867,3975.64 71.932,3961.57C85.998,3947.51 105.074,3939.61 124.966,3939.61C294.464,3939.61 705.466,3939.61 874.964,3939.61C894.856,3939.61 913.932,3947.51 927.998,3961.57C942.063,3975.64 949.965,3994.72 949.965,4014.61C949.965,4068.91 949.965,4132.82 949.965,4132.82Z" style="fill:rgb(84,93,102);"/>
                </g>
            </g>
        </g>
    </g>
</svg>
