<?xml version="1.0" encoding="UTF-8" standalone="no"?>
<!DOCTYPE svg PUBLIC "-//W3C//DTD SVG 1.1//EN" "http://www.w3.org/Graphics/SVG/1.1/DTD/svg11.dtd">
<svg width="100%" height="100%" viewBox="0 0 32 32" version="1.1" xmlns="http://www.w3.org/2000/svg" xmlns:xlink="http://www.w3.org/1999/xlink" xml:space="preserve" xmlns:serif="http://www.serif.com/" style="fill-rule:evenodd;clip-rule:evenodd;stroke-linejoin:round;stroke-miterlimit:2;">
    <g transform="matrix(1,0,0,1,-316,-193)">
        <g id="metric" transform="matrix(0.016,0,0,0.032,316,193)">
            <rect x="0" y="0" width="2000" height="1000" style="fill:none;"/>
            <g transform="matrix(60.7682,0,0,30.3841,-8722.85,-7279.11)">
                <path d="M145.601,243.693C145.601,242.557 146.522,241.637 147.658,241.637C152.959,241.637 167.039,241.637 172.34,241.637C172.885,241.637 173.409,241.853 173.794,242.239C174.18,242.625 174.397,243.148 174.397,243.694C174.397,248.995 174.397,263.077 174.397,268.378C174.397,268.924 174.18,269.447 173.794,269.833C173.409,270.219 172.885,270.435 172.34,270.435C167.039,270.435 152.957,270.435 147.656,270.435C147.111,270.435 146.587,270.219 146.202,269.833C145.816,269.447 145.599,268.924 145.599,268.378C145.6,263.077 145.601,248.994 145.601,243.693ZM164.081,251.888L164.081,248.836C164.081,248.268 163.621,247.807 163.053,247.807C162.485,247.807 162.024,248.268 162.024,248.836C162.024,250.045 162.024,251.888 162.024,251.888L157.974,251.878L157.974,248.826C157.974,248.258 157.513,247.798 156.945,247.798C156.377,247.798 155.917,248.258 155.917,248.826C155.917,250.035 155.917,251.878 155.917,251.878C155.917,251.878 154.006,251.882 152.771,251.885C152.204,251.887 151.745,252.347 151.745,252.914C151.745,252.93 151.745,252.946 151.745,252.962C151.745,253.235 151.854,253.497 152.047,253.69C152.241,253.883 152.503,253.991 152.776,253.99C154.011,253.987 155.917,253.983 155.917,253.983L155.917,258.081C155.917,258.081 154.003,258.085 152.768,258.088C152.203,258.09 151.745,258.548 151.745,259.114C151.745,259.114 151.745,259.115 151.745,259.115C151.745,259.387 151.853,259.648 152.046,259.841C152.239,260.033 152.5,260.141 152.773,260.14C153.999,260.137 155.885,260.133 155.885,260.133L155.885,263.215C155.885,263.783 156.345,264.244 156.913,264.244C156.924,264.244 156.935,264.244 156.945,264.244C157.513,264.244 157.974,263.783 157.974,263.215C157.974,261.998 157.974,260.133 157.974,260.133L162.024,260.143L162.024,263.225C162.024,263.793 162.485,264.254 163.053,264.254C163.621,264.254 164.081,263.793 164.081,263.225C164.081,262.007 164.081,260.143 164.081,260.143L167.162,260.143C167.728,260.143 168.187,259.684 168.187,259.117C168.187,259.117 168.187,259.117 168.187,259.116C168.187,258.55 167.728,258.091 167.162,258.091C165.946,258.091 164.081,258.091 164.081,258.091L164.081,253.993L167.159,253.993C167.432,253.993 167.693,253.884 167.886,253.691C168.079,253.498 168.187,253.237 168.187,252.964C168.187,252.948 168.187,252.932 168.187,252.916C168.187,252.643 168.079,252.382 167.886,252.189C167.693,251.996 167.432,251.888 167.159,251.888C165.943,251.888 164.081,251.888 164.081,251.888ZM162.024,253.993L162.024,258.091L157.974,258.07L157.974,253.983L162.024,253.993Z" style="fill:rgb(29,29,29);"/>
            </g>
        </g>
    </g>
</svg>
