<?xml version="1.0" encoding="UTF-8" standalone="no"?>
<!DOCTYPE svg PUBLIC "-//W3C//DTD SVG 1.1//EN" "http://www.w3.org/Graphics/SVG/1.1/DTD/svg11.dtd">
<svg width="100%" height="100%" viewBox="0 0 32 32" version="1.1" xmlns="http://www.w3.org/2000/svg" xmlns:xlink="http://www.w3.org/1999/xlink" xml:space="preserve" xmlns:serif="http://www.serif.com/" style="fill-rule:evenodd;clip-rule:evenodd;stroke-linejoin:round;stroke-miterlimit:2;">
    <g transform="matrix(1,0,0,1,-316,-461)">
        <g id="metric_wysiwyg" transform="matrix(0.016,0,0,0.032,316,461)">
            <rect x="0" y="0" width="2000" height="1000" style="fill:none;"/>
            <g transform="matrix(52.087,0,0,26.0435,-7333.88,-6167.76)">
                <path d="M145.601,244.036C145.601,242.711 146.675,241.637 148.001,241.637C153.424,241.637 166.574,241.637 171.997,241.637C172.634,241.637 173.244,241.889 173.694,242.339C174.144,242.789 174.397,243.4 174.397,244.036C174.397,249.46 174.397,262.612 174.397,268.036C174.397,268.672 174.144,269.283 173.694,269.733C173.244,270.183 172.634,270.435 171.997,270.435C166.574,270.435 153.423,270.435 147.999,270.435C147.362,270.435 146.752,270.183 146.302,269.733C145.852,269.282 145.599,268.672 145.599,268.035C145.6,262.612 145.601,249.46 145.601,244.036ZM164.081,251.888L164.081,248.836C164.081,248.563 163.973,248.302 163.78,248.109C163.587,247.916 163.326,247.807 163.053,247.807C163.053,247.807 163.053,247.807 163.053,247.807C162.78,247.807 162.518,247.916 162.325,248.109C162.133,248.302 162.024,248.563 162.024,248.836C162.024,250.045 162.024,251.888 162.024,251.888L157.974,251.878L157.974,248.826C157.974,248.553 157.865,248.292 157.673,248.099C157.48,247.906 157.218,247.798 156.945,247.798C156.945,247.798 156.945,247.798 156.945,247.798C156.672,247.798 156.411,247.906 156.218,248.099C156.025,248.292 155.917,248.553 155.917,248.826C155.917,250.035 155.917,251.878 155.917,251.878C155.917,251.878 154.029,251.882 152.794,251.885C152.214,251.887 151.745,252.357 151.745,252.936C151.745,252.937 151.745,252.937 151.745,252.938C151.745,253.217 151.856,253.485 152.054,253.683C152.252,253.88 152.52,253.991 152.8,253.99C154.036,253.987 155.917,253.983 155.917,253.983L155.917,258.081C155.917,258.081 154.002,258.085 152.767,258.088C152.202,258.09 151.745,258.548 151.745,259.113C151.745,259.114 151.745,259.114 151.745,259.114C151.745,259.387 151.853,259.648 152.046,259.841C152.239,260.033 152.501,260.141 152.773,260.14C153.999,260.137 155.885,260.133 155.885,260.133L155.885,263.2C155.885,263.477 155.995,263.742 156.191,263.938C156.387,264.134 156.652,264.244 156.929,264.244C156.929,264.244 156.93,264.244 156.93,264.244C157.207,264.244 157.472,264.134 157.668,263.938C157.864,263.742 157.974,263.477 157.974,263.2C157.974,261.982 157.974,260.133 157.974,260.133L162.024,260.143L162.024,263.225C162.024,263.498 162.133,263.76 162.325,263.952C162.518,264.145 162.78,264.254 163.053,264.254C163.053,264.254 163.053,264.254 163.053,264.254C163.326,264.254 163.587,264.145 163.78,263.952C163.973,263.76 164.081,263.498 164.081,263.225C164.081,262.008 164.081,260.143 164.081,260.143L167.161,260.143C167.728,260.143 168.187,259.683 168.187,259.117C168.187,259.117 168.187,259.117 168.187,259.117C168.187,258.55 167.728,258.091 167.161,258.091C165.945,258.091 164.081,258.091 164.081,258.091L164.081,253.993L167.135,253.993C167.414,253.993 167.682,253.882 167.879,253.684C168.076,253.487 168.187,253.219 168.187,252.94L168.187,252.94C168.187,252.359 167.716,251.888 167.135,251.888L164.081,251.888ZM162.024,253.993L162.024,258.091L157.974,258.07L157.974,253.983L162.024,253.993Z" style="fill:rgb(84,93,102);"/>
            </g>
        </g>
    </g>
</svg>
