<?xml version="1.0" encoding="UTF-8" standalone="no"?>
<!DOCTYPE svg PUBLIC "-//W3C//DTD SVG 1.1//EN" "http://www.w3.org/Graphics/SVG/1.1/DTD/svg11.dtd">
<svg width="100%" height="100%" viewBox="0 0 32 32" version="1.1" xmlns="http://www.w3.org/2000/svg" xmlns:xlink="http://www.w3.org/1999/xlink" xml:space="preserve" xmlns:serif="http://www.serif.com/" style="fill-rule:evenodd;clip-rule:evenodd;stroke-linejoin:round;stroke-miterlimit:2;">
    <g transform="matrix(1,0,0,1,-316,-193)">
        <g id="metric" transform="matrix(0.016,0,0,0.032,316,193)">
            <rect x="0" y="0" width="2000" height="1000" style="fill:none;"/>
            <g transform="matrix(60.7682,0,0,30.3841,-8722.85,-7279.11)">
                <path d="M145.601,243.693C145.601,242.557 146.522,241.637 147.658,241.637C152.959,241.637 167.039,241.637 172.34,241.637C172.885,241.637 173.409,241.853 173.794,242.239C174.18,242.625 174.397,243.148 174.397,243.694C174.397,248.995 174.397,263.077 174.397,268.378C174.397,268.924 174.18,269.447 173.794,269.833C173.409,270.219 172.885,270.435 172.34,270.435C167.039,270.435 152.957,270.435 147.656,270.435C147.111,270.435 146.587,270.219 146.202,269.833C145.816,269.447 145.599,268.924 145.599,268.378C145.6,263.077 145.601,248.994 145.601,243.693ZM164.081,251.888L164.081,247.807L162.024,247.807L162.024,251.888L158.556,251.878L158.556,247.798L156.499,247.798L156.499,251.878L152.773,251.888L152.773,253.993L156.499,253.983L156.499,257.052L152.773,257.062L152.773,259.114L156.467,259.104L156.467,263.215L158.556,263.215L158.556,259.104L162.024,259.114L162.024,263.225L164.081,263.225L164.081,259.114L167.159,259.114L167.159,257.062L164.081,257.062L164.081,253.993L167.159,253.993L167.159,251.888L164.081,251.888ZM162.024,253.993L162.024,257.062L158.556,257.041L158.556,253.983L162.024,253.993Z" style="fill:rgb(34,119,179);"/>
            </g>
        </g>
    </g>
</svg>
