<?xml version="1.0" encoding="UTF-8" standalone="no"?>
<!DOCTYPE svg PUBLIC "-//W3C//DTD SVG 1.1//EN" "http://www.w3.org/Graphics/SVG/1.1/DTD/svg11.dtd">
<svg width="100%" height="100%" viewBox="0 0 32 32" version="1.1" xmlns="http://www.w3.org/2000/svg" xmlns:xlink="http://www.w3.org/1999/xlink" xml:space="preserve" xmlns:serif="http://www.serif.com/" style="fill-rule:evenodd;clip-rule:evenodd;stroke-linejoin:round;stroke-miterlimit:2;">
    <g transform="matrix(1,0,0,1,-220,-365)">
        <g id="notice_wysiwyg" transform="matrix(0.016,0,0,0.032,220,365)">
            <rect x="0" y="0" width="2000" height="1000" style="fill:none;"/>
            <g transform="matrix(52.7344,0,0,26.3672,156.25,-4984.38)">
                <path d="M2.37,220C1.061,220 0,218.939 0,217.63C0,213.035 0,202.965 0,198.37C0,197.061 1.061,196 2.37,196C8.296,196 23.704,196 29.63,196C30.939,196 32,197.061 32,198.37C32,202.965 32,213.035 32,217.63C32,218.939 30.939,220 29.63,220C23.704,220 8.296,220 2.37,220ZM16.815,215.98C17.47,215.98 18,215.45 18,214.795C18,214.588 18,214.373 18,214.165C18,213.511 17.47,212.98 16.815,212.98C16.301,212.98 15.7,212.98 15.185,212.98C14.531,212.98 14,213.511 14,214.165C14,214.373 14,214.588 14,214.795C14,215.45 14.531,215.98 15.185,215.98C15.7,215.98 16.301,215.98 16.815,215.98ZM16.815,210.517C17.469,210.517 18,209.987 18,209.332C18,207.305 18,203.193 18,201.166C18,200.851 17.875,200.55 17.653,200.327C17.431,200.105 17.129,199.98 16.815,199.98C16.301,199.98 15.699,199.98 15.185,199.98C14.871,199.98 14.569,200.105 14.347,200.327C14.125,200.55 14,200.851 14,201.166C14,203.193 14,207.305 14,209.332C14,209.987 14.531,210.517 15.185,210.517C15.699,210.517 16.301,210.517 16.815,210.517Z" style="fill:rgb(84,93,102);"/>
            </g>
        </g>
    </g>
</svg>
