<?xml version="1.0" encoding="UTF-8" standalone="no"?>
<!DOCTYPE svg PUBLIC "-//W3C//DTD SVG 1.1//EN" "http://www.w3.org/Graphics/SVG/1.1/DTD/svg11.dtd">
<svg width="100%" height="100%" viewBox="0 0 32 32" version="1.1" xmlns="http://www.w3.org/2000/svg" xmlns:xlink="http://www.w3.org/1999/xlink" xml:space="preserve" xmlns:serif="http://www.serif.com/" style="fill-rule:evenodd;clip-rule:evenodd;stroke-linejoin:round;stroke-miterlimit:2;">
    <g transform="matrix(1,0,0,1,-220,-96)">
        <g id="notice" transform="matrix(0.016,0,0,0.032,220,96)">
            <rect x="0" y="0" width="2000" height="1000" style="fill:none;"/>
            <clipPath id="_clip1">
                <rect x="0" y="0" width="2000" height="1000"/>
            </clipPath>
            <g clip-path="url(#_clip1)">
                <g transform="matrix(62.5,0,0,31.25,0,-6000)">
                    <path d="M2,220C1.47,220 0.961,219.789 0.586,219.414C0.211,219.039 -0,218.53 0,218C0,213.48 0,202.52 0,198C-0,197.47 0.211,196.961 0.586,196.586C0.961,196.211 1.47,196 2,196C7.746,196 24.254,196 30,196C30.53,196 31.039,196.211 31.414,196.586C31.789,196.961 32,197.47 32,198C32,202.52 32,213.48 32,218C32,218.53 31.789,219.039 31.414,219.414C31.039,219.789 30.53,220 30,220C24.254,220 7.746,220 2,220ZM17,215.98C17.552,215.98 18,215.533 18,214.98C18,214.659 18,214.302 18,213.98C18,213.428 17.552,212.98 17,212.98C16.389,212.98 15.611,212.98 15,212.98C14.448,212.98 14,213.428 14,213.98C14,214.302 14,214.659 14,214.98C14,215.533 14.448,215.98 15,215.98C15.611,215.98 16.389,215.98 17,215.98ZM17,210.517C17.552,210.517 18,210.07 18,209.517C18,207.506 18,202.992 18,200.98C18,200.715 17.895,200.461 17.707,200.273C17.52,200.086 17.265,199.98 17,199.98C16.389,199.98 15.611,199.98 15,199.98C14.735,199.98 14.48,200.086 14.293,200.273C14.105,200.461 14,200.715 14,200.98C14,202.992 14,207.506 14,209.517C14,210.07 14.448,210.517 15,210.517C15.611,210.517 16.389,210.517 17,210.517Z" style="fill:rgb(29,29,29);"/>
                </g>
            </g>
        </g>
    </g>
</svg>
