<?xml version="1.0" encoding="UTF-8" standalone="no"?>
<!DOCTYPE svg PUBLIC "-//W3C//DTD SVG 1.1//EN" "http://www.w3.org/Graphics/SVG/1.1/DTD/svg11.dtd">
<svg width="100%" height="100%" viewBox="0 0 32 32" version="1.1" xmlns="http://www.w3.org/2000/svg" xmlns:xlink="http://www.w3.org/1999/xlink" xml:space="preserve" xmlns:serif="http://www.serif.com/" style="fill-rule:evenodd;clip-rule:evenodd;stroke-linejoin:round;stroke-miterlimit:2;">
    <g transform="matrix(1,0,0,1,-268,-317)">
        <g id="panel_wysiwyg" transform="matrix(0.016,0,0,0.032,268,317)">
            <rect x="0" y="0" width="2000" height="1000" style="fill:none;"/>
            <g transform="matrix(-1.0333e-16,0.84375,1.6875,5.16648e-17,-8451.86,78.125)">
                <g id="B">
                    <path d="M800.926,6101.1C841.836,6101.1 875,6067.94 875,6027.03C875,5841.84 875,5360.36 875,5175.17C875,5134.26 841.836,5101.1 800.926,5101.1C657.339,5101.1 342.661,5101.1 199.074,5101.1C158.164,5101.1 125,5134.26 125,5175.17C125,5360.36 125,5841.84 125,6027.03C125,6067.94 158.164,6101.1 199.074,6101.1C342.661,6101.1 657.339,6101.1 800.926,6101.1ZM812.5,5601.1L187.5,5601.1C187.5,5601.1 187.5,5895.99 187.5,6001.56C187.5,6022.02 204.082,6038.6 224.537,6038.6C335.514,6038.6 664.486,6038.6 775.463,6038.6C795.918,6038.6 812.5,6022.02 812.5,6001.56C812.5,5895.99 812.5,5601.1 812.5,5601.1Z" style="fill:rgb(84,93,102);"/>
                </g>
            </g>
        </g>
    </g>
</svg>
