<?xml version="1.0" encoding="UTF-8" standalone="no"?>
<!DOCTYPE svg PUBLIC "-//W3C//DTD SVG 1.1//EN" "http://www.w3.org/Graphics/SVG/1.1/DTD/svg11.dtd">
<svg width="100%" height="100%" viewBox="0 0 32 32" version="1.1" xmlns="http://www.w3.org/2000/svg" xmlns:xlink="http://www.w3.org/1999/xlink" xml:space="preserve" xmlns:serif="http://www.serif.com/" style="fill-rule:evenodd;clip-rule:evenodd;stroke-linejoin:round;stroke-miterlimit:2;">
    <g transform="matrix(1,0,0,1,-268,-461)">
        <g id="promo_wysiwyg" transform="matrix(0.016,0,0,0.032,268,461)">
            <rect x="0" y="0" width="2000" height="1000" style="fill:none;"/>
            <g transform="matrix(52.7344,0,0,26.3672,156.25,-13846.2)">
                <path d="M15,533L15,531.628C15,531.196 15.17,530.782 15.473,530.477C15.776,530.172 16.186,530 16.614,530L28.386,530C28.814,530 29.224,530.172 29.527,530.477C29.83,530.782 30,531.196 30,531.628L30,533L15,533L15,551.372C15,551.804 15.17,552.218 15.473,552.523C15.776,552.828 16.186,553 16.614,553L28.386,553C28.814,553 29.225,552.828 29.527,552.523C29.83,552.218 30,551.804 30,551.372L30,533L30.002,533C30.532,533 31.04,533.211 31.415,533.585C31.789,533.96 32,534.468 32,534.998C32,539.398 32,549.906 32,554.63C32,555.939 30.939,557 29.63,557C23.704,557 8.296,557 2.37,557C1.061,557 0,555.939 0,554.63C0,550.035 0,539.965 0,535.37C0,534.742 0.25,534.139 0.694,533.694C1.139,533.25 1.742,533 2.37,533C6.598,533 15,533 15,533Z" style="fill:rgb(84,93,102);"/>
            </g>
        </g>
    </g>
</svg>
