<?xml version="1.0" encoding="UTF-8" standalone="no"?>
<!DOCTYPE svg PUBLIC "-//W3C//DTD SVG 1.1//EN" "http://www.w3.org/Graphics/SVG/1.1/DTD/svg11.dtd">
<svg width="100%" height="100%" viewBox="0 0 32 32" version="1.1" xmlns="http://www.w3.org/2000/svg" xmlns:xlink="http://www.w3.org/1999/xlink" xml:space="preserve" xmlns:serif="http://www.serif.com/" style="fill-rule:evenodd;clip-rule:evenodd;stroke-linejoin:round;stroke-miterlimit:2;">
    <g transform="matrix(1,0,0,1,-316,-365)">
        <g id="quote_wysiwyg" transform="matrix(0.016,0,0,0.032,316,365)">
            <rect x="0" y="0" width="2000" height="1000" style="fill:none;"/>
            <g transform="matrix(69.1615,0,0,34.3632,-5086.29,-6843.89)">
                <path d="M78.719,208.157C79.514,206.789 80.996,205.868 82.691,205.868C85.224,205.868 87.281,207.925 87.281,210.458C87.281,212.309 86.183,213.906 84.603,214.632C81.403,216.101 80.406,218.505 80.748,220.747C80.803,221.153 80.569,221.543 80.187,221.685C79.805,221.827 79.376,221.683 79.154,221.339C76.706,217.451 76.449,212.065 78.719,208.157ZM90.283,208.157C91.077,206.789 92.559,205.868 94.254,205.868C96.788,205.868 98.844,207.925 98.844,210.458C98.844,212.309 97.746,213.906 96.166,214.632C92.966,216.101 91.969,218.505 92.311,220.747C92.366,221.153 92.132,221.543 91.75,221.685C91.368,221.827 90.939,221.683 90.718,221.339C88.27,217.451 88.012,212.065 90.283,208.157Z" style="fill:rgb(84,93,102);"/>
            </g>
        </g>
    </g>
</svg>
