<?xml version="1.0" encoding="UTF-8" standalone="no"?>
<!DOCTYPE svg PUBLIC "-//W3C//DTD SVG 1.1//EN" "http://www.w3.org/Graphics/SVG/1.1/DTD/svg11.dtd">
<svg width="100%" height="100%" viewBox="0 0 32 32" version="1.1" xmlns="http://www.w3.org/2000/svg" xmlns:xlink="http://www.w3.org/1999/xlink" xml:space="preserve" xmlns:serif="http://www.serif.com/" style="fill-rule:evenodd;clip-rule:evenodd;stroke-linejoin:round;stroke-miterlimit:2;">
    <g transform="matrix(1,0,0,1,-316,-96)">
        <g id="quote" transform="matrix(0.016,0,0,0.032,316,96)">
            <rect x="0" y="0" width="2000" height="1000" style="fill:none;"/>
            <g transform="matrix(80.6884,0,0,40.0903,-6100.66,-8080.98)">
                <path d="M78.719,208.157C79.514,206.789 80.996,205.868 82.691,205.868C85.224,205.868 87.281,207.925 87.281,210.458C87.281,212.309 86.183,213.906 84.603,214.632C81.146,216.219 80.26,218.897 80.856,221.283C80.942,221.633 80.769,221.994 80.444,222.145C80.119,222.295 79.733,222.192 79.525,221.9C76.738,217.982 76.338,212.256 78.719,208.157ZM90.283,208.157C91.077,206.789 92.559,205.868 94.254,205.868C96.788,205.868 98.844,207.925 98.844,210.458C98.844,212.309 97.746,213.906 96.166,214.632C92.709,216.219 91.823,218.897 92.419,221.283C92.505,221.633 92.332,221.994 92.007,222.145C91.682,222.295 91.296,222.192 91.088,221.9C88.301,217.982 87.901,212.256 90.283,208.157Z" style="fill:rgb(29,29,29);"/>
            </g>
        </g>
    </g>
</svg>
