<?xml version="1.0" encoding="UTF-8" standalone="no"?>
<!DOCTYPE svg PUBLIC "-//W3C//DTD SVG 1.1//EN" "http://www.w3.org/Graphics/SVG/1.1/DTD/svg11.dtd">
<svg width="100%" height="100%" viewBox="0 0 32 32" version="1.1" xmlns="http://www.w3.org/2000/svg" xmlns:xlink="http://www.w3.org/1999/xlink" xml:space="preserve" xmlns:serif="http://www.serif.com/" style="fill-rule:evenodd;clip-rule:evenodd;stroke-linejoin:round;stroke-miterlimit:2;">
    <g transform="matrix(1,0,0,1,-316,-145)">
        <g id="share-bar" transform="matrix(0.016,0,0,0.032,316,145)">
            <rect x="0" y="0" width="2000" height="1000" style="fill:none;"/>
            <g transform="matrix(62.5,0,0,31.25,-19750,-4531.25)">
                <path d="M332.529,165.009L341,156.538L341,173C341,173.53 340.789,174.039 340.414,174.414C340.039,174.789 339.53,175 339,175C334.481,175 324.523,175 320.004,175C319.474,175 318.965,174.789 318.59,174.414C318.215,174.039 318.004,173.53 318.004,173C318.004,168.48 318.004,158.52 318.004,154C318.004,153.47 318.215,152.961 318.59,152.586C318.965,152.211 319.474,152 320.004,152C324.969,152 336.462,152 336.462,152L327.973,160.489C327.796,160.632 327.274,161.274 327.274,161.274C326.957,161.773 326.773,162.365 326.773,163C326.773,164.782 328.22,166.229 330.002,166.229C330.637,166.229 331.229,166.045 331.728,165.728C331.728,165.728 332.376,165.201 332.529,165.009Z" style="fill:rgb(29,29,29);"/>
            </g>
            <g transform="matrix(283.073,-141.537,41.6301,20.8151,-99845.2,44245.2)">
                <path d="M335.486,158.586L332.266,158.586C332.196,158.586 332.128,158.777 332.078,159.117C332.028,159.457 332,159.917 332,160.398C332,160.398 332,160.399 332,160.4C332,160.88 332.028,161.341 332.078,161.681C332.128,162.02 332.196,162.211 332.266,162.211C333.081,162.211 335.486,162.211 335.486,162.211L335.486,158.586Z" style="fill:rgb(29,29,29);"/>
            </g>
            <g transform="matrix(75.5794,0,0,49.9927,-24217.4,-7323.91)">
                <path d="M345.231,149C345.231,148.668 345.057,148.35 344.747,148.116C344.437,147.882 344.016,147.75 343.577,147.75C340.89,147.75 335.634,147.75 333.24,147.75C332.911,147.75 332.596,147.849 332.363,148.024C332.131,148.2 332,148.439 332,148.687C332,148.936 332.131,149.175 332.363,149.35C332.596,149.526 332.911,149.625 333.24,149.625L345.231,149.625L345.231,149Z" style="fill:rgb(29,29,29);"/>
            </g>
            <g transform="matrix(4.6279e-15,-37.7897,99.9854,3.06117e-15,-13022.8,13108.8)">
                <path d="M345.231,147.125L333.24,147.125C332.911,147.125 332.596,147.224 332.363,147.399C332.131,147.575 332,147.814 332,148.062C332,148.311 332.131,148.55 332.363,148.725C332.596,148.901 332.911,149 333.24,149L343.577,149C344.016,149 344.437,148.868 344.747,148.634C345.057,148.399 345.231,148.081 345.231,147.75C345.231,147.406 345.231,147.125 345.231,147.125Z" style="fill:rgb(29,29,29);"/>
            </g>
        </g>
    </g>
</svg>
