<?xml version="1.0" encoding="UTF-8" standalone="no"?>
<!DOCTYPE svg PUBLIC "-//W3C//DTD SVG 1.1//EN" "http://www.w3.org/Graphics/SVG/1.1/DTD/svg11.dtd">
<svg width="100%" height="100%" viewBox="0 0 32 32" version="1.1" xmlns="http://www.w3.org/2000/svg" xmlns:xlink="http://www.w3.org/1999/xlink" xml:space="preserve" xmlns:serif="http://www.serif.com/" style="fill-rule:evenodd;clip-rule:evenodd;stroke-linejoin:round;stroke-miterlimit:2;">
    <g transform="matrix(1,0,0,1,-316,-413)">
        <g id="share-bar_wysiwyg" transform="matrix(0.016,0,0,0.032,316,413)">
            <rect x="0" y="0" width="2000" height="1000" style="fill:none;"/>
            <g transform="matrix(53.579,0,0,26.7895,-16788.2,-3813.11)">
                <path d="M332.529,165.009L341,156.538L341,173C341,173.53 340.789,174.039 340.414,174.414C340.039,174.789 339.53,175 339,175C334.481,175 324.523,175 320.004,175C319.474,175 318.965,174.789 318.59,174.414C318.215,174.039 318.004,173.53 318.004,173C318.004,168.48 318.004,158.52 318.004,154C318.004,153.47 318.215,152.961 318.59,152.586C318.965,152.211 319.474,152 320.004,152C324.969,152 336.462,152 336.462,152L327.973,160.489C327.796,160.632 327.274,161.274 327.274,161.274C326.957,161.773 326.773,162.365 326.773,163C326.773,164.782 328.22,166.229 330.002,166.229C330.637,166.229 331.229,166.045 331.728,165.728C331.728,165.728 332.376,165.201 332.529,165.009Z" style="fill:rgb(84,93,102);"/>
            </g>
            <g transform="matrix(242.668,-121.334,35.688,17.844,-85450.9,38001.1)">
                <path d="M335.486,158.586L332.266,158.586C332.119,158.586 332,159.397 332,160.397C332,160.398 332,160.399 332,160.401C332,161.4 332.119,162.211 332.266,162.211C333.081,162.211 335.486,162.211 335.486,162.211L335.486,158.586Z" style="fill:rgb(84,93,102);"/>
            </g>
            <g transform="matrix(64.7914,0,0,42.8569,-20617.9,-6207.16)">
                <path d="M345.231,149.208C345.231,148.403 344.367,147.75 343.302,147.75C340.544,147.75 335.552,147.75 333.239,147.75C332.91,147.75 332.595,147.848 332.363,148.024C332.13,148.2 332,148.438 332,148.686C332,148.687 332,148.688 332,148.689C332,148.937 332.13,149.175 332.363,149.351C332.595,149.526 332.91,149.625 333.239,149.625C336.528,149.625 345.231,149.625 345.231,149.625L345.231,149.208Z" style="fill:rgb(84,93,102);"/>
            </g>
            <g transform="matrix(3.96733e-15,-32.3957,85.7139,2.62423e-15,-11021.2,11309)">
                <path d="M345.231,147.125L333.239,147.125C332.91,147.125 332.595,147.223 332.363,147.399C332.13,147.575 332,147.813 332,148.061C332,148.062 332,148.063 332,148.064C332,148.312 332.13,148.55 332.363,148.726C332.595,148.901 332.91,149 333.239,149C335.552,149 340.544,149 343.302,149C344.367,149 345.231,148.347 345.231,147.542C345.231,147.299 345.231,147.125 345.231,147.125Z" style="fill:rgb(84,93,102);"/>
            </g>
        </g>
    </g>
</svg>
