<?xml version="1.0" encoding="UTF-8" standalone="no"?>
<!DOCTYPE svg PUBLIC "-//W3C//DTD SVG 1.1//EN" "http://www.w3.org/Graphics/SVG/1.1/DTD/svg11.dtd">
<svg width="100%" height="100%" viewBox="0 0 32 32" version="1.1" xmlns="http://www.w3.org/2000/svg" xmlns:xlink="http://www.w3.org/1999/xlink" xml:space="preserve" xmlns:serif="http://www.serif.com/" style="fill-rule:evenodd;clip-rule:evenodd;stroke-linejoin:round;stroke-miterlimit:2;">
    <g transform="matrix(1,0,0,1,-268,-365)">
        <g id="slideshow_wysiwyg" transform="matrix(0.016,0,0,0.032,268,365)">
            <rect x="0" y="0" width="2000" height="1000" style="fill:none;"/>
            <g transform="matrix(52.1748,0,0,26.0874,218.843,-5134.97)">
                <path d="M26.287,208.798L26.288,208.798C27.427,208.798 28.351,209.722 28.351,210.861C28.351,214.87 28.351,223.695 28.351,227.956C28.351,229.279 27.278,230.351 25.955,230.351C22.269,230.351 15.274,230.351 11.837,230.351C10.728,230.351 9.83,229.453 9.83,228.344C9.83,228.343 9.83,228.343 9.83,228.343L22.693,228.343C24.678,228.343 26.287,226.734 26.287,224.749C26.287,219.105 26.287,208.798 26.287,208.798ZM22.172,204.686L22.174,204.686C23.289,204.686 24.194,205.59 24.194,206.705C24.194,210.694 24.194,219.565 24.194,223.841C24.194,225.165 23.121,226.237 21.798,226.237C18.121,226.237 11.152,226.237 7.723,226.237C7.191,226.237 6.68,226.026 6.303,225.649C5.927,225.273 5.715,224.762 5.715,224.23C5.715,224.229 5.715,224.229 5.715,224.229L18.579,224.229C19.532,224.229 20.446,223.85 21.12,223.176C21.794,222.502 22.172,221.588 22.172,220.635L22.172,204.686ZM17.682,222.126C19.005,222.126 20.078,221.053 20.078,219.73C20.078,215.78 20.078,207.947 20.078,203.998C20.078,202.675 19.005,201.602 17.682,201.602C14.139,201.602 7.539,201.602 3.996,201.602C2.673,201.602 1.6,202.675 1.6,203.998C1.6,207.947 1.6,215.78 1.6,219.73C1.6,221.053 2.673,222.126 3.996,222.126C7.539,222.126 14.139,222.126 17.682,222.126Z" style="fill:rgb(84,93,102);"/>
            </g>
        </g>
    </g>
</svg>
