<?xml version="1.0" encoding="UTF-8" standalone="no"?>
<!DOCTYPE svg PUBLIC "-//W3C//DTD SVG 1.1//EN" "http://www.w3.org/Graphics/SVG/1.1/DTD/svg11.dtd">
<svg width="100%" height="100%" viewBox="0 0 32 32" version="1.1" xmlns="http://www.w3.org/2000/svg" xmlns:xlink="http://www.w3.org/1999/xlink" xml:space="preserve" xmlns:serif="http://www.serif.com/" style="fill-rule:evenodd;clip-rule:evenodd;stroke-linejoin:round;stroke-miterlimit:2;">
    <g transform="matrix(1,0,0,1,-268,-96)">
        <g id="slideshow" transform="matrix(0.016,0,0,0.032,268,96)">
            <rect x="0" y="0" width="2000" height="1000" style="fill:none;"/>
            <g transform="matrix(60.7639,0,0,30.3819,90.2163,-6062.5)">
                <path d="M26.287,208.798L26.294,208.798C26.839,208.798 27.363,209.015 27.748,209.401C28.134,209.786 28.351,210.31 28.351,210.855C28.351,214.971 28.351,224.178 28.351,228.294C28.351,228.84 28.134,229.363 27.748,229.749C27.363,230.135 26.839,230.351 26.294,230.351C22.714,230.351 15.382,230.351 11.837,230.351C10.728,230.351 9.83,229.453 9.83,228.344C9.83,228.343 9.83,228.343 9.83,228.343L23.201,228.343C24.905,228.343 26.287,226.961 26.287,225.257C26.287,219.75 26.287,208.798 26.287,208.798ZM22.172,204.686L22.174,204.686C22.709,204.686 23.223,204.899 23.602,205.277C23.981,205.656 24.194,206.17 24.194,206.706C24.194,210.803 24.194,220.052 24.194,224.18C24.194,225.316 23.273,226.237 22.137,226.237C18.565,226.237 11.26,226.237 7.723,226.237C6.614,226.237 5.715,225.338 5.715,224.229C5.715,224.229 5.715,224.229 5.715,224.229L19.087,224.229C19.905,224.229 20.69,223.903 21.269,223.325C21.847,222.746 22.172,221.961 22.172,221.143C22.172,215.636 22.172,204.686 22.172,204.686ZM18.021,222.126C19.157,222.126 20.078,221.205 20.078,220.069C20.078,216.136 20.078,207.592 20.078,203.659C20.078,202.523 19.157,201.602 18.021,201.602C14.466,201.602 7.212,201.602 3.657,201.602C2.521,201.602 1.6,202.523 1.6,203.659C1.6,207.592 1.6,216.136 1.6,220.069C1.6,221.205 2.521,222.126 3.657,222.126C7.212,222.126 14.466,222.126 18.021,222.126Z" style="fill:rgb(29,29,29);"/>
            </g>
        </g>
    </g>
</svg>
