<?xml version="1.0" encoding="UTF-8" standalone="no"?>
<!DOCTYPE svg PUBLIC "-//W3C//DTD SVG 1.1//EN" "http://www.w3.org/Graphics/SVG/1.1/DTD/svg11.dtd">
<svg width="100%" height="100%" viewBox="0 0 32 32" version="1.1" xmlns="http://www.w3.org/2000/svg" xmlns:xlink="http://www.w3.org/1999/xlink" xml:space="preserve" xmlns:serif="http://www.serif.com/" style="fill-rule:evenodd;clip-rule:evenodd;stroke-linejoin:round;stroke-miterlimit:2;">
    <g transform="matrix(1,0,0,1,-364,-96)">
        <g id="social-bar" transform="matrix(0.016,0,0,0.032,364,96)">
            <rect x="0" y="0" width="2000" height="1000" style="fill:none;"/>
            <g transform="matrix(62.2479,0,0,30.0821,-9207.33,-5987.68)">
                <path d="M150.017,216.668C149.378,217.964 152.042,225.645 155.556,229.17C157.232,229.034 158.901,228.788 160.562,228.392C160.562,228.392 159.515,228.193 159.262,227.788C158.16,226.02 155.599,219.418 155.556,217.286C155.543,216.65 156.606,215.69 156.606,215.69C155.574,215.645 150.33,216.033 150.017,216.668ZM156.617,216.622C156.179,218.57 158.652,225.664 160.108,227.312C160.449,227.698 161.727,226.977 163.978,227.569C165.283,227.913 166.729,228.316 168.141,228.371C171.029,228.482 173.061,228.307 174.186,227.772C174.56,227.594 174.795,227.003 174.965,226.625C175.184,226.137 175.469,224.644 175.469,224.644C177.001,223.614 177.276,222.394 176.674,221.043C177.734,219.124 177.757,217.784 176.674,217.063C178.8,215.34 178.357,213.651 175.894,213.041C175.061,212.835 174.044,213.343 173.111,213.343C172.14,213.343 170.877,212.802 170.07,212.828C169.356,212.851 169.146,210.615 170.07,209.529C171.023,208.407 172.042,206.941 172.21,205.246C172.398,203.348 171.499,202.747 171.142,202.32C170.901,202.03 170.195,202.161 170.07,202.517C169.46,204.252 167.531,206.42 166.13,207.935C164.798,209.375 162.576,210.864 161.664,211.765C161.22,212.204 160.795,212.746 160.519,213.343C160.178,214.079 159.707,214.837 159.033,215.384C158.36,215.93 156.724,216.147 156.617,216.622Z" style="fill:rgb(29,29,29);"/>
            </g>
        </g>
    </g>
</svg>
