<?xml version="1.0" encoding="UTF-8" standalone="no"?>
<!DOCTYPE svg PUBLIC "-//W3C//DTD SVG 1.1//EN" "http://www.w3.org/Graphics/SVG/1.1/DTD/svg11.dtd">
<svg width="100%" height="100%" viewBox="0 0 32 32" version="1.1" xmlns="http://www.w3.org/2000/svg" xmlns:xlink="http://www.w3.org/1999/xlink" xml:space="preserve" xmlns:serif="http://www.serif.com/" style="fill-rule:evenodd;clip-rule:evenodd;stroke-linejoin:round;stroke-miterlimit:2;">
    <g transform="matrix(1,0,0,1,-269,-144)">
        <g id="tab" transform="matrix(0.016,0,0,0.032,269,144)">
            <rect x="0" y="0" width="2000" height="1000" style="fill:none;"/>
            <clipPath id="_clip1">
                <rect x="0" y="0" width="2000" height="1000"/>
            </clipPath>
            <g clip-path="url(#_clip1)">
                <g transform="matrix(62.5,0,0,31.25,-3000,-16500)">
                    <path d="M59.439,536.894C59.778,537.572 60.47,538 61.228,538C64.583,538 73.887,538 78,538C79.105,538 80,538.895 80,540C80,543.47 80,550.566 80,554.035C80,555.14 79.105,556.035 78,556.035C72.255,556.035 55.747,556.035 50.001,556.035C49.47,556.035 48.962,555.825 48.586,555.449C48.211,555.074 48.001,554.565 48.001,554.034C48.003,549.508 48.009,538.524 48.011,533.999C48.011,532.895 48.907,532 50.011,532C51.769,532 54.273,532 55.756,532C56.513,532 57.206,532.428 57.545,533.106C58.084,534.184 58.9,535.816 59.439,536.894Z" style="fill:rgb(29,29,29);"/>
                </g>
                <g transform="matrix(62.5,0,0,31.25,-16812.5,-4531.25)">
                    <path d="M298.959,155L296.959,155L296.959,154C296.959,153.735 296.853,153.48 296.666,153.293C296.478,153.105 296.224,153 295.959,153C292.176,153 278.959,153 278.959,153L278.959,151L296.959,151C297.489,151 297.998,151.211 298.373,151.586C298.748,151.961 298.959,152.47 298.959,153C298.959,154 298.959,155 298.959,155Z" style="fill:rgb(29,29,29);"/>
                </g>
            </g>
        </g>
    </g>
</svg>
