<?xml version="1.0" encoding="UTF-8" standalone="no"?>
<!DOCTYPE svg PUBLIC "-//W3C//DTD SVG 1.1//EN" "http://www.w3.org/Graphics/SVG/1.1/DTD/svg11.dtd">
<svg width="100%" height="100%" viewBox="0 0 32 32" version="1.1" xmlns="http://www.w3.org/2000/svg" xmlns:xlink="http://www.w3.org/1999/xlink" xml:space="preserve" xmlns:serif="http://www.serif.com/" style="fill-rule:evenodd;clip-rule:evenodd;stroke-linejoin:round;stroke-miterlimit:2;">
    <g transform="matrix(1,0,0,1,-269,-413)">
        <g id="tab_wysiwyg" transform="matrix(0.016,0,0,0.032,269,413)">
            <rect x="0" y="0" width="2000" height="1000" style="fill:none;"/>
            <g transform="matrix(52.736,0,0,26.368,-2375.1,-13844.1)">
                <path d="M59.337,536.69C59.738,537.493 60.559,538 61.457,538C64.884,538 73.449,538 77.63,538C78.258,538 78.861,538.25 79.306,538.694C79.75,539.139 80,539.742 80,540.37C80,543.826 80,550.21 80,553.665C80,554.974 78.939,556.035 77.63,556.035C71.704,556.035 56.298,556.035 50.371,556.035C49.743,556.035 49.14,555.786 48.695,555.341C48.25,554.896 48.001,554.293 48.001,553.664C48.003,549.062 48.008,538.969 48.011,534.369C48.011,533.061 49.072,532 50.381,532L55.527,532C56.425,532 57.245,532.507 57.647,533.31C58.148,534.312 58.836,535.688 59.337,536.69Z" style="fill:rgb(84,93,102);"/>
            </g>
            <g transform="matrix(52.736,0,0,26.368,-14029.8,-3745.16)">
                <path d="M298.959,155L296.959,155L296.959,154.185C296.959,153.871 296.834,153.569 296.612,153.347C296.389,153.125 296.088,153 295.774,153C291.764,153 278.959,153 278.959,153L278.959,151L296.588,151C297.898,151 298.959,152.061 298.959,153.37C298.959,154.233 298.959,155 298.959,155Z" style="fill:rgb(84,93,102);"/>
            </g>
        </g>
    </g>
</svg>
