<?xml version="1.0" encoding="UTF-8" standalone="no"?>
<!DOCTYPE svg PUBLIC "-//W3C//DTD SVG 1.1//EN" "http://www.w3.org/Graphics/SVG/1.1/DTD/svg11.dtd">
<svg width="100%" height="100%" viewBox="0 0 32 32" version="1.1" xmlns="http://www.w3.org/2000/svg" xmlns:xlink="http://www.w3.org/1999/xlink" xml:space="preserve" xmlns:serif="http://www.serif.com/" style="fill-rule:evenodd;clip-rule:evenodd;stroke-linejoin:round;stroke-miterlimit:2;">
    <g transform="matrix(1,0,0,1,-220,-413)">
        <g id="tabs_wysiwyg" transform="matrix(0.016,0,0,0.032,220,413)">
            <rect x="0" y="0" width="2000" height="1000" style="fill:none;"/>
            <g transform="matrix(52.7344,0,0,26.3672,-3587.89,-6281.01)">
                <path d="M88,247.176C88,247.176 88.762,248.699 89.345,249.866C89.746,250.669 90.567,251.176 91.465,251.176C93.241,251.176 96,251.176 96,251.176C96,251.176 94.895,248.966 94.328,247.831C94.127,247.43 93.716,247.176 93.268,247.176C91.667,247.176 88,247.176 88,247.176ZM81.345,249.866C81.746,250.669 82.567,251.176 83.465,251.176C85.241,251.176 88,251.176 88,251.176C88,251.176 86.895,248.966 86.328,247.831C86.127,247.43 85.716,247.176 85.268,247.176C83.667,247.176 80,247.176 80,247.176C80,247.176 80.762,248.699 81.345,249.866ZM71,247.546C71,246.918 71.25,246.315 71.694,245.87C72.139,245.426 72.742,245.176 73.37,245.176C78.291,245.176 89.488,245.176 93.501,245.176C94.399,245.176 95.219,245.683 95.621,246.486C96.122,247.488 96.81,248.864 97.311,249.866C97.712,250.669 98.533,251.176 99.431,251.176C99.807,251.176 100.221,251.176 100.63,251.176C101.258,251.176 101.861,251.426 102.306,251.87C102.75,252.315 103,252.918 103,253.546C103,256.994 103,263.357 103,266.806C103,267.434 102.75,268.037 102.306,268.482C101.861,268.926 101.258,269.176 100.63,269.176C94.704,269.176 79.296,269.176 73.37,269.176C72.061,269.176 71,268.115 71,266.806L71,247.546Z" style="fill:rgb(84,93,102);"/>
            </g>
        </g>
    </g>
</svg>
