<?xml version="1.0" encoding="UTF-8" standalone="no"?>
<!DOCTYPE svg PUBLIC "-//W3C//DTD SVG 1.1//EN" "http://www.w3.org/Graphics/SVG/1.1/DTD/svg11.dtd">
<svg width="100%" height="100%" viewBox="0 0 32 32" version="1.1" xmlns="http://www.w3.org/2000/svg" xmlns:xlink="http://www.w3.org/1999/xlink" xml:space="preserve" xmlns:serif="http://www.serif.com/" style="fill-rule:evenodd;clip-rule:evenodd;stroke-linejoin:round;stroke-miterlimit:2;">
    <g transform="matrix(1,0,0,1,-220,-145)">
        <g id="tabs" transform="matrix(0.016,0,0,0.032,220,145)">
            <rect x="0" y="0" width="2000" height="1000" style="fill:none;"/>
            <clipPath id="_clip1">
                <rect x="0" y="0" width="2000" height="1000"/>
            </clipPath>
            <g clip-path="url(#_clip1)">
                <g transform="matrix(62.5,0,0,31.25,-4437.5,-7536.75)">
                    <path d="M88,247.176C88,247.176 88.855,248.886 89.447,250.07C89.786,250.748 90.479,251.176 91.236,251.176C92.993,251.176 96,251.176 96,251.176C96,251.176 94.825,248.826 94.276,247.729C94.107,247.39 93.761,247.176 93.382,247.176C91.85,247.176 88,247.176 88,247.176ZM81.447,250.07C81.786,250.748 82.479,251.176 83.236,251.176C84.992,251.176 88,251.176 88,251.176C88,251.176 86.825,248.826 86.276,247.729C86.107,247.39 85.761,247.176 85.382,247.176C83.85,247.176 80,247.176 80,247.176C80,247.176 80.855,248.886 81.447,250.07ZM71,247.176C71,246.645 71.211,246.137 71.586,245.762C71.961,245.387 72.47,245.176 73,245.176C77.795,245.176 89.835,245.176 93.73,245.176C94.487,245.176 95.18,245.604 95.519,246.281C96.058,247.36 96.874,248.992 97.413,250.07C97.752,250.748 98.444,251.176 99.202,251.176C99.743,251.176 100.393,251.176 101,251.176C101.53,251.176 102.039,251.387 102.414,251.762C102.789,252.137 103,252.645 103,253.176C103,256.639 103,263.713 103,267.176C103,267.706 102.789,268.215 102.414,268.59C102.039,268.965 101.53,269.176 101,269.176C95.255,269.176 78.746,269.176 73,269.176C72.47,269.176 71.961,268.965 71.586,268.59C71.211,268.215 71,267.706 71,267.176C71,262.656 71,251.696 71,247.176Z" style="fill:rgb(29,29,29);"/>
                </g>
            </g>
        </g>
    </g>
</svg>
