<?xml version="1.0" encoding="UTF-8" standalone="no"?>
<!DOCTYPE svg PUBLIC "-//W3C//DTD SVG 1.1//EN" "http://www.w3.org/Graphics/SVG/1.1/DTD/svg11.dtd">
<svg width="100%" height="100%" viewBox="0 0 32 32" version="1.1" xmlns="http://www.w3.org/2000/svg" xmlns:xlink="http://www.w3.org/1999/xlink" xml:space="preserve" xmlns:serif="http://www.serif.com/" style="fill-rule:evenodd;clip-rule:evenodd;stroke-linejoin:round;stroke-miterlimit:2;">
    <g transform="matrix(1,0,0,1,-220,0)">
        <g id="tiles" transform="matrix(0.016,0,0,0.032,220,7.10543e-15)">
            <rect x="0" y="0" width="2000" height="1000" style="fill:none;"/>
            <g id="B" transform="matrix(1.94444,0,0,0.972222,27.7778,13.9889)">
                <g transform="matrix(0.93496,0,0,0.935065,3.25198,3.24675)">
                    <path d="M325.031,50L118.758,50C80.784,50 50,80.78 50,118.75L50,325L325.031,325L325.031,50Z" style="fill:rgb(29,29,29);"/>
                </g>
                <g transform="matrix(0.93496,0,0,0.935065,3.25198,324.675)">
                    <rect x="50" y="50" width="275.031" height="275" style="fill:rgb(29,29,29);"/>
                </g>
                <g transform="matrix(0.93496,0,0,0.935065,3.25198,646.104)">
                    <path d="M325.031,50L50,50L50,256.25C50,294.22 80.784,325 118.758,325L325.031,325L325.031,50Z" style="fill:rgb(29,29,29);"/>
                </g>
                <g transform="matrix(0.93496,0,0,0.935065,324.681,3.24675)">
                    <rect x="50" y="50" width="275.031" height="275" style="fill:rgb(29,29,29);"/>
                </g>
                <g transform="matrix(0.93496,0,0,0.935065,324.681,324.675)">
                    <rect x="50" y="50" width="275.031" height="275" style="fill:rgb(29,29,29);"/>
                </g>
                <g transform="matrix(0.93496,0,0,0.935065,324.681,646.104)">
                    <rect x="50" y="50" width="275.031" height="275" style="fill:rgb(29,29,29);"/>
                </g>
                <g transform="matrix(0.93496,0,0,0.935065,646.109,3.24675)">
                    <path d="M325.031,118.75C325.031,80.78 294.247,50 256.273,50L50,50L50,325L325.031,325L325.031,118.75Z" style="fill:rgb(29,29,29);"/>
                </g>
                <g transform="matrix(0.93496,0,0,0.935065,646.109,324.675)">
                    <rect x="50" y="50" width="275.031" height="275" style="fill:rgb(29,29,29);"/>
                </g>
                <g transform="matrix(0.93496,0,0,0.935065,646.109,646.104)">
                    <path d="M325.031,50L50,50L50,325L256.273,325C294.247,325 325.031,294.22 325.031,256.25C325.031,174.796 325.031,50 325.031,50Z" style="fill:rgb(29,29,29);"/>
                </g>
            </g>
        </g>
    </g>
</svg>
