<?xml version="1.0" encoding="UTF-8" standalone="no"?>
<!DOCTYPE svg PUBLIC "-//W3C//DTD SVG 1.1//EN" "http://www.w3.org/Graphics/SVG/1.1/DTD/svg11.dtd">
<svg width="100%" height="100%" viewBox="0 0 32 32" version="1.1" xmlns="http://www.w3.org/2000/svg" xmlns:xlink="http://www.w3.org/1999/xlink" xml:space="preserve" xmlns:serif="http://www.serif.com/" style="fill-rule:evenodd;clip-rule:evenodd;stroke-linejoin:round;stroke-miterlimit:2;">
    <g transform="matrix(1,0,0,1,-364,-48)">
        <g id="video" transform="matrix(0.016,0,0,0.032,364,48)">
            <rect x="0" y="0" width="2000" height="1000" style="fill:none;"/>
            <clipPath id="_clip1">
                <rect x="0" y="0" width="2000" height="1000"/>
            </clipPath>
            <g clip-path="url(#_clip1)">
                <g transform="matrix(2,0,0,1,-8800,-3900)">
                    <path d="M5400,4712.5C5400,4729.08 5393.41,4744.97 5381.69,4756.69C5369.97,4768.41 5354.08,4775 5337.5,4775C5157.95,4775 4642.05,4775 4462.5,4775C4445.92,4775 4430.03,4768.41 4418.31,4756.69C4406.59,4744.97 4400,4729.08 4400,4712.5C4400,4571.25 4400,4228.75 4400,4087.5C4400,4070.92 4406.59,4055.03 4418.31,4043.31C4430.03,4031.59 4445.92,4025 4462.5,4025C4642.05,4025 5157.95,4025 5337.5,4025C5354.08,4025 5369.97,4031.59 5381.69,4043.31C5393.41,4055.03 5400,4070.92 5400,4087.5C5400,4228.75 5400,4571.25 5400,4712.5ZM5087.5,4400L4775,4556.21L4775,4243.71L5087.5,4400Z" style="fill:rgb(29,29,29);"/>
                </g>
            </g>
        </g>
    </g>
</svg>
