<?xml version="1.0" encoding="UTF-8" standalone="no"?>
<!DOCTYPE svg PUBLIC "-//W3C//DTD SVG 1.1//EN" "http://www.w3.org/Graphics/SVG/1.1/DTD/svg11.dtd">
<svg width="100%" height="100%" viewBox="0 0 256 1024" version="1.1" xmlns="http://www.w3.org/2000/svg" xmlns:xlink="http://www.w3.org/1999/xlink" xml:space="preserve" xmlns:serif="http://www.serif.com/" style="fill-rule:evenodd;clip-rule:evenodd;stroke-linejoin:round;stroke-miterlimit:2;">
    <g transform="matrix(1,0,0,0.859375,6,39.3906)">
        <path d="M110,346.309C110,343.84 109.157,341.472 107.657,339.727C106.157,337.981 104.122,337 102,337L81,337C78.878,337 76.843,337.981 75.343,339.727C73.843,341.472 73,343.84 73,346.309L73,455.691C73,458.16 73.843,460.528 75.343,462.273C76.843,464.019 78.878,465 81,465L102,465C104.122,465 106.157,464.019 107.657,462.273C109.157,460.528 110,458.16 110,455.691L110,346.309Z" style="fill:rgb(85,85,85);"/>
    </g>
    <g transform="matrix(1,0,0,0.859375,67,39.3906)">
        <path d="M110,346.309C110,343.84 109.157,341.472 107.657,339.727C106.157,337.981 104.122,337 102,337L81,337C78.878,337 76.843,337.981 75.343,339.727C73.843,341.472 73,343.84 73,346.309L73,455.691C73,458.16 73.843,460.528 75.343,462.273C76.843,464.019 78.878,465 81,465L102,465C104.122,465 106.157,464.019 107.657,462.273C109.157,460.528 110,458.16 110,455.691L110,346.309Z" style="fill:rgb(85,85,85);"/>
    </g>
    <g id="Play" transform="matrix(5.5,7.4572e-31,-6.77927e-32,5.5,-1219,-1491.75)">
        <path d="M236,284.2C236,283.265 237.064,282.69 237.894,283.177L255.404,293.479C256.198,293.945 256.198,295.055 255.404,295.522C252.694,297.117 250.661,298.312 249.306,299.11C246.77,300.601 242.966,302.839 237.894,305.823C237.064,306.31 236,305.736 236,304.801L236,284.2Z" style="fill:rgb(85,85,85);"/>
    </g>
    <path d="M127.515,714.998C86.345,714.738 53,681.232 53,640C53,598.606 86.606,565 128,565L128.485,565.002C128.645,565.003 128.806,565.004 128.969,565.006L129.448,565.014L129.929,565.024L130.409,565.038L130.888,565.055L131.366,565.074L131.844,565.097L132.321,565.123L132.797,565.151L133.272,565.183L133.746,565.217L134.22,565.255L134.693,565.295L135.165,565.338L135.636,565.385L136.106,565.434L136.576,565.486L136.607,565.489L136.663,565.496L137.044,565.541L137.077,565.545L137.134,565.552L137.512,565.599L137.547,565.603L137.605,565.611L137.979,565.659L138.015,565.664L138.074,565.672L138.444,565.723L138.483,565.728L138.543,565.737L138.909,565.789L138.95,565.795L139.01,565.804L139.373,565.858L139.415,565.865L139.477,565.874L139.837,565.93L139.88,565.937L139.942,565.948L140.299,566.005L140.344,566.013L140.407,566.024L140.76,566.083L140.807,566.091L140.871,566.102L141.22,566.164L141.269,566.172L141.333,566.184L141.68,566.247L141.722,566.255L141.73,566.256L141.795,566.269L142.138,566.333L142.181,566.341L142.19,566.343L142.256,566.356L142.595,566.422L142.64,566.431L142.649,566.433L142.716,566.446L143.052,566.513L143.098,566.523L143.107,566.525L143.174,566.539L143.507,566.608L143.554,566.618L143.564,566.62L143.632,566.635L143.961,566.705L144.01,566.716L144.02,566.718L144.089,566.733L144.415,566.805L144.464,566.816L144.475,566.819L144.544,566.834L144.867,566.907L144.918,566.919L144.929,566.922L144.999,566.938L145.318,567.013L145.37,567.025L145.382,567.028L145.452,567.045L145.769,567.121L145.822,567.134L145.834,567.137L145.905,567.154L146.218,567.232L146.272,567.245L146.285,567.249L146.356,567.267L146.666,567.345L146.721,567.36L146.734,567.363L146.806,567.382L147.113,567.461L147.169,567.476L147.183,567.48L147.255,567.499L147.559,567.58L147.616,567.596L147.631,567.6L147.703,567.62L148.004,567.702L148.062,567.718L148.077,567.722L148.15,567.743L148.447,567.826L148.507,567.843L148.522,567.847L148.596,567.868L148.89,567.953L148.951,567.97L148.967,567.975L149.041,567.997L149.332,568.082L149.393,568.101L149.41,568.105L149.484,568.128L149.772,568.214L149.835,568.233L149.852,568.238L149.926,568.262L150.211,568.349L150.275,568.369L150.292,568.374L150.368,568.398L150.65,568.486L150.714,568.507L150.732,568.513L150.808,568.537L151.087,568.626L151.152,568.648L151.171,568.654L151.247,568.679L151.522,568.769L151.589,568.791L151.608,568.797L151.684,568.823L151.957,568.914L152.025,568.937L152.044,568.943L152.121,568.97L152.39,569.062L152.459,569.085L152.479,569.092L152.556,569.119L152.823,569.212L152.892,569.236L152.913,569.244L152.99,569.271L153.254,569.365L153.324,569.39L153.345,569.398L153.423,569.426L153.684,569.52L153.755,569.546L153.776,569.554L153.854,569.583L154.112,569.678L154.184,569.705L154.206,569.713L154.285,569.743L154.54,569.838L154.612,569.866L154.635,569.875L154.714,569.905L154.966,570.001L155.039,570.03L155.063,570.039L155.141,570.07L155.391,570.167L155.465,570.196L155.489,570.206L155.568,570.237L155.815,570.335L155.89,570.365L155.914,570.375L155.993,570.407L156.237,570.505L156.313,570.537L156.338,570.547L156.417,570.579L156.658,570.678L156.735,570.71L156.76,570.721L156.84,570.754L157.078,570.854L157.155,570.887L157.182,570.898L157.261,570.932L157.497,571.032L157.575,571.066L157.602,571.077L157.681,571.112L157.914,571.212L157.993,571.247L158.02,571.259L158.1,571.294L158.33,571.395L158.409,571.43L158.437,571.443L158.517,571.479L158.744,571.58L158.825,571.617L158.853,571.63L158.933,571.666L159.158,571.768L159.239,571.805L159.268,571.819L159.348,571.856L159.57,571.958L159.651,571.996L159.681,572.01L159.761,572.048L159.98,572.151L160.062,572.19L160.093,572.204L160.173,572.242L160.39,572.346L160.472,572.386L160.504,572.401L160.584,572.439L160.798,572.543L160.881,572.584L160.913,572.599L160.993,572.639L161.204,572.743L161.288,572.785L161.32,572.801L161.401,572.841L161.609,572.945L161.694,572.988L161.727,573.004L161.807,573.045L162.013,573.149L162.098,573.193L162.132,573.21L162.212,573.251L162.415,573.356L162.501,573.401L162.535,573.418L162.615,573.46L162.816,573.565L162.902,573.611L162.937,573.629L163.017,573.672L163.216,573.777L163.302,573.823L163.338,573.842L163.418,573.885L163.614,573.991L163.701,574.038L163.737,574.058L163.817,574.101L164.011,574.207L164.098,574.255L164.135,574.275L164.215,574.32L164.406,574.425L164.494,574.475L164.531,574.496L164.611,574.54L164.8,574.646L164.888,574.697L164.926,574.718L165.006,574.763L165.192,574.869L165.281,574.921L165.319,574.943L165.399,574.989L165.583,575.095L165.672,575.147L165.711,575.17L165.791,575.216L165.972,575.322L166.062,575.376L166.102,575.399L166.181,575.446L166.36,575.552L166.45,575.606L166.491,575.631L166.57,575.678L166.746,575.784L166.837,575.84L166.878,575.864L166.957,575.913L167.131,576.019L167.222,576.075L167.264,576.101L167.342,576.149L167.514,576.256L167.606,576.313L167.648,576.339L167.726,576.388L167.896,576.495L167.988,576.553L168.031,576.58L168.109,576.629L168.276,576.736L168.368,576.795L168.412,576.822L168.49,576.873L168.655,576.979L168.747,577.039L168.792,577.068L168.869,577.118L169.032,577.225L169.125,577.286L169.17,577.315L169.247,577.366L169.408,577.472L169.501,577.534L169.546,577.564L169.623,577.616L169.782,577.722L169.875,577.785L169.921,577.816L169.998,577.868L170.154,577.974L170.248,578.038L170.294,578.07L170.371,578.123L170.525,578.229L170.619,578.294L170.666,578.326L170.742,578.379L170.894,578.485L170.988,578.551L171.036,578.584L171.112,578.638L171.262,578.744L171.356,578.811L171.404,578.845L171.48,578.899L171.628,579.004L171.722,579.072L171.771,579.107L171.847,579.162L171.992,579.267L172.087,579.336L172.136,579.372L172.211,579.427L172.355,579.532L172.45,579.602L172.5,579.639L172.575,579.694L172.716,579.799L172.811,579.87L172.862,579.908L172.936,579.964L173.076,580.068L173.171,580.141L173.222,580.179L173.296,580.235L173.433,580.34L173.529,580.413L173.58,580.452L173.654,580.509L173.79,580.613L173.885,580.687L173.937,580.728L174.01,580.785L174.144,580.889L174.239,580.964L174.292,581.005L174.365,581.062L174.497,581.166L174.592,581.242L174.646,581.284L174.718,581.342L174.848,581.446L174.943,581.523L174.997,581.566L175.069,581.624L175.197,581.727L175.293,581.805L175.347,581.85L175.419,581.908L175.545,582.011L175.64,582.09L175.695,582.135L175.766,582.194L175.89,582.297L175.986,582.377L176.042,582.423L176.112,582.482L176.234,582.584L176.331,582.666L176.387,582.713L176.457,582.772L176.577,582.874L176.673,582.956L176.73,583.005L176.799,583.064L176.917,583.166L177.014,583.249L177.071,583.298L177.14,583.358L177.256,583.46L177.352,583.544L177.41,583.594L177.479,583.655L177.593,583.755L177.69,583.841L177.748,583.892L177.816,583.953L177.929,584.053L178.025,584.139L178.083,584.192L178.151,584.253L178.262,584.353L178.358,584.44L178.417,584.493L178.484,584.555L178.594,584.654L178.69,584.743L178.749,584.797L178.816,584.859L178.924,584.958L179.02,585.047L179.08,585.103L179.146,585.164L179.252,585.263L179.348,585.354L179.408,585.41L179.474,585.472L179.578,585.571L179.674,585.662L179.735,585.72L179.8,585.782L179.902,585.88L179.998,585.973L180.06,586.031L180.124,586.094L180.225,586.191L180.321,586.285L180.382,586.345L180.446,586.407L180.546,586.504L180.641,586.599L180.703,586.66L180.767,586.723L180.864,586.82L180.96,586.915L181.023,586.977L181.085,587.04L181.181,587.136L181.277,587.233L181.34,587.297L181.402,587.36L181.496,587.455L181.592,587.553L181.655,587.618L181.717,587.681L181.81,587.776L181.905,587.875L181.969,587.94L182.029,588.004L182.121,588.099L182.216,588.198L182.28,588.265L182.34,588.329L182.43,588.423L182.525,588.524L182.59,588.592L182.649,588.655L182.738,588.749L182.832,588.851L182.897,588.92L182.956,588.984L183.043,589.077L183.138,589.18L183.203,589.251L183.261,589.314L183.347,589.407L183.441,589.511L183.507,589.583L183.564,589.647L183.648,589.739L183.743,589.844L183.808,589.917L183.866,589.981L183.948,590.072L184.042,590.178L184.108,590.252L184.165,590.317L184.246,590.408L184.34,590.515L184.406,590.59L184.462,590.654L184.541,590.745L184.635,590.853L184.702,590.929L184.757,590.994L184.835,591.083L184.929,591.193L184.995,591.27L185.05,591.335L185.127,591.424L185.22,591.534L185.287,591.613L185.341,591.678L185.416,591.766L185.509,591.878L185.577,591.958L185.63,592.022L185.704,592.111L185.797,592.223L185.865,592.305L185.917,592.369L185.99,592.456L186.082,592.57L186.15,592.653L186.202,592.717L186.273,592.804L186.366,592.919L186.434,593.003L186.485,593.067L186.555,593.153L186.647,593.269L186.716,593.354L186.766,593.418L186.835,593.504L186.926,593.621L186.995,593.708L187.045,593.772L187.112,593.857L187.204,593.975L187.272,594.063L187.322,594.127L187.388,594.211L187.479,594.33L187.548,594.42L187.596,594.483L187.661,594.568L187.752,594.687L187.821,594.778L187.869,594.842L187.932,594.925L188.023,595.046L188.092,595.138L188.139,595.202L188.201,595.285L188.292,595.407L188.361,595.5L188.408,595.564L188.468,595.646L188.558,595.769L188.628,595.864L188.674,595.927L188.733,596.009L188.823,596.133L188.893,596.229L188.938,596.292L188.996,596.373L189.085,596.498L189.155,596.596L189.2,596.659L189.257,596.739L189.346,596.865L189.416,596.964L189.46,597.027L189.516,597.107L189.604,597.234L189.674,597.334L189.717,597.397L189.772,597.476L189.86,597.604L189.93,597.706L189.973,597.768L190.026,597.847L190.114,597.976L190.184,598.079L190.226,598.141L190.278,598.219L190.366,598.35L190.436,598.454L190.477,598.516L190.528,598.593L190.615,598.725L190.685,598.83L190.726,598.892L190.776,598.969L190.862,599.101L190.932,599.208L190.972,599.27L191.022,599.346L191.108,599.48L191.178,599.588L191.217,599.65L191.265,599.725L191.35,599.859L191.42,599.969L191.459,600.03L191.506,600.105L191.591,600.241L191.661,600.352L191.699,600.413L191.745,600.487L191.83,600.624L191.899,600.736L191.937,600.797L191.982,600.87L192.066,601.008L192.136,601.122L192.172,601.182L192.216,601.255L192.3,601.394L192.369,601.509L192.405,601.57L192.448,601.641L192.531,601.781L192.601,601.898L192.636,601.958L192.678,602.029L192.761,602.17L192.83,602.289L192.865,602.348L192.906,602.418L192.988,602.561L193.057,602.681L193.091,602.74L193.131,602.809L193.213,602.953L193.282,603.074L193.315,603.133L193.354,603.202L193.435,603.346L193.504,603.469L193.537,603.527L193.575,603.595L193.656,603.741L193.725,603.865L193.756,603.923L193.794,603.991L193.874,604.137L193.942,604.263L193.973,604.321L194.01,604.387L194.089,604.535L194.158,604.662L194.188,604.719L194.224,604.785L194.303,604.934L194.371,605.063L194.401,605.12L194.435,605.185L194.514,605.335L194.582,605.465L194.611,605.521L194.644,605.586L194.722,605.737L194.79,605.868L194.818,605.924L194.851,605.988L194.928,606.141L194.996,606.273L195.024,606.329L195.056,606.392L195.132,606.545L195.199,606.68L195.227,606.735L195.258,606.797L195.334,606.952L195.401,607.087L195.427,607.142L195.458,607.204L195.533,607.359L195.599,607.496L195.625,607.551L195.655,607.612L195.73,607.768L195.796,607.907L195.821,607.961L195.85,608.021L195.924,608.179L195.99,608.319L196.014,608.372L196.042,608.432L196.116,608.591L196.181,608.732L196.205,608.785L196.232,608.844L196.305,609.004L196.37,609.147L196.394,609.199L196.42,609.257L196.492,609.418L196.557,609.563L196.58,609.614L196.605,609.671L196.677,609.834L196.741,609.98L196.764,610.031L196.788,610.087L196.859,610.251L196.923,610.398L196.945,610.449L196.969,610.505L197.039,610.67L197.102,610.818L197.123,610.868L197.147,610.923L197.216,611.089L197.279,611.24L197.299,611.289L197.322,611.343L197.391,611.51L197.453,611.662L197.473,611.711L197.495,611.764L197.563,611.933L197.625,612.086L197.644,612.134L197.666,612.187L197.733,612.356L197.794,612.511L197.813,612.559L197.834,612.61L197.9,612.781L197.961,612.937L197.979,612.984L197.999,613.035L198.065,613.207L198.125,613.365L198.143,613.411L198.162,613.462L198.227,613.635L198.287,613.794L198.304,613.84L198.322,613.889L198.387,614.063L198.446,614.224L198.462,614.269L198.48,614.318L198.544,614.493L198.602,614.655L198.618,614.7L198.636,614.748L198.698,614.924L198.756,615.087L198.772,615.132L198.789,615.179L198.85,615.356L198.908,615.521L198.923,615.565L198.939,615.611L199,615.79L199.057,615.956L199.071,615.999L199.086,616.044L199.147,616.225L199.203,616.392L199.217,616.434L199.232,616.479L199.291,616.66L199.346,616.829L199.36,616.871L199.374,616.915L199.433,617.097L199.487,617.268L199.5,617.309L199.514,617.352L199.572,617.536L199.626,617.708L199.638,617.748L199.651,617.79L199.708,617.975L199.762,618.148L199.773,618.188L199.786,618.229L199.842,618.416L199.895,618.59L199.906,618.629L199.918,618.67L199.973,618.857L200.025,619.033L200.036,619.072L200.048,619.111L200.102,619.3L200.153,619.478L200.163,619.515L200.174,619.554L200.228,619.744L200.278,619.923L200.288,619.96L200.299,619.998L200.351,620.189L200.4,620.369L200.41,620.405L200.42,620.443L200.471,620.635L200.52,620.817L200.529,620.852L200.539,620.889L200.589,621.082L200.637,621.266L200.646,621.3L200.655,621.336L200.704,621.531L200.751,621.715L200.76,621.749L200.769,621.784L200.817,621.98L200.863,622.166L200.871,622.199L200.879,622.233L200.927,622.431L200.972,622.618L200.979,622.65L200.987,622.683L201.034,622.882L201.078,623.071L201.085,623.102L201.093,623.135L201.138,623.335L201.181,623.525L201.188,623.555L201.195,623.587L201.24,623.788L201.282,623.98L201.289,624.01L201.295,624.04L201.339,624.243L201.38,624.436L201.386,624.465L201.392,624.495L201.435,624.699L201.475,624.893L201.481,624.921L201.487,624.95L201.528,625.155L201.567,625.351L201.573,625.378L201.578,625.406L201.619,625.613L201.657,625.81L201.662,625.837L201.667,625.864L201.706,626.072L201.744,626.27L201.748,626.296L201.753,626.322L201.791,626.532L201.828,626.731L201.832,626.756L201.837,626.781L201.874,626.992L201.909,627.193L201.913,627.217L201.917,627.242L201.953,627.454L201.987,627.656L201.991,627.679L201.995,627.703L202.03,627.917L202.063,628.12L202.066,628.142L202.07,628.165L202.103,628.38L202.135,628.585L202.138,628.606L202.142,628.628L202.174,628.845L202.205,629.05L202.208,629.071L202.211,629.092L202.242,629.31L202.272,629.517L202.275,629.537L202.277,629.557L202.307,629.777L202.336,629.985L202.338,630.004L202.341,630.023L202.37,630.244L202.397,630.453L202.402,630.49L202.429,630.712L202.455,630.923L202.459,630.958L202.486,631.182L202.511,631.393L202.514,631.426L202.539,631.652L202.563,631.864L202.566,631.895L202.59,632.123L202.612,632.336L202.615,632.366L202.638,632.595L202.659,632.809L202.662,632.837L202.683,633.068L202.703,633.283L202.705,633.309L202.725,633.542L202.743,633.758L202.745,633.782L202.764,634.017L202.781,634.233L202.783,634.255L202.8,634.492L202.816,634.709L202.817,634.73L202.833,634.969L202.848,635.186L202.849,635.205L202.863,635.447L202.877,635.664L202.877,635.681L202.891,635.926L202.902,636.143L202.903,636.158L202.915,636.406L202.925,636.622L202.926,636.636L202.936,636.887L202.945,637.103L202.945,637.114L202.954,637.37L202.962,637.584L202.962,637.593L202.969,637.855L202.975,638.065L202.976,638.073L202.982,638.344L202.986,638.548L202.986,638.554L202.991,638.84L202.994,639.031L202.994,639.035L202.998,639.515L202.998,639.516C202.999,639.679 203,639.839 203,640C203,640.161 202.999,640.321 202.998,640.484L202.994,640.965L202.994,640.969L202.991,641.16L202.986,641.446L202.986,641.452L202.982,641.656L202.976,641.927L202.975,641.935L202.969,642.145L202.962,642.407L202.962,642.416L202.954,642.63L202.945,642.886L202.945,642.897L202.936,643.113L202.926,643.364L202.925,643.378L202.915,643.594L202.903,643.842L202.902,643.857L202.891,644.074L202.877,644.319L202.877,644.336L202.863,644.553L202.849,644.795L202.848,644.814L202.833,645.031L202.817,645.27L202.816,645.291L202.8,645.508L202.783,645.745L202.781,645.767L202.764,645.983L202.745,646.218L202.743,646.242L202.725,646.458L202.705,646.691L202.703,646.717L202.683,646.932L202.662,647.163L202.659,647.191L202.638,647.405L202.615,647.634L202.612,647.664L202.59,647.877L202.566,648.105L202.563,648.136L202.539,648.348L202.514,648.574L202.511,648.607L202.486,648.818L202.459,649.042L202.455,649.077L202.429,649.288L202.402,649.51L202.397,649.547L202.37,649.756L202.341,649.977L202.338,649.996L202.336,650.015L202.307,650.223L202.277,650.443L202.275,650.463L202.272,650.483L202.242,650.69L202.211,650.908L202.208,650.929L202.205,650.95L202.174,651.155L202.142,651.372L202.138,651.394L202.135,651.415L202.103,651.62L202.07,651.835L202.066,651.858L202.063,651.88L202.03,652.083L201.995,652.297L201.991,652.321L201.987,652.344L201.953,652.546L201.917,652.758L201.913,652.783L201.909,652.807L201.874,653.008L201.837,653.219L201.832,653.244L201.828,653.269L201.791,653.468L201.753,653.678L201.748,653.704L201.744,653.73L201.706,653.928L201.667,654.136L201.662,654.163L201.657,654.19L201.619,654.387L201.578,654.594L201.573,654.622L201.567,654.649L201.528,654.845L201.487,655.05L201.481,655.079L201.475,655.107L201.435,655.301L201.392,655.505L201.386,655.535L201.38,655.564L201.339,655.757L201.295,655.96L201.289,655.99L201.282,656.02L201.24,656.212L201.195,656.413L201.188,656.445L201.181,656.475L201.138,656.665L201.093,656.865L201.085,656.898L201.078,656.929L201.034,657.118L200.987,657.317L200.979,657.35L200.972,657.382L200.927,657.569L200.879,657.767L200.871,657.801L200.863,657.834L200.817,658.02L200.769,658.216L200.76,658.251L200.751,658.285L200.704,658.469L200.655,658.664L200.646,658.7L200.637,658.734L200.589,658.918L200.539,659.111L200.529,659.148L200.52,659.183L200.471,659.365L200.42,659.557L200.41,659.595L200.4,659.631L200.351,659.811L200.299,660.002L200.288,660.04L200.278,660.077L200.228,660.256L200.174,660.446L200.163,660.485L200.153,660.522L200.102,660.7L200.048,660.889L200.036,660.928L200.025,660.967L199.973,661.143L199.918,661.33L199.906,661.371L199.895,661.41L199.842,661.584L199.786,661.771L199.773,661.812L199.762,661.852L199.708,662.025L199.651,662.21L199.638,662.252L199.626,662.292L199.572,662.464L199.514,662.648L199.5,662.691L199.487,662.732L199.433,662.903L199.374,663.085L199.36,663.129L199.346,663.171L199.291,663.34L199.232,663.521L199.217,663.566L199.203,663.608L199.147,663.775L199.086,663.956L199.071,664.001L199.057,664.044L199,664.21L198.939,664.389L198.923,664.435L198.908,664.479L198.85,664.644L198.789,664.821L198.772,664.868L198.756,664.913L198.698,665.076L198.636,665.252L198.618,665.3L198.602,665.345L198.544,665.507L198.48,665.682L198.462,665.731L198.446,665.776L198.387,665.937L198.322,666.111L198.304,666.16L198.287,666.206L198.227,666.365L198.162,666.538L198.143,666.589L198.125,666.635L198.065,666.793L197.999,666.965L197.979,667.016L197.961,667.063L197.9,667.219L197.834,667.39L197.813,667.441L197.794,667.489L197.733,667.644L197.666,667.813L197.644,667.866L197.625,667.914L197.563,668.067L197.495,668.236L197.473,668.289L197.453,668.338L197.391,668.49L197.322,668.657L197.299,668.711L197.279,668.76L197.216,668.911L197.147,669.077L197.123,669.132L197.102,669.182L197.039,669.33L196.969,669.495L196.945,669.551L196.923,669.602L196.859,669.749L196.788,669.913L196.764,669.969L196.741,670.02L196.677,670.166L196.605,670.329L196.58,670.386L196.557,670.437L196.492,670.582L196.42,670.743L196.394,670.801L196.37,670.853L196.305,670.996L196.232,671.156L196.205,671.215L196.181,671.268L196.116,671.409L196.042,671.568L196.014,671.628L195.99,671.681L195.924,671.821L195.85,671.979L195.821,672.039L195.796,672.093L195.73,672.232L195.655,672.388L195.625,672.449L195.599,672.504L195.533,672.641L195.458,672.796L195.427,672.858L195.401,672.913L195.334,673.048L195.258,673.203L195.227,673.265L195.199,673.32L195.132,673.455L195.056,673.608L195.024,673.671L194.996,673.727L194.928,673.859L194.851,674.012L194.818,674.076L194.79,674.132L194.722,674.263L194.644,674.414L194.611,674.479L194.582,674.535L194.514,674.665L194.435,674.815L194.401,674.88L194.371,674.937L194.303,675.066L194.224,675.215L194.188,675.281L194.158,675.338L194.089,675.465L194.01,675.613L193.973,675.679L193.942,675.737L193.874,675.863L193.794,676.009L193.756,676.077L193.725,676.135L193.656,676.259L193.575,676.405L193.537,676.473L193.504,676.531L193.435,676.654L193.354,676.798L193.315,676.867L193.282,676.926L193.213,677.047L193.131,677.191L193.091,677.26L193.057,677.319L192.988,677.439L192.906,677.582L192.865,677.652L192.83,677.711L192.761,677.83L192.678,677.971L192.636,678.042L192.601,678.102L192.531,678.219L192.448,678.359L192.405,678.43L192.369,678.491L192.3,678.606L192.216,678.745L192.172,678.818L192.136,678.878L192.066,678.992L191.982,679.13L191.937,679.203L191.899,679.264L191.83,679.376L191.745,679.513L191.699,679.587L191.661,679.648L191.591,679.759L191.506,679.895L191.459,679.97L191.42,680.031L191.35,680.141L191.265,680.275L191.217,680.35L191.178,680.412L191.108,680.52L191.022,680.654L190.972,680.73L190.932,680.792L190.862,680.899L190.776,681.031L190.726,681.108L190.685,681.17L190.615,681.275L190.528,681.407L190.477,681.484L190.436,681.546L190.366,681.65L190.278,681.781L190.226,681.859L190.184,681.921L190.114,682.024L190.026,682.153L189.973,682.232L189.93,682.294L189.86,682.396L189.772,682.524L189.717,682.603L189.674,682.666L189.604,682.766L189.516,682.893L189.46,682.973L189.416,683.036L189.346,683.135L189.257,683.261L189.2,683.341L189.155,683.404L189.085,683.502L188.996,683.627L188.938,683.708L188.893,683.771L188.823,683.867L188.733,683.991L188.674,684.073L188.628,684.136L188.558,684.231L188.468,684.354L188.408,684.436L188.361,684.5L188.292,684.593L188.201,684.715L188.139,684.798L188.092,684.862L188.023,684.954L187.932,685.075L187.869,685.158L187.821,685.222L187.752,685.313L187.661,685.432L187.596,685.517L187.548,685.58L187.479,685.67L187.388,685.789L187.322,685.873L187.272,685.937L187.204,686.025L187.112,686.143L187.045,686.228L186.995,686.292L186.926,686.379L186.835,686.496L186.766,686.582L186.716,686.646L186.647,686.731L186.555,686.847L186.485,686.933L186.434,686.997L186.366,687.081L186.273,687.196L186.202,687.283L186.15,687.347L186.082,687.43L185.99,687.544L185.917,687.631L185.865,687.695L185.797,687.777L185.704,687.889L185.63,687.978L185.577,688.042L185.509,688.122L185.416,688.234L185.341,688.322L185.287,688.387L185.22,688.466L185.127,688.576L185.05,688.665L184.995,688.73L184.929,688.807L184.835,688.917L184.757,689.006L184.702,689.071L184.635,689.147L184.541,689.255L184.462,689.346L184.406,689.41L184.34,689.485L184.246,689.592L184.165,689.683L184.108,689.748L184.042,689.822L183.948,689.928L183.866,690.019L183.808,690.083L183.743,690.156L183.648,690.261L183.564,690.353L183.507,690.417L183.441,690.489L183.347,690.593L183.261,690.686L183.203,690.749L183.138,690.82L183.043,690.923L182.956,691.016L182.897,691.08L182.832,691.149L182.738,691.251L182.649,691.345L182.59,691.408L182.525,691.476L182.43,691.577L182.34,691.671L182.28,691.735L182.216,691.802L182.121,691.901L182.029,691.996L181.969,692.06L181.905,692.125L181.81,692.224L181.717,692.319L181.655,692.382L181.592,692.447L181.496,692.545L181.402,692.64L181.34,692.703L181.277,692.767L181.181,692.864L181.085,692.96L181.023,693.023L180.96,693.085L180.864,693.18L180.767,693.277L180.703,693.34L180.641,693.401L180.546,693.496L180.446,693.593L180.382,693.655L180.321,693.715L180.225,693.809L180.124,693.906L180.06,693.969L179.998,694.027L179.902,694.12L179.8,694.218L179.735,694.28L179.674,694.338L179.578,694.429L179.474,694.528L179.408,694.59L179.348,694.646L179.252,694.737L179.146,694.836L179.08,694.897L179.02,694.953L178.924,695.042L178.816,695.141L178.749,695.203L178.69,695.257L178.594,695.346L178.484,695.445L178.417,695.507L178.358,695.56L178.262,695.647L178.151,695.747L178.083,695.808L178.025,695.861L177.929,695.947L177.816,696.047L177.748,696.108L177.69,696.159L177.593,696.245L177.479,696.345L177.41,696.406L177.352,696.456L177.256,696.54L177.14,696.642L177.071,696.702L177.014,696.751L176.917,696.834L176.799,696.936L176.73,696.995L176.673,697.044L176.577,697.126L176.457,697.228L176.387,697.287L176.331,697.334L176.234,697.416L176.112,697.518L176.042,697.577L175.986,697.623L175.89,697.703L175.766,697.806L175.695,697.865L175.64,697.91L175.545,697.989L175.419,698.092L175.347,698.15L175.293,698.195L175.197,698.273L175.069,698.376L174.997,698.434L174.943,698.477L174.848,698.554L174.718,698.658L174.646,698.716L174.592,698.758L174.497,698.834L174.365,698.938L174.292,698.995L174.239,699.036L174.144,699.111L174.01,699.215L173.937,699.272L173.885,699.313L173.79,699.387L173.654,699.491L173.58,699.548L173.529,699.587L173.433,699.66L173.296,699.765L173.222,699.821L173.171,699.859L173.076,699.932L172.936,700.036L172.862,700.092L172.811,700.13L172.716,700.201L172.575,700.306L172.5,700.361L172.45,700.398L172.355,700.468L172.211,700.573L172.136,700.628L172.087,700.664L171.992,700.733L171.847,700.838L171.771,700.893L171.722,700.928L171.628,700.996L171.48,701.101L171.404,701.155L171.356,701.189L171.262,701.256L171.112,701.362L171.036,701.416L170.988,701.449L170.894,701.515L170.742,701.621L170.666,701.674L170.619,701.706L170.525,701.771L170.371,701.877L170.294,701.93L170.248,701.962L170.154,702.026L169.998,702.132L169.921,702.184L169.875,702.215L169.782,702.278L169.623,702.384L169.546,702.436L169.501,702.466L169.408,702.528L169.247,702.634L169.17,702.685L169.125,702.714L169.032,702.775L168.869,702.882L168.792,702.932L168.747,702.961L168.655,703.021L168.49,703.127L168.412,703.178L168.368,703.205L168.276,703.264L168.109,703.371L168.031,703.42L167.988,703.447L167.896,703.505L167.726,703.612L167.648,703.661L167.606,703.687L167.514,703.744L167.342,703.851L167.264,703.899L167.222,703.925L167.131,703.981L166.957,704.087L166.878,704.136L166.837,704.16L166.746,704.216L166.57,704.322L166.491,704.369L166.45,704.394L166.36,704.448L166.181,704.554L166.102,704.601L166.062,704.624L165.972,704.678L165.791,704.784L165.711,704.83L165.672,704.853L165.583,704.905L165.399,705.011L165.319,705.057L165.281,705.079L165.192,705.131L165.006,705.237L164.926,705.282L164.888,705.303L164.8,705.354L164.611,705.46L164.531,705.504L164.494,705.525L164.406,705.575L164.215,705.68L164.135,705.725L164.098,705.745L164.011,705.793L163.817,705.899L163.737,705.942L163.701,705.962L163.614,706.009L163.418,706.115L163.338,706.158L163.302,706.177L163.216,706.223L163.017,706.328L162.937,706.371L162.902,706.389L162.816,706.435L162.615,706.54L162.535,706.582L162.501,706.599L162.415,706.644L162.212,706.749L162.132,706.79L162.098,706.807L162.013,706.851L161.807,706.955L161.727,706.996L161.694,707.012L161.609,707.055L161.401,707.159L161.32,707.199L161.288,707.215L161.204,707.257L160.993,707.361L160.913,707.401L160.881,707.416L160.798,707.457L160.584,707.561L160.504,707.599L160.472,707.614L160.39,707.654L160.173,707.758L160.093,707.796L160.062,707.81L159.98,707.849L159.761,707.952L159.681,707.99L159.651,708.004L159.57,708.042L159.348,708.144L159.268,708.181L159.239,708.195L159.158,708.232L158.933,708.334L158.853,708.37L158.825,708.383L158.744,708.42L158.517,708.521L158.437,708.557L158.409,708.57L158.33,708.605L158.1,708.706L158.02,708.741L157.993,708.753L157.914,708.788L157.681,708.888L157.602,708.923L157.575,708.934L157.497,708.968L157.261,709.068L157.182,709.102L157.155,709.113L157.078,709.146L156.84,709.246L156.76,709.279L156.735,709.29L156.658,709.322L156.417,709.421L156.338,709.453L156.313,709.463L156.237,709.495L155.993,709.593L155.914,709.625L155.89,709.635L155.815,709.665L155.568,709.763L155.489,709.794L155.465,709.804L155.391,709.833L155.141,709.93L155.063,709.961L155.039,709.97L154.966,709.999L154.714,710.095L154.635,710.125L154.612,710.134L154.54,710.162L154.285,710.257L154.206,710.287L154.184,710.295L154.112,710.322L153.854,710.417L153.776,710.446L153.755,710.454L153.684,710.48L153.423,710.574L153.345,710.602L153.324,710.61L153.254,710.635L152.99,710.729L152.913,710.756L152.892,710.764L152.823,710.788L152.556,710.881L152.479,710.908L152.459,710.915L152.39,710.938L152.121,711.03L152.044,711.057L152.025,711.063L151.957,711.086L151.684,711.177L151.608,711.203L151.589,711.209L151.522,711.231L151.247,711.321L151.171,711.346L151.152,711.352L151.087,711.374L150.808,711.463L150.732,711.487L150.714,711.493L150.65,711.514L150.368,711.602L150.292,711.626L150.275,711.631L150.211,711.651L149.926,711.738L149.852,711.762L149.835,711.767L149.772,711.786L149.484,711.872L149.41,711.895L149.393,711.899L149.332,711.918L149.041,712.003L148.967,712.025L148.951,712.03L148.89,712.047L148.596,712.132L148.522,712.153L148.507,712.157L148.447,712.174L148.15,712.257L148.077,712.278L148.062,712.282L148.004,712.298L147.703,712.38L147.631,712.4L147.616,712.404L147.559,712.42L147.255,712.501L147.183,712.52L147.169,712.524L147.113,712.539L146.806,712.618L146.734,712.637L146.721,712.64L146.666,712.655L146.356,712.733L146.285,712.751L146.272,712.755L146.218,712.768L145.905,712.846L145.834,712.863L145.822,712.866L145.769,712.879L145.452,712.955L145.382,712.972L145.37,712.975L145.318,712.987L144.999,713.062L144.929,713.078L144.918,713.081L144.867,713.093L144.544,713.166L144.475,713.181L144.464,713.184L144.415,713.195L144.089,713.267L144.02,713.282L144.01,713.284L143.961,713.295L143.632,713.365L143.564,713.38L143.554,713.382L143.507,713.392L143.174,713.461L143.107,713.475L143.098,713.477L143.052,713.487L142.716,713.554L142.649,713.567L142.64,713.569L142.595,713.578L142.256,713.644L142.19,713.657L142.181,713.659L142.138,713.667L141.795,713.731L141.73,713.744L141.722,713.745L141.68,713.753L141.333,713.816L141.269,713.828L141.22,713.836L140.871,713.898L140.807,713.909L140.76,713.917L140.407,713.976L140.344,713.987L140.299,713.995L139.942,714.052L139.88,714.063L139.837,714.07L139.477,714.126L139.415,714.135L139.373,714.142L139.01,714.196L138.95,714.205L138.909,714.211L138.543,714.263L138.483,714.272L138.444,714.277L138.074,714.328L137.979,714.341L137.605,714.389L137.512,714.401L137.134,714.448L137.044,714.459L136.663,714.504L136.576,714.514L136.191,714.557L136.106,714.566L135.718,714.607L135.636,714.615L135.244,714.654L135.165,714.662L134.769,714.698L134.693,714.705L134.294,714.739L134.22,714.745L133.817,714.777L133.746,714.783L133.34,714.812L133.272,714.817L132.861,714.845L132.797,714.849L132.382,714.874L132.321,714.877L131.902,714.9L131.844,714.903L131.421,714.923L131.366,714.926L130.938,714.943L130.888,714.945L130.455,714.96L130.409,714.962L129.929,714.976L129.448,714.986L128.967,714.994L128.485,714.998L128,715L127.515,714.998ZM127.619,581.001L128,581L128,699C95.437,699 69,672.563 69,640C69,607.564 95.231,581.206 127.619,581.001Z" style="fill:rgb(85,85,85);"/>
    <g transform="matrix(1,0,0,1,0,256)">
        <path d="M127.515,714.998C86.345,714.738 53,681.232 53,640C53,598.606 86.606,565 128,565L128.485,565.002C128.645,565.003 128.806,565.004 128.969,565.006L129.448,565.014L129.929,565.024L130.409,565.038L130.888,565.055L131.366,565.074L131.844,565.097L132.321,565.123L132.797,565.151L133.272,565.183L133.746,565.217L134.22,565.255L134.693,565.295L135.165,565.338L135.636,565.385L136.106,565.434L136.576,565.486L136.607,565.489L136.663,565.496L137.044,565.541L137.077,565.545L137.134,565.552L137.512,565.599L137.547,565.603L137.605,565.611L137.979,565.659L138.015,565.664L138.074,565.672L138.444,565.723L138.483,565.728L138.543,565.737L138.909,565.789L138.95,565.795L139.01,565.804L139.373,565.858L139.415,565.865L139.477,565.874L139.837,565.93L139.88,565.937L139.942,565.948L140.299,566.005L140.344,566.013L140.407,566.024L140.76,566.083L140.807,566.091L140.871,566.102L141.22,566.164L141.269,566.172L141.333,566.184L141.68,566.247L141.722,566.255L141.73,566.256L141.795,566.269L142.138,566.333L142.181,566.341L142.19,566.343L142.256,566.356L142.595,566.422L142.64,566.431L142.649,566.433L142.716,566.446L143.052,566.513L143.098,566.523L143.107,566.525L143.174,566.539L143.507,566.608L143.554,566.618L143.564,566.62L143.632,566.635L143.961,566.705L144.01,566.716L144.02,566.718L144.089,566.733L144.415,566.805L144.464,566.816L144.475,566.819L144.544,566.834L144.867,566.907L144.918,566.919L144.929,566.922L144.999,566.938L145.318,567.013L145.37,567.025L145.382,567.028L145.452,567.045L145.769,567.121L145.822,567.134L145.834,567.137L145.905,567.154L146.218,567.232L146.272,567.245L146.285,567.249L146.356,567.267L146.666,567.345L146.721,567.36L146.734,567.363L146.806,567.382L147.113,567.461L147.169,567.476L147.183,567.48L147.255,567.499L147.559,567.58L147.616,567.596L147.631,567.6L147.703,567.62L148.004,567.702L148.062,567.718L148.077,567.722L148.15,567.743L148.447,567.826L148.507,567.843L148.522,567.847L148.596,567.868L148.89,567.953L148.951,567.97L148.967,567.975L149.041,567.997L149.332,568.082L149.393,568.101L149.41,568.105L149.484,568.128L149.772,568.214L149.835,568.233L149.852,568.238L149.926,568.262L150.211,568.349L150.275,568.369L150.292,568.374L150.368,568.398L150.65,568.486L150.714,568.507L150.732,568.513L150.808,568.537L151.087,568.626L151.152,568.648L151.171,568.654L151.247,568.679L151.522,568.769L151.589,568.791L151.608,568.797L151.684,568.823L151.957,568.914L152.025,568.937L152.044,568.943L152.121,568.97L152.39,569.062L152.459,569.085L152.479,569.092L152.556,569.119L152.823,569.212L152.892,569.236L152.913,569.244L152.99,569.271L153.254,569.365L153.324,569.39L153.345,569.398L153.423,569.426L153.684,569.52L153.755,569.546L153.776,569.554L153.854,569.583L154.112,569.678L154.184,569.705L154.206,569.713L154.285,569.743L154.54,569.838L154.612,569.866L154.635,569.875L154.714,569.905L154.966,570.001L155.039,570.03L155.063,570.039L155.141,570.07L155.391,570.167L155.465,570.196L155.489,570.206L155.568,570.237L155.815,570.335L155.89,570.365L155.914,570.375L155.993,570.407L156.237,570.505L156.313,570.537L156.338,570.547L156.417,570.579L156.658,570.678L156.735,570.71L156.76,570.721L156.84,570.754L157.078,570.854L157.155,570.887L157.182,570.898L157.261,570.932L157.497,571.032L157.575,571.066L157.602,571.077L157.681,571.112L157.914,571.212L157.993,571.247L158.02,571.259L158.1,571.294L158.33,571.395L158.409,571.43L158.437,571.443L158.517,571.479L158.744,571.58L158.825,571.617L158.853,571.63L158.933,571.666L159.158,571.768L159.239,571.805L159.268,571.819L159.348,571.856L159.57,571.958L159.651,571.996L159.681,572.01L159.761,572.048L159.98,572.151L160.062,572.19L160.093,572.204L160.173,572.242L160.39,572.346L160.472,572.386L160.504,572.401L160.584,572.439L160.798,572.543L160.881,572.584L160.913,572.599L160.993,572.639L161.204,572.743L161.288,572.785L161.32,572.801L161.401,572.841L161.609,572.945L161.694,572.988L161.727,573.004L161.807,573.045L162.013,573.149L162.098,573.193L162.132,573.21L162.212,573.251L162.415,573.356L162.501,573.401L162.535,573.418L162.615,573.46L162.816,573.565L162.902,573.611L162.937,573.629L163.017,573.672L163.216,573.777L163.302,573.823L163.338,573.842L163.418,573.885L163.614,573.991L163.701,574.038L163.737,574.058L163.817,574.101L164.011,574.207L164.098,574.255L164.135,574.275L164.215,574.32L164.406,574.425L164.494,574.475L164.531,574.496L164.611,574.54L164.8,574.646L164.888,574.697L164.926,574.718L165.006,574.763L165.192,574.869L165.281,574.921L165.319,574.943L165.399,574.989L165.583,575.095L165.672,575.147L165.711,575.17L165.791,575.216L165.972,575.322L166.062,575.376L166.102,575.399L166.181,575.446L166.36,575.552L166.45,575.606L166.491,575.631L166.57,575.678L166.746,575.784L166.837,575.84L166.878,575.864L166.957,575.913L167.131,576.019L167.222,576.075L167.264,576.101L167.342,576.149L167.514,576.256L167.606,576.313L167.648,576.339L167.726,576.388L167.896,576.495L167.988,576.553L168.031,576.58L168.109,576.629L168.276,576.736L168.368,576.795L168.412,576.822L168.49,576.873L168.655,576.979L168.747,577.039L168.792,577.068L168.869,577.118L169.032,577.225L169.125,577.286L169.17,577.315L169.247,577.366L169.408,577.472L169.501,577.534L169.546,577.564L169.623,577.616L169.782,577.722L169.875,577.785L169.921,577.816L169.998,577.868L170.154,577.974L170.248,578.038L170.294,578.07L170.371,578.123L170.525,578.229L170.619,578.294L170.666,578.326L170.742,578.379L170.894,578.485L170.988,578.551L171.036,578.584L171.112,578.638L171.262,578.744L171.356,578.811L171.404,578.845L171.48,578.899L171.628,579.004L171.722,579.072L171.771,579.107L171.847,579.162L171.992,579.267L172.087,579.336L172.136,579.372L172.211,579.427L172.355,579.532L172.45,579.602L172.5,579.639L172.575,579.694L172.716,579.799L172.811,579.87L172.862,579.908L172.936,579.964L173.076,580.068L173.171,580.141L173.222,580.179L173.296,580.235L173.433,580.34L173.529,580.413L173.58,580.452L173.654,580.509L173.79,580.613L173.885,580.687L173.937,580.728L174.01,580.785L174.144,580.889L174.239,580.964L174.292,581.005L174.365,581.062L174.497,581.166L174.592,581.242L174.646,581.284L174.718,581.342L174.848,581.446L174.943,581.523L174.997,581.566L175.069,581.624L175.197,581.727L175.293,581.805L175.347,581.85L175.419,581.908L175.545,582.011L175.64,582.09L175.695,582.135L175.766,582.194L175.89,582.297L175.986,582.377L176.042,582.423L176.112,582.482L176.234,582.584L176.331,582.666L176.387,582.713L176.457,582.772L176.577,582.874L176.673,582.956L176.73,583.005L176.799,583.064L176.917,583.166L177.014,583.249L177.071,583.298L177.14,583.358L177.256,583.46L177.352,583.544L177.41,583.594L177.479,583.655L177.593,583.755L177.69,583.841L177.748,583.892L177.816,583.953L177.929,584.053L178.025,584.139L178.083,584.192L178.151,584.253L178.262,584.353L178.358,584.44L178.417,584.493L178.484,584.555L178.594,584.654L178.69,584.743L178.749,584.797L178.816,584.859L178.924,584.958L179.02,585.047L179.08,585.103L179.146,585.164L179.252,585.263L179.348,585.354L179.408,585.41L179.474,585.472L179.578,585.571L179.674,585.662L179.735,585.72L179.8,585.782L179.902,585.88L179.998,585.973L180.06,586.031L180.124,586.094L180.225,586.191L180.321,586.285L180.382,586.345L180.446,586.407L180.546,586.504L180.641,586.599L180.703,586.66L180.767,586.723L180.864,586.82L180.96,586.915L181.023,586.977L181.085,587.04L181.181,587.136L181.277,587.233L181.34,587.297L181.402,587.36L181.496,587.455L181.592,587.553L181.655,587.618L181.717,587.681L181.81,587.776L181.905,587.875L181.969,587.94L182.029,588.004L182.121,588.099L182.216,588.198L182.28,588.265L182.34,588.329L182.43,588.423L182.525,588.524L182.59,588.592L182.649,588.655L182.738,588.749L182.832,588.851L182.897,588.92L182.956,588.984L183.043,589.077L183.138,589.18L183.203,589.251L183.261,589.314L183.347,589.407L183.441,589.511L183.507,589.583L183.564,589.647L183.648,589.739L183.743,589.844L183.808,589.917L183.866,589.981L183.948,590.072L184.042,590.178L184.108,590.252L184.165,590.317L184.246,590.408L184.34,590.515L184.406,590.59L184.462,590.654L184.541,590.745L184.635,590.853L184.702,590.929L184.757,590.994L184.835,591.083L184.929,591.193L184.995,591.27L185.05,591.335L185.127,591.424L185.22,591.534L185.287,591.613L185.341,591.678L185.416,591.766L185.509,591.878L185.577,591.958L185.63,592.022L185.704,592.111L185.797,592.223L185.865,592.305L185.917,592.369L185.99,592.456L186.082,592.57L186.15,592.653L186.202,592.717L186.273,592.804L186.366,592.919L186.434,593.003L186.485,593.067L186.555,593.153L186.647,593.269L186.716,593.354L186.766,593.418L186.835,593.504L186.926,593.621L186.995,593.708L187.045,593.772L187.112,593.857L187.204,593.975L187.272,594.063L187.322,594.127L187.388,594.211L187.479,594.33L187.548,594.42L187.596,594.483L187.661,594.568L187.752,594.687L187.821,594.778L187.869,594.842L187.932,594.925L188.023,595.046L188.092,595.138L188.139,595.202L188.201,595.285L188.292,595.407L188.361,595.5L188.408,595.564L188.468,595.646L188.558,595.769L188.628,595.864L188.674,595.927L188.733,596.009L188.823,596.133L188.893,596.229L188.938,596.292L188.996,596.373L189.085,596.498L189.155,596.596L189.2,596.659L189.257,596.739L189.346,596.865L189.416,596.964L189.46,597.027L189.516,597.107L189.604,597.234L189.674,597.334L189.717,597.397L189.772,597.476L189.86,597.604L189.93,597.706L189.973,597.768L190.026,597.847L190.114,597.976L190.184,598.079L190.226,598.141L190.278,598.219L190.366,598.35L190.436,598.454L190.477,598.516L190.528,598.593L190.615,598.725L190.685,598.83L190.726,598.892L190.776,598.969L190.862,599.101L190.932,599.208L190.972,599.27L191.022,599.346L191.108,599.48L191.178,599.588L191.217,599.65L191.265,599.725L191.35,599.859L191.42,599.969L191.459,600.03L191.506,600.105L191.591,600.241L191.661,600.352L191.699,600.413L191.745,600.487L191.83,600.624L191.899,600.736L191.937,600.797L191.982,600.87L192.066,601.008L192.136,601.122L192.172,601.182L192.216,601.255L192.3,601.394L192.369,601.509L192.405,601.57L192.448,601.641L192.531,601.781L192.601,601.898L192.636,601.958L192.678,602.029L192.761,602.17L192.83,602.289L192.865,602.348L192.906,602.418L192.988,602.561L193.057,602.681L193.091,602.74L193.131,602.809L193.213,602.953L193.282,603.074L193.315,603.133L193.354,603.202L193.435,603.346L193.504,603.469L193.537,603.527L193.575,603.595L193.656,603.741L193.725,603.865L193.756,603.923L193.794,603.991L193.874,604.137L193.942,604.263L193.973,604.321L194.01,604.387L194.089,604.535L194.158,604.662L194.188,604.719L194.224,604.785L194.303,604.934L194.371,605.063L194.401,605.12L194.435,605.185L194.514,605.335L194.582,605.465L194.611,605.521L194.644,605.586L194.722,605.737L194.79,605.868L194.818,605.924L194.851,605.988L194.928,606.141L194.996,606.273L195.024,606.329L195.056,606.392L195.132,606.545L195.199,606.68L195.227,606.735L195.258,606.797L195.334,606.952L195.401,607.087L195.427,607.142L195.458,607.204L195.533,607.359L195.599,607.496L195.625,607.551L195.655,607.612L195.73,607.768L195.796,607.907L195.821,607.961L195.85,608.021L195.924,608.179L195.99,608.319L196.014,608.372L196.042,608.432L196.116,608.591L196.181,608.732L196.205,608.785L196.232,608.844L196.305,609.004L196.37,609.147L196.394,609.199L196.42,609.257L196.492,609.418L196.557,609.563L196.58,609.614L196.605,609.671L196.677,609.834L196.741,609.98L196.764,610.031L196.788,610.087L196.859,610.251L196.923,610.398L196.945,610.449L196.969,610.505L197.039,610.67L197.102,610.818L197.123,610.868L197.147,610.923L197.216,611.089L197.279,611.24L197.299,611.289L197.322,611.343L197.391,611.51L197.453,611.662L197.473,611.711L197.495,611.764L197.563,611.933L197.625,612.086L197.644,612.134L197.666,612.187L197.733,612.356L197.794,612.511L197.813,612.559L197.834,612.61L197.9,612.781L197.961,612.937L197.979,612.984L197.999,613.035L198.065,613.207L198.125,613.365L198.143,613.411L198.162,613.462L198.227,613.635L198.287,613.794L198.304,613.84L198.322,613.889L198.387,614.063L198.446,614.224L198.462,614.269L198.48,614.318L198.544,614.493L198.602,614.655L198.618,614.7L198.636,614.748L198.698,614.924L198.756,615.087L198.772,615.132L198.789,615.179L198.85,615.356L198.908,615.521L198.923,615.565L198.939,615.611L199,615.79L199.057,615.956L199.071,615.999L199.086,616.044L199.147,616.225L199.203,616.392L199.217,616.434L199.232,616.479L199.291,616.66L199.346,616.829L199.36,616.871L199.374,616.915L199.433,617.097L199.487,617.268L199.5,617.309L199.514,617.352L199.572,617.536L199.626,617.708L199.638,617.748L199.651,617.79L199.708,617.975L199.762,618.148L199.773,618.188L199.786,618.229L199.842,618.416L199.895,618.59L199.906,618.629L199.918,618.67L199.973,618.857L200.025,619.033L200.036,619.072L200.048,619.111L200.102,619.3L200.153,619.478L200.163,619.515L200.174,619.554L200.228,619.744L200.278,619.923L200.288,619.96L200.299,619.998L200.351,620.189L200.4,620.369L200.41,620.405L200.42,620.443L200.471,620.635L200.52,620.817L200.529,620.852L200.539,620.889L200.589,621.082L200.637,621.266L200.646,621.3L200.655,621.336L200.704,621.531L200.751,621.715L200.76,621.749L200.769,621.784L200.817,621.98L200.863,622.166L200.871,622.199L200.879,622.233L200.927,622.431L200.972,622.618L200.979,622.65L200.987,622.683L201.034,622.882L201.078,623.071L201.085,623.102L201.093,623.135L201.138,623.335L201.181,623.525L201.188,623.555L201.195,623.587L201.24,623.788L201.282,623.98L201.289,624.01L201.295,624.04L201.339,624.243L201.38,624.436L201.386,624.465L201.392,624.495L201.435,624.699L201.475,624.893L201.481,624.921L201.487,624.95L201.528,625.155L201.567,625.351L201.573,625.378L201.578,625.406L201.619,625.613L201.657,625.81L201.662,625.837L201.667,625.864L201.706,626.072L201.744,626.27L201.748,626.296L201.753,626.322L201.791,626.532L201.828,626.731L201.832,626.756L201.837,626.781L201.874,626.992L201.909,627.193L201.913,627.217L201.917,627.242L201.953,627.454L201.987,627.656L201.991,627.679L201.995,627.703L202.03,627.917L202.063,628.12L202.066,628.142L202.07,628.165L202.103,628.38L202.135,628.585L202.138,628.606L202.142,628.628L202.174,628.845L202.205,629.05L202.208,629.071L202.211,629.092L202.242,629.31L202.272,629.517L202.275,629.537L202.277,629.557L202.307,629.777L202.336,629.985L202.338,630.004L202.341,630.023L202.37,630.244L202.397,630.453L202.402,630.49L202.429,630.712L202.455,630.923L202.459,630.958L202.486,631.182L202.511,631.393L202.514,631.426L202.539,631.652L202.563,631.864L202.566,631.895L202.59,632.123L202.612,632.336L202.615,632.366L202.638,632.595L202.659,632.809L202.662,632.837L202.683,633.068L202.703,633.283L202.705,633.309L202.725,633.542L202.743,633.758L202.745,633.782L202.764,634.017L202.781,634.233L202.783,634.255L202.8,634.492L202.816,634.709L202.817,634.73L202.833,634.969L202.848,635.186L202.849,635.205L202.863,635.447L202.877,635.664L202.877,635.681L202.891,635.926L202.902,636.143L202.903,636.158L202.915,636.406L202.925,636.622L202.926,636.636L202.936,636.887L202.945,637.103L202.945,637.114L202.954,637.37L202.962,637.584L202.962,637.593L202.969,637.855L202.975,638.065L202.976,638.073L202.982,638.344L202.986,638.548L202.986,638.554L202.991,638.84L202.994,639.031L202.994,639.035L202.998,639.515L202.998,639.516C202.999,639.679 203,639.839 203,640C203,640.161 202.999,640.321 202.998,640.484L202.994,640.965L202.994,640.969L202.991,641.16L202.986,641.446L202.986,641.452L202.982,641.656L202.976,641.927L202.975,641.935L202.969,642.145L202.962,642.407L202.962,642.416L202.954,642.63L202.945,642.886L202.945,642.897L202.936,643.113L202.926,643.364L202.925,643.378L202.915,643.594L202.903,643.842L202.902,643.857L202.891,644.074L202.877,644.319L202.877,644.336L202.863,644.553L202.849,644.795L202.848,644.814L202.833,645.031L202.817,645.27L202.816,645.291L202.8,645.508L202.783,645.745L202.781,645.767L202.764,645.983L202.745,646.218L202.743,646.242L202.725,646.458L202.705,646.691L202.703,646.717L202.683,646.932L202.662,647.163L202.659,647.191L202.638,647.405L202.615,647.634L202.612,647.664L202.59,647.877L202.566,648.105L202.563,648.136L202.539,648.348L202.514,648.574L202.511,648.607L202.486,648.818L202.459,649.042L202.455,649.077L202.429,649.288L202.402,649.51L202.397,649.547L202.37,649.756L202.341,649.977L202.338,649.996L202.336,650.015L202.307,650.223L202.277,650.443L202.275,650.463L202.272,650.483L202.242,650.69L202.211,650.908L202.208,650.929L202.205,650.95L202.174,651.155L202.142,651.372L202.138,651.394L202.135,651.415L202.103,651.62L202.07,651.835L202.066,651.858L202.063,651.88L202.03,652.083L201.995,652.297L201.991,652.321L201.987,652.344L201.953,652.546L201.917,652.758L201.913,652.783L201.909,652.807L201.874,653.008L201.837,653.219L201.832,653.244L201.828,653.269L201.791,653.468L201.753,653.678L201.748,653.704L201.744,653.73L201.706,653.928L201.667,654.136L201.662,654.163L201.657,654.19L201.619,654.387L201.578,654.594L201.573,654.622L201.567,654.649L201.528,654.845L201.487,655.05L201.481,655.079L201.475,655.107L201.435,655.301L201.392,655.505L201.386,655.535L201.38,655.564L201.339,655.757L201.295,655.96L201.289,655.99L201.282,656.02L201.24,656.212L201.195,656.413L201.188,656.445L201.181,656.475L201.138,656.665L201.093,656.865L201.085,656.898L201.078,656.929L201.034,657.118L200.987,657.317L200.979,657.35L200.972,657.382L200.927,657.569L200.879,657.767L200.871,657.801L200.863,657.834L200.817,658.02L200.769,658.216L200.76,658.251L200.751,658.285L200.704,658.469L200.655,658.664L200.646,658.7L200.637,658.734L200.589,658.918L200.539,659.111L200.529,659.148L200.52,659.183L200.471,659.365L200.42,659.557L200.41,659.595L200.4,659.631L200.351,659.811L200.299,660.002L200.288,660.04L200.278,660.077L200.228,660.256L200.174,660.446L200.163,660.485L200.153,660.522L200.102,660.7L200.048,660.889L200.036,660.928L200.025,660.967L199.973,661.143L199.918,661.33L199.906,661.371L199.895,661.41L199.842,661.584L199.786,661.771L199.773,661.812L199.762,661.852L199.708,662.025L199.651,662.21L199.638,662.252L199.626,662.292L199.572,662.464L199.514,662.648L199.5,662.691L199.487,662.732L199.433,662.903L199.374,663.085L199.36,663.129L199.346,663.171L199.291,663.34L199.232,663.521L199.217,663.566L199.203,663.608L199.147,663.775L199.086,663.956L199.071,664.001L199.057,664.044L199,664.21L198.939,664.389L198.923,664.435L198.908,664.479L198.85,664.644L198.789,664.821L198.772,664.868L198.756,664.913L198.698,665.076L198.636,665.252L198.618,665.3L198.602,665.345L198.544,665.507L198.48,665.682L198.462,665.731L198.446,665.776L198.387,665.937L198.322,666.111L198.304,666.16L198.287,666.206L198.227,666.365L198.162,666.538L198.143,666.589L198.125,666.635L198.065,666.793L197.999,666.965L197.979,667.016L197.961,667.063L197.9,667.219L197.834,667.39L197.813,667.441L197.794,667.489L197.733,667.644L197.666,667.813L197.644,667.866L197.625,667.914L197.563,668.067L197.495,668.236L197.473,668.289L197.453,668.338L197.391,668.49L197.322,668.657L197.299,668.711L197.279,668.76L197.216,668.911L197.147,669.077L197.123,669.132L197.102,669.182L197.039,669.33L196.969,669.495L196.945,669.551L196.923,669.602L196.859,669.749L196.788,669.913L196.764,669.969L196.741,670.02L196.677,670.166L196.605,670.329L196.58,670.386L196.557,670.437L196.492,670.582L196.42,670.743L196.394,670.801L196.37,670.853L196.305,670.996L196.232,671.156L196.205,671.215L196.181,671.268L196.116,671.409L196.042,671.568L196.014,671.628L195.99,671.681L195.924,671.821L195.85,671.979L195.821,672.039L195.796,672.093L195.73,672.232L195.655,672.388L195.625,672.449L195.599,672.504L195.533,672.641L195.458,672.796L195.427,672.858L195.401,672.913L195.334,673.048L195.258,673.203L195.227,673.265L195.199,673.32L195.132,673.455L195.056,673.608L195.024,673.671L194.996,673.727L194.928,673.859L194.851,674.012L194.818,674.076L194.79,674.132L194.722,674.263L194.644,674.414L194.611,674.479L194.582,674.535L194.514,674.665L194.435,674.815L194.401,674.88L194.371,674.937L194.303,675.066L194.224,675.215L194.188,675.281L194.158,675.338L194.089,675.465L194.01,675.613L193.973,675.679L193.942,675.737L193.874,675.863L193.794,676.009L193.756,676.077L193.725,676.135L193.656,676.259L193.575,676.405L193.537,676.473L193.504,676.531L193.435,676.654L193.354,676.798L193.315,676.867L193.282,676.926L193.213,677.047L193.131,677.191L193.091,677.26L193.057,677.319L192.988,677.439L192.906,677.582L192.865,677.652L192.83,677.711L192.761,677.83L192.678,677.971L192.636,678.042L192.601,678.102L192.531,678.219L192.448,678.359L192.405,678.43L192.369,678.491L192.3,678.606L192.216,678.745L192.172,678.818L192.136,678.878L192.066,678.992L191.982,679.13L191.937,679.203L191.899,679.264L191.83,679.376L191.745,679.513L191.699,679.587L191.661,679.648L191.591,679.759L191.506,679.895L191.459,679.97L191.42,680.031L191.35,680.141L191.265,680.275L191.217,680.35L191.178,680.412L191.108,680.52L191.022,680.654L190.972,680.73L190.932,680.792L190.862,680.899L190.776,681.031L190.726,681.108L190.685,681.17L190.615,681.275L190.528,681.407L190.477,681.484L190.436,681.546L190.366,681.65L190.278,681.781L190.226,681.859L190.184,681.921L190.114,682.024L190.026,682.153L189.973,682.232L189.93,682.294L189.86,682.396L189.772,682.524L189.717,682.603L189.674,682.666L189.604,682.766L189.516,682.893L189.46,682.973L189.416,683.036L189.346,683.135L189.257,683.261L189.2,683.341L189.155,683.404L189.085,683.502L188.996,683.627L188.938,683.708L188.893,683.771L188.823,683.867L188.733,683.991L188.674,684.073L188.628,684.136L188.558,684.231L188.468,684.354L188.408,684.436L188.361,684.5L188.292,684.593L188.201,684.715L188.139,684.798L188.092,684.862L188.023,684.954L187.932,685.075L187.869,685.158L187.821,685.222L187.752,685.313L187.661,685.432L187.596,685.517L187.548,685.58L187.479,685.67L187.388,685.789L187.322,685.873L187.272,685.937L187.204,686.025L187.112,686.143L187.045,686.228L186.995,686.292L186.926,686.379L186.835,686.496L186.766,686.582L186.716,686.646L186.647,686.731L186.555,686.847L186.485,686.933L186.434,686.997L186.366,687.081L186.273,687.196L186.202,687.283L186.15,687.347L186.082,687.43L185.99,687.544L185.917,687.631L185.865,687.695L185.797,687.777L185.704,687.889L185.63,687.978L185.577,688.042L185.509,688.122L185.416,688.234L185.341,688.322L185.287,688.387L185.22,688.466L185.127,688.576L185.05,688.665L184.995,688.73L184.929,688.807L184.835,688.917L184.757,689.006L184.702,689.071L184.635,689.147L184.541,689.255L184.462,689.346L184.406,689.41L184.34,689.485L184.246,689.592L184.165,689.683L184.108,689.748L184.042,689.822L183.948,689.928L183.866,690.019L183.808,690.083L183.743,690.156L183.648,690.261L183.564,690.353L183.507,690.417L183.441,690.489L183.347,690.593L183.261,690.686L183.203,690.749L183.138,690.82L183.043,690.923L182.956,691.016L182.897,691.08L182.832,691.149L182.738,691.251L182.649,691.345L182.59,691.408L182.525,691.476L182.43,691.577L182.34,691.671L182.28,691.735L182.216,691.802L182.121,691.901L182.029,691.996L181.969,692.06L181.905,692.125L181.81,692.224L181.717,692.319L181.655,692.382L181.592,692.447L181.496,692.545L181.402,692.64L181.34,692.703L181.277,692.767L181.181,692.864L181.085,692.96L181.023,693.023L180.96,693.085L180.864,693.18L180.767,693.277L180.703,693.34L180.641,693.401L180.546,693.496L180.446,693.593L180.382,693.655L180.321,693.715L180.225,693.809L180.124,693.906L180.06,693.969L179.998,694.027L179.902,694.12L179.8,694.218L179.735,694.28L179.674,694.338L179.578,694.429L179.474,694.528L179.408,694.59L179.348,694.646L179.252,694.737L179.146,694.836L179.08,694.897L179.02,694.953L178.924,695.042L178.816,695.141L178.749,695.203L178.69,695.257L178.594,695.346L178.484,695.445L178.417,695.507L178.358,695.56L178.262,695.647L178.151,695.747L178.083,695.808L178.025,695.861L177.929,695.947L177.816,696.047L177.748,696.108L177.69,696.159L177.593,696.245L177.479,696.345L177.41,696.406L177.352,696.456L177.256,696.54L177.14,696.642L177.071,696.702L177.014,696.751L176.917,696.834L176.799,696.936L176.73,696.995L176.673,697.044L176.577,697.126L176.457,697.228L176.387,697.287L176.331,697.334L176.234,697.416L176.112,697.518L176.042,697.577L175.986,697.623L175.89,697.703L175.766,697.806L175.695,697.865L175.64,697.91L175.545,697.989L175.419,698.092L175.347,698.15L175.293,698.195L175.197,698.273L175.069,698.376L174.997,698.434L174.943,698.477L174.848,698.554L174.718,698.658L174.646,698.716L174.592,698.758L174.497,698.834L174.365,698.938L174.292,698.995L174.239,699.036L174.144,699.111L174.01,699.215L173.937,699.272L173.885,699.313L173.79,699.387L173.654,699.491L173.58,699.548L173.529,699.587L173.433,699.66L173.296,699.765L173.222,699.821L173.171,699.859L173.076,699.932L172.936,700.036L172.862,700.092L172.811,700.13L172.716,700.201L172.575,700.306L172.5,700.361L172.45,700.398L172.355,700.468L172.211,700.573L172.136,700.628L172.087,700.664L171.992,700.733L171.847,700.838L171.771,700.893L171.722,700.928L171.628,700.996L171.48,701.101L171.404,701.155L171.356,701.189L171.262,701.256L171.112,701.362L171.036,701.416L170.988,701.449L170.894,701.515L170.742,701.621L170.666,701.674L170.619,701.706L170.525,701.771L170.371,701.877L170.294,701.93L170.248,701.962L170.154,702.026L169.998,702.132L169.921,702.184L169.875,702.215L169.782,702.278L169.623,702.384L169.546,702.436L169.501,702.466L169.408,702.528L169.247,702.634L169.17,702.685L169.125,702.714L169.032,702.775L168.869,702.882L168.792,702.932L168.747,702.961L168.655,703.021L168.49,703.127L168.412,703.178L168.368,703.205L168.276,703.264L168.109,703.371L168.031,703.42L167.988,703.447L167.896,703.505L167.726,703.612L167.648,703.661L167.606,703.687L167.514,703.744L167.342,703.851L167.264,703.899L167.222,703.925L167.131,703.981L166.957,704.087L166.878,704.136L166.837,704.16L166.746,704.216L166.57,704.322L166.491,704.369L166.45,704.394L166.36,704.448L166.181,704.554L166.102,704.601L166.062,704.624L165.972,704.678L165.791,704.784L165.711,704.83L165.672,704.853L165.583,704.905L165.399,705.011L165.319,705.057L165.281,705.079L165.192,705.131L165.006,705.237L164.926,705.282L164.888,705.303L164.8,705.354L164.611,705.46L164.531,705.504L164.494,705.525L164.406,705.575L164.215,705.68L164.135,705.725L164.098,705.745L164.011,705.793L163.817,705.899L163.737,705.942L163.701,705.962L163.614,706.009L163.418,706.115L163.338,706.158L163.302,706.177L163.216,706.223L163.017,706.328L162.937,706.371L162.902,706.389L162.816,706.435L162.615,706.54L162.535,706.582L162.501,706.599L162.415,706.644L162.212,706.749L162.132,706.79L162.098,706.807L162.013,706.851L161.807,706.955L161.727,706.996L161.694,707.012L161.609,707.055L161.401,707.159L161.32,707.199L161.288,707.215L161.204,707.257L160.993,707.361L160.913,707.401L160.881,707.416L160.798,707.457L160.584,707.561L160.504,707.599L160.472,707.614L160.39,707.654L160.173,707.758L160.093,707.796L160.062,707.81L159.98,707.849L159.761,707.952L159.681,707.99L159.651,708.004L159.57,708.042L159.348,708.144L159.268,708.181L159.239,708.195L159.158,708.232L158.933,708.334L158.853,708.37L158.825,708.383L158.744,708.42L158.517,708.521L158.437,708.557L158.409,708.57L158.33,708.605L158.1,708.706L158.02,708.741L157.993,708.753L157.914,708.788L157.681,708.888L157.602,708.923L157.575,708.934L157.497,708.968L157.261,709.068L157.182,709.102L157.155,709.113L157.078,709.146L156.84,709.246L156.76,709.279L156.735,709.29L156.658,709.322L156.417,709.421L156.338,709.453L156.313,709.463L156.237,709.495L155.993,709.593L155.914,709.625L155.89,709.635L155.815,709.665L155.568,709.763L155.489,709.794L155.465,709.804L155.391,709.833L155.141,709.93L155.063,709.961L155.039,709.97L154.966,709.999L154.714,710.095L154.635,710.125L154.612,710.134L154.54,710.162L154.285,710.257L154.206,710.287L154.184,710.295L154.112,710.322L153.854,710.417L153.776,710.446L153.755,710.454L153.684,710.48L153.423,710.574L153.345,710.602L153.324,710.61L153.254,710.635L152.99,710.729L152.913,710.756L152.892,710.764L152.823,710.788L152.556,710.881L152.479,710.908L152.459,710.915L152.39,710.938L152.121,711.03L152.044,711.057L152.025,711.063L151.957,711.086L151.684,711.177L151.608,711.203L151.589,711.209L151.522,711.231L151.247,711.321L151.171,711.346L151.152,711.352L151.087,711.374L150.808,711.463L150.732,711.487L150.714,711.493L150.65,711.514L150.368,711.602L150.292,711.626L150.275,711.631L150.211,711.651L149.926,711.738L149.852,711.762L149.835,711.767L149.772,711.786L149.484,711.872L149.41,711.895L149.393,711.899L149.332,711.918L149.041,712.003L148.967,712.025L148.951,712.03L148.89,712.047L148.596,712.132L148.522,712.153L148.507,712.157L148.447,712.174L148.15,712.257L148.077,712.278L148.062,712.282L148.004,712.298L147.703,712.38L147.631,712.4L147.616,712.404L147.559,712.42L147.255,712.501L147.183,712.52L147.169,712.524L147.113,712.539L146.806,712.618L146.734,712.637L146.721,712.64L146.666,712.655L146.356,712.733L146.285,712.751L146.272,712.755L146.218,712.768L145.905,712.846L145.834,712.863L145.822,712.866L145.769,712.879L145.452,712.955L145.382,712.972L145.37,712.975L145.318,712.987L144.999,713.062L144.929,713.078L144.918,713.081L144.867,713.093L144.544,713.166L144.475,713.181L144.464,713.184L144.415,713.195L144.089,713.267L144.02,713.282L144.01,713.284L143.961,713.295L143.632,713.365L143.564,713.38L143.554,713.382L143.507,713.392L143.174,713.461L143.107,713.475L143.098,713.477L143.052,713.487L142.716,713.554L142.649,713.567L142.64,713.569L142.595,713.578L142.256,713.644L142.19,713.657L142.181,713.659L142.138,713.667L141.795,713.731L141.73,713.744L141.722,713.745L141.68,713.753L141.333,713.816L141.269,713.828L141.22,713.836L140.871,713.898L140.807,713.909L140.76,713.917L140.407,713.976L140.344,713.987L140.299,713.995L139.942,714.052L139.88,714.063L139.837,714.07L139.477,714.126L139.415,714.135L139.373,714.142L139.01,714.196L138.95,714.205L138.909,714.211L138.543,714.263L138.483,714.272L138.444,714.277L138.074,714.328L137.979,714.341L137.605,714.389L137.512,714.401L137.134,714.448L137.044,714.459L136.663,714.504L136.576,714.514L136.191,714.557L136.106,714.566L135.718,714.607L135.636,714.615L135.244,714.654L135.165,714.662L134.769,714.698L134.693,714.705L134.294,714.739L134.22,714.745L133.817,714.777L133.746,714.783L133.34,714.812L133.272,714.817L132.861,714.845L132.797,714.849L132.382,714.874L132.321,714.877L131.902,714.9L131.844,714.903L131.421,714.923L131.366,714.926L130.938,714.943L130.888,714.945L130.455,714.96L130.409,714.962L129.929,714.976L129.448,714.986L128.967,714.994L128.485,714.998L128,715L127.515,714.998ZM127.619,581.001L128,581L128,699C95.437,699 69,672.563 69,640C69,607.564 95.231,581.206 127.619,581.001Z" style="fill:rgb(0,94,255);"/>
    </g>
</svg>
