<?xml version="1.0" encoding="UTF-8" standalone="no"?>
<!DOCTYPE svg PUBLIC "-//W3C//DTD SVG 1.1//EN" "http://www.w3.org/Graphics/SVG/1.1/DTD/svg11.dtd">
<svg width="100%" height="100%" viewBox="0 0 512 1280" version="1.1" xmlns="http://www.w3.org/2000/svg" xmlns:xlink="http://www.w3.org/1999/xlink" xml:space="preserve" xmlns:serif="http://www.serif.com/" style="fill-rule:evenodd;clip-rule:evenodd;stroke-linejoin:round;stroke-miterlimit:2;">
    <g transform="matrix(1,0,0,0.859375,6,295.391)">
        <path d="M110,346.309C110,343.84 109.157,341.472 107.657,339.727C106.157,337.981 104.122,337 102,337L81,337C78.878,337 76.843,337.981 75.343,339.727C73.843,341.472 73,343.84 73,346.309L73,455.691C73,458.16 73.843,460.528 75.343,462.273C76.843,464.019 78.878,465 81,465L102,465C104.122,465 106.157,464.019 107.657,462.273C109.157,460.528 110,458.16 110,455.691L110,346.309Z" style="fill:rgb(51,51,51);"/>
    </g>
    <g transform="matrix(1,0,0,0.859375,262,295.391)">
        <path d="M110,346.309C110,343.84 109.157,341.472 107.657,339.727C106.157,337.981 104.122,337 102,337L81,337C78.878,337 76.843,337.981 75.343,339.727C73.843,341.472 73,343.84 73,346.309L73,455.691C73,458.16 73.843,460.528 75.343,462.273C76.843,464.019 78.878,465 81,465L102,465C104.122,465 106.157,464.019 107.657,462.273C109.157,460.528 110,458.16 110,455.691L110,346.309Z" style="fill:white;"/>
    </g>
    <g transform="matrix(1,0,0,0.859375,67,295.391)">
        <path d="M110,346.309C110,343.84 109.157,341.472 107.657,339.727C106.157,337.981 104.122,337 102,337L81,337C78.878,337 76.843,337.981 75.343,339.727C73.843,341.472 73,343.84 73,346.309L73,455.691C73,458.16 73.843,460.528 75.343,462.273C76.843,464.019 78.878,465 81,465L102,465C104.122,465 106.157,464.019 107.657,462.273C109.157,460.528 110,458.16 110,455.691L110,346.309Z" style="fill:rgb(51,51,51);"/>
    </g>
    <g transform="matrix(1,0,0,0.859375,323,295.391)">
        <path d="M110,346.309C110,343.84 109.157,341.472 107.657,339.727C106.157,337.981 104.122,337 102,337L81,337C78.878,337 76.843,337.981 75.343,339.727C73.843,341.472 73,343.84 73,346.309L73,455.691C73,458.16 73.843,460.528 75.343,462.273C76.843,464.019 78.878,465 81,465L102,465C104.122,465 106.157,464.019 107.657,462.273C109.157,460.528 110,458.16 110,455.691L110,346.309Z" style="fill:white;"/>
    </g>
    <g id="Play" transform="matrix(5.5,7.4572e-31,-6.77927e-32,5.5,-1219,-1235.75)">
        <path d="M236,284.2C236,283.265 237.064,282.69 237.894,283.177L255.404,293.479C256.198,293.945 256.198,295.055 255.404,295.522C252.694,297.117 250.661,298.312 249.306,299.11C246.77,300.601 242.966,302.839 237.894,305.823C237.064,306.31 236,305.736 236,304.801L236,284.2Z" style="fill:rgb(51,51,51);"/>
    </g>
    <g id="Play1" serif:id="Play" transform="matrix(5.5,7.4572e-31,-6.77927e-32,5.5,-963,-1235.75)">
        <path d="M236,284.2C236,283.265 237.064,282.69 237.894,283.177L255.404,293.479C256.198,293.945 256.198,295.055 255.404,295.522C252.694,297.117 250.661,298.312 249.306,299.11C246.77,300.601 242.966,302.839 237.894,305.823C237.064,306.31 236,305.736 236,304.801L236,284.2Z" style="fill:white;"/>
    </g>
    <path d="M128,821C169.394,821 203,854.606 203,896C203,937.394 169.394,971 128,971C86.606,971 53,937.394 53,896C53,854.606 86.606,821 128,821ZM128,936L128,955C110.865,955 95.427,947.68 84.645,936L128,936ZM74.094,920C71.859,914.992 70.302,909.622 69.539,904L128,904L128,920L74.094,920ZM74.094,872L128,872L128,888L69.539,888C70.303,882.377 71.86,877.005 74.094,872ZM128,856L84.645,856C95.349,844.405 110.638,837.109 127.619,837.001L128,837L128,856Z" style="fill:rgb(51,51,51);"/>
    <g transform="matrix(1,0,0,1,256,0)">
        <path d="M128,821C169.394,821 203,854.606 203,896C203,937.394 169.394,971 128,971C86.606,971 53,937.394 53,896C53,854.606 86.606,821 128,821ZM128,936L128,955C110.865,955 95.427,947.68 84.645,936L128,936ZM74.094,920C71.859,914.992 70.302,909.622 69.539,904L128,904L128,920L74.094,920ZM74.094,872L128,872L128,888L69.539,888C70.303,882.377 71.86,877.005 74.094,872ZM128,856L84.645,856C95.349,844.405 110.638,837.109 127.619,837.001L128,837L128,856Z" style="fill:white;"/>
    </g>
    <g transform="matrix(1,0,0,1,0,256)">
        <path d="M128,821C169.394,821 203,854.606 203,896C203,937.394 169.394,971 128,971C86.606,971 53,937.394 53,896C53,854.606 86.606,821 128,821ZM127.619,837.001L128,837L128,955C95.437,955 69,928.563 69,896C69,863.564 95.231,837.206 127.619,837.001Z" style="fill:rgb(51,51,51);"/>
    </g>
    <g transform="matrix(1,0,0,1,256,256)">
        <path d="M128,821C169.394,821 203,854.606 203,896C203,937.394 169.394,971 128,971C86.606,971 53,937.394 53,896C53,854.606 86.606,821 128,821ZM127.619,837.001L128,837L128,955C95.437,955 69,928.563 69,896C69,863.564 95.231,837.206 127.619,837.001Z" style="fill:white;"/>
    </g>
    <path d="M128,53C169.394,53 203,86.606 203,128C203,169.394 169.394,203 128,203C86.606,203 53,169.394 53,128C53,86.606 86.606,53 128,53ZM128,66C162.219,66 190,93.781 190,128C190,162.219 162.219,190 128,190C93.781,190 66,162.219 66,128C66,93.781 93.781,66 128,66ZM128,74C157.803,74 182,98.197 182,128C182,157.803 157.803,182 128,182C98.197,182 74,157.803 74,128C74,98.197 98.197,74 128,74ZM157.95,111.288C157.95,113.283 156.385,114.927 154.392,115.025C150.902,115.197 145.578,115.459 141.874,115.642C140.755,115.697 139.703,116.195 138.951,117.027C138.199,117.858 137.808,118.954 137.865,120.074C138.107,124.83 138.483,132.215 138.608,134.673C138.636,135.224 138.687,135.774 138.761,136.32C139.253,139.947 141.248,154.66 142.174,161.488C142.294,162.374 142.025,163.268 141.438,163.941C140.85,164.614 140,165 139.106,165C139.105,165 139.105,165 139.105,165C137.027,165 135.227,163.559 134.772,161.531C133.756,156.999 132.001,149.173 131.108,145.187C130.782,143.733 129.491,142.7 128.001,142.7C128,142.7 128,142.7 127.999,142.7C126.509,142.7 125.218,143.733 124.892,145.187C123.999,149.173 122.244,156.999 121.228,161.531C120.773,163.559 118.973,165 116.895,165C116.895,165 116.895,165 116.894,165C116,165 115.15,164.614 114.562,163.941C113.975,163.268 113.706,162.374 113.826,161.488C114.752,154.66 116.747,139.947 117.239,136.32C117.313,135.774 117.364,135.224 117.392,134.673C117.517,132.215 117.893,124.83 118.135,120.074C118.192,118.954 117.801,117.858 117.049,117.027C116.297,116.195 115.245,115.697 114.126,115.642C110.422,115.459 105.098,115.197 101.608,115.025C99.615,114.927 98.05,113.283 98.05,111.288C98.05,111.287 98.05,111.287 98.05,111.286C98.05,110.359 98.426,109.472 99.092,108.828C99.759,108.183 100.658,107.837 101.584,107.868C108.647,108.104 124.112,108.62 127.384,108.729C127.795,108.743 128.205,108.743 128.616,108.729C131.888,108.62 147.353,108.104 154.416,107.868C155.342,107.837 156.241,108.183 156.908,108.828C157.574,109.472 157.95,110.359 157.95,111.286C157.95,111.287 157.95,111.287 157.95,111.288ZM128,91C131.905,91 135.1,94.195 135.1,98.1C135.1,102.005 131.905,105.2 128,105.2C124.095,105.2 120.9,102.005 120.9,98.1C120.9,94.195 124.095,91 128,91Z" style="fill:rgb(51,51,51);"/>
    <g transform="matrix(1,0,0,1,256,0)">
        <path d="M128,53C169.394,53 203,86.606 203,128C203,169.394 169.394,203 128,203C86.606,203 53,169.394 53,128C53,86.606 86.606,53 128,53ZM128,66C162.219,66 190,93.781 190,128C190,162.219 162.219,190 128,190C93.781,190 66,162.219 66,128C66,93.781 93.781,66 128,66ZM128,74C157.803,74 182,98.197 182,128C182,157.803 157.803,182 128,182C98.197,182 74,157.803 74,128C74,98.197 98.197,74 128,74ZM157.95,111.288C157.95,113.283 156.385,114.927 154.392,115.025C150.902,115.197 145.578,115.459 141.874,115.642C140.755,115.697 139.703,116.195 138.951,117.027C138.199,117.858 137.808,118.954 137.865,120.074C138.107,124.83 138.483,132.215 138.608,134.673C138.636,135.224 138.687,135.774 138.761,136.32C139.253,139.947 141.248,154.66 142.174,161.488C142.294,162.374 142.025,163.268 141.438,163.941C140.85,164.614 140,165 139.106,165C139.105,165 139.105,165 139.105,165C137.027,165 135.227,163.559 134.772,161.531C133.756,156.999 132.001,149.173 131.108,145.187C130.782,143.733 129.491,142.7 128.001,142.7C128,142.7 128,142.7 127.999,142.7C126.509,142.7 125.218,143.733 124.892,145.187C123.999,149.173 122.244,156.999 121.228,161.531C120.773,163.559 118.973,165 116.895,165C116.895,165 116.895,165 116.894,165C116,165 115.15,164.614 114.562,163.941C113.975,163.268 113.706,162.374 113.826,161.488C114.752,154.66 116.747,139.947 117.239,136.32C117.313,135.774 117.364,135.224 117.392,134.673C117.517,132.215 117.893,124.83 118.135,120.074C118.192,118.954 117.801,117.858 117.049,117.027C116.297,116.195 115.245,115.697 114.126,115.642C110.422,115.459 105.098,115.197 101.608,115.025C99.615,114.927 98.05,113.283 98.05,111.288C98.05,111.287 98.05,111.287 98.05,111.286C98.05,110.359 98.426,109.472 99.092,108.828C99.759,108.183 100.658,107.837 101.584,107.868C108.647,108.104 124.112,108.62 127.384,108.729C127.795,108.743 128.205,108.743 128.616,108.729C131.888,108.62 147.353,108.104 154.416,107.868C155.342,107.837 156.241,108.183 156.908,108.828C157.574,109.472 157.95,110.359 157.95,111.286C157.95,111.287 157.95,111.287 157.95,111.288ZM128,91C131.905,91 135.1,94.195 135.1,98.1C135.1,102.005 131.905,105.2 128,105.2C124.095,105.2 120.9,102.005 120.9,98.1C120.9,94.195 124.095,91 128,91Z" style="fill:white;"/>
    </g>
</svg>
