<?xml version="1.0" encoding="UTF-8" standalone="no"?>
<!DOCTYPE svg PUBLIC "-//W3C//DTD SVG 1.1//EN" "http://www.w3.org/Graphics/SVG/1.1/DTD/svg11.dtd">
<svg width="100%" height="100%" viewBox="0 0 2851 1026" version="1.1" xmlns="http://www.w3.org/2000/svg" xmlns:xlink="http://www.w3.org/1999/xlink" xml:space="preserve" style="fill-rule:evenodd;clip-rule:evenodd;stroke-linejoin:round;stroke-miterlimit:1.41421;">
    <g transform="matrix(1,0,0,1,-650.385,-329.29)">
        <g transform="matrix(1,0,0,1,400.74,264.486)">
            <g>
                <path d="M445.781,586.733L473.762,586.733C498.544,586.733 517.664,579.005 531.121,563.549C544.578,548.093 551.307,526.242 551.307,497.995C551.307,474.012 544.512,454.759 530.921,440.236C517.331,425.713 498.144,418.452 473.362,418.452L445.781,418.452L445.781,586.733ZM382.626,367.687L475.361,367.687C515.865,367.687 549.042,380.145 574.89,405.061C600.739,429.977 613.663,460.955 613.663,497.995C613.663,541.165 600.939,575.141 575.49,599.924C550.041,624.706 516.398,637.097 474.561,637.097L382.626,637.097L382.626,367.687Z" style="fill:none;"/>
                <path d="M655.633,637.097L655.633,434.44L713.992,434.44L713.992,637.097L655.633,637.097ZM650.837,375.682C650.837,366.355 654.168,358.361 660.83,351.699C667.492,345.037 675.486,341.706 684.813,341.706C694.14,341.706 702.134,345.037 708.796,351.699C715.458,358.361 718.789,366.355 718.789,375.682C718.789,385.008 715.458,393.003 708.796,399.665C702.134,406.327 694.14,409.658 684.813,409.658C675.486,409.658 667.492,406.327 660.83,399.665C654.168,393.003 650.837,385.008 650.837,375.682Z" style="fill:none;"/>
                <path d="M853.894,583.935C866.418,583.935 876.211,579.205 883.273,569.745C890.335,560.285 893.865,548.893 893.865,535.569C893.865,499.328 880.675,481.207 854.293,481.207C842.568,481.207 833.375,485.737 826.713,494.798C820.051,503.858 816.72,516.382 816.72,532.371C816.72,549.159 819.918,561.95 826.313,570.744C832.709,579.538 841.902,583.935 853.894,583.935ZM893.865,434.44L951.824,434.44L951.824,617.511C951.824,650.022 942.098,674.471 922.645,690.859C903.192,707.248 878.809,715.442 849.497,715.442C820.983,715.442 796.068,710.379 774.749,700.253L774.749,640.695C793.403,655.618 816.32,663.079 843.501,663.079C861.088,663.079 873.879,659.348 881.874,651.887C889.868,644.425 893.865,632.7 893.865,616.712L893.865,603.121C882.14,621.242 863.487,630.302 837.905,630.302C815.521,630.302 796.268,622.041 780.146,605.52C764.024,588.998 755.963,564.482 755.963,531.971C755.963,503.192 763.757,479.409 779.346,460.622C794.935,441.835 815.387,432.442 840.703,432.442C864.686,432.442 882.407,442.035 893.865,461.221L893.865,434.44Z" style="fill:none;"/>
                <path d="M999.791,637.097L999.791,434.44L1058.15,434.44L1058.15,637.097L999.791,637.097ZM994.994,375.682C994.994,366.355 998.325,358.361 1004.99,351.699C1011.65,345.037 1019.64,341.706 1028.97,341.706C1038.3,341.706 1046.29,345.037 1052.95,351.699C1059.62,358.361 1062.95,366.355 1062.95,375.682C1062.95,385.008 1059.62,393.003 1052.95,399.665C1046.29,406.327 1038.3,409.658 1028.97,409.658C1019.64,409.658 1011.65,406.327 1004.99,399.665C998.325,393.003 994.994,385.008 994.994,375.682Z" style="fill:none;"/>
                <path d="M1175.67,477.21L1175.67,570.344C1175.67,577.539 1177.73,583.002 1181.86,586.733C1185.99,590.464 1191.39,592.329 1198.05,592.329C1208.71,592.329 1218.17,589.664 1226.43,584.335L1226.43,632.7C1216.57,636.964 1203.25,639.096 1186.46,639.096C1140.36,639.096 1117.31,616.045 1117.31,569.945L1117.31,477.21L1088.13,477.21L1088.13,434.44L1117.31,434.44L1117.31,386.474L1175.67,386.474L1175.67,434.44L1222.83,434.44L1222.83,477.21L1175.67,477.21Z" style="fill:none;"/>
                <path d="M1362.74,553.956L1343.95,553.956C1334.09,553.956 1326.49,556.088 1321.16,560.351C1315.83,564.615 1313.17,570.078 1313.17,576.74C1313.17,590.33 1321.03,597.126 1336.75,597.126C1345.01,597.126 1351.41,594.594 1355.94,589.531C1360.47,584.468 1362.74,577.539 1362.74,568.746L1362.74,553.956ZM1268,496.796L1268,444.433C1283.99,435.373 1307.04,430.843 1337.15,430.843C1365.93,430.843 1387.38,437.038 1401.51,449.43C1415.63,461.821 1422.69,481.074 1422.69,507.189L1422.69,637.097L1365.53,637.097L1365.53,612.315C1357.01,629.636 1340.22,638.296 1315.17,638.296C1295.45,638.296 1280.06,632.7 1269,621.508C1257.94,610.316 1252.41,596.326 1252.41,579.538C1252.41,560.085 1259.54,544.962 1273.8,534.17C1288.05,523.378 1309.17,517.981 1337.15,517.981L1362.74,517.981L1362.74,503.991C1362.74,486.937 1351.41,478.409 1328.76,478.409C1306.91,478.409 1286.65,484.538 1268,496.796Z" style="fill:none;"/>
                <rect x="1470.66" y="354.497" width="58.359" height="282.601" style="fill:none;"/>
                <path d="M1879.97,379.279L1879.97,438.437C1859.98,426.179 1837.73,420.05 1813.22,420.05C1791.63,420.05 1773.51,427.578 1758.86,442.634C1744.2,457.691 1736.87,477.876 1736.87,503.192C1736.87,527.974 1744.2,547.627 1758.86,562.15C1773.51,576.673 1792.43,583.935 1815.62,583.935C1840.66,583.935 1862.12,577.539 1879.97,564.748L1879.97,625.106C1863.72,635.232 1840.27,640.295 1809.62,640.295C1770.18,640.295 1737.2,627.571 1710.69,602.122C1684.17,576.673 1670.92,543.697 1670.92,503.192C1670.92,462.154 1683.78,428.711 1709.49,402.863C1735.2,377.014 1768.72,364.09 1810.02,364.09C1840.4,364.09 1863.72,369.153 1879.97,379.279Z" style="fill:none;"/>
                <path d="M2013.48,640.295C1981.77,640.295 1957.25,630.768 1939.93,611.715C1922.61,592.662 1913.95,568.213 1913.95,538.367C1913.95,507.189 1923.01,481.54 1941.13,461.421C1959.25,441.302 1983.36,431.243 2013.48,431.243C2044.92,431.243 2069.3,440.969 2086.62,460.422C2103.95,479.875 2112.61,504.657 2112.61,534.769C2112.61,565.415 2103.88,590.663 2086.42,610.516C2068.97,630.369 2044.65,640.295 2013.48,640.295ZM2013.08,477.21C2000.29,477.21 1990.69,482.673 1984.3,493.599C1977.9,504.524 1974.7,518.648 1974.7,535.969C1974.7,553.29 1977.97,567.48 1984.5,578.539C1991.03,589.597 2000.82,595.127 2013.88,595.127C2026.67,595.127 2036.19,589.731 2042.46,578.938C2048.72,568.146 2051.85,554.089 2051.85,536.768C2051.85,497.063 2038.92,477.21 2013.08,477.21Z" style="fill:none;"/>
                <path d="M2208.94,434.44L2208.94,468.816C2214,457.624 2221.8,448.763 2232.32,442.235C2242.85,435.706 2255.44,432.442 2270.1,432.442C2290.88,432.442 2307.14,438.637 2318.86,451.029C2330.59,463.42 2336.45,481.607 2336.45,505.59L2336.45,637.097L2278.09,637.097L2278.09,516.382C2278.09,504.391 2275.29,495.264 2269.7,489.002C2264.1,482.74 2256.24,479.608 2246.11,479.608C2235.45,479.608 2226.59,483.805 2219.53,492.2C2212.47,500.594 2208.94,513.185 2208.94,529.973L2208.94,637.097L2150.58,637.097L2150.58,434.44L2208.94,434.44Z" style="fill:none;"/>
                <path d="M2449.97,477.21L2449.97,570.344C2449.97,577.539 2452.03,583.002 2456.16,586.733C2460.29,590.464 2465.69,592.329 2472.35,592.329C2483.01,592.329 2492.47,589.664 2500.73,584.335L2500.73,632.7C2490.87,636.964 2477.55,639.096 2460.76,639.096C2414.66,639.096 2391.61,616.045 2391.61,569.945L2391.61,477.21L2362.43,477.21L2362.43,434.44L2391.61,434.44L2391.61,386.474L2449.97,386.474L2449.97,434.44L2497.14,434.44L2497.14,477.21L2449.97,477.21Z" style="fill:none;"/>
                <path d="M2653.82,517.182L2653.82,512.385C2651.96,488.669 2641.57,476.81 2622.65,476.81C2613.32,476.81 2605.06,480.208 2597.86,487.003C2590.67,493.798 2585.87,503.858 2583.47,517.182L2653.82,517.182ZM2695.79,576.74L2695.79,625.505C2681.94,634.566 2660.75,639.096 2632.24,639.096C2598.93,639.096 2573.01,629.436 2554.49,610.116C2535.97,590.797 2526.71,565.948 2526.71,535.569C2526.71,503.325 2535.71,478.076 2553.7,459.822C2571.68,441.569 2593.87,432.442 2620.25,432.442C2647.43,432.442 2668.88,440.369 2684.6,456.225C2700.33,472.08 2708.19,495.73 2708.19,527.175C2708.19,533.304 2707.12,543.83 2704.99,558.753L2585.87,558.753C2589.87,569.945 2596.8,578.605 2606.66,584.734C2616.52,590.863 2628.38,593.928 2642.23,593.928C2662.75,593.928 2680.61,588.198 2695.79,576.74Z" style="fill:none;"/>
                <path d="M2808.12,434.44L2808.12,468.816C2813.18,457.624 2820.97,448.763 2831.5,442.235C2842.03,435.706 2854.62,432.442 2869.27,432.442C2890.06,432.442 2906.31,438.637 2918.04,451.029C2929.76,463.42 2935.62,481.607 2935.62,505.59L2935.62,637.097L2877.27,637.097L2877.27,516.382C2877.27,504.391 2874.47,495.264 2868.87,489.002C2863.28,482.74 2855.41,479.608 2845.29,479.608C2834.63,479.608 2825.77,483.805 2818.71,492.2C2811.65,500.594 2808.12,513.185 2808.12,529.973L2808.12,637.097L2749.76,637.097L2749.76,434.44L2808.12,434.44Z" style="fill:none;"/>
                <path d="M3049.14,477.21L3049.14,570.344C3049.14,577.539 3051.21,583.002 3055.34,586.733C3059.47,590.464 3064.87,592.329 3071.53,592.329C3082.19,592.329 3091.65,589.664 3099.91,584.335L3099.91,632.7C3090.05,636.964 3076.73,639.096 3059.94,639.096C3013.84,639.096 2990.79,616.045 2990.79,569.945L2990.79,477.21L2961.61,477.21L2961.61,434.44L2990.79,434.44L2990.79,386.474L3049.14,386.474L3049.14,434.44L3096.31,434.44L3096.31,477.21L3049.14,477.21Z" style="fill:none;"/>
                <path d="M445.781,586.733L473.762,586.733C498.544,586.733 517.664,579.005 531.121,563.549C544.578,548.093 551.307,526.242 551.307,497.995C551.307,474.012 544.512,454.759 530.921,440.236C517.331,425.713 498.144,418.452 473.362,418.452L445.781,418.452L445.781,586.733ZM382.626,367.687L475.361,367.687C515.865,367.687 549.042,380.145 574.89,405.061C600.739,429.977 613.663,460.955 613.663,497.995C613.663,541.165 600.939,575.141 575.49,599.924C550.041,624.706 516.398,637.097 474.561,637.097L382.626,637.097L382.626,367.687Z" style="fill:rgb(51,51,51);fill-rule:nonzero;"/>
                <path d="M655.633,637.097L655.633,434.44L713.992,434.44L713.992,637.097L655.633,637.097ZM650.837,375.682C650.837,366.355 654.168,358.361 660.83,351.699C667.492,345.037 675.486,341.706 684.813,341.706C694.14,341.706 702.134,345.037 708.796,351.699C715.458,358.361 718.789,366.355 718.789,375.682C718.789,385.008 715.458,393.003 708.796,399.665C702.134,406.327 694.14,409.658 684.813,409.658C675.486,409.658 667.492,406.327 660.83,399.665C654.168,393.003 650.837,385.008 650.837,375.682Z" style="fill:rgb(51,51,51);fill-rule:nonzero;"/>
                <path d="M853.894,583.935C866.418,583.935 876.211,579.205 883.273,569.745C890.335,560.285 893.865,548.893 893.865,535.569C893.865,499.328 880.675,481.207 854.293,481.207C842.568,481.207 833.375,485.737 826.713,494.798C820.051,503.858 816.72,516.382 816.72,532.371C816.72,549.159 819.918,561.95 826.313,570.744C832.709,579.538 841.902,583.935 853.894,583.935ZM893.865,434.44L951.824,434.44L951.824,617.511C951.824,650.022 942.098,674.471 922.645,690.859C903.192,707.248 878.809,715.442 849.497,715.442C820.983,715.442 796.068,710.379 774.749,700.253L774.749,640.695C793.403,655.618 816.32,663.079 843.501,663.079C861.088,663.079 873.879,659.348 881.874,651.887C889.868,644.425 893.865,632.7 893.865,616.712L893.865,603.121C882.14,621.242 863.487,630.302 837.905,630.302C815.521,630.302 796.268,622.041 780.146,605.52C764.024,588.998 755.963,564.482 755.963,531.971C755.963,503.192 763.757,479.409 779.346,460.622C794.935,441.835 815.387,432.442 840.703,432.442C864.686,432.442 882.407,442.035 893.865,461.221L893.865,434.44Z" style="fill:rgb(51,51,51);fill-rule:nonzero;"/>
                <path d="M999.791,637.097L999.791,434.44L1058.15,434.44L1058.15,637.097L999.791,637.097ZM994.994,375.682C994.994,366.355 998.325,358.361 1004.99,351.699C1011.65,345.037 1019.64,341.706 1028.97,341.706C1038.3,341.706 1046.29,345.037 1052.95,351.699C1059.62,358.361 1062.95,366.355 1062.95,375.682C1062.95,385.008 1059.62,393.003 1052.95,399.665C1046.29,406.327 1038.3,409.658 1028.97,409.658C1019.64,409.658 1011.65,406.327 1004.99,399.665C998.325,393.003 994.994,385.008 994.994,375.682Z" style="fill:rgb(51,51,51);fill-rule:nonzero;"/>
                <path d="M1175.67,477.21L1175.67,570.344C1175.67,577.539 1177.73,583.002 1181.86,586.733C1185.99,590.464 1191.39,592.329 1198.05,592.329C1208.71,592.329 1218.17,589.664 1226.43,584.335L1226.43,632.7C1216.57,636.964 1203.25,639.096 1186.46,639.096C1140.36,639.096 1117.31,616.045 1117.31,569.945L1117.31,477.21L1088.13,477.21L1088.13,434.44L1117.31,434.44L1117.31,386.474L1175.67,386.474L1175.67,434.44L1222.83,434.44L1222.83,477.21L1175.67,477.21Z" style="fill:rgb(51,51,51);fill-rule:nonzero;"/>
                <path d="M1362.74,553.956L1343.95,553.956C1334.09,553.956 1326.49,556.088 1321.16,560.351C1315.83,564.615 1313.17,570.078 1313.17,576.74C1313.17,590.33 1321.03,597.126 1336.75,597.126C1345.01,597.126 1351.41,594.594 1355.94,589.531C1360.47,584.468 1362.74,577.539 1362.74,568.746L1362.74,553.956ZM1268,496.796L1268,444.433C1283.99,435.373 1307.04,430.843 1337.15,430.843C1365.93,430.843 1387.38,437.038 1401.51,449.43C1415.63,461.821 1422.69,481.074 1422.69,507.189L1422.69,637.097L1365.53,637.097L1365.53,612.315C1357.01,629.636 1340.22,638.296 1315.17,638.296C1295.45,638.296 1280.06,632.7 1269,621.508C1257.94,610.316 1252.41,596.326 1252.41,579.538C1252.41,560.085 1259.54,544.962 1273.8,534.17C1288.05,523.378 1309.17,517.981 1337.15,517.981L1362.74,517.981L1362.74,503.991C1362.74,486.937 1351.41,478.409 1328.76,478.409C1306.91,478.409 1286.65,484.538 1268,496.796Z" style="fill:rgb(51,51,51);fill-rule:nonzero;"/>
                <rect x="1470.66" y="354.497" width="58.359" height="282.601" style="fill:rgb(51,51,51);fill-rule:nonzero;"/>
                <path d="M1879.97,379.279L1879.97,438.437C1859.98,426.179 1837.73,420.05 1813.22,420.05C1791.63,420.05 1773.51,427.578 1758.86,442.634C1744.2,457.691 1736.87,477.876 1736.87,503.192C1736.87,527.974 1744.2,547.627 1758.86,562.15C1773.51,576.673 1792.43,583.935 1815.62,583.935C1840.66,583.935 1862.12,577.539 1879.97,564.748L1879.97,625.106C1863.72,635.232 1840.27,640.295 1809.62,640.295C1770.18,640.295 1737.2,627.571 1710.69,602.122C1684.17,576.673 1670.92,543.697 1670.92,503.192C1670.92,462.154 1683.78,428.711 1709.49,402.863C1735.2,377.014 1768.72,364.09 1810.02,364.09C1840.4,364.09 1863.72,369.153 1879.97,379.279Z" style="fill:rgb(51,51,51);fill-rule:nonzero;"/>
                <path d="M2013.48,640.295C1981.77,640.295 1957.25,630.768 1939.93,611.715C1922.61,592.662 1913.95,568.213 1913.95,538.367C1913.95,507.189 1923.01,481.54 1941.13,461.421C1959.25,441.302 1983.36,431.243 2013.48,431.243C2044.92,431.243 2069.3,440.969 2086.62,460.422C2103.95,479.875 2112.61,504.657 2112.61,534.769C2112.61,565.415 2103.88,590.663 2086.42,610.516C2068.97,630.369 2044.65,640.295 2013.48,640.295ZM2013.08,477.21C2000.29,477.21 1990.69,482.673 1984.3,493.599C1977.9,504.524 1974.7,518.648 1974.7,535.969C1974.7,553.29 1977.97,567.48 1984.5,578.539C1991.03,589.597 2000.82,595.127 2013.88,595.127C2026.67,595.127 2036.19,589.731 2042.46,578.938C2048.72,568.146 2051.85,554.089 2051.85,536.768C2051.85,497.063 2038.92,477.21 2013.08,477.21Z" style="fill:rgb(51,51,51);fill-rule:nonzero;"/>
                <path d="M2208.94,434.44L2208.94,468.816C2214,457.624 2221.8,448.763 2232.32,442.235C2242.85,435.706 2255.44,432.442 2270.1,432.442C2290.88,432.442 2307.14,438.637 2318.86,451.029C2330.59,463.42 2336.45,481.607 2336.45,505.59L2336.45,637.097L2278.09,637.097L2278.09,516.382C2278.09,504.391 2275.29,495.264 2269.7,489.002C2264.1,482.74 2256.24,479.608 2246.11,479.608C2235.45,479.608 2226.59,483.805 2219.53,492.2C2212.47,500.594 2208.94,513.185 2208.94,529.973L2208.94,637.097L2150.58,637.097L2150.58,434.44L2208.94,434.44Z" style="fill:rgb(51,51,51);fill-rule:nonzero;"/>
                <path d="M2449.97,477.21L2449.97,570.344C2449.97,577.539 2452.03,583.002 2456.16,586.733C2460.29,590.464 2465.69,592.329 2472.35,592.329C2483.01,592.329 2492.47,589.664 2500.73,584.335L2500.73,632.7C2490.87,636.964 2477.55,639.096 2460.76,639.096C2414.66,639.096 2391.61,616.045 2391.61,569.945L2391.61,477.21L2362.43,477.21L2362.43,434.44L2391.61,434.44L2391.61,386.474L2449.97,386.474L2449.97,434.44L2497.14,434.44L2497.14,477.21L2449.97,477.21Z" style="fill:rgb(51,51,51);fill-rule:nonzero;"/>
                <path d="M2653.82,517.182L2653.82,512.385C2651.96,488.669 2641.57,476.81 2622.65,476.81C2613.32,476.81 2605.06,480.208 2597.86,487.003C2590.67,493.798 2585.87,503.858 2583.47,517.182L2653.82,517.182ZM2695.79,576.74L2695.79,625.505C2681.94,634.566 2660.75,639.096 2632.24,639.096C2598.93,639.096 2573.01,629.436 2554.49,610.116C2535.97,590.797 2526.71,565.948 2526.71,535.569C2526.71,503.325 2535.71,478.076 2553.7,459.822C2571.68,441.569 2593.87,432.442 2620.25,432.442C2647.43,432.442 2668.88,440.369 2684.6,456.225C2700.33,472.08 2708.19,495.73 2708.19,527.175C2708.19,533.304 2707.12,543.83 2704.99,558.753L2585.87,558.753C2589.87,569.945 2596.8,578.605 2606.66,584.734C2616.52,590.863 2628.38,593.928 2642.23,593.928C2662.75,593.928 2680.61,588.198 2695.79,576.74Z" style="fill:rgb(51,51,51);fill-rule:nonzero;"/>
                <path d="M2808.12,434.44L2808.12,468.816C2813.18,457.624 2820.97,448.763 2831.5,442.235C2842.03,435.706 2854.62,432.442 2869.27,432.442C2890.06,432.442 2906.31,438.637 2918.04,451.029C2929.76,463.42 2935.62,481.607 2935.62,505.59L2935.62,637.097L2877.27,637.097L2877.27,516.382C2877.27,504.391 2874.47,495.264 2868.87,489.002C2863.28,482.74 2855.41,479.608 2845.29,479.608C2834.63,479.608 2825.77,483.805 2818.71,492.2C2811.65,500.594 2808.12,513.185 2808.12,529.973L2808.12,637.097L2749.76,637.097L2749.76,434.44L2808.12,434.44Z" style="fill:rgb(51,51,51);fill-rule:nonzero;"/>
                <path d="M3049.14,477.21L3049.14,570.344C3049.14,577.539 3051.21,583.002 3055.34,586.733C3059.47,590.464 3064.87,592.329 3071.53,592.329C3082.19,592.329 3091.65,589.664 3099.91,584.335L3099.91,632.7C3090.05,636.964 3076.73,639.096 3059.94,639.096C3013.84,639.096 2990.79,616.045 2990.79,569.945L2990.79,477.21L2961.61,477.21L2961.61,434.44L2990.79,434.44L2990.79,386.474L3049.14,386.474L3049.14,434.44L3096.31,434.44L3096.31,477.21L3049.14,477.21Z" style="fill:rgb(51,51,51);fill-rule:nonzero;"/>
            </g>
            <g transform="matrix(1,0,0,1,0,373.736)">
                <path d="M538.116,379.679L538.116,437.238C516.532,424.714 494.147,418.452 470.964,418.452C460.571,418.452 452.643,420.583 447.18,424.847C441.718,429.111 438.986,434.573 438.986,441.235C438.986,447.897 442.317,453.827 448.979,459.023C455.641,464.219 465.634,469.749 478.958,475.611C487.219,479.342 494.081,482.606 499.544,485.404C505.006,488.202 511.269,492.066 518.33,496.996C525.392,501.926 530.988,507.122 535.118,512.585C539.249,518.048 542.78,524.777 545.711,532.771C548.642,540.765 550.108,549.426 550.108,558.753C550.108,583.002 541.181,602.655 523.327,617.711C505.473,632.767 481.756,640.295 452.177,640.295C420.466,640.295 394.618,634.699 374.632,623.507L374.632,561.551C398.881,579.138 424.73,587.932 452.177,587.932C461.504,587.932 469.232,585.467 475.361,580.537C481.49,575.607 484.554,569.145 484.554,561.151C484.554,558.486 484.154,555.955 483.355,553.556C482.555,551.158 481.09,548.893 478.958,546.761C476.826,544.629 474.761,542.83 472.762,541.365C470.764,539.899 467.833,538.167 463.969,536.169C460.105,534.17 456.84,532.504 454.176,531.172C451.511,529.84 447.58,527.974 442.384,525.576C437.187,523.178 432.99,521.312 429.793,519.98C412.472,511.986 398.548,502.126 388.022,490.401C377.496,478.676 372.233,463.087 372.233,443.634C372.233,420.45 380.761,401.73 397.815,387.473C414.87,373.217 438.453,366.088 468.565,366.088C495.48,366.088 518.663,370.619 538.116,379.679Z" style="fill:none;"/>
                <path d="M653.635,477.21L653.635,570.344C653.635,577.539 655.7,583.002 659.83,586.733C663.961,590.464 669.357,592.329 676.019,592.329C686.678,592.329 696.138,589.664 704.399,584.335L704.399,632.7C694.539,636.964 681.215,639.096 664.427,639.096C618.326,639.096 595.276,616.045 595.276,569.945L595.276,477.21L566.097,477.21L566.097,434.44L595.276,434.44L595.276,386.474L653.635,386.474L653.635,434.44L700.802,434.44L700.802,477.21L653.635,477.21Z" style="fill:none;"/>
                <path d="M796.734,633.9L718.389,434.44L781.944,434.44L803.929,497.596C809.525,513.851 814.122,527.841 817.719,539.566C821.317,551.291 823.515,559.019 824.314,562.75L825.514,568.346C828.445,557.687 835.64,534.103 847.098,497.596L867.084,434.44L927.042,434.44L853.894,631.102C832.842,687.862 800.731,716.241 757.562,716.241C749.301,716.241 741.839,715.575 735.177,714.243L735.177,667.876C739.441,668.942 743.971,669.474 748.768,669.474C770.885,669.474 786.874,657.616 796.734,633.9Z" style="fill:none;"/>
                <rect x="955.022" y="354.497" width="58.359" height="282.601" style="fill:none;"/>
                <path d="M1180.46,517.182L1180.46,512.385C1178.6,488.669 1168.2,476.81 1149.29,476.81C1139.96,476.81 1131.7,480.208 1124.5,487.003C1117.31,493.798 1112.51,503.858 1110.11,517.182L1180.46,517.182ZM1222.43,576.74L1222.43,625.505C1208.58,634.566 1187.39,639.096 1158.88,639.096C1125.57,639.096 1099.65,629.436 1081.13,610.116C1062.61,590.797 1053.35,565.948 1053.35,535.569C1053.35,503.325 1062.35,478.076 1080.33,459.822C1098.32,441.569 1120.51,432.442 1146.89,432.442C1174.07,432.442 1195.52,440.369 1211.24,456.225C1226.96,472.08 1234.83,495.73 1234.83,527.175C1234.83,533.304 1233.76,543.83 1231.63,558.753L1112.51,558.753C1116.51,569.945 1123.44,578.605 1133.3,584.734C1143.16,590.863 1155.02,593.928 1168.87,593.928C1189.39,593.928 1207.24,588.198 1222.43,576.74Z" style="fill:none;"/>
                <path d="M1610.56,476.411L1610.56,612.315C1584.98,630.968 1552.73,640.295 1513.83,640.295C1470.66,640.295 1435.62,627.904 1408.7,603.121C1381.79,578.339 1368.33,544.629 1368.33,501.993C1368.33,459.889 1382.39,426.179 1410.5,400.864C1438.61,375.548 1474.26,362.891 1517.43,362.891C1547.8,362.891 1574.05,368.487 1596.17,379.679L1596.17,441.235C1570.59,426.579 1544.34,419.251 1517.43,419.251C1492.11,419.251 1471.99,426.779 1457.07,441.835C1442.14,456.891 1434.68,476.944 1434.68,501.993C1434.68,527.308 1442.01,547.427 1456.67,562.35C1471.33,577.273 1491.31,584.734 1516.63,584.734C1528.09,584.734 1539.41,583.002 1550.6,579.538L1550.6,528.774L1507.03,528.774L1507.03,476.411L1610.56,476.411Z" style="fill:none;"/>
                <path d="M1784.04,434.44L1842.4,434.44L1842.4,637.097L1784.04,637.097L1784.04,604.72C1773.38,627.371 1752.86,638.696 1722.48,638.696C1701.7,638.696 1685.51,632.9 1673.91,621.308C1662.32,609.717 1656.53,592.595 1656.53,569.945L1656.53,434.44L1714.89,434.44L1714.89,556.754C1714.89,580.471 1725.28,592.329 1746.06,592.329C1771.38,592.329 1784.04,575.407 1784.04,541.565L1784.04,434.44Z" style="fill:none;"/>
                <path d="M1892.36,637.097L1892.36,434.44L1950.72,434.44L1950.72,637.097L1892.36,637.097ZM1887.56,375.682C1887.56,366.355 1890.89,358.361 1897.56,351.699C1904.22,345.037 1912.21,341.706 1921.54,341.706C1930.87,341.706 1938.86,345.037 1945.52,351.699C1952.19,358.361 1955.52,366.355 1955.52,375.682C1955.52,385.008 1952.19,393.003 1945.52,399.665C1938.86,406.327 1930.87,409.658 1921.54,409.658C1912.21,409.658 1904.22,406.327 1897.56,399.665C1890.89,393.003 1887.56,385.008 1887.56,375.682Z" style="fill:none;"/>
                <path d="M2093.82,590.73C2107.14,590.73 2117.93,585.534 2126.2,575.141C2134.46,564.748 2138.59,550.891 2138.59,533.57C2138.59,516.782 2134.12,503.725 2125.2,494.398C2116.27,485.071 2105.68,480.408 2093.42,480.408C2081.16,480.408 2070.84,485.338 2062.44,495.197C2054.05,505.057 2049.85,518.781 2049.85,536.368C2049.85,552.624 2054.11,565.748 2062.64,575.741C2071.17,585.734 2081.56,590.73 2093.82,590.73ZM2138.59,354.497L2196.95,354.497L2196.95,637.097L2138.59,637.097L2138.59,605.52C2125,628.17 2104.74,639.496 2077.83,639.496C2051.45,639.496 2030.33,629.236 2014.48,608.717C1998.62,588.198 1990.69,563.682 1990.69,535.169C1990.69,503.192 1998.95,478.01 2015.47,459.622C2032,441.235 2052.91,432.042 2078.23,432.042C2104.61,432.042 2124.73,443.234 2138.59,465.618L2138.59,354.497Z" style="fill:none;"/>
                <path d="M2362.03,517.182L2362.03,512.385C2360.16,488.669 2349.77,476.81 2330.85,476.81C2321.53,476.81 2313.26,480.208 2306.07,487.003C2298.87,493.798 2294.08,503.858 2291.68,517.182L2362.03,517.182ZM2404,576.74L2404,625.505C2390.14,634.566 2368.96,639.096 2340.45,639.096C2307.14,639.096 2281.22,629.436 2262.7,610.116C2244.18,590.797 2234.92,565.948 2234.92,535.569C2234.92,503.325 2243.91,478.076 2261.9,459.822C2279.89,441.569 2302.07,432.442 2328.45,432.442C2355.63,432.442 2377.09,440.369 2392.81,456.225C2408.53,472.08 2416.39,495.73 2416.39,527.175C2416.39,533.304 2415.33,543.83 2413.19,558.753L2294.08,558.753C2298.08,569.945 2305,578.605 2314.86,584.734C2324.72,590.863 2336.58,593.928 2350.44,593.928C2370.96,593.928 2388.81,588.198 2404,576.74Z" style="fill:none;"/>
                <path d="M538.116,379.679L538.116,437.238C516.532,424.714 494.147,418.452 470.964,418.452C460.571,418.452 452.643,420.583 447.18,424.847C441.718,429.111 438.986,434.573 438.986,441.235C438.986,447.897 442.317,453.827 448.979,459.023C455.641,464.219 465.634,469.749 478.958,475.611C487.219,479.342 494.081,482.606 499.544,485.404C505.006,488.202 511.269,492.066 518.33,496.996C525.392,501.926 530.988,507.122 535.118,512.585C539.249,518.048 542.78,524.777 545.711,532.771C548.642,540.765 550.108,549.426 550.108,558.753C550.108,583.002 541.181,602.655 523.327,617.711C505.473,632.767 481.756,640.295 452.177,640.295C420.466,640.295 394.618,634.699 374.632,623.507L374.632,561.551C398.881,579.138 424.73,587.932 452.177,587.932C461.504,587.932 469.232,585.467 475.361,580.537C481.49,575.607 484.554,569.145 484.554,561.151C484.554,558.486 484.154,555.955 483.355,553.556C482.555,551.158 481.09,548.893 478.958,546.761C476.826,544.629 474.761,542.83 472.762,541.365C470.764,539.899 467.833,538.167 463.969,536.169C460.105,534.17 456.84,532.504 454.176,531.172C451.511,529.84 447.58,527.974 442.384,525.576C437.187,523.178 432.99,521.312 429.793,519.98C412.472,511.986 398.548,502.126 388.022,490.401C377.496,478.676 372.233,463.087 372.233,443.634C372.233,420.45 380.761,401.73 397.815,387.473C414.87,373.217 438.453,366.088 468.565,366.088C495.48,366.088 518.663,370.619 538.116,379.679Z" style="fill:rgb(51,51,51);fill-rule:nonzero;"/>
                <path d="M653.635,477.21L653.635,570.344C653.635,577.539 655.7,583.002 659.83,586.733C663.961,590.464 669.357,592.329 676.019,592.329C686.678,592.329 696.138,589.664 704.399,584.335L704.399,632.7C694.539,636.964 681.215,639.096 664.427,639.096C618.326,639.096 595.276,616.045 595.276,569.945L595.276,477.21L566.097,477.21L566.097,434.44L595.276,434.44L595.276,386.474L653.635,386.474L653.635,434.44L700.802,434.44L700.802,477.21L653.635,477.21Z" style="fill:rgb(51,51,51);fill-rule:nonzero;"/>
                <path d="M796.734,633.9L718.389,434.44L781.944,434.44L803.929,497.596C809.525,513.851 814.122,527.841 817.719,539.566C821.317,551.291 823.515,559.019 824.314,562.75L825.514,568.346C828.445,557.687 835.64,534.103 847.098,497.596L867.084,434.44L927.042,434.44L853.894,631.102C832.842,687.862 800.731,716.241 757.562,716.241C749.301,716.241 741.839,715.575 735.177,714.243L735.177,667.876C739.441,668.942 743.971,669.474 748.768,669.474C770.885,669.474 786.874,657.616 796.734,633.9Z" style="fill:rgb(51,51,51);fill-rule:nonzero;"/>
                <rect x="955.022" y="354.497" width="58.359" height="282.601" style="fill:rgb(51,51,51);fill-rule:nonzero;"/>
                <path d="M1180.46,517.182L1180.46,512.385C1178.6,488.669 1168.2,476.81 1149.29,476.81C1139.96,476.81 1131.7,480.208 1124.5,487.003C1117.31,493.798 1112.51,503.858 1110.11,517.182L1180.46,517.182ZM1222.43,576.74L1222.43,625.505C1208.58,634.566 1187.39,639.096 1158.88,639.096C1125.57,639.096 1099.65,629.436 1081.13,610.116C1062.61,590.797 1053.35,565.948 1053.35,535.569C1053.35,503.325 1062.35,478.076 1080.33,459.822C1098.32,441.569 1120.51,432.442 1146.89,432.442C1174.07,432.442 1195.52,440.369 1211.24,456.225C1226.96,472.08 1234.83,495.73 1234.83,527.175C1234.83,533.304 1233.76,543.83 1231.63,558.753L1112.51,558.753C1116.51,569.945 1123.44,578.605 1133.3,584.734C1143.16,590.863 1155.02,593.928 1168.87,593.928C1189.39,593.928 1207.24,588.198 1222.43,576.74Z" style="fill:rgb(51,51,51);fill-rule:nonzero;"/>
                <path d="M1610.56,476.411L1610.56,612.315C1584.98,630.968 1552.73,640.295 1513.83,640.295C1470.66,640.295 1435.62,627.904 1408.7,603.121C1381.79,578.339 1368.33,544.629 1368.33,501.993C1368.33,459.889 1382.39,426.179 1410.5,400.864C1438.61,375.548 1474.26,362.891 1517.43,362.891C1547.8,362.891 1574.05,368.487 1596.17,379.679L1596.17,441.235C1570.59,426.579 1544.34,419.251 1517.43,419.251C1492.11,419.251 1471.99,426.779 1457.07,441.835C1442.14,456.891 1434.68,476.944 1434.68,501.993C1434.68,527.308 1442.01,547.427 1456.67,562.35C1471.33,577.273 1491.31,584.734 1516.63,584.734C1528.09,584.734 1539.41,583.002 1550.6,579.538L1550.6,528.774L1507.03,528.774L1507.03,476.411L1610.56,476.411Z" style="fill:rgb(51,51,51);fill-rule:nonzero;"/>
                <path d="M1784.04,434.44L1842.4,434.44L1842.4,637.097L1784.04,637.097L1784.04,604.72C1773.38,627.371 1752.86,638.696 1722.48,638.696C1701.7,638.696 1685.51,632.9 1673.91,621.308C1662.32,609.717 1656.53,592.595 1656.53,569.945L1656.53,434.44L1714.89,434.44L1714.89,556.754C1714.89,580.471 1725.28,592.329 1746.06,592.329C1771.38,592.329 1784.04,575.407 1784.04,541.565L1784.04,434.44Z" style="fill:rgb(51,51,51);fill-rule:nonzero;"/>
                <path d="M1892.36,637.097L1892.36,434.44L1950.72,434.44L1950.72,637.097L1892.36,637.097ZM1887.56,375.682C1887.56,366.355 1890.89,358.361 1897.56,351.699C1904.22,345.037 1912.21,341.706 1921.54,341.706C1930.87,341.706 1938.86,345.037 1945.52,351.699C1952.19,358.361 1955.52,366.355 1955.52,375.682C1955.52,385.008 1952.19,393.003 1945.52,399.665C1938.86,406.327 1930.87,409.658 1921.54,409.658C1912.21,409.658 1904.22,406.327 1897.56,399.665C1890.89,393.003 1887.56,385.008 1887.56,375.682Z" style="fill:rgb(51,51,51);fill-rule:nonzero;"/>
                <path d="M2093.82,590.73C2107.14,590.73 2117.93,585.534 2126.2,575.141C2134.46,564.748 2138.59,550.891 2138.59,533.57C2138.59,516.782 2134.12,503.725 2125.2,494.398C2116.27,485.071 2105.68,480.408 2093.42,480.408C2081.16,480.408 2070.84,485.338 2062.44,495.197C2054.05,505.057 2049.85,518.781 2049.85,536.368C2049.85,552.624 2054.11,565.748 2062.64,575.741C2071.17,585.734 2081.56,590.73 2093.82,590.73ZM2138.59,354.497L2196.95,354.497L2196.95,637.097L2138.59,637.097L2138.59,605.52C2125,628.17 2104.74,639.496 2077.83,639.496C2051.45,639.496 2030.33,629.236 2014.48,608.717C1998.62,588.198 1990.69,563.682 1990.69,535.169C1990.69,503.192 1998.95,478.01 2015.47,459.622C2032,441.235 2052.91,432.042 2078.23,432.042C2104.61,432.042 2124.73,443.234 2138.59,465.618L2138.59,354.497Z" style="fill:rgb(51,51,51);fill-rule:nonzero;"/>
                <path d="M2362.03,517.182L2362.03,512.385C2360.16,488.669 2349.77,476.81 2330.85,476.81C2321.53,476.81 2313.26,480.208 2306.07,487.003C2298.87,493.798 2294.08,503.858 2291.68,517.182L2362.03,517.182ZM2404,576.74L2404,625.505C2390.14,634.566 2368.96,639.096 2340.45,639.096C2307.14,639.096 2281.22,629.436 2262.7,610.116C2244.18,590.797 2234.92,565.948 2234.92,535.569C2234.92,503.325 2243.91,478.076 2261.9,459.822C2279.89,441.569 2302.07,432.442 2328.45,432.442C2355.63,432.442 2377.09,440.369 2392.81,456.225C2408.53,472.08 2416.39,495.73 2416.39,527.175C2416.39,533.304 2415.33,543.83 2413.19,558.753L2294.08,558.753C2298.08,569.945 2305,578.605 2314.86,584.734C2324.72,590.863 2336.58,593.928 2350.44,593.928C2370.96,593.928 2388.81,588.198 2404,576.74Z" style="fill:rgb(51,51,51);fill-rule:nonzero;"/>
            </g>
            <g transform="matrix(0.295638,0,0,0.295638,-62.7328,-140.849)">
                <g transform="matrix(1,0,0,1,-1631.76,201.137)">
                    <path d="M3518.74,1496.69C3518.52,1496.77 3518.3,1496.84 3518.09,1496.9C3514.18,1498.12 3510.12,1499.39 3506.03,1499.25C3497.23,1498.96 3478.86,1496.33 3465.25,1495.14C3445.01,1493.38 3401.39,1489.72 3384.6,1488.66C3381.9,1488.49 3379.18,1488.4 3376.47,1488.38C3375.3,1486.07 3373.96,1483.44 3373.92,1481.16C3373.84,1476.8 3378.02,1471.43 3377.7,1467.23C3377.39,1463.03 3372.85,1459.5 3372.01,1455.95C3371.24,1452.7 3371.92,1449.2 3372.66,1445.94C3373.5,1442.23 3374.78,1436.18 3377.05,1433.7C3379.22,1431.35 3383.46,1430.97 3386.3,1431.09C3389.12,1431.2 3392.4,1433.35 3394.1,1434.4C3395.18,1435.07 3397.53,1436.7 3396.46,1437.41C3395.36,1438.14 3389.96,1437.2 3387.49,1438.81C3385.03,1440.42 3381.12,1446.77 3381.69,1447.06C3382.27,1447.35 3387.57,1441.56 3390.95,1440.56C3394.32,1439.56 3398.34,1440.32 3401.93,1441.08C3406.12,1441.97 3411.24,1444.87 3416.13,1445.9C3418.39,1446.38 3452.88,1464.21 3468.29,1467.59C3481.42,1470.46 3495.17,1465.39 3508.59,1466.16C3526.53,1467.18 3564.2,1474.2 3575.93,1473.73C3578.33,1473.63 3580.43,1469.46 3580.53,1466.41C3583.34,1466.39 3585.74,1466.42 3587.05,1466.69C3587.43,1466.77 3587.44,1467.12 3587.31,1467.57C3588.39,1467.29 3590.66,1467.46 3592.32,1467.73C3594.94,1468.15 3599.92,1468.93 3602.79,1470.17C3605.66,1471.42 3608.12,1473.66 3609.54,1475.2C3610.84,1476.6 3611.78,1478.86 3611.34,1479.43C3610.93,1479.98 3608.3,1479.05 3606.91,1478.66C3606.02,1478.41 3604.81,1478.01 3603.48,1477.56C3603.09,1479.17 3601.78,1480.97 3600.54,1481.78C3597.77,1483.58 3591.21,1485.22 3586.32,1485.87C3578.81,1486.87 3563.95,1487.06 3555.49,1487.76C3548.8,1488.31 3541.74,1488.57 3535.51,1490.09C3535.1,1490.19 3534.7,1490.3 3534.29,1490.42C3535.72,1492.44 3536.87,1494.8 3537.64,1496.66C3538.76,1499.35 3539.38,1503.82 3538.85,1505.07C3538.35,1506.26 3535.8,1504.74 3534.45,1504.14C3532.01,1503.06 3527.15,1499.99 3524.23,1498.57C3522.59,1497.77 3520.42,1497.37 3518.74,1496.69ZM3133.94,1274.01C3132.44,1273.11 3130.94,1272.21 3129.45,1271.32C3072.15,1236.93 2983.46,1171.52 2933.61,1124.56C2892.36,1085.7 2862.36,1029.34 2830.31,989.526C2801.72,954.015 2764.95,911.446 2741.29,885.689C2724.77,867.697 2688.09,844.159 2688.38,834.984C2688.68,825.808 2725.6,836.086 2743.05,830.637C2763.64,824.206 2792.53,809.691 2811.9,796.403C2829.96,784.019 2850.32,765.428 2859.27,750.907C2861.53,747.244 2863.18,743.222 2864.33,739.003C2863.53,743.424 2862.74,747.787 2861.96,751.842C2858.8,768.351 2850.97,792.342 2851.57,805.929C2852.02,816.184 2858.99,825.469 2865.55,833.365C2873.68,843.148 2892.84,855.525 2900.33,864.625C2905.72,871.178 2905.25,885.042 2910.48,887.97C2915.7,890.899 2924.35,882.322 2931.67,882.198C2939.79,882.059 2949.85,887.419 2959.16,887.14C2970.28,886.806 2985.19,881.614 2998.39,880.193C3013.91,878.523 3034.74,875.696 3052.29,877.121C3069.79,878.542 3086.25,886.595 3103.68,888.743C3126.07,891.501 3164.18,889.643 3186.62,893.669C3204.73,896.917 3228.68,916.604 3238.36,912.898C3248.04,909.192 3235.54,881.985 3244.71,871.433C3255.88,858.591 3288.93,841.705 3305.36,835.845C3317.28,831.594 3340.1,848.508 3343.32,836.27C3346.65,823.62 3326.29,777.903 3325.33,759.944C3324.73,748.716 3328.97,735.75 3337.58,728.514C3349.23,718.719 3378.66,702.086 3402.95,687.852C3403.75,681.378 3404.91,675.059 3406.41,669.118C3414.16,638.631 3434.3,596.704 3455.3,570.075C3475.56,544.384 3507.79,521.833 3532.42,509.344C3553.83,498.482 3579.18,492.402 3603.04,495.143C3631.8,498.446 3679.34,513.698 3704.96,529.163C3721.72,539.277 3736.46,553.853 3747.3,570.552C3712.28,541.612 3675.99,522.205 3638.16,514.456C3658.44,529.671 3672.15,546.859 3677.11,566.672C3677.11,566.672 3618.23,544.77 3589.62,545.038C3561.02,545.307 3529.96,552.772 3505.49,568.283C3481.01,583.793 3455.42,609.489 3442.77,638.101C3431.27,664.112 3417.57,728.607 3410.03,766.982C3411.28,772.289 3412.84,776.947 3414.77,780.321C3424.56,797.457 3448.42,808.51 3463.43,815.733C3476.1,821.824 3491.87,822.167 3504.83,823.654C3516.88,825.037 3529.9,825.882 3541.19,824.66C3551.95,823.494 3562.88,818.022 3572.58,816.319C3581.4,814.77 3590.43,814.634 3599.38,814.442C3608.65,814.243 3619.79,818.118 3628.2,815.126C3635.2,812.638 3642.28,808.844 3644.47,807.637C3647.33,806.857 3647.46,801.188 3650.3,799.833C3652.36,801.419 3654.37,802.966 3656.32,804.472C3692.72,832.645 3733.05,858.693 3759.23,896.56C3786.2,935.579 3813.71,991.502 3818.14,1038.59C3822.58,1085.67 3815.23,1141.07 3785.84,1179.08C3751.11,1223.98 3679.47,1287.18 3609.78,1307.99C3559.23,1323.08 3479.21,1330.5 3405.87,1332.72C3405.97,1342.48 3406.2,1362.07 3406.45,1374.08C3398.05,1378.54 3389.43,1383.63 3386.35,1387.17C3381.23,1393.06 3384.97,1406.15 3385.7,1410.56C3386.02,1412.5 3389.36,1412.25 3390.73,1413.63C3392.1,1415.02 3394.64,1416.95 3393.94,1418.88C3393.23,1420.87 3389.39,1423.97 3386.43,1425.55C3383.34,1427.19 3378.73,1426.9 3375.36,1428.76C3371.69,1430.79 3366.86,1434.31 3364.37,1437.72C3361.98,1441 3361.17,1445.27 3360.43,1449.23C3359.69,1453.18 3360.91,1457.49 3359.95,1461.45C3358.87,1465.95 3352.36,1471.14 3353.94,1476.21C3354.57,1478.26 3356.39,1480.96 3358.65,1483.7C3359.3,1483.72 3359.88,1483.79 3360.32,1483.94C3362.38,1484.6 3363.25,1487.06 3363.58,1488.93C3363.97,1491.14 3363.57,1495.44 3362.65,1497.19C3361.93,1498.58 3359.81,1499.97 3358.1,1499.46C3356.19,1498.89 3353.07,1495.25 3351.16,1493.78C3349.98,1492.87 3348.16,1492.04 3347.17,1491.2C3346.51,1491.25 3345.87,1491.28 3345.25,1491.29C3342.25,1491.3 3338.68,1490.97 3335.69,1490.31C3336.91,1491.68 3337.9,1493.31 3338.56,1494.58C3339.45,1496.31 3340.01,1499.17 3339.63,1499.96C3339.26,1500.71 3337.3,1499.7 3336.26,1499.29C3334.38,1498.56 3330.63,1496.52 3328.38,1495.56C3326.56,1494.78 3323.92,1494.51 3322.73,1493.53C3321.54,1492.55 3321.42,1490.85 3321.25,1489.67C3321.09,1488.58 3320.95,1487.04 3321.7,1486.45C3322.46,1485.86 3324.41,1485.9 3325.78,1486.14C3326.64,1486.29 3327.84,1486.5 3329.09,1486.8C3327.89,1485.2 3327.12,1483.17 3326.79,1481.52C3326.28,1478.97 3327.11,1475.97 3328.39,1473.61C3329.83,1470.93 3333.1,1468.2 3335.45,1465.49C3338.4,1462.09 3343.83,1456.74 3346.1,1453.21C3347.79,1450.58 3348.57,1447.32 3349.05,1444.3C3349.53,1441.27 3351.11,1435.12 3348.98,1435.05C3346.85,1434.98 3340.14,1441.32 3336.26,1443.86C3332.83,1446.11 3328.1,1449.7 3325.76,1450.28C3324.26,1450.64 3322.96,1448.67 3322.22,1447.32C3322.05,1447.01 3321.88,1446.64 3321.71,1446.24C3321.12,1446.69 3320.54,1447.14 3320.08,1447.64C3318.38,1449.46 3315.76,1453 3314.32,1454.44C3313.52,1455.24 3312.13,1457.02 3311.43,1456.26C3310.7,1455.45 3309.89,1451.91 3309.93,1449.6C3309.98,1447.06 3310.35,1443.32 3311.72,1441.02C3313.09,1438.71 3316.4,1436.8 3318.14,1435.78C3318.36,1435.64 3318.61,1435.52 3318.87,1435.39C3318.69,1434.11 3318.68,1432.85 3319.17,1431.71C3320.14,1429.46 3323.05,1427.27 3325.44,1425.6C3329.58,1422.69 3339.28,1418.79 3344.04,1414.29C3348.53,1410.05 3351.87,1404.44 3354,1398.63C3356.43,1392.02 3357.36,1382.65 3358.61,1374.59C3359.96,1365.92 3362.81,1344.76 3364.32,1333.45C3330.79,1333.61 3300.45,1332.66 3277.39,1330.9C3244.86,1328.42 3213.71,1316.85 3183.96,1301.95C3181.8,1304.62 3179.19,1307.28 3178.62,1310.37C3177.03,1318.93 3176.57,1333.92 3177.35,1345.67C3178.07,1356.52 3180.35,1369.56 3182.64,1379.49L3168.44,1384.69C3168.44,1384.69 3174.35,1403.09 3176.48,1410.43C3178.24,1416.49 3179.38,1422.73 3181.25,1428.76C3183.12,1434.82 3183.14,1442.62 3187.72,1446.77C3192.3,1450.92 3201.93,1450.81 3208.72,1453.65C3218.51,1457.74 3235.83,1466.73 3246.43,1471.32C3254.92,1474.99 3263.94,1476.18 3272.67,1479.21C3281.53,1482.29 3292.8,1484.78 3298.76,1485.99C3299.69,1485.83 3300.82,1485.89 3301.72,1486.05C3303.86,1486.44 3307.92,1487.15 3310.16,1488.93C3312.41,1490.71 3314.18,1494.26 3315.18,1496.74C3316.08,1498.99 3316.58,1502.75 3316.14,1503.8C3315.72,1504.8 3313.64,1503.53 3312.54,1503.03C3310.54,1502.13 3306.58,1499.57 3304.18,1498.38C3303.3,1497.94 3302.22,1497.65 3301.19,1497.33C3294.64,1497.61 3288.06,1497.11 3281.5,1497.23C3270.42,1497.44 3245.95,1498.46 3231.87,1498.64C3232.33,1500.77 3232.5,1503.07 3232.16,1503.88C3231.72,1504.97 3229.55,1503.61 3228.4,1503.07C3226.32,1502.11 3222.19,1499.37 3219.69,1498.09C3219.46,1497.98 3219.22,1497.87 3218.97,1497.77C3216.3,1497.24 3213.63,1496.61 3210.93,1496.32C3204.26,1495.59 3194.18,1495.79 3185.97,1494.3C3177.09,1492.68 3163.22,1489.4 3157.65,1486.64C3154.59,1485.12 3153.25,1481.02 3152.57,1477.74C3151.89,1474.46 3154.21,1470.49 3153.55,1466.94C3152.85,1463.19 3148.98,1458.67 3148.39,1455.24C3147.88,1452.28 3149.93,1449.36 3149.98,1446.35C3150.08,1439.75 3149.54,1425.84 3149,1415.59C3148.22,1400.77 3147.39,1376.74 3145.3,1357.42C3143.1,1337.21 3137.72,1312.49 3135.84,1294.33C3135.22,1288.31 3134.48,1281.05 3133.94,1274.01ZM2866.14,728.936C2866.78,722.353 2866.49,715.619 2865.6,709.277C2863.47,694.124 2845,671.453 2846.47,659.989C2847.92,648.721 2863.07,640.387 2874.43,640.492C2889.56,640.632 2917.32,654.501 2939.07,659.92C2919.09,660.38 2899.69,661.582 2890.12,663.871C2881.55,665.922 2880.87,680.003 2877.6,687.17C2874.71,693.519 2872.18,700.091 2870.54,706.871C2869.18,712.519 2867.67,720.48 2866.14,728.936ZM3015.99,666.101C3031.79,662.706 3046.56,654.439 3062.15,649.804C3083.15,643.559 3109.19,632.2 3133.9,629.894C3162.04,627.269 3205.26,630.918 3230.95,634.055C3244.19,635.672 3256.8,640.603 3269.62,644.45C3267.01,644.983 3264.4,645.446 3261.77,645.751C3244.69,647.728 3215.27,651.405 3194.52,651.884C3175.4,652.324 3156.18,646.031 3137.24,648.621C3117.94,651.257 3095.23,663.903 3078.76,667.702C3065.61,670.737 3051.89,672.534 3038.44,671.42C3031.39,670.836 3023.8,668.491 3015.99,666.101Z" style="fill:rgb(51,51,51);"/>
                </g>
                <g transform="matrix(0.990268,0.139173,-0.139173,0.990268,185.842,-152.377)">
                    <path d="M1944.12,707.305C1942.08,708.318 1940.6,710.852 1940.35,713.024C1940.1,715.197 1941.03,718.349 1942.63,720.341C1944.51,722.682 1948.09,725.839 1951.63,727.07C1955.41,728.385 1960.95,728.133 1965.31,728.234C1969.48,728.331 1977.81,727.676 1977.81,727.676C1977.81,727.676 1976.66,719.605 1974.94,716.301C1973.21,712.998 1970.56,709.715 1967.45,707.855C1964.34,705.996 1960.1,705.235 1956.27,705.144C1952.38,705.052 1946.78,705.991 1944.12,707.305Z" style="fill:rgb(51,51,51);"/>
                </g>
                <g transform="matrix(1,0,0,1,-1631.76,201.137)">
                    <path d="M3705.99,761.513C3707.12,761.626 3708.09,761.631 3708.69,761.371C3710.36,760.65 3709.03,757.187 3709.91,756.049C3710.79,754.911 3713.01,755.618 3713.98,754.545C3719.16,748.801 3734.8,731.603 3741.02,721.589C3746.12,713.375 3748.82,698.975 3751.31,694.462C3752.06,693.107 3754.73,693.554 3755.95,694.511C3760.21,697.871 3773.74,714.353 3776.88,714.622C3780.03,714.89 3774.81,696.123 3774.81,696.123C3774.81,696.123 3784.14,720.495 3791.43,731.174C3802.6,747.539 3823.18,774.887 3841.83,794.313C3861.7,815.013 3896.09,841.597 3910.66,855.373C3917.58,861.905 3926.51,869.855 3929.31,876.973C3931.89,883.545 3930.01,894.329 3927.46,898.079C3924.92,901.81 3917.9,900.665 3913.99,899.476C3910.09,898.288 3904.01,890.947 3904.01,890.947C3904.01,890.947 3878.09,885.675 3864.12,881.2C3858.86,878.218 3853.22,874.975 3849.48,872.639C3836.9,864.786 3816.07,851.376 3802.1,841.86C3789.71,833.424 3777.68,824.023 3765.65,815.543C3753.83,807.212 3739.26,798.641 3729.89,790.974C3722.24,784.718 3713.74,775.435 3709.41,769.545C3707.86,767.445 3706.83,764.321 3705.99,761.513ZM3856.53,878.601C3843.69,874.07 3829.8,868.527 3817.56,861.618C3802.31,853.01 3771.03,829.033 3771.03,829.033C3771.03,829.033 3750.04,819.789 3740.03,814.215C3725.38,806.049 3683.11,780.041 3683.11,780.041C3683.11,780.041 3688.37,779.28 3689.47,777.241C3691,774.411 3690.71,765.803 3692.28,763.062C3693.44,761.038 3696.58,761.031 3698.9,760.792C3699.69,760.711 3700.68,760.79 3701.74,760.925C3702.81,763.919 3704.46,767.616 3706.31,770.034C3710.89,776.033 3719.99,786.119 3728.08,792.817C3737.6,800.689 3751.71,808.997 3763.39,817.27C3775.4,825.773 3787.67,835.288 3800.13,843.837C3812.72,852.47 3826.01,861.547 3838.91,869.07C3843.7,871.858 3850.21,875.335 3856.53,878.601ZM3776.83,747.875C3774.54,748.123 3773.05,751.46 3773.2,753.761C3773.37,756.459 3774.95,761.689 3777.88,764.064C3782.54,767.842 3801.17,776.432 3801.17,776.432C3801.17,776.432 3799.41,768.558 3797.72,764.927C3795.82,760.848 3793.28,754.804 3789.8,751.962C3786.31,749.12 3779.6,747.575 3776.83,747.875Z" style="fill:rgb(51,51,51);"/>
                </g>
            </g>
        </g>
    </g>
</svg>
