<?xml version="1.0" encoding="UTF-8" standalone="no"?>
<!DOCTYPE svg PUBLIC "-//W3C//DTD SVG 1.1//EN" "http://www.w3.org/Graphics/SVG/1.1/DTD/svg11.dtd">
<svg width="100%" height="100%" viewBox="0 0 2728 749" version="1.1" xmlns="http://www.w3.org/2000/svg" xmlns:xlink="http://www.w3.org/1999/xlink" xml:space="preserve" style="fill-rule:evenodd;clip-rule:evenodd;stroke-linejoin:round;stroke-miterlimit:1.41421;">
    <g transform="matrix(1,0,0,1,-15.589,5.68434e-14)">
        <g transform="matrix(1,0,0,1,-356.644,-341.706)">
            <g>
                <path d="M445.781,586.733L473.762,586.733C498.544,586.733 517.664,579.005 531.121,563.549C544.578,548.093 551.307,526.242 551.307,497.995C551.307,474.012 544.512,454.759 530.921,440.236C517.331,425.713 498.144,418.452 473.362,418.452L445.781,418.452L445.781,586.733ZM382.626,367.687L475.361,367.687C515.865,367.687 549.042,380.145 574.89,405.061C600.739,429.977 613.663,460.955 613.663,497.995C613.663,541.165 600.939,575.141 575.49,599.924C550.041,624.706 516.398,637.097 474.561,637.097L382.626,637.097L382.626,367.687Z" style="fill:rgb(51,51,51);fill-rule:nonzero;"/>
                <path d="M655.633,637.097L655.633,434.44L713.992,434.44L713.992,637.097L655.633,637.097ZM660.83,399.665C654.168,393.003 650.837,385.008 650.837,375.682C650.837,366.355 654.168,358.361 660.83,351.699C667.492,345.037 675.486,341.706 684.813,341.706C694.14,341.706 702.134,345.037 708.796,351.699C715.458,358.361 718.789,366.355 718.789,375.682C718.789,385.008 715.458,393.003 708.796,399.665C702.134,406.327 694.14,409.658 684.813,409.658C675.486,409.658 667.492,406.327 660.83,399.665Z" style="fill:rgb(51,51,51);fill-rule:nonzero;"/>
                <path d="M853.894,583.935C866.418,583.935 876.211,579.205 883.273,569.745C890.335,560.285 893.865,548.893 893.865,535.569C893.865,499.328 880.675,481.207 854.293,481.207C842.568,481.207 833.375,485.737 826.713,494.798C820.051,503.858 816.72,516.382 816.72,532.371C816.72,549.159 819.918,561.95 826.313,570.744C832.709,579.538 841.902,583.935 853.894,583.935ZM893.865,434.44L951.824,434.44L951.824,617.511C951.824,650.022 942.098,674.471 922.645,690.859C903.192,707.248 878.809,715.442 849.497,715.442C820.983,715.442 796.068,710.379 774.749,700.253L774.749,640.695C793.403,655.618 816.32,663.079 843.501,663.079C861.088,663.079 873.879,659.348 881.874,651.887C889.868,644.425 893.865,632.7 893.865,616.712L893.865,603.121C882.14,621.242 863.487,630.302 837.905,630.302C815.521,630.302 796.268,622.041 780.146,605.52C764.024,588.998 755.963,564.482 755.963,531.971C755.963,503.192 763.757,479.409 779.346,460.622C794.935,441.835 815.387,432.442 840.703,432.442C864.686,432.442 882.407,442.035 893.865,461.221L893.865,434.44Z" style="fill:rgb(51,51,51);fill-rule:nonzero;"/>
                <path d="M999.791,637.097L999.791,434.44L1058.15,434.44L1058.15,637.097L999.791,637.097ZM1004.99,399.665C998.325,393.003 994.994,385.008 994.994,375.682C994.994,366.355 998.325,358.361 1004.99,351.699C1011.65,345.037 1019.64,341.706 1028.97,341.706C1038.3,341.706 1046.29,345.037 1052.95,351.699C1059.62,358.361 1062.95,366.355 1062.95,375.682C1062.95,385.008 1059.62,393.003 1052.95,399.665C1046.29,406.327 1038.3,409.658 1028.97,409.658C1019.64,409.658 1011.65,406.327 1004.99,399.665Z" style="fill:rgb(51,51,51);fill-rule:nonzero;"/>
                <path d="M1175.67,477.21L1175.67,570.344C1175.67,577.539 1177.73,583.002 1181.86,586.733C1185.99,590.464 1191.39,592.329 1198.05,592.329C1208.71,592.329 1218.17,589.664 1226.43,584.335L1226.43,632.7C1216.57,636.964 1203.25,639.096 1186.46,639.096C1140.36,639.096 1117.31,616.045 1117.31,569.945L1117.31,477.21L1088.13,477.21L1088.13,434.44L1117.31,434.44L1117.31,386.474L1175.67,386.474L1175.67,434.44L1222.83,434.44L1222.83,477.21L1175.67,477.21Z" style="fill:rgb(51,51,51);fill-rule:nonzero;"/>
                <path d="M1362.74,553.956L1343.95,553.956C1334.09,553.956 1326.49,556.088 1321.16,560.351C1315.83,564.615 1313.17,570.078 1313.17,576.74C1313.17,590.33 1321.03,597.126 1336.75,597.126C1345.01,597.126 1351.41,594.594 1355.94,589.531C1360.47,584.468 1362.74,577.539 1362.74,568.746L1362.74,553.956ZM1268,496.796L1268,444.433C1283.99,435.373 1307.04,430.843 1337.15,430.843C1365.93,430.843 1387.38,437.038 1401.51,449.43C1415.63,461.821 1422.69,481.074 1422.69,507.189L1422.69,637.097L1365.53,637.097L1365.53,612.315C1357.01,629.636 1340.22,638.296 1315.17,638.296C1295.45,638.296 1280.06,632.7 1269,621.508C1257.94,610.316 1252.41,596.326 1252.41,579.538C1252.41,560.085 1259.54,544.962 1273.8,534.17C1288.05,523.378 1309.17,517.981 1337.15,517.981L1362.74,517.981L1362.74,503.991C1362.74,486.937 1351.41,478.409 1328.76,478.409C1306.91,478.409 1286.65,484.538 1268,496.796Z" style="fill:rgb(51,51,51);fill-rule:nonzero;"/>
                <rect x="1470.66" y="354.497" width="58.359" height="282.601" style="fill:rgb(51,51,51);fill-rule:nonzero;"/>
                <path d="M1879.97,379.279L1879.97,438.437C1859.98,426.179 1837.73,420.05 1813.22,420.05C1791.63,420.05 1773.51,427.578 1758.86,442.634C1744.2,457.691 1736.87,477.876 1736.87,503.192C1736.87,527.974 1744.2,547.627 1758.86,562.15C1773.51,576.673 1792.43,583.935 1815.62,583.935C1840.66,583.935 1862.12,577.539 1879.97,564.748L1879.97,625.106C1863.72,635.232 1840.27,640.295 1809.62,640.295C1770.18,640.295 1737.2,627.571 1710.69,602.122C1684.17,576.673 1670.92,543.697 1670.92,503.192C1670.92,462.154 1683.78,428.711 1709.49,402.863C1735.2,377.014 1768.72,364.09 1810.02,364.09C1840.4,364.09 1863.72,369.153 1879.97,379.279Z" style="fill:rgb(51,51,51);fill-rule:nonzero;"/>
                <path d="M2013.48,640.295C1981.77,640.295 1957.25,630.768 1939.93,611.715C1922.61,592.662 1913.95,568.213 1913.95,538.367C1913.95,507.189 1923.01,481.54 1941.13,461.421C1959.25,441.302 1983.36,431.243 2013.48,431.243C2044.92,431.243 2069.3,440.969 2086.62,460.422C2103.95,479.875 2112.61,504.657 2112.61,534.769C2112.61,565.415 2103.88,590.663 2086.42,610.516C2068.97,630.369 2044.65,640.295 2013.48,640.295ZM2013.08,477.21C2000.29,477.21 1990.69,482.673 1984.3,493.599C1977.9,504.524 1974.7,518.648 1974.7,535.969C1974.7,553.29 1977.97,567.48 1984.5,578.539C1991.03,589.597 2000.82,595.127 2013.88,595.127C2026.67,595.127 2036.19,589.731 2042.46,578.938C2048.72,568.146 2051.85,554.089 2051.85,536.768C2051.85,497.063 2038.92,477.21 2013.08,477.21Z" style="fill:rgb(51,51,51);fill-rule:nonzero;"/>
                <path d="M2208.94,434.44L2208.94,468.816C2214,457.624 2221.8,448.763 2232.32,442.235C2242.85,435.706 2255.44,432.442 2270.1,432.442C2290.88,432.442 2307.14,438.637 2318.86,451.029C2330.59,463.42 2336.45,481.607 2336.45,505.59L2336.45,637.097L2278.09,637.097L2278.09,516.382C2278.09,504.391 2275.29,495.264 2269.7,489.002C2264.1,482.74 2256.24,479.608 2246.11,479.608C2235.45,479.608 2226.59,483.805 2219.53,492.2C2212.47,500.594 2208.94,513.185 2208.94,529.973L2208.94,637.097L2150.58,637.097L2150.58,434.44L2208.94,434.44Z" style="fill:rgb(51,51,51);fill-rule:nonzero;"/>
                <path d="M2449.97,477.21L2449.97,570.344C2449.97,577.539 2452.03,583.002 2456.16,586.733C2460.29,590.464 2465.69,592.329 2472.35,592.329C2483.01,592.329 2492.47,589.664 2500.73,584.335L2500.73,632.7C2490.87,636.964 2477.55,639.096 2460.76,639.096C2414.66,639.096 2391.61,616.045 2391.61,569.945L2391.61,477.21L2362.43,477.21L2362.43,434.44L2391.61,434.44L2391.61,386.474L2449.97,386.474L2449.97,434.44L2497.14,434.44L2497.14,477.21L2449.97,477.21Z" style="fill:rgb(51,51,51);fill-rule:nonzero;"/>
                <path d="M2653.82,517.182L2653.82,512.385C2651.96,488.669 2641.57,476.81 2622.65,476.81C2613.32,476.81 2605.06,480.208 2597.86,487.003C2590.67,493.798 2585.87,503.858 2583.47,517.182L2653.82,517.182ZM2695.79,576.74L2695.79,625.505C2681.94,634.566 2660.75,639.096 2632.24,639.096C2598.93,639.096 2573.01,629.436 2554.49,610.116C2535.97,590.797 2526.71,565.948 2526.71,535.569C2526.71,503.325 2535.71,478.076 2553.7,459.822C2571.68,441.569 2593.87,432.442 2620.25,432.442C2647.43,432.442 2668.88,440.369 2684.6,456.225C2700.33,472.08 2708.19,495.73 2708.19,527.175C2708.19,533.304 2707.12,543.83 2704.99,558.753L2585.87,558.753C2589.87,569.945 2596.8,578.605 2606.66,584.734C2616.52,590.863 2628.38,593.928 2642.23,593.928C2662.75,593.928 2680.61,588.198 2695.79,576.74Z" style="fill:rgb(51,51,51);fill-rule:nonzero;"/>
                <path d="M2808.12,434.44L2808.12,468.816C2813.18,457.624 2820.97,448.763 2831.5,442.235C2842.03,435.706 2854.62,432.442 2869.27,432.442C2890.06,432.442 2906.31,438.637 2918.04,451.029C2929.76,463.42 2935.62,481.607 2935.62,505.59L2935.62,637.097L2877.27,637.097L2877.27,516.382C2877.27,504.391 2874.47,495.264 2868.87,489.002C2863.28,482.74 2855.41,479.608 2845.29,479.608C2834.63,479.608 2825.77,483.805 2818.71,492.2C2811.65,500.594 2808.12,513.185 2808.12,529.973L2808.12,637.097L2749.76,637.097L2749.76,434.44L2808.12,434.44Z" style="fill:rgb(51,51,51);fill-rule:nonzero;"/>
                <path d="M3049.14,477.21L3049.14,570.344C3049.14,577.539 3051.21,583.002 3055.34,586.733C3059.47,590.464 3064.87,592.329 3071.53,592.329C3082.19,592.329 3091.65,589.664 3099.91,584.335L3099.91,632.7C3090.05,636.964 3076.73,639.096 3059.94,639.096C3013.84,639.096 2990.79,616.045 2990.79,569.945L2990.79,477.21L2961.61,477.21L2961.61,434.44L2990.79,434.44L2990.79,386.474L3049.14,386.474L3049.14,434.44L3096.31,434.44L3096.31,477.21L3049.14,477.21Z" style="fill:rgb(51,51,51);fill-rule:nonzero;"/>
            </g>
            <g transform="matrix(1,0,0,1,0,373.736)">
                <path d="M538.116,379.679L538.116,437.238C516.532,424.714 494.147,418.452 470.964,418.452C460.571,418.452 452.643,420.583 447.18,424.847C441.718,429.111 438.986,434.573 438.986,441.235C438.986,447.897 442.317,453.827 448.979,459.023C455.641,464.219 465.634,469.749 478.958,475.611C487.219,479.342 494.081,482.606 499.544,485.404C505.006,488.202 511.269,492.066 518.33,496.996C525.392,501.926 530.988,507.122 535.118,512.585C539.249,518.048 542.78,524.777 545.711,532.771C548.642,540.765 550.108,549.426 550.108,558.753C550.108,583.002 541.181,602.655 523.327,617.711C505.473,632.767 481.756,640.295 452.177,640.295C420.466,640.295 394.618,634.699 374.632,623.507L374.632,561.551C398.881,579.138 424.73,587.932 452.177,587.932C461.504,587.932 469.232,585.467 475.361,580.537C481.49,575.607 484.554,569.145 484.554,561.151C484.554,558.486 484.154,555.955 483.355,553.556C482.555,551.158 481.09,548.893 478.958,546.761C476.826,544.629 474.761,542.83 472.762,541.365C470.764,539.899 467.833,538.167 463.969,536.169C460.105,534.17 456.84,532.504 454.176,531.172C451.511,529.84 447.58,527.974 442.384,525.576C437.187,523.178 432.99,521.312 429.793,519.98C412.472,511.986 398.548,502.126 388.022,490.401C377.496,478.676 372.233,463.087 372.233,443.634C372.233,420.45 380.761,401.73 397.815,387.473C414.87,373.217 438.453,366.088 468.565,366.088C495.48,366.088 518.663,370.619 538.116,379.679Z" style="fill:rgb(51,51,51);fill-rule:nonzero;"/>
                <path d="M653.635,477.21L653.635,570.344C653.635,577.539 655.7,583.002 659.83,586.733C663.961,590.464 669.357,592.329 676.019,592.329C686.678,592.329 696.138,589.664 704.399,584.335L704.399,632.7C694.539,636.964 681.215,639.096 664.427,639.096C618.326,639.096 595.276,616.045 595.276,569.945L595.276,477.21L566.097,477.21L566.097,434.44L595.276,434.44L595.276,386.474L653.635,386.474L653.635,434.44L700.802,434.44L700.802,477.21L653.635,477.21Z" style="fill:rgb(51,51,51);fill-rule:nonzero;"/>
                <path d="M796.734,633.9L718.389,434.44L781.944,434.44L803.929,497.596C809.525,513.851 814.122,527.841 817.719,539.566C821.317,551.291 823.515,559.019 824.314,562.75L825.514,568.346C828.445,557.687 835.64,534.103 847.098,497.596L867.084,434.44L927.042,434.44L853.894,631.102C832.842,687.862 800.731,716.241 757.562,716.241C749.301,716.241 741.839,715.575 735.177,714.243L735.177,667.876C739.441,668.942 743.971,669.474 748.768,669.474C770.885,669.474 786.874,657.616 796.734,633.9Z" style="fill:rgb(51,51,51);fill-rule:nonzero;"/>
                <rect x="955.022" y="354.497" width="58.359" height="282.601" style="fill:rgb(51,51,51);fill-rule:nonzero;"/>
                <path d="M1180.46,517.182L1180.46,512.385C1178.6,488.669 1168.2,476.81 1149.29,476.81C1139.96,476.81 1131.7,480.208 1124.5,487.003C1117.31,493.798 1112.51,503.858 1110.11,517.182L1180.46,517.182ZM1222.43,576.74L1222.43,625.505C1208.58,634.566 1187.39,639.096 1158.88,639.096C1125.57,639.096 1099.65,629.436 1081.13,610.116C1062.61,590.797 1053.35,565.948 1053.35,535.569C1053.35,503.325 1062.35,478.076 1080.33,459.822C1098.32,441.569 1120.51,432.442 1146.89,432.442C1174.07,432.442 1195.52,440.369 1211.24,456.225C1226.96,472.08 1234.83,495.73 1234.83,527.175C1234.83,533.304 1233.76,543.83 1231.63,558.753L1112.51,558.753C1116.51,569.945 1123.44,578.605 1133.3,584.734C1143.16,590.863 1155.02,593.928 1168.87,593.928C1189.39,593.928 1207.24,588.198 1222.43,576.74Z" style="fill:rgb(51,51,51);fill-rule:nonzero;"/>
                <path d="M1610.56,476.411L1610.56,612.315C1584.98,630.968 1552.73,640.295 1513.83,640.295C1470.66,640.295 1435.62,627.904 1408.7,603.121C1381.79,578.339 1368.33,544.629 1368.33,501.993C1368.33,459.889 1382.39,426.179 1410.5,400.864C1438.61,375.548 1474.26,362.891 1517.43,362.891C1547.8,362.891 1574.05,368.487 1596.17,379.679L1596.17,441.235C1570.59,426.579 1544.34,419.251 1517.43,419.251C1492.11,419.251 1471.99,426.779 1457.07,441.835C1442.14,456.891 1434.68,476.944 1434.68,501.993C1434.68,527.308 1442.01,547.427 1456.67,562.35C1471.33,577.273 1491.31,584.734 1516.63,584.734C1528.09,584.734 1539.41,583.002 1550.6,579.538L1550.6,528.774L1507.03,528.774L1507.03,476.411L1610.56,476.411Z" style="fill:rgb(51,51,51);fill-rule:nonzero;"/>
                <path d="M1784.04,434.44L1842.4,434.44L1842.4,637.097L1784.04,637.097L1784.04,604.72C1773.38,627.371 1752.86,638.696 1722.48,638.696C1701.7,638.696 1685.51,632.9 1673.91,621.308C1662.32,609.717 1656.53,592.595 1656.53,569.945L1656.53,434.44L1714.89,434.44L1714.89,556.754C1714.89,580.471 1725.28,592.329 1746.06,592.329C1771.38,592.329 1784.04,575.407 1784.04,541.565L1784.04,434.44Z" style="fill:rgb(51,51,51);fill-rule:nonzero;"/>
                <path d="M1892.36,637.097L1892.36,434.44L1950.72,434.44L1950.72,637.097L1892.36,637.097ZM1897.56,399.665C1890.89,393.003 1887.56,385.008 1887.56,375.682C1887.56,366.355 1890.89,358.361 1897.56,351.699C1904.22,345.037 1912.21,341.706 1921.54,341.706C1930.87,341.706 1938.86,345.037 1945.52,351.699C1952.19,358.361 1955.52,366.355 1955.52,375.682C1955.52,385.008 1952.19,393.003 1945.52,399.665C1938.86,406.327 1930.87,409.658 1921.54,409.658C1912.21,409.658 1904.22,406.327 1897.56,399.665Z" style="fill:rgb(51,51,51);fill-rule:nonzero;"/>
                <path d="M2093.82,590.73C2107.14,590.73 2117.93,585.534 2126.2,575.141C2134.46,564.748 2138.59,550.891 2138.59,533.57C2138.59,516.782 2134.12,503.725 2125.2,494.398C2116.27,485.071 2105.68,480.408 2093.42,480.408C2081.16,480.408 2070.84,485.338 2062.44,495.197C2054.05,505.057 2049.85,518.781 2049.85,536.368C2049.85,552.624 2054.11,565.748 2062.64,575.741C2071.17,585.734 2081.56,590.73 2093.82,590.73ZM2138.59,354.497L2196.95,354.497L2196.95,637.097L2138.59,637.097L2138.59,605.52C2125,628.17 2104.74,639.496 2077.83,639.496C2051.45,639.496 2030.33,629.236 2014.48,608.717C1998.62,588.198 1990.69,563.682 1990.69,535.169C1990.69,503.192 1998.95,478.01 2015.47,459.622C2032,441.235 2052.91,432.042 2078.23,432.042C2104.61,432.042 2124.73,443.234 2138.59,465.618L2138.59,354.497Z" style="fill:rgb(51,51,51);fill-rule:nonzero;"/>
                <path d="M2362.03,517.182L2362.03,512.385C2360.16,488.669 2349.77,476.81 2330.85,476.81C2321.53,476.81 2313.26,480.208 2306.07,487.003C2298.87,493.798 2294.08,503.858 2291.68,517.182L2362.03,517.182ZM2404,576.74L2404,625.505C2390.14,634.566 2368.96,639.096 2340.45,639.096C2307.14,639.096 2281.22,629.436 2262.7,610.116C2244.18,590.797 2234.92,565.948 2234.92,535.569C2234.92,503.325 2243.91,478.076 2261.9,459.822C2279.89,441.569 2302.07,432.442 2328.45,432.442C2355.63,432.442 2377.09,440.369 2392.81,456.225C2408.53,472.08 2416.39,495.73 2416.39,527.175C2416.39,533.304 2415.33,543.83 2413.19,558.753L2294.08,558.753C2298.08,569.945 2305,578.605 2314.86,584.734C2324.72,590.863 2336.58,593.928 2350.44,593.928C2370.96,593.928 2388.81,588.198 2404,576.74Z" style="fill:rgb(51,51,51);fill-rule:nonzero;"/>
            </g>
        </g>
    </g>
</svg>
