<?xml version="1.0" encoding="UTF-8" standalone="no"?>
<!DOCTYPE svg PUBLIC "-//W3C//DTD SVG 1.1//EN" "http://www.w3.org/Graphics/SVG/1.1/DTD/svg11.dtd">
<svg width="100%" height="100%" viewBox="0 0 1978 1255" version="1.1" xmlns="http://www.w3.org/2000/svg" xmlns:xlink="http://www.w3.org/1999/xlink" xml:space="preserve" style="fill-rule:evenodd;clip-rule:evenodd;stroke-linecap:square;stroke-linejoin:round;stroke-miterlimit:1.5;">
    <g transform="matrix(1,0,0,1,-1199.22,1.41421)">
        <g id="Layer2" transform="matrix(1,0,0,1,536.593,0)">
            <g transform="matrix(0.97879,0,0,1,42.9422,10)">
                <ellipse cx="2322.37" cy="1224.73" rx="297.7" ry="18.386" style="fill:rgb(229,229,229);"/>
            </g>
            <g transform="matrix(1,0,0,1,-306.066,24.2617)">
                <g transform="matrix(1,0,0,1,306.066,-24.2617)">
                    <path d="M791.521,810.146L791.521,1060.31C791.521,1095.62 798.625,1121.53 812.832,1138.03C824.564,1151.66 842.636,1159.66 867.048,1162.04C862.058,1162.54 856.805,1162.79 851.29,1162.79C818.488,1162.79 794.983,1154.54 780.776,1138.03C766.569,1121.53 759.465,1095.62 759.465,1060.31L759.465,779.821L791.521,810.146Z" style="fill:rgb(102,102,102);"/>
                    <clipPath id="_clip1">
                        <path d="M791.521,810.146L791.521,1060.31C791.521,1095.62 798.625,1121.53 812.832,1138.03C824.564,1151.66 842.636,1159.66 867.048,1162.04C862.058,1162.54 856.805,1162.79 851.29,1162.79C818.488,1162.79 794.983,1154.54 780.776,1138.03C766.569,1121.53 759.465,1095.62 759.465,1060.31L759.465,779.821L791.521,810.146Z"/>
                    </clipPath>
                    <g clip-path="url(#_clip1)">
                        <g transform="matrix(1,0,0,0.9297,93.7411,138.706)">
                            <ellipse cx="773.306" cy="1188.65" rx="179.14" ry="176.179" style="fill:rgb(204,204,204);"/>
                        </g>
                    </g>
                </g>
                <g transform="matrix(1,0,0,1,18.7941,0)">
                    <path d="M1535.32,1213.74L1535.32,755.559L1554.11,785.884L1554.11,1198.25L1535.32,1213.74Z" style="fill:rgb(102,102,102);fill-rule:nonzero;"/>
                </g>
                <g transform="matrix(1,0,0,1,306.066,-24.2617)">
                    <path d="M1904.61,779.821L1904.61,1059.68C1904.61,1095.2 1897.45,1121.26 1883.14,1137.87C1868.83,1154.48 1845.8,1162.79 1814.04,1162.79C1811.54,1162.79 1809.1,1162.74 1806.71,1162.64C1834.83,1161.48 1855.51,1153.22 1868.73,1137.87C1883.05,1121.26 1890.2,1095.2 1890.2,1059.68L1890.2,810.146L1904.61,779.821Z" style="fill:rgb(102,102,102);"/>
                    <clipPath id="_clip2">
                        <path d="M1904.61,779.821L1904.61,1059.68C1904.61,1095.2 1897.45,1121.26 1883.14,1137.87C1868.83,1154.48 1845.8,1162.79 1814.04,1162.79C1811.54,1162.79 1809.1,1162.74 1806.71,1162.64C1834.83,1161.48 1855.51,1153.22 1868.73,1137.87C1883.05,1121.26 1890.2,1095.2 1890.2,1059.68L1890.2,810.146L1904.61,779.821Z"/>
                    </clipPath>
                    <g clip-path="url(#_clip2)">
                        <g transform="matrix(0.783331,0,-0.00109274,0.9297,1342.58,91.6266)">
                            <ellipse cx="773.306" cy="1188.65" rx="179.14" ry="176.179" style="fill:rgb(204,204,204);"/>
                        </g>
                    </g>
                </g>
                <g transform="matrix(1,0,0,1,306.066,-24.2617)">
                    <path d="M1625.37,779.821L1625.37,1075.04C1625.37,1127.48 1641.67,1168.8 1674.26,1198.99C1705.51,1227.93 1748.86,1243 1804.3,1244.19C1801.93,1244.25 1799.54,1244.27 1797.12,1244.27C1738.21,1244.27 1692.45,1229.18 1659.86,1198.99C1627.26,1168.8 1610.97,1127.48 1610.97,1075.04L1610.97,810.146L1625.37,779.821Z" style="fill:rgb(102,102,102);"/>
                </g>
                <g transform="matrix(1,0,0,1,306.066,-24.2617)">
                    <path d="M1070.76,810.146L1070.76,1076.29C1070.76,1110.14 1063.18,1139.81 1048.04,1165.3C1032.89,1190.79 1011.06,1209.45 982.379,1222.9C948.043,1239 869.991,1244.14 864.738,1243.88C897.141,1242.26 925.669,1235.6 950.322,1223.9C978.946,1210.32 1000.83,1190.79 1015.98,1165.3C1031.13,1139.81 1038.7,1110.14 1038.7,1076.29L1038.7,779.821L1070.76,810.146Z" style="fill:rgb(102,102,102);"/>
                </g>
                <g transform="matrix(1,0,0,1,306.066,-24.2617)">
                    <path d="M2001.45,779.821L2001.45,1076.29C2001.45,1110.14 1993.87,1139.81 1978.73,1165.3C1963.58,1190.79 1941.69,1210.32 1913.07,1223.9C1884.45,1237.48 1850.6,1244.27 1811.53,1244.27C1752.61,1244.27 1706.86,1229.18 1674.26,1198.99C1641.67,1168.8 1625.37,1127.48 1625.37,1075.04L1625.37,779.821L1722.21,779.821L1722.21,1060.31C1722.21,1095.62 1729.32,1121.53 1743.52,1138.03C1757.73,1154.54 1781.24,1162.79 1814.04,1162.79C1845.8,1162.79 1868.83,1154.48 1883.14,1137.87C1897.45,1121.26 1904.61,1095.2 1904.61,1059.68L1904.61,779.821L2001.45,779.821Z" style="fill:rgb(113,158,236);"/>
                </g>
                <g transform="matrix(1,0,0,1,306.066,-24.2617)">
                    <path d="M1396.91,1238L1310.1,1238L1480.9,779.821L1567.71,779.821L1396.91,1238Z" style="fill:rgb(230,230,230);"/>
                </g>
                <g transform="matrix(1,0,0,1,306.066,-24.2617)">
                    <rect x="1150.89" y="779.821" width="97.152" height="458.183" style="fill:rgb(113,158,236);"/>
                </g>
                <g transform="matrix(1,0,0,1,306.066,-24.2617)">
                    <path d="M1038.7,779.821L1038.7,1076.29C1038.7,1110.14 1031.13,1139.81 1015.98,1165.3C1000.83,1190.79 978.946,1210.32 950.322,1223.9C921.699,1237.48 887.852,1244.27 848.783,1244.27C789.864,1244.27 744.109,1229.18 711.516,1198.99C678.923,1168.8 662.626,1127.48 662.626,1075.04L662.626,779.821L759.465,779.821L759.465,1060.31C759.465,1095.62 766.569,1121.53 780.776,1138.03C794.983,1154.54 818.488,1162.79 851.29,1162.79C883.047,1162.79 906.081,1154.48 920.393,1137.87C934.705,1121.26 941.861,1095.2 941.861,1059.68L941.861,779.821L1038.7,779.821Z" style="fill:rgb(113,158,236);"/>
                </g>
            </g>
            <g transform="matrix(1,0,0,0.776438,0,-3.55271e-15)">
                <path d="M2273.23,502.732L2273.23,0" style="fill:none;stroke:rgb(128,128,128);stroke-width:2.23px;"/>
            </g>
            <g transform="matrix(1,0,0,0.776438,292.145,-3.55271e-15)">
                <path d="M2273.23,583.128L2273.23,0" style="fill:none;stroke:rgb(128,128,128);stroke-width:2.23px;"/>
            </g>
            <g transform="matrix(1,0,0,1,59.9212,-162.031)">
                <g transform="matrix(0.964158,0.265328,-0.265328,0.964158,1496.97,-446.378)">
                    <path d="M1342.26,1213.74L1231.32,1213.74L1124.76,1040.43L1018.21,1213.74L914.161,1213.74L1066.16,977.442L923.876,755.559L1031.06,755.559L1129.78,920.404L1226.62,755.559L1331.29,755.559L1187.44,982.77L1342.26,1213.74Z" style="fill:rgb(113,158,236);fill-rule:nonzero;"/>
                </g>
                <path d="M2138.63,555.986L2187.26,527.231L2265.57,778.913L2209.62,790.184L2138.63,555.986Z" style="fill:rgb(102,102,102);"/>
                <path d="M1997.3,978.869L2056.33,966.414L2265.57,778.913L2209.28,790.252L1997.3,978.869Z" style="fill:rgb(204,204,204);"/>
                <path d="M2097.62,1006.48L2156.65,994.02L2056.33,966.414L1997.3,978.869L2097.62,1006.48Z" style="fill:rgb(64,64,64);"/>
                <path d="M2413.12,1094.74L2469.08,1080L2362.12,1050.56L2306.16,1065.3L2413.12,1094.74Z" style="fill:rgb(64,64,64);"/>
                <path d="M2258.59,898.856L2305.36,855.197L2362.12,1050.56L2306.31,1065.26L2258.59,898.856Z" style="fill:rgb(89,89,89);"/>
                <path d="M2342.05,740.799L2333.82,711.201L2410.12,637.45L2479.14,607.567L2342.05,740.799Z" style="fill:rgb(204,204,204);"/>
            </g>
            <g transform="matrix(0.295638,0,0,0.295638,1722.6,734.924)">
                <g transform="matrix(0.990268,0.139173,-0.139173,0.990268,185.842,-152.377)">
                    <g transform="matrix(-0.883351,0.641647,0.580167,0.798711,2240.96,-789.18)">
                        <path d="M1641.14,1626.61C1639.88,1626.55 1638.12,1626.84 1637.51,1627.73C1636.9,1628.61 1637.23,1630.55 1637.51,1631.92C1637.81,1633.39 1638.14,1635.53 1639.33,1636.56C1640.53,1637.6 1642.94,1637.48 1644.68,1638.14C1646.83,1638.96 1650.47,1640.88 1652.25,1641.48C1653.24,1641.82 1655.14,1642.75 1655.37,1641.73C1655.62,1640.66 1654.75,1637.11 1653.73,1635.07C1652.59,1632.82 1650.68,1629.65 1648.59,1628.24C1646.49,1626.83 1642.99,1626.69 1641.14,1626.61Z" style="fill:rgb(105,98,92);"/>
                    </g>
                    <path d="M1766.38,1447.83C1766.38,1447.83 1766.7,1484.58 1766.52,1496.82C1766.4,1504.98 1766.78,1514.38 1765.3,1521.27C1763.99,1527.32 1761.48,1533.33 1757.61,1538.16C1753.52,1543.28 1744.47,1548.5 1740.77,1551.95C1738.63,1553.94 1736.05,1556.51 1735.41,1558.88C1734.77,1561.24 1736.1,1563.81 1736.91,1566.15C1737.78,1568.66 1739.34,1572.21 1740.6,1573.91C1741.52,1575.14 1743.09,1576.91 1744.52,1576.34C1746.75,1575.44 1750.94,1571.23 1754.03,1568.52C1757.51,1565.47 1763.28,1558.26 1765.4,1558.03C1767.52,1557.81 1766.81,1564.11 1766.75,1567.18C1766.7,1570.24 1766.38,1573.57 1765.07,1576.42C1763.32,1580.23 1758.68,1586.28 1756.23,1590.06C1754.28,1593.07 1751.42,1596.23 1750.37,1599.08C1749.43,1601.6 1749.03,1604.69 1749.89,1607.14C1750.75,1609.59 1752.78,1612.8 1755.51,1613.78C1758.78,1614.97 1764.9,1614.91 1769.53,1614.24C1774.98,1613.45 1781.91,1610.38 1788.24,1609.06C1794.67,1607.71 1801.45,1606.67 1808.12,1606.16C1824.9,1604.88 1868.61,1602.43 1888.9,1601.36C1902.55,1600.64 1921.1,1600.68 1929.86,1599.75C1933.93,1599.32 1937.76,1597.5 1941.46,1595.75C1946.12,1593.55 1951.98,1588.89 1957.77,1586.58C1963.73,1584.2 1970.69,1582.97 1977.23,1581.49C1985.52,1579.61 2000.2,1577.36 2007.5,1575.33C2012.25,1574 2018.52,1571.47 2021.01,1569.3C2022.81,1567.73 2024.44,1563.57 2022.43,1562.3C2019.91,1560.71 2008.73,1560.76 2005.92,1559.75C2004.81,1559.35 2006.73,1556.3 2005.55,1556.23C2002.26,1556.02 1992.67,1558.15 1986.17,1558.53C1977.42,1559.05 1961.61,1559.6 1953,1559.33C1946.79,1559.12 1939.78,1557.3 1934.53,1556.86C1930.2,1556.5 1925.82,1556.21 1921.51,1556.71C1913.34,1557.66 1897.34,1561.91 1885.56,1562.55C1873.99,1563.19 1860.43,1561.92 1850.84,1560.6C1843.06,1559.53 1832.35,1556.64 1828.04,1554.65C1826,1553.7 1826.57,1550.02 1824.99,1548.62C1823.42,1547.23 1819.11,1548.36 1818.58,1546.27C1818.05,1544.17 1821.68,1539 1821.81,1536.08C1821.92,1533.5 1819.65,1531.3 1819.33,1528.74C1818.9,1525.24 1819.82,1519.58 1819.2,1515.07C1818.47,1509.68 1816.04,1502.7 1814.94,1496.43C1812.84,1484.41 1806.61,1442.94 1806.61,1442.94L1766.38,1447.83Z" style="fill:rgb(223,165,119);"/>
                    <clipPath id="_clip3">
                        <path d="M1766.38,1447.83C1766.38,1447.83 1766.7,1484.58 1766.52,1496.82C1766.4,1504.98 1766.78,1514.38 1765.3,1521.27C1763.99,1527.32 1761.48,1533.33 1757.61,1538.16C1753.52,1543.28 1744.47,1548.5 1740.77,1551.95C1738.63,1553.94 1736.05,1556.51 1735.41,1558.88C1734.77,1561.24 1736.1,1563.81 1736.91,1566.15C1737.78,1568.66 1739.34,1572.21 1740.6,1573.91C1741.52,1575.14 1743.09,1576.91 1744.52,1576.34C1746.75,1575.44 1750.94,1571.23 1754.03,1568.52C1757.51,1565.47 1763.28,1558.26 1765.4,1558.03C1767.52,1557.81 1766.81,1564.11 1766.75,1567.18C1766.7,1570.24 1766.38,1573.57 1765.07,1576.42C1763.32,1580.23 1758.68,1586.28 1756.23,1590.06C1754.28,1593.07 1751.42,1596.23 1750.37,1599.08C1749.43,1601.6 1749.03,1604.69 1749.89,1607.14C1750.75,1609.59 1752.78,1612.8 1755.51,1613.78C1758.78,1614.97 1764.9,1614.91 1769.53,1614.24C1774.98,1613.45 1781.91,1610.38 1788.24,1609.06C1794.67,1607.71 1801.45,1606.67 1808.12,1606.16C1824.9,1604.88 1868.61,1602.43 1888.9,1601.36C1902.55,1600.64 1921.1,1600.68 1929.86,1599.75C1933.93,1599.32 1937.76,1597.5 1941.46,1595.75C1946.12,1593.55 1951.98,1588.89 1957.77,1586.58C1963.73,1584.2 1970.69,1582.97 1977.23,1581.49C1985.52,1579.61 2000.2,1577.36 2007.5,1575.33C2012.25,1574 2018.52,1571.47 2021.01,1569.3C2022.81,1567.73 2024.44,1563.57 2022.43,1562.3C2019.91,1560.71 2008.73,1560.76 2005.92,1559.75C2004.81,1559.35 2006.73,1556.3 2005.55,1556.23C2002.26,1556.02 1992.67,1558.15 1986.17,1558.53C1977.42,1559.05 1961.61,1559.6 1953,1559.33C1946.79,1559.12 1939.78,1557.3 1934.53,1556.86C1930.2,1556.5 1925.82,1556.21 1921.51,1556.71C1913.34,1557.66 1897.34,1561.91 1885.56,1562.55C1873.99,1563.19 1860.43,1561.92 1850.84,1560.6C1843.06,1559.53 1832.35,1556.64 1828.04,1554.65C1826,1553.7 1826.57,1550.02 1824.99,1548.62C1823.42,1547.23 1819.11,1548.36 1818.58,1546.27C1818.05,1544.17 1821.68,1539 1821.81,1536.08C1821.92,1533.5 1819.65,1531.3 1819.33,1528.74C1818.9,1525.24 1819.82,1519.58 1819.2,1515.07C1818.47,1509.68 1816.04,1502.7 1814.94,1496.43C1812.84,1484.41 1806.61,1442.94 1806.61,1442.94L1766.38,1447.83Z"/>
                    </clipPath>
                    <g clip-path="url(#_clip3)">
                        <path d="M1831.61,1477.51C1831.61,1477.51 1801.28,1496.89 1795.74,1505.42C1791.49,1511.96 1797.02,1524.4 1798.35,1528.67C1798.94,1530.54 1802.21,1529.83 1803.76,1531.01C1805.31,1532.19 1808.09,1533.75 1807.67,1535.76C1807.24,1537.83 1803.87,1541.44 1801.16,1543.41C1798.33,1545.47 1793.72,1545.83 1790.65,1548.13C1787.29,1550.65 1783,1554.81 1781.01,1558.53C1779.1,1562.11 1778.88,1566.46 1778.71,1570.48C1778.53,1574.5 1780.33,1578.59 1779.94,1582.65C1779.49,1587.26 1773.76,1593.3 1776.03,1598.1C1778.56,1603.45 1790.72,1612.49 1795.12,1614.76C1797.45,1615.97 1802.18,1614.18 1802.41,1611.76C1802.64,1609.33 1797.18,1604.49 1796.51,1600.22C1795.82,1595.91 1799.22,1590.01 1798.32,1585.9C1797.42,1581.79 1792.44,1578.92 1791.12,1575.53C1789.9,1572.41 1790.09,1568.85 1790.36,1565.52C1790.68,1561.73 1791.1,1555.56 1793.01,1552.79C1794.82,1550.15 1798.97,1549.19 1801.8,1548.91C1804.61,1548.63 1808.16,1550.3 1809.98,1551.11C1811.15,1551.62 1813.7,1552.91 1812.75,1553.76C1811.76,1554.64 1806.27,1554.46 1804.06,1556.4C1801.85,1558.33 1798.85,1565.17 1799.46,1565.38C1800.07,1565.58 1804.52,1559.1 1807.72,1557.64C1810.92,1556.19 1815.01,1556.38 1818.67,1556.63C1822.95,1556.93 1828.41,1559.09 1833.4,1559.43C1835.71,1559.6 1872.35,1572.45 1888.08,1573.65C1901.48,1574.67 1914.39,1567.73 1927.78,1566.62C1945.69,1565.14 1983.97,1566.85 1995.52,1564.75C1999.08,1564.1 2000.66,1554.45 1997.07,1554.02C1973.15,1551.14 1852.02,1547.84 1852.01,1547.49C1851.71,1533.84 1831.61,1477.51 1831.61,1477.51Z" style="fill:rgb(248,219,196);"/>
                        <path d="M1729.82,1564.54C1737.26,1560.79 1763.52,1536.36 1769.78,1532.83C1772.91,1531.05 1768.73,1540.04 1767.33,1543.36C1765.41,1547.9 1761.36,1554.54 1758.27,1560.06C1754.83,1566.22 1749.44,1573.04 1746.68,1580.3C1743.86,1587.72 1739.03,1596.88 1741.34,1604.59C1743.66,1612.31 1753.43,1624.24 1760.58,1626.59C1767.72,1628.94 1782.79,1623.36 1784.22,1618.71C1785.64,1614.06 1772.41,1603.13 1769.13,1598.68C1767.52,1596.49 1764.3,1594.66 1764.53,1591.95C1764.91,1587.41 1769.93,1577.16 1771.44,1571.41C1772.64,1566.86 1772.46,1560.82 1773.6,1557.45C1774.44,1554.99 1776.05,1552.53 1778.29,1551.21C1781.23,1549.49 1789.95,1548.64 1791.21,1547.09C1792.47,1545.53 1786.12,1544.33 1785.86,1541.9C1785.6,1539.47 1789.5,1535.14 1789.65,1532.5C1789.79,1530.15 1785.13,1527.74 1786.77,1526.06C1792.8,1519.85 1825.88,1495.26 1825.88,1495.26L1815.59,1424.34L1750.83,1449.45C1750.83,1449.45 1746.65,1517.82 1742.36,1535.47C1740.3,1543.98 1727.21,1550.47 1725.12,1555.32C1723.75,1558.49 1726.74,1566.09 1729.82,1564.54Z" style="fill:rgb(182,129,87);"/>
                    </g>
                    <g transform="matrix(0.789728,0,0,0.680611,376.898,515.975)">
                        <path d="M1769.37,1603.07C1767.53,1604 1766.11,1606.25 1765.39,1607.8C1764.74,1609.19 1764.15,1611.14 1765.04,1612.38C1766.02,1613.76 1769.26,1614.73 1771.28,1616.06C1773.93,1617.82 1778.49,1622.48 1780.99,1622.91C1783.22,1623.3 1785.64,1620.84 1786.3,1618.68C1787.13,1615.94 1786.88,1609.6 1786,1606.47C1785.26,1603.82 1783.74,1600.42 1781.04,1599.87C1778.27,1599.3 1771.98,1601.75 1769.37,1603.07Z" style="fill:rgb(105,98,92);"/>
                    </g>
                    <g transform="matrix(1.4385,0,0,1.22439,-418.094,-409.181)">
                        <path d="M1641.14,1626.61C1639.88,1626.55 1638.12,1626.84 1637.51,1627.73C1636.9,1628.61 1637.23,1630.55 1637.51,1631.92C1637.81,1633.39 1638.14,1635.53 1639.33,1636.56C1640.53,1637.6 1642.94,1637.48 1644.68,1638.14C1646.83,1638.96 1650.47,1640.88 1652.25,1641.48C1653.24,1641.82 1655.14,1642.75 1655.37,1641.73C1655.62,1640.66 1654.75,1637.11 1653.73,1635.07C1652.59,1632.82 1650.68,1629.65 1648.59,1628.24C1646.49,1626.83 1642.99,1626.69 1641.14,1626.61Z" style="fill:rgb(105,98,92);"/>
                    </g>
                    <g transform="matrix(1.4385,0,0,0.5911,-349.876,595.039)">
                        <path d="M1641.14,1626.61C1639.88,1626.55 1638.12,1626.84 1637.51,1627.73C1636.9,1628.61 1637.23,1630.55 1637.51,1631.92C1637.81,1633.39 1638.14,1635.53 1639.33,1636.56C1640.53,1637.6 1642.94,1637.48 1644.68,1638.14C1646.83,1638.96 1650.47,1640.88 1652.25,1641.48C1653.24,1641.82 1655.14,1642.75 1655.37,1641.73C1655.62,1640.66 1654.75,1637.11 1653.73,1635.07C1652.59,1632.82 1650.68,1629.65 1648.59,1628.24C1646.49,1626.83 1642.99,1626.69 1641.14,1626.61Z" style="fill:rgb(105,98,92);"/>
                    </g>
                </g>
                <g transform="matrix(0.990268,0.139173,-0.139173,0.990268,185.842,-152.377)">
                    <path d="M1027.71,1055.74C1028.7,1064.87 1068.3,1083.07 1087.16,1098.59C1114.17,1120.81 1156.51,1157.84 1189.77,1189.03C1227.05,1223.99 1264.6,1275.63 1310.85,1308.37C1366.76,1347.94 1463.69,1400.36 1525.21,1426.44C1574.16,1447.19 1626.95,1468.23 1680,1464.86C1760.13,1459.77 1925.58,1432.76 2005.97,1395.91C2072.09,1365.6 2134.23,1293.05 2162.38,1243.75C2186.2,1202.02 2185.76,1146.14 2174.82,1100.13C2163.87,1054.12 2128.85,1002.57 2096.71,967.686C2065.52,933.831 2021.95,913.65 1981.98,890.817C1932.48,862.536 1846.72,816.312 1799.67,798.003C1768.16,785.743 1733.45,782.646 1699.69,780.962C1665.69,779.267 1622.75,787.781 1595.64,787.83C1575.98,787.866 1556.69,780.901 1537.04,781.257C1511.16,781.726 1467.85,784.129 1440.36,790.644C1416.2,796.367 1392,811.24 1372.07,820.346C1354.79,828.246 1339.29,840.903 1320.8,845.284C1301.44,849.868 1277.53,849.132 1255.93,847.855C1233.28,846.516 1200.88,835.152 1184.88,837.251C1173.62,838.728 1159.78,849.089 1159.91,860.449C1160.05,872.006 1181.49,891.886 1185.71,906.595C1189.58,920.087 1190.86,935.843 1185.24,948.701C1178.39,964.327 1160.82,985.57 1144.66,1000.35C1127.33,1016.2 1100.73,1034.6 1081.24,1043.83C1064.72,1051.65 1026.73,1046.62 1027.71,1055.74Z" style="fill:rgb(208,204,194);"/>
                    <clipPath id="_clip4">
                        <path d="M1027.71,1055.74C1028.7,1064.87 1068.3,1083.07 1087.16,1098.59C1114.17,1120.81 1156.51,1157.84 1189.77,1189.03C1227.05,1223.99 1264.6,1275.63 1310.85,1308.37C1366.76,1347.94 1463.69,1400.36 1525.21,1426.44C1574.16,1447.19 1626.95,1468.23 1680,1464.86C1760.13,1459.77 1925.58,1432.76 2005.97,1395.91C2072.09,1365.6 2134.23,1293.05 2162.38,1243.75C2186.2,1202.02 2185.76,1146.14 2174.82,1100.13C2163.87,1054.12 2128.85,1002.57 2096.71,967.686C2065.52,933.831 2021.95,913.65 1981.98,890.817C1932.48,862.536 1846.72,816.312 1799.67,798.003C1768.16,785.743 1733.45,782.646 1699.69,780.962C1665.69,779.267 1622.75,787.781 1595.64,787.83C1575.98,787.866 1556.69,780.901 1537.04,781.257C1511.16,781.726 1467.85,784.129 1440.36,790.644C1416.2,796.367 1392,811.24 1372.07,820.346C1354.79,828.246 1339.29,840.903 1320.8,845.284C1301.44,849.868 1277.53,849.132 1255.93,847.855C1233.28,846.516 1200.88,835.152 1184.88,837.251C1173.62,838.728 1159.78,849.089 1159.91,860.449C1160.05,872.006 1181.49,891.886 1185.71,906.595C1189.58,920.087 1190.86,935.843 1185.24,948.701C1178.39,964.327 1160.82,985.57 1144.66,1000.35C1127.33,1016.2 1100.73,1034.6 1081.24,1043.83C1064.72,1051.65 1026.73,1046.62 1027.71,1055.74Z"/>
                    </clipPath>
                    <g clip-path="url(#_clip4)">
                        <path d="M1288.98,818.997L1312.73,862.947L1375.11,862.162L1496.39,812.265L1589.16,800.089L1589.2,759.687L1471.59,762.734L1288.98,818.997Z" style="fill:rgb(112,109,100);"/>
                        <path d="M1264.8,797.664L1276.44,872.605C1276.44,872.605 1235.33,978.756 1221.18,1011.28C1212.71,1030.77 1199.69,1050.24 1191.57,1067.76C1184.25,1083.56 1174.42,1099.09 1172.46,1116.4C1170.39,1134.66 1177.06,1160.39 1179.19,1177.28C1180.89,1190.8 1185.22,1217.72 1185.22,1217.72L1095.21,1159.86L1055.01,1093.18C1055.01,1093.18 1091.78,1103.06 1106.77,1105.12C1119.38,1106.85 1135.47,1108.49 1144.96,1105.51C1153.29,1102.9 1162.97,1093.45 1163.73,1087.24C1164.48,1081.02 1154.83,1074.05 1149.48,1068.21C1142.73,1060.84 1128.43,1053.99 1123.22,1043.05C1116.46,1028.87 1109.75,1003.65 1108.94,983.135C1107.44,945.613 1114.25,817.912 1114.25,817.912L1264.8,797.664Z" style="fill:rgb(59,57,52);"/>
                        <path d="M1203.67,858.218C1195.47,861.442 1196.76,875.481 1194.52,883.032C1192.54,889.722 1190.95,896.582 1190.27,903.525C1189.19,914.562 1188.79,934.01 1188.03,949.252C1187.2,966.041 1182.78,990.888 1185.27,1004.26C1187.14,1014.35 1195.34,1022.58 1202.94,1029.48C1212.35,1038.04 1233.04,1047.63 1241.72,1055.6C1247.97,1061.34 1249.44,1075.13 1255.02,1077.3C1260.6,1079.48 1267.97,1069.78 1275.21,1068.64C1283.22,1067.37 1293.94,1071.28 1303.12,1069.71C1314.08,1067.83 1328.12,1060.61 1341,1057.37C1356.14,1053.55 1376.37,1047.85 1393.94,1046.82C1411.48,1045.79 1428.89,1051.48 1446.45,1051.18C1469.01,1050.8 1506.49,1043.65 1529.27,1044.51C1547.66,1045.21 1574.11,1061.37 1583.18,1056.36C1592.25,1051.34 1576.09,1026.14 1583.7,1014.41C1592.97,1000.14 1623.35,978.819 1638.81,970.728C1650.02,964.86 1674.97,978.433 1676.46,965.866C1677.99,952.876 1651.47,910.438 1648.02,892.787C1645.86,881.752 1648.26,868.321 1655.77,859.959C1671.78,842.148 1729.02,801.448 1744.07,785.92C1748.53,781.315 1752.42,767.148 1746.02,766.787C1722.56,765.463 1632.74,774.345 1603.27,777.972C1591.46,779.425 1580.69,785.551 1569.18,788.551C1552.55,792.886 1523.93,800.621 1503.44,803.983C1484.57,807.081 1464.67,803.523 1446.26,808.725C1427.52,814.021 1406.79,829.704 1391.01,835.758C1378.41,840.594 1365.08,844.282 1351.61,845.051C1336.75,845.898 1318.46,839.367 1301.89,840.842C1277.24,843.036 1221.57,851.186 1203.67,858.218Z" style="fill:rgb(225,225,225);"/>
                        <path d="M1829.4,748.421C1829.4,748.421 1743.69,867.514 1732.58,907.673C1724.84,935.655 1760.4,965.145 1762.76,989.374C1764.87,1011.16 1752.57,1031.96 1746.71,1053.05C1740.17,1076.59 1719.4,1105 1723.51,1130.63C1727.62,1156.26 1759.68,1187.69 1771.38,1206.82C1779.13,1219.5 1791.7,1230.68 1793.71,1245.41C1795.94,1261.81 1783.42,1285.1 1784.78,1305.21C1786.19,1326.08 1787.41,1353.56 1802.19,1370.6C1818.1,1388.94 1852.05,1405.09 1880.25,1415.24C1915.77,1428.03 2015.32,1447.34 2015.32,1447.34L2281.1,1186.11L2155.17,859.888L1829.4,748.421Z" style="fill:rgb(203,169,139);"/>
                    </g>
                </g>
                <g transform="matrix(0.990268,0.139173,-0.139173,0.990268,185.842,-152.377)">
                    <path d="M1526.55,1403.14C1525.55,1410.86 1531.07,1433.48 1534.75,1448.34C1539.14,1466.07 1547.91,1489.8 1552.89,1509.51C1557.66,1528.34 1561.82,1552.03 1564.65,1566.59C1566.62,1576.66 1569.09,1590.36 1569.91,1596.92C1570.28,1599.91 1568.64,1603.08 1569.57,1605.94C1570.63,1609.26 1575.09,1613.19 1576.31,1616.81C1577.45,1620.24 1575.7,1624.49 1576.84,1627.64C1577.97,1630.8 1579.87,1634.67 1583.11,1635.75C1589.01,1637.71 1603.2,1639.03 1612.22,1639.39C1620.56,1639.72 1630.51,1638.12 1637.22,1637.91C1642.3,1637.75 1647.43,1638.77 1652.48,1638.13C1664.15,1636.64 1694.54,1631.02 1707.23,1629C1714.34,1627.87 1721.58,1627.47 1728.62,1625.99C1737.03,1624.23 1755.08,1620.52 1757.67,1618.45C1760.25,1616.37 1757.43,1614.38 1752.75,1613.34C1745.64,1611.75 1724.69,1610.63 1715,1608.95C1703.13,1606.89 1685.81,1603.64 1672.94,1601.19C1661.21,1598.96 1647.13,1597 1637.8,1594.23C1630.47,1592.05 1620.07,1587.49 1616.98,1584.57C1614.99,1582.68 1619.57,1579.12 1619.26,1576.69C1618.95,1574.26 1616.32,1572.32 1615.12,1569.99C1612.99,1565.85 1609.56,1557.83 1606.51,1551.88C1603.01,1545.08 1597.35,1537.19 1594.14,1529.2C1590.22,1519.46 1585.46,1505.23 1582.99,1493.41C1580.59,1481.88 1578.96,1466.97 1579.34,1458.27C1579.59,1452.26 1587.49,1446.79 1585.23,1441.21C1582.81,1435.22 1571.75,1428.46 1564.79,1422.33C1557.37,1415.8 1547.12,1405.22 1540.75,1402.02C1536.51,1399.89 1527.16,1398.43 1526.55,1403.14Z" style="fill:rgb(223,165,119);"/>
                    <clipPath id="_clip5">
                        <path d="M1526.55,1403.14C1525.55,1410.86 1531.07,1433.48 1534.75,1448.34C1539.14,1466.07 1547.91,1489.8 1552.89,1509.51C1557.66,1528.34 1561.82,1552.03 1564.65,1566.59C1566.62,1576.66 1569.09,1590.36 1569.91,1596.92C1570.28,1599.91 1568.64,1603.08 1569.57,1605.94C1570.63,1609.26 1575.09,1613.19 1576.31,1616.81C1577.45,1620.24 1575.7,1624.49 1576.84,1627.64C1577.97,1630.8 1579.87,1634.67 1583.11,1635.75C1589.01,1637.71 1603.2,1639.03 1612.22,1639.39C1620.56,1639.72 1630.51,1638.12 1637.22,1637.91C1642.3,1637.75 1647.43,1638.77 1652.48,1638.13C1664.15,1636.64 1694.54,1631.02 1707.23,1629C1714.34,1627.87 1721.58,1627.47 1728.62,1625.99C1737.03,1624.23 1755.08,1620.52 1757.67,1618.45C1760.25,1616.37 1757.43,1614.38 1752.75,1613.34C1745.64,1611.75 1724.69,1610.63 1715,1608.95C1703.13,1606.89 1685.81,1603.64 1672.94,1601.19C1661.21,1598.96 1647.13,1597 1637.8,1594.23C1630.47,1592.05 1620.07,1587.49 1616.98,1584.57C1614.99,1582.68 1619.57,1579.12 1619.26,1576.69C1618.95,1574.26 1616.32,1572.32 1615.12,1569.99C1612.99,1565.85 1609.56,1557.83 1606.51,1551.88C1603.01,1545.08 1597.35,1537.19 1594.14,1529.2C1590.22,1519.46 1585.46,1505.23 1582.99,1493.41C1580.59,1481.88 1578.96,1466.97 1579.34,1458.27C1579.59,1452.26 1587.49,1446.79 1585.23,1441.21C1582.81,1435.22 1571.75,1428.46 1564.79,1422.33C1557.37,1415.8 1547.12,1405.22 1540.75,1402.02C1536.51,1399.89 1527.16,1398.43 1526.55,1403.14Z"/>
                    </clipPath>
                    <g clip-path="url(#_clip5)">
                        <path d="M1599.2,1522.82L1579.6,1533.29C1579.6,1533.29 1588.01,1550.68 1591.15,1557.66C1593.74,1563.42 1595.73,1569.43 1598.42,1575.14C1601.12,1580.88 1602.23,1588.61 1607.34,1592.08C1612.45,1595.55 1621.97,1594.1 1629.09,1595.97C1639.35,1598.66 1657.75,1605.15 1668.89,1608.22C1677.81,1610.67 1686.9,1610.59 1695.97,1612.38C1709.11,1614.98 1726.94,1615.68 1726.94,1615.68L1740.03,1626.27L1771.96,1615.75C1771.96,1615.75 1736.98,1600.98 1718.58,1596.72C1698.22,1592 1669.46,1599.66 1649.79,1587.48C1629.89,1575.16 1599.2,1522.82 1599.2,1522.82Z" style="fill:rgb(248,219,196);"/>
                        <path d="M1613.88,1548.63C1613.58,1555.95 1598.1,1541.45 1593.54,1540.31C1591.22,1539.73 1588.89,1541.43 1586.53,1541.8C1583.76,1542.23 1578.73,1540.95 1576.92,1542.91C1575.12,1544.87 1575.34,1549.99 1575.71,1553.54C1576.35,1559.61 1579.28,1571.19 1580.75,1579.3C1582.14,1586.92 1582.63,1595.3 1584.55,1602.21C1586.34,1608.65 1588.9,1617.1 1592.24,1620.74C1595.13,1623.88 1600.37,1623.58 1604.61,1624.04C1611.59,1624.8 1628.1,1625.01 1634.1,1625.31C1636.28,1625.41 1639.66,1623.88 1640.63,1625.83C1642.16,1628.92 1643.31,1643.85 1643.31,1643.85L1570.8,1646.15L1516.74,1412.35L1516.28,1395.12L1553.44,1390.16L1597.09,1456.3C1597.09,1456.3 1614.48,1534.63 1613.88,1548.63Z" style="fill:rgb(182,129,87);"/>
                    </g>
                    <g transform="matrix(1.2298,0,0,1.11207,-376.473,-183.262)">
                        <path d="M1641.14,1626.61C1639.88,1626.55 1638.12,1626.84 1637.51,1627.73C1636.9,1628.61 1637.23,1630.55 1637.51,1631.92C1637.81,1633.39 1638.14,1635.53 1639.33,1636.56C1640.53,1637.6 1642.94,1637.48 1644.68,1638.14C1646.83,1638.96 1650.47,1640.88 1652.25,1641.48C1653.24,1641.82 1655.14,1642.75 1655.37,1641.73C1655.62,1640.66 1654.75,1637.11 1653.73,1635.07C1652.59,1632.82 1650.68,1629.65 1648.59,1628.24C1646.49,1626.83 1642.99,1626.69 1641.14,1626.61Z" style="fill:rgb(105,98,92);"/>
                    </g>
                    <g transform="matrix(1.1776,0,0,1.02927,-206.921,-59.0975)">
                        <path d="M1641.14,1626.61C1639.88,1626.55 1638.12,1626.84 1637.51,1627.73C1636.9,1628.61 1637.23,1630.55 1637.51,1631.92C1637.81,1633.39 1638.14,1635.53 1639.33,1636.56C1640.53,1637.6 1642.94,1637.48 1644.68,1638.14C1646.83,1638.96 1650.47,1640.88 1652.25,1641.48C1653.24,1641.82 1655.14,1642.75 1655.37,1641.73C1655.62,1640.66 1654.75,1637.11 1653.73,1635.07C1652.59,1632.82 1650.68,1629.65 1648.59,1628.24C1646.49,1626.83 1642.99,1626.69 1641.14,1626.61Z" style="fill:rgb(105,98,92);"/>
                    </g>
                    <g transform="matrix(1.09904,0,0,0.777006,-54.1491,347.974)">
                        <path d="M1641.14,1626.61C1639.88,1626.55 1638.12,1626.84 1637.51,1627.73C1636.9,1628.61 1637.23,1630.55 1637.51,1631.92C1637.81,1633.39 1638.14,1635.53 1639.33,1636.56C1640.53,1637.6 1642.94,1637.48 1644.68,1638.14C1646.83,1638.96 1650.47,1640.88 1652.25,1641.48C1653.24,1641.82 1655.14,1642.75 1655.37,1641.73C1655.62,1640.66 1654.75,1637.11 1653.73,1635.07C1652.59,1632.82 1650.68,1629.65 1648.59,1628.24C1646.49,1626.83 1642.99,1626.69 1641.14,1626.61Z" style="fill:rgb(105,98,92);"/>
                    </g>
                </g>
                <g transform="matrix(0.990268,0.139173,-0.139173,0.990268,185.842,-152.377)">
                    <path d="M1720.09,835.172C1720.09,835.172 1727.35,884.911 1739.42,900.518C1751.5,916.125 1776.67,923.749 1792.54,928.812C1805.93,933.082 1821.6,931.225 1834.64,930.895C1846.76,930.588 1859.78,929.613 1870.79,926.83C1881.28,924.179 1891.34,917.239 1900.71,914.203C1909.23,911.441 1918.15,910.05 1926.99,908.614C1936.14,907.127 1947.71,909.414 1955.62,905.28C1963.54,901.146 1971.32,895.126 1971.32,895.126C1971.32,895.126 1948.69,892.784 1920.25,895.458C1885.63,898.712 1842.26,906.77 1818.98,902.32C1779.85,894.837 1720.09,835.172 1720.09,835.172Z" style="fill:rgb(252,245,239);"/>
                </g>
                <g transform="matrix(0.990268,0.139173,-0.139173,0.990268,185.842,-152.377)">
                    <path d="M1729.75,874.283C1717.89,853.936 1712.63,819.364 1715.67,791.56C1719.1,760.292 1733.21,715.969 1750.3,686.677C1766.79,658.416 1795.57,631.599 1818.21,615.805C1837.91,602.068 1862.17,592.519 1886.17,591.912C1915.11,591.181 1964.31,599.669 1991.84,611.417C2015.87,621.67 2037.44,640.293 2051.35,662.4C2065.78,685.327 2071.18,728.739 2078.43,748.98C2082.76,761.073 2084.25,767.031 2084.25,767.031L2086.34,770.715L2091.78,784.862L2050.02,879.574C2050.02,879.574 2015.2,876.669 2002.79,877.896C1993.28,878.836 1981.02,883.958 1975.59,886.934C1972.57,888.589 1973.58,895.051 1970.2,895.753C1960.55,897.761 1934.89,895.58 1917.68,898.981C1897.31,903.006 1869.81,917.458 1848.01,919.902C1827.64,922.184 1805.96,921.017 1786.84,913.64C1767.13,906.037 1741.39,894.252 1729.75,874.283Z" style="fill:rgb(143,205,143);"/>
                    <clipPath id="_clip6">
                        <path d="M1729.75,874.283C1717.89,853.936 1712.63,819.364 1715.67,791.56C1719.1,760.292 1733.21,715.969 1750.3,686.677C1766.79,658.416 1795.57,631.599 1818.21,615.805C1837.91,602.068 1862.17,592.519 1886.17,591.912C1915.11,591.181 1964.31,599.669 1991.84,611.417C2015.87,621.67 2037.44,640.293 2051.35,662.4C2065.78,685.327 2071.18,728.739 2078.43,748.98C2082.76,761.073 2084.25,767.031 2084.25,767.031L2086.34,770.715L2091.78,784.862L2050.02,879.574C2050.02,879.574 2015.2,876.669 2002.79,877.896C1993.28,878.836 1981.02,883.958 1975.59,886.934C1972.57,888.589 1973.58,895.051 1970.2,895.753C1960.55,897.761 1934.89,895.58 1917.68,898.981C1897.31,903.006 1869.81,917.458 1848.01,919.902C1827.64,922.184 1805.96,921.017 1786.84,913.64C1767.13,906.037 1741.39,894.252 1729.75,874.283Z"/>
                    </clipPath>
                    <g clip-path="url(#_clip6)">
                        <path d="M1731.42,918.561C1731.42,918.561 1735.97,795.893 1747.36,755.786C1755.9,725.691 1777.67,696.684 1799.75,677.918C1821.83,659.152 1851.54,647.436 1879.83,643.19C1908.12,638.943 1969.47,652.438 1969.47,652.438C1961.81,633.508 1945.84,618.395 1923.64,606.15C1974.92,609.355 2026.37,633.378 2077.95,673.17L1991.68,582.769L1771.89,595.811L1698.44,742.182C1694.15,801.002 1706.58,859.792 1731.42,918.561Z" style="fill:rgb(121,173,108);"/>
                        <path d="M1873.06,917.879C1851.36,908.182 1913.77,857.19 1922.26,842.232C1924.59,838.113 1925.55,832.598 1923.98,828.131C1921.55,821.208 1903.99,808.877 1907.64,800.692C1911.28,792.507 1932.01,782.36 1945.86,779.019C1959.72,775.678 1980.75,784.354 1990.77,780.645C1999.63,777.369 2008.54,763.274 2006,756.765C2003.46,750.257 1984.02,745.028 1975.54,741.594C1969.01,738.95 1961.42,739.304 1955.12,736.16C1947.57,732.394 1935.42,723.737 1930.23,718.994C1927.04,716.089 1921.31,711.106 1923.94,707.699C1926.86,703.934 1942.02,698.532 1947.7,696.407C1950.96,695.188 1956.67,696.978 1958.03,694.947C1959.38,692.916 1953.2,683.242 1955.84,684.22C1958.48,685.199 1970.83,700.094 1973.87,700.818C1976.91,701.543 1972.14,688.454 1974.08,688.566C1976.02,688.679 1983.83,704.147 1985.49,701.494C1987.14,698.842 1978.85,672.655 1984.03,672.651C1989.21,672.646 2011.82,701.584 2016.58,701.468C2021.33,701.352 2009.06,670.057 2012.56,671.955C2016.07,673.853 2035.8,715.754 2037.59,712.858C2039.38,709.962 2017.2,656.84 2023.3,654.576C2029.4,652.312 2060.8,681.097 2074.19,699.274C2089.53,720.105 2118.6,749.658 2115.37,779.561C2111.75,813.084 2091.91,877.898 2052.47,900.412C2012.08,923.465 1894.76,927.576 1873.06,917.879Z" style="fill:rgb(183,215,142);"/>
                    </g>
                </g>
                <g transform="matrix(0.990268,0.139173,-0.139173,0.990268,185.842,-152.377)">
                    <path d="M1944.12,707.305C1942.08,708.318 1940.6,710.852 1940.35,713.024C1940.1,715.197 1941.03,718.349 1942.63,720.341C1944.51,722.682 1948.09,725.839 1951.63,727.07C1955.41,728.385 1960.95,728.133 1965.31,728.234C1969.48,728.331 1977.81,727.676 1977.81,727.676C1977.81,727.676 1976.66,719.605 1974.94,716.301C1973.21,712.998 1970.56,709.715 1967.45,707.855C1964.34,705.996 1960.1,705.235 1956.27,705.144C1952.38,705.052 1946.78,705.991 1944.12,707.305Z" style="fill:rgb(46,44,18);"/>
                    <clipPath id="_clip7">
                        <path d="M1944.12,707.305C1942.08,708.318 1940.6,710.852 1940.35,713.024C1940.1,715.197 1941.03,718.349 1942.63,720.341C1944.51,722.682 1948.09,725.839 1951.63,727.07C1955.41,728.385 1960.95,728.133 1965.31,728.234C1969.48,728.331 1977.81,727.676 1977.81,727.676C1977.81,727.676 1976.66,719.605 1974.94,716.301C1973.21,712.998 1970.56,709.715 1967.45,707.855C1964.34,705.996 1960.1,705.235 1956.27,705.144C1952.38,705.052 1946.78,705.991 1944.12,707.305Z"/>
                    </clipPath>
                    <g clip-path="url(#_clip7)">
                        <ellipse cx="1951.14" cy="715.676" rx="24.822" ry="17.32"/>
                    </g>
                </g>
                <g transform="matrix(0.990268,0.139173,-0.139173,0.990268,185.842,-152.377)">
                    <path d="M2005.11,862.895C2005.11,862.895 2050.59,882.767 2066.24,888.814C2076.92,892.942 2099,899.173 2099,899.173C2099,899.173 2133.31,918.564 2149.61,924.966C2164.77,930.918 2181.86,934.748 2196.81,937.583C2210.8,940.237 2239.3,941.979 2239.3,941.979C2239.3,941.979 2246.34,948.402 2250.37,949.035C2254.41,949.668 2261.52,949.826 2263.51,945.778C2265.52,941.708 2265.88,930.768 2262.4,924.62C2258.64,917.961 2248.69,911.331 2240.94,905.825C2224.58,894.211 2186.84,872.671 2164.28,854.938C2143.1,838.297 2118.91,814.08 2105.58,799.429C2096.87,789.868 2084.25,767.031 2084.25,767.031C2084.25,767.031 2092.02,784.89 2088.87,785.062C2085.72,785.233 2070.03,770.794 2065.34,768.06C2064,767.281 2061.29,767.212 2060.74,768.657C2058.9,773.473 2058.24,788.108 2054.33,796.952C2049.56,807.734 2036.47,826.942 2032.13,833.351C2031.32,834.548 2029.03,834.158 2028.31,835.407C2027.6,836.656 2029.4,839.9 2027.85,840.845C2026.14,841.884 2020.74,840.976 2018.07,841.635C2015.81,842.195 2012.7,842.639 2011.83,844.804C2010.66,847.738 2012.15,856.221 2011.03,859.236C2010.22,861.41 2005.11,862.895 2005.11,862.895Z" style="fill:rgb(249,242,116);"/>
                    <clipPath id="_clip8">
                        <path d="M2005.11,862.895C2005.11,862.895 2050.59,882.767 2066.24,888.814C2076.92,892.942 2099,899.173 2099,899.173C2099,899.173 2133.31,918.564 2149.61,924.966C2164.77,930.918 2181.86,934.748 2196.81,937.583C2210.8,940.237 2239.3,941.979 2239.3,941.979C2239.3,941.979 2246.34,948.402 2250.37,949.035C2254.41,949.668 2261.52,949.826 2263.51,945.778C2265.52,941.708 2265.88,930.768 2262.4,924.62C2258.64,917.961 2248.69,911.331 2240.94,905.825C2224.58,894.211 2186.84,872.671 2164.28,854.938C2143.1,838.297 2118.91,814.08 2105.58,799.429C2096.87,789.868 2084.25,767.031 2084.25,767.031C2084.25,767.031 2092.02,784.89 2088.87,785.062C2085.72,785.233 2070.03,770.794 2065.34,768.06C2064,767.281 2061.29,767.212 2060.74,768.657C2058.9,773.473 2058.24,788.108 2054.33,796.952C2049.56,807.734 2036.47,826.942 2032.13,833.351C2031.32,834.548 2029.03,834.158 2028.31,835.407C2027.6,836.656 2029.4,839.9 2027.85,840.845C2026.14,841.884 2020.74,840.976 2018.07,841.635C2015.81,842.195 2012.7,842.639 2011.83,844.804C2010.66,847.738 2012.15,856.221 2011.03,859.236C2010.22,861.41 2005.11,862.895 2005.11,862.895Z"/>
                    </clipPath>
                    <g clip-path="url(#_clip8)">
                        <path d="M2007.57,833.785C2007.57,833.785 2015.86,853.918 2024,860.459C2033.97,868.468 2053.66,873.995 2067.37,881.833C2080.85,889.541 2106.97,907.001 2106.97,907.001C2106.97,907.001 2038,887.267 2019.68,879.868C2010.8,876.279 1996.34,863.096 1996.34,863.096L2007.57,833.785Z" style="fill:rgb(174,170,140);"/>
                        <path d="M2019.17,837.471C2019.9,839.792 2023.27,846.384 2026.69,849.757C2032.07,855.059 2042.48,863.781 2051.43,869.287C2061.94,875.759 2077.07,882.022 2089.79,888.589C2102.87,895.338 2116.34,903.053 2129.87,909.783C2143.54,916.581 2157.97,923.719 2171.79,929.374C2185.2,934.858 2211,943.366 2212.82,943.71C2214.65,944.054 2192.64,935.838 2182.75,931.437C2169.2,925.411 2146.7,915.032 2131.55,907.553C2118.11,900.923 2104.89,893.287 2091.79,886.564C2078.93,879.959 2063.31,873.498 2052.96,867.211C2044.52,862.08 2034.81,854.07 2029.7,848.841C2026.21,845.273 2024.06,837.727 2022.3,835.832C2021.5,834.968 2018.81,836.347 2019.17,837.471Z" style="fill:rgb(174,170,140);"/>
                        <path d="M2093.44,817.998C2091.21,818.563 2090.2,822.075 2090.67,824.333C2091.22,826.981 2093.5,831.94 2096.74,833.884C2101.88,836.977 2121.53,842.89 2121.53,842.89C2121.53,842.89 2118.68,835.338 2116.51,831.977C2114.06,828.202 2110.7,822.57 2106.85,820.241C2103.01,817.911 2096.14,817.316 2093.44,817.998Z" style="fill:rgb(95,94,84);"/>
                        <path d="M2229.81,906.061C2229.81,906.061 2242.83,917.18 2246.85,921.948C2249.97,925.656 2253,931.161 2253.88,934.672C2254.58,937.424 2253.57,941.036 2252.18,943.016C2250.78,944.997 2247.76,946.265 2245.51,946.556C2243.26,946.846 2238.62,943.494 2238.69,944.761C2238.76,946.028 2242.31,952.603 2245.95,954.159C2249.81,955.809 2258.03,956.592 2261.85,954.659C2265.66,952.727 2269.18,947.208 2268.84,942.565C2268.44,937.32 2263.91,928.591 2259.48,923.187C2255.05,917.782 2247.22,912.992 2242.27,910.138C2238.49,907.953 2229.81,906.061 2229.81,906.061Z" style="fill:rgb(83,82,81);"/>
                    </g>
                </g>
            </g>
        </g>
    </g>
</svg>
