<?xml version="1.0" encoding="UTF-8" standalone="no"?>
<!DOCTYPE svg PUBLIC "-//W3C//DTD SVG 1.1//EN" "http://www.w3.org/Graphics/SVG/1.1/DTD/svg11.dtd">
<svg width="100%" height="100%" viewBox="0 0 2000 1000" version="1.1" xmlns="http://www.w3.org/2000/svg" xmlns:xlink="http://www.w3.org/1999/xlink" xml:space="preserve" style="fill-rule:evenodd;clip-rule:evenodd;stroke-linejoin:round;stroke-miterlimit:1.41421;">
    <g transform="matrix(1,0,0,1,-4400,0)">
        <g id="icon.-boxouts" transform="matrix(1,0,0,1,4400,0)">
            <rect x="0" y="0" width="2000" height="1000" style="fill:none;"/>
            <g transform="matrix(1,0,0,1,0,-2550.2)">
                <g id="B">
                    <path d="M949.936,2650.5C949.936,2637.24 944.668,2624.52 935.291,2615.14C925.914,2605.77 913.197,2600.5 899.936,2600.5C742.405,2600.5 257.531,2600.5 100,2600.5C86.739,2600.5 74.021,2605.77 64.645,2615.14C55.268,2624.52 50,2637.24 50,2650.5C50,2808.04 50,3292.96 50,3450.5C50,3463.76 55.268,3476.48 64.645,3485.86C74.021,3495.23 86.739,3500.5 100,3500.5C257.531,3500.5 742.405,3500.5 899.936,3500.5C913.197,3500.5 925.914,3495.23 935.291,3485.86C944.668,3476.48 949.936,3463.76 949.936,3450.5C949.936,3292.96 949.936,2808.04 949.936,2650.5ZM875.032,3425.2L875.032,3275.2L125.032,3275.2L125.032,3425.2L875.032,3425.2ZM874.965,3200.15L874.965,3050.15L124.965,3050.15L124.965,3200.15L874.965,3200.15Z" style="fill:rgb(51,51,51);"/>
                </g>
            </g>
            <g transform="matrix(1,0,0,1,999.899,-2550.2)">
                <g id="B1">
                    <path d="M949.936,2650.5C949.936,2637.24 944.668,2624.52 935.291,2615.14C925.914,2605.77 913.197,2600.5 899.936,2600.5C742.405,2600.5 257.531,2600.5 100,2600.5C86.739,2600.5 74.021,2605.77 64.645,2615.14C55.268,2624.52 50,2637.24 50,2650.5C50,2808.04 50,3292.96 50,3450.5C50,3463.76 55.268,3476.48 64.645,3485.86C74.021,3495.23 86.739,3500.5 100,3500.5C257.531,3500.5 742.405,3500.5 899.936,3500.5C913.197,3500.5 925.914,3495.23 935.291,3485.86C944.668,3476.48 949.936,3463.76 949.936,3450.5C949.936,3292.96 949.936,2808.04 949.936,2650.5ZM875.032,3425.2L875.032,3275.2L125.032,3275.2L125.032,3425.2L875.032,3425.2ZM874.965,3200.15L874.965,3050.15L124.965,3050.15L124.965,3200.15L874.965,3200.15Z" style="fill:white;"/>
                </g>
            </g>
        </g>
    </g>
</svg>
