<?xml version="1.0" encoding="UTF-8" standalone="no"?>
<!DOCTYPE svg PUBLIC "-//W3C//DTD SVG 1.1//EN" "http://www.w3.org/Graphics/SVG/1.1/DTD/svg11.dtd">
<svg width="100%" height="100%" viewBox="0 0 2000 1000" version="1.1" xmlns="http://www.w3.org/2000/svg" xmlns:xlink="http://www.w3.org/1999/xlink" xml:space="preserve" style="fill-rule:evenodd;clip-rule:evenodd;stroke-linejoin:round;stroke-miterlimit:1.41421;">
    <g transform="matrix(1,0,0,1,-4400,-3900)">
        <g id="icon.-videos" transform="matrix(1,0,0,1,4400,3900)">
            <rect x="0" y="0" width="2000" height="1000" style="fill:none;"/>
            <clipPath id="_clip1">
                <rect x="0" y="0" width="2000" height="1000"/>
            </clipPath>
            <g clip-path="url(#_clip1)">
                <g transform="matrix(1,0,0,1,-4400,-3900)">
                    <path d="M4450,4775C4436.74,4775 4424.02,4769.73 4414.65,4760.36C4405.27,4750.98 4400,4738.26 4400,4725C4400,4588.63 4400,4211.37 4400,4075C4400,4061.74 4405.27,4049.02 4414.65,4039.64C4424.02,4030.27 4436.74,4025 4450,4025C4620.7,4025 5179.3,4025 5350,4025C5363.26,4025 5375.98,4030.27 5385.36,4039.64C5394.73,4049.02 5400,4061.74 5400,4075C5400,4211.37 5400,4588.63 5400,4725C5400,4738.26 5394.73,4750.98 5385.36,4760.36C5375.98,4769.73 5363.26,4775 5350,4775C5179.3,4775 4620.7,4775 4450,4775ZM4450,4725L4450,4075L5349.8,4075L5349.8,4725L4450,4725ZM5116,4400.05L4766.1,4574.98L4766.1,4225.12L5116,4400.05Z" style="fill:rgb(51,51,51);"/>
                </g>
                <g transform="matrix(1,0,0,1,-3400,-3900)">
                    <path d="M4450,4775C4436.74,4775 4424.02,4769.73 4414.65,4760.36C4405.27,4750.98 4400,4738.26 4400,4725C4400,4588.63 4400,4211.37 4400,4075C4400,4061.74 4405.27,4049.02 4414.65,4039.64C4424.02,4030.27 4436.74,4025 4450,4025C4620.7,4025 5179.3,4025 5350,4025C5363.26,4025 5375.98,4030.27 5385.36,4039.64C5394.73,4049.02 5400,4061.74 5400,4075C5400,4211.37 5400,4588.63 5400,4725C5400,4738.26 5394.73,4750.98 5385.36,4760.36C5375.98,4769.73 5363.26,4775 5350,4775C5179.3,4775 4620.7,4775 4450,4775ZM4450,4725L4450,4075L5349.8,4075L5349.8,4725L4450,4725ZM5116,4400.05L4766.1,4574.98L4766.1,4225.12L5116,4400.05Z" style="fill:rgb(34,119,179);"/>
                </g>
            </g>
        </g>
    </g>
</svg>
