<?xml version="1.0" encoding="UTF-8" standalone="no"?>
<!DOCTYPE svg PUBLIC "-//W3C//DTD SVG 1.1//EN" "http://www.w3.org/Graphics/SVG/1.1/DTD/svg11.dtd">
<svg width="100%" height="100%" viewBox="0 0 2000 1000" version="1.1" xmlns="http://www.w3.org/2000/svg" xmlns:xlink="http://www.w3.org/1999/xlink" xml:space="preserve" style="fill-rule:evenodd;clip-rule:evenodd;stroke-linejoin:round;stroke-miterlimit:1.41421;">
    <rect id="icon.-tiles" x="0" y="0" width="2000" height="1000" style="fill:none;"/>
    <clipPath id="_clip1">
        <rect id="icon.-tiles1" x="0" y="0" width="2000" height="1000"/>
    </clipPath>
    <g clip-path="url(#_clip1)">
        <g id="B">
            <g transform="matrix(0.916667,0,0,0.916463,4.16667,4.17685)">
                <rect x="50" y="50" width="275.031" height="275" style="fill:rgb(85,85,85);"/>
            </g>
            <g transform="matrix(0.916667,0,0,0.916463,328.111,4.17685)">
                <rect x="50" y="50" width="275.031" height="275" style="fill:rgb(85,85,85);"/>
            </g>
            <g transform="matrix(0.916667,0,0,0.916463,652.055,4.17685)">
                <rect x="50" y="50" width="275.031" height="275" style="fill:rgb(85,85,85);"/>
            </g>
            <g transform="matrix(0.916667,0,0,0.916463,4.23083,328.113)">
                <rect x="50" y="50" width="275.031" height="275" style="fill:rgb(85,85,85);"/>
            </g>
            <g transform="matrix(0.916667,0,0,0.916463,328.111,328.263)">
                <rect x="50" y="50" width="275.031" height="275" style="fill:rgb(85,85,85);"/>
            </g>
            <g transform="matrix(0.916667,0,0,0.916463,652.055,328.263)">
                <rect x="50" y="50" width="275.031" height="275" style="fill:rgb(85,85,85);"/>
            </g>
            <g transform="matrix(0.916667,0,0,0.916463,4.23083,652.15)">
                <rect x="50" y="50" width="275.031" height="275" style="fill:rgb(85,85,85);"/>
            </g>
            <g transform="matrix(0.916667,0,0,0.916463,328.111,652.15)">
                <rect x="50" y="50" width="275.031" height="275" style="fill:rgb(85,85,85);"/>
            </g>
        </g>
        <g id="B1" transform="matrix(1,0,0,1,1000,0.1)">
            <g transform="matrix(0.916667,0,0,0.916463,4.16667,4.17685)">
                <rect x="50" y="50" width="275.031" height="275" style="fill:white;"/>
            </g>
            <g transform="matrix(0.916667,0,0,0.916463,328.111,4.17685)">
                <rect x="50" y="50" width="275.031" height="275" style="fill:white;"/>
            </g>
            <g transform="matrix(0.916667,0,0,0.916463,652.055,4.17685)">
                <rect x="50" y="50" width="275.031" height="275" style="fill:white;"/>
            </g>
            <g transform="matrix(0.916667,0,0,0.916463,4.23083,328.113)">
                <rect x="50" y="50" width="275.031" height="275" style="fill:white;"/>
            </g>
            <g transform="matrix(0.916667,0,0,0.916463,328.111,328.263)">
                <rect x="50" y="50" width="275.031" height="275" style="fill:white;"/>
            </g>
            <g transform="matrix(0.916667,0,0,0.916463,652.055,328.263)">
                <rect x="50" y="50" width="275.031" height="275" style="fill:white;"/>
            </g>
            <g transform="matrix(0.916667,0,0,0.916463,4.23083,652.15)">
                <rect x="50" y="50" width="275.031" height="275" style="fill:white;"/>
            </g>
            <g transform="matrix(0.916667,0,0,0.916463,328.111,652.15)">
                <rect x="50" y="50" width="275.031" height="275" style="fill:white;"/>
            </g>
        </g>
    </g>
</svg>
