<?xml version="1.0" encoding="UTF-8" standalone="no"?>
<!DOCTYPE svg PUBLIC "-//W3C//DTD SVG 1.1//EN" "http://www.w3.org/Graphics/SVG/1.1/DTD/svg11.dtd">
<svg width="100%" height="100%" viewBox="0 0 2000 1000" version="1.1" xmlns="http://www.w3.org/2000/svg" xmlns:xlink="http://www.w3.org/1999/xlink" xml:space="preserve" style="fill-rule:evenodd;clip-rule:evenodd;stroke-linejoin:round;stroke-miterlimit:1.41421;">
    <g transform="matrix(1,0,0,1,0,-1300)">
        <g id="icon.-buttons" transform="matrix(1,0,0,1,0,1300)">
            <rect x="0" y="0" width="2000" height="1000" style="fill:none;"/>
            <g id="B" transform="matrix(1,0,0,1,-0.0991667,249.036)">
                <g transform="matrix(0.977696,0,0,0.977696,-50.4478,-4016.91)">
                    <path d="M563.071,4805.1L563.071,4245.68L950.136,4632.79L775.031,4632.79L839.353,4781.28L750,4825.5L688.808,4680.66L563.071,4805.1Z" style="fill:rgb(85,85,85);"/>
                </g>
                <g transform="matrix(1,0,0,1,0.0991667,-4074.44)">
                    <rect x="49.965" y="3950.4" width="900" height="200" style="fill:rgb(85,85,85);"/>
                </g>
            </g>
            <g id="B1" transform="matrix(1,0,0,1,999.835,249.036)">
                <g transform="matrix(0.977696,0,0,0.977696,-50.4478,-4016.91)">
                    <path d="M563.071,4805.1L563.071,4245.68L950.136,4632.79L775.031,4632.79L839.353,4781.28L750,4825.5L688.808,4680.66L563.071,4805.1Z" style="fill:white;"/>
                </g>
                <g transform="matrix(1,0,0,1,0.0991667,-4074.44)">
                    <rect x="49.965" y="3950.4" width="900" height="200" style="fill:white;"/>
                </g>
            </g>
        </g>
    </g>
</svg>
