<?xml version="1.0" encoding="UTF-8" standalone="no"?>
<!DOCTYPE svg PUBLIC "-//W3C//DTD SVG 1.1//EN" "http://www.w3.org/Graphics/SVG/1.1/DTD/svg11.dtd">
<svg width="100%" height="100%" viewBox="0 0 2000 1000" version="1.1" xmlns="http://www.w3.org/2000/svg" xmlns:xlink="http://www.w3.org/1999/xlink" xml:space="preserve" style="fill-rule:evenodd;clip-rule:evenodd;stroke-linejoin:round;stroke-miterlimit:1.41421;">
    <g transform="matrix(1,0,0,1,-4400,-1300)">
        <g id="icon.-bugs" transform="matrix(1,0,0,1,4400,1300)">
            <rect x="0" y="0" width="2000" height="1000" style="fill:none;"/>
            <clipPath id="_clip1">
                <rect x="0" y="0" width="2000" height="1000"/>
            </clipPath>
            <g clip-path="url(#_clip1)">
                <g transform="matrix(1.26086,0,0,1.26086,-130.431,-8183.1)">
                    <g id="B">
                        <path d="M413.154,6724.58C412.733,6721.1 412.515,6717.56 412.515,6713.97C412.515,6665.69 451.708,6626.5 499.982,6626.5C548.257,6626.5 587.45,6665.69 587.45,6713.97C587.45,6717.54 587.235,6721.07 586.817,6724.53C600.096,6732.14 612.286,6741.43 623.091,6752.12C650.137,6730.68 728.34,6670.77 762.349,6667.1C802.062,6662.82 862.515,6732.87 862.515,6732.87C862.515,6732.87 796.466,6693.26 762.515,6701.5C733.018,6708.66 671.784,6756.07 644.636,6777.96C655.269,6793.53 663.455,6810.9 668.639,6829.51C705.682,6813.82 785.631,6782.14 816.823,6787C856.29,6793.14 896.554,6876.45 896.554,6876.45C896.554,6876.45 843.006,6821.1 808.081,6820.27C777.778,6819.54 706.51,6849.41 674.558,6863.56C674.871,6867.83 675.031,6872.15 675.031,6876.5C675.031,6892.93 672.763,6908.82 668.524,6923.9C709.465,6929.05 791.368,6941.48 815.412,6960.84C846.519,6985.9 839.735,7078.18 839.735,7078.18C839.735,7078.18 821.039,7003.46 791.208,6985.28C765.789,6969.79 691.399,6960.09 655.835,6956.22C646.346,6974.71 633.662,6991.3 618.513,7005.24C651.391,7030.17 716.127,7081.89 727.268,7110.69C741.68,7147.94 689.666,7224.47 689.666,7224.47C689.666,7224.47 710.83,7150.41 694.087,7119.75C679.679,7093.37 619.063,7047.13 590.536,7026.28C564.122,7042.28 533.144,7051.5 500.031,7051.5C466.903,7051.5 435.913,7042.28 409.492,7026.26C380.977,7047.1 320.326,7093.36 305.913,7119.75C289.17,7150.41 310.334,7224.47 310.334,7224.47C310.334,7224.47 258.32,7147.94 272.732,7110.69C283.877,7081.88 348.653,7030.13 381.52,7005.22C366.382,6991.27 353.706,6974.69 344.223,6956.21C308.683,6960.08 234.225,6969.78 208.792,6985.28C178.961,7003.46 160.265,7078.18 160.265,7078.18C160.265,7078.18 153.481,6985.9 184.588,6960.84C208.643,6941.47 290.615,6929.04 331.536,6923.9C327.298,6908.82 325.031,6892.92 325.031,6876.5C325.031,6872.15 325.189,6867.85 325.501,6863.58C293.578,6849.45 222.241,6819.54 191.919,6820.27C156.994,6821.1 103.446,6876.45 103.446,6876.45C103.446,6876.45 143.71,6793.14 183.177,6787C214.384,6782.14 294.397,6813.85 331.416,6829.53C336.596,6810.92 344.777,6793.56 355.404,6777.99C328.276,6756.12 266.996,6708.66 237.485,6701.5C203.534,6693.26 137.485,6732.87 137.485,6732.87C137.485,6732.87 197.938,6662.82 237.651,6667.1C271.674,6670.77 349.93,6730.73 376.943,6752.15C387.731,6741.47 399.899,6732.19 413.154,6724.58Z" style="fill:rgb(85,85,85);"/>
                    </g>
                </g>
                <g transform="matrix(1.26086,0,0,1.26086,869.569,-8183.1)">
                    <g id="B1">
                        <path d="M413.154,6724.58C412.733,6721.1 412.515,6717.56 412.515,6713.97C412.515,6665.69 451.708,6626.5 499.982,6626.5C548.257,6626.5 587.45,6665.69 587.45,6713.97C587.45,6717.54 587.235,6721.07 586.817,6724.53C600.096,6732.14 612.286,6741.43 623.091,6752.12C650.137,6730.68 728.34,6670.77 762.349,6667.1C802.062,6662.82 862.515,6732.87 862.515,6732.87C862.515,6732.87 796.466,6693.26 762.515,6701.5C733.018,6708.66 671.784,6756.07 644.636,6777.96C655.269,6793.53 663.455,6810.9 668.639,6829.51C705.682,6813.82 785.631,6782.14 816.823,6787C856.29,6793.14 896.554,6876.45 896.554,6876.45C896.554,6876.45 843.006,6821.1 808.081,6820.27C777.778,6819.54 706.51,6849.41 674.558,6863.56C674.871,6867.83 675.031,6872.15 675.031,6876.5C675.031,6892.93 672.763,6908.82 668.524,6923.9C709.465,6929.05 791.368,6941.48 815.412,6960.84C846.519,6985.9 839.735,7078.18 839.735,7078.18C839.735,7078.18 821.039,7003.46 791.208,6985.28C765.789,6969.79 691.399,6960.09 655.835,6956.22C646.346,6974.71 633.662,6991.3 618.513,7005.24C651.391,7030.17 716.127,7081.89 727.268,7110.69C741.68,7147.94 689.666,7224.47 689.666,7224.47C689.666,7224.47 710.83,7150.41 694.087,7119.75C679.679,7093.37 619.063,7047.13 590.536,7026.28C564.122,7042.28 533.144,7051.5 500.031,7051.5C466.903,7051.5 435.913,7042.28 409.492,7026.26C380.977,7047.1 320.326,7093.36 305.913,7119.75C289.17,7150.41 310.334,7224.47 310.334,7224.47C310.334,7224.47 258.32,7147.94 272.732,7110.69C283.877,7081.88 348.653,7030.13 381.52,7005.22C366.382,6991.27 353.706,6974.69 344.223,6956.21C308.683,6960.08 234.225,6969.78 208.792,6985.28C178.961,7003.46 160.265,7078.18 160.265,7078.18C160.265,7078.18 153.481,6985.9 184.588,6960.84C208.643,6941.47 290.615,6929.04 331.536,6923.9C327.298,6908.82 325.031,6892.92 325.031,6876.5C325.031,6872.15 325.189,6867.85 325.501,6863.58C293.578,6849.45 222.241,6819.54 191.919,6820.27C156.994,6821.1 103.446,6876.45 103.446,6876.45C103.446,6876.45 143.71,6793.14 183.177,6787C214.384,6782.14 294.397,6813.85 331.416,6829.53C336.596,6810.92 344.777,6793.56 355.404,6777.99C328.276,6756.12 266.996,6708.66 237.485,6701.5C203.534,6693.26 137.485,6732.87 137.485,6732.87C137.485,6732.87 197.938,6662.82 237.651,6667.1C271.674,6670.77 349.93,6730.73 376.943,6752.15C387.731,6741.47 399.899,6732.19 413.154,6724.58Z" style="fill:white;"/>
                    </g>
                </g>
            </g>
        </g>
    </g>
</svg>
