<?xml version="1.0" encoding="UTF-8" standalone="no"?>
<!DOCTYPE svg PUBLIC "-//W3C//DTD SVG 1.1//EN" "http://www.w3.org/Graphics/SVG/1.1/DTD/svg11.dtd">
<svg width="100%" height="100%" viewBox="0 0 2000 1000" version="1.1" xmlns="http://www.w3.org/2000/svg" xmlns:xlink="http://www.w3.org/1999/xlink" xml:space="preserve" style="fill-rule:evenodd;clip-rule:evenodd;stroke-linejoin:round;stroke-miterlimit:1.41421;">
    <g transform="matrix(1,0,0,1,0,-2600)">
        <g id="icon.-code" transform="matrix(1,0,0,1,0,2600)">
            <rect x="0" y="0" width="2000" height="1000" style="fill:none;"/>
            <g transform="matrix(1,0,0,1,0,-7602)">
                <g id="B">
                    <path d="M50.685,8077C63.674,7840.25 260.027,7652 500,7652C739.973,7652 936.326,7840.25 949.315,8077L583.87,8077C573.102,8040.87 539.607,8014.5 500,8014.5C451.707,8014.5 412.5,8053.71 412.5,8102C412.5,8150.29 451.707,8189.5 500,8189.5C539.607,8189.5 573.102,8163.13 583.87,8127L949.315,8127C936.326,8363.75 739.973,8552 500,8552C260.027,8552 63.674,8363.75 50.685,8127L251.237,8127C263.797,8253.26 370.458,8352 500,8352C552.442,8352 601.134,8335.82 641.355,8308.18C650.822,8301.65 656.897,8291.25 657.939,8279.8C658.98,8268.34 654.88,8257.01 646.747,8248.88C646.746,8248.88 646.746,8248.88 646.746,8248.88C634.449,8236.58 615.082,8234.93 600.883,8244.98C572.364,8265.14 537.555,8277 500,8277C403.415,8277 325,8198.59 325,8102C325,8005.41 403.415,7927 500,7927C537.597,7927 572.441,7938.88 600.979,7959.09C615.18,7969.15 634.561,7967.5 646.865,7955.2C646.866,7955.2 646.866,7955.2 646.863,7955.19C654.991,7947.07 659.091,7935.75 658.054,7924.3C657.017,7912.85 650.95,7902.45 641.493,7895.92C601.249,7868.22 552.504,7852 500,7852C370.458,7852 263.797,7950.74 251.237,8077L50.685,8077Z" style="fill:rgb(51,51,51);"/>
                </g>
            </g>
            <g transform="matrix(1,0,0,1,1000,-7602)">
                <g id="B1">
                    <path d="M50.685,8077C63.674,7840.25 260.027,7652 500,7652C739.973,7652 936.326,7840.25 949.315,8077L583.87,8077C573.102,8040.87 539.607,8014.5 500,8014.5C451.707,8014.5 412.5,8053.71 412.5,8102C412.5,8150.29 451.707,8189.5 500,8189.5C539.607,8189.5 573.102,8163.13 583.87,8127L949.315,8127C936.326,8363.75 739.973,8552 500,8552C260.027,8552 63.674,8363.75 50.685,8127L251.237,8127C263.797,8253.26 370.458,8352 500,8352C552.442,8352 601.134,8335.82 641.355,8308.18C650.822,8301.65 656.897,8291.25 657.939,8279.8C658.98,8268.34 654.88,8257.01 646.747,8248.88C646.746,8248.88 646.746,8248.88 646.746,8248.88C634.449,8236.58 615.082,8234.93 600.883,8244.98C572.364,8265.14 537.555,8277 500,8277C403.415,8277 325,8198.59 325,8102C325,8005.41 403.415,7927 500,7927C537.597,7927 572.441,7938.88 600.979,7959.09C615.18,7969.15 634.561,7967.5 646.865,7955.2C646.866,7955.2 646.866,7955.2 646.863,7955.19C654.991,7947.07 659.091,7935.75 658.054,7924.3C657.017,7912.85 650.95,7902.45 641.493,7895.92C601.249,7868.22 552.504,7852 500,7852C370.458,7852 263.797,7950.74 251.237,8077L50.685,8077Z" style="fill:rgb(34,119,179);"/>
                </g>
            </g>
        </g>
    </g>
</svg>
