<?xml version="1.0" encoding="UTF-8" standalone="no"?>
<!DOCTYPE svg PUBLIC "-//W3C//DTD SVG 1.1//EN" "http://www.w3.org/Graphics/SVG/1.1/DTD/svg11.dtd">
<svg width="100%" height="100%" viewBox="0 0 2000 1000" version="1.1" xmlns="http://www.w3.org/2000/svg" xmlns:xlink="http://www.w3.org/1999/xlink" xml:space="preserve" style="fill-rule:evenodd;clip-rule:evenodd;stroke-linejoin:round;stroke-miterlimit:1.41421;">
    <g transform="matrix(1,0,0,1,-2200,-3900)">
        <g id="icon.-type" transform="matrix(1,0,0,1,2200,3900)">
            <rect x="0" y="0" width="2000" height="1000" style="fill:none;"/>
            <g transform="matrix(1,0,0,1,-2200,-3900)">
                <path d="M2700,3950C2948.36,3950 3150,4151.64 3150,4400C3150,4648.36 2948.36,4850 2700,4850C2451.64,4850 2250,4648.36 2250,4400C2250,4151.64 2451.64,3950 2700,3950ZM2699.94,4204.67L2699.94,4077.14L2619.99,4077.14L2619.99,4204.67L2538.01,4204.67L2538.01,4269.44L2619.99,4269.44L2619.99,4568.01C2619.99,4671.24 2670.59,4722.86 2771.8,4722.86C2799.46,4722.86 2824.43,4716.78 2846.69,4704.64L2846.69,4628.73C2826.45,4644.25 2803.17,4652.01 2776.86,4652.01C2725.58,4652.01 2699.94,4624.68 2699.94,4570.03L2699.94,4269.44L2841.63,4269.44L2841.63,4204.67L2699.94,4204.67Z" style="fill:rgb(51,51,51);"/>
            </g>
            <g transform="matrix(1,0,0,1,-1200,-3899.9)">
                <path d="M2700,3950C2948.36,3950 3150,4151.64 3150,4400C3150,4648.36 2948.36,4850 2700,4850C2451.64,4850 2250,4648.36 2250,4400C2250,4151.64 2451.64,3950 2700,3950ZM2699.94,4204.67L2699.94,4077.14L2619.99,4077.14L2619.99,4204.67L2538.01,4204.67L2538.01,4269.44L2619.99,4269.44L2619.99,4568.01C2619.99,4671.24 2670.59,4722.86 2771.8,4722.86C2799.46,4722.86 2824.43,4716.78 2846.69,4704.64L2846.69,4628.73C2826.45,4644.25 2803.17,4652.01 2776.86,4652.01C2725.58,4652.01 2699.94,4624.68 2699.94,4570.03L2699.94,4269.44L2841.63,4269.44L2841.63,4204.67L2699.94,4204.67Z" style="fill:rgb(34,119,179);"/>
            </g>
        </g>
    </g>
</svg>
