<?xml version="1.0" encoding="UTF-8" standalone="no"?>
<!DOCTYPE svg PUBLIC "-//W3C//DTD SVG 1.1//EN" "http://www.w3.org/Graphics/SVG/1.1/DTD/svg11.dtd">
<svg width="100%" height="100%" viewBox="0 0 2000 1000" version="1.1" xmlns="http://www.w3.org/2000/svg" xmlns:xlink="http://www.w3.org/1999/xlink" xml:space="preserve" style="fill-rule:evenodd;clip-rule:evenodd;stroke-linejoin:round;stroke-miterlimit:1.41421;">
    <g transform="matrix(1,0,0,1,0,-5200)">
        <g id="icon.-links" transform="matrix(1,0,0,1,0,5200)">
            <rect x="0" y="0" width="2000" height="1000" style="fill:none;"/>
            <clipPath id="_clip1">
                <rect x="0" y="0" width="2000" height="1000"/>
            </clipPath>
            <g clip-path="url(#_clip1)">
                <g transform="matrix(1,0,0,1,0,-5200)">
                    <path d="M800.608,5928.82L524.492,5928.82C471.61,5928.82 420.894,5907.81 383.501,5870.42C346.108,5833.02 325.101,5782.31 325.101,5729.43C325.101,5702.97 325.101,5675.85 325.101,5649.39C325.101,5619.33 331.888,5589.97 344.615,5563.36L445.934,5563.36C444.79,5564.43 443.662,5565.52 442.551,5566.64C415.829,5593.36 400.816,5629.6 400.816,5667.39C400.816,5681.99 400.816,5696.83 400.816,5711.43C400.816,5749.22 415.829,5785.46 442.551,5812.18C469.273,5838.9 505.517,5853.92 543.308,5853.92C617.398,5853.92 707.702,5853.92 781.793,5853.92C819.584,5853.92 855.827,5838.9 882.55,5812.18C909.272,5785.46 924.285,5749.22 924.285,5711.43C924.285,5696.83 924.285,5681.99 924.285,5667.39C924.285,5629.6 909.272,5593.36 882.55,5566.64C855.828,5539.91 819.585,5524.9 781.793,5524.9L679.31,5524.9C660.585,5490.61 638.189,5466.46 611.071,5450L800.608,5450C853.491,5450 904.207,5471.01 941.6,5508.4C978.993,5545.79 1000,5596.51 1000,5649.39C1000,5675.85 1000,5702.97 1000,5729.43C1000,5782.31 978.993,5833.02 941.6,5870.42C904.207,5907.81 853.492,5928.82 800.608,5928.82ZM387.659,5928.82L199.392,5928.82C146.51,5928.82 95.794,5907.81 58.4,5870.42C21.007,5833.02 0,5782.31 0,5729.43C0,5702.97 0,5675.85 0,5649.39C0,5596.51 21.007,5545.79 58.4,5508.4C95.793,5471.01 146.509,5450 199.392,5450L475.508,5450C528.39,5450 579.106,5471.01 616.499,5508.4C653.892,5545.79 674.899,5596.51 674.899,5649.39C674.899,5675.85 674.899,5702.97 674.899,5729.43C674.899,5759.78 667.979,5789.42 655.011,5816.23L553.228,5816.23C554.66,5814.91 556.067,5813.56 557.449,5812.18C584.171,5785.46 599.184,5749.22 599.184,5711.43C599.184,5696.83 599.184,5681.99 599.184,5667.39C599.184,5629.6 584.171,5593.36 557.449,5566.64C530.727,5539.91 494.485,5524.9 456.692,5524.9L218.207,5524.9C180.414,5524.9 144.172,5539.91 117.45,5566.64C90.728,5593.36 75.715,5629.6 75.715,5667.39C75.715,5681.99 75.715,5696.83 75.715,5711.43C75.715,5749.22 90.728,5785.46 117.45,5812.18C144.172,5838.9 180.415,5853.92 218.207,5853.92L320.267,5853.92C338.785,5888.08 360.907,5912.25 387.659,5928.82Z" style="fill:rgb(51,51,51);"/>
                </g>
                <g transform="matrix(1,0,0,1,1000,-5200)">
                    <path d="M800.608,5928.82L524.492,5928.82C471.61,5928.82 420.894,5907.81 383.501,5870.42C346.108,5833.02 325.101,5782.31 325.101,5729.43C325.101,5702.97 325.101,5675.85 325.101,5649.39C325.101,5619.33 331.888,5589.97 344.615,5563.36L445.934,5563.36C444.79,5564.43 443.662,5565.52 442.551,5566.64C415.829,5593.36 400.816,5629.6 400.816,5667.39C400.816,5681.99 400.816,5696.83 400.816,5711.43C400.816,5749.22 415.829,5785.46 442.551,5812.18C469.273,5838.9 505.517,5853.92 543.308,5853.92C617.398,5853.92 707.702,5853.92 781.793,5853.92C819.584,5853.92 855.827,5838.9 882.55,5812.18C909.272,5785.46 924.285,5749.22 924.285,5711.43C924.285,5696.83 924.285,5681.99 924.285,5667.39C924.285,5629.6 909.272,5593.36 882.55,5566.64C855.828,5539.91 819.585,5524.9 781.793,5524.9L679.31,5524.9C660.585,5490.61 638.189,5466.46 611.071,5450L800.608,5450C853.491,5450 904.207,5471.01 941.6,5508.4C978.993,5545.79 1000,5596.51 1000,5649.39C1000,5675.85 1000,5702.97 1000,5729.43C1000,5782.31 978.993,5833.02 941.6,5870.42C904.207,5907.81 853.492,5928.82 800.608,5928.82ZM387.659,5928.82L199.392,5928.82C146.51,5928.82 95.794,5907.81 58.4,5870.42C21.007,5833.02 0,5782.31 0,5729.43C0,5702.97 0,5675.85 0,5649.39C0,5596.51 21.007,5545.79 58.4,5508.4C95.793,5471.01 146.509,5450 199.392,5450L475.508,5450C528.39,5450 579.106,5471.01 616.499,5508.4C653.892,5545.79 674.899,5596.51 674.899,5649.39C674.899,5675.85 674.899,5702.97 674.899,5729.43C674.899,5759.78 667.979,5789.42 655.011,5816.23L553.228,5816.23C554.66,5814.91 556.067,5813.56 557.449,5812.18C584.171,5785.46 599.184,5749.22 599.184,5711.43C599.184,5696.83 599.184,5681.99 599.184,5667.39C599.184,5629.6 584.171,5593.36 557.449,5566.64C530.727,5539.91 494.485,5524.9 456.692,5524.9L218.207,5524.9C180.414,5524.9 144.172,5539.91 117.45,5566.64C90.728,5593.36 75.715,5629.6 75.715,5667.39C75.715,5681.99 75.715,5696.83 75.715,5711.43C75.715,5749.22 90.728,5785.46 117.45,5812.18C144.172,5838.9 180.415,5853.92 218.207,5853.92L320.267,5853.92C338.785,5888.08 360.907,5912.25 387.659,5928.82Z" style="fill:rgb(34,119,179);"/>
                </g>
            </g>
        </g>
    </g>
</svg>
