<?xml version="1.0" encoding="UTF-8" standalone="no"?>
<!DOCTYPE svg PUBLIC "-//W3C//DTD SVG 1.1//EN" "http://www.w3.org/Graphics/SVG/1.1/DTD/svg11.dtd">
<svg width="100%" height="100%" viewBox="0 0 2000 1000" version="1.1" xmlns="http://www.w3.org/2000/svg" xmlns:xlink="http://www.w3.org/1999/xlink" xml:space="preserve" style="fill-rule:evenodd;clip-rule:evenodd;stroke-linejoin:round;stroke-miterlimit:1.41421;">
    <g transform="matrix(1,0,0,1,0,-1275)">
        <g id="icon.-color" transform="matrix(1,0,0,1,0,1275)">
            <rect x="0" y="0" width="2000" height="1000" style="fill:none;"/>
            <g transform="matrix(1,0,0,1,0,-1275)">
                <g id="B">
                    <path d="M608.049,1912.6C648.747,1944.64 674.899,1994.34 674.899,2050.1C674.899,2146.63 596.53,2225 500,2225C403.47,2225 325.101,2146.63 325.101,2050.1C325.101,1994.34 351.253,1944.64 391.951,1912.6C421.704,1936.02 459.233,1950 500,1950C540.767,1950 578.296,1936.02 608.049,1912.6ZM637.55,1667.12C669.584,1626.38 719.309,1600.2 775.101,1600.2C871.63,1600.2 950,1678.57 950,1775.1C950,1871.63 871.63,1950 775.101,1950C719.309,1950 669.584,1923.82 637.55,1883.09C660.941,1853.34 674.899,1815.84 674.899,1775.1C674.899,1734.36 660.941,1696.86 637.55,1667.12ZM362.402,1883.03C330.365,1923.68 280.69,1949.8 224.963,1949.8C128.434,1949.8 50.064,1871.43 50.064,1774.9C50.064,1678.37 128.434,1600 224.963,1600C280.782,1600 330.529,1626.2 362.561,1666.97C339.103,1696.74 325.101,1734.3 325.101,1775.1C325.101,1815.81 339.04,1853.29 362.402,1883.03ZM392.079,1637.5C351.308,1605.47 325.101,1555.72 325.101,1499.9C325.101,1403.37 403.47,1325 500,1325C596.53,1325 674.899,1403.37 674.899,1499.9C674.899,1555.72 648.692,1605.47 607.921,1637.5C578.188,1614.14 540.709,1600.2 500,1600.2C459.291,1600.2 421.812,1614.14 392.079,1637.5Z" style="fill:rgb(85,85,85);"/>
                </g>
            </g>
            <g transform="matrix(1,0,0,1,999.835,-1274.9)">
                <g id="B1">
                    <path d="M608.049,1912.6C648.747,1944.64 674.899,1994.34 674.899,2050.1C674.899,2146.63 596.53,2225 500,2225C403.47,2225 325.101,2146.63 325.101,2050.1C325.101,1994.34 351.253,1944.64 391.951,1912.6C421.704,1936.02 459.233,1950 500,1950C540.767,1950 578.296,1936.02 608.049,1912.6ZM637.55,1667.12C669.584,1626.38 719.309,1600.2 775.101,1600.2C871.63,1600.2 950,1678.57 950,1775.1C950,1871.63 871.63,1950 775.101,1950C719.309,1950 669.584,1923.82 637.55,1883.09C660.941,1853.34 674.899,1815.84 674.899,1775.1C674.899,1734.36 660.941,1696.86 637.55,1667.12ZM362.402,1883.03C330.365,1923.68 280.69,1949.8 224.963,1949.8C128.434,1949.8 50.064,1871.43 50.064,1774.9C50.064,1678.37 128.434,1600 224.963,1600C280.782,1600 330.529,1626.2 362.561,1666.97C339.103,1696.74 325.101,1734.3 325.101,1775.1C325.101,1815.81 339.04,1853.29 362.402,1883.03ZM392.079,1637.5C351.308,1605.47 325.101,1555.72 325.101,1499.9C325.101,1403.37 403.47,1325 500,1325C596.53,1325 674.899,1403.37 674.899,1499.9C674.899,1555.72 648.692,1605.47 607.921,1637.5C578.188,1614.14 540.709,1600.2 500,1600.2C459.291,1600.2 421.812,1614.14 392.079,1637.5Z" style="fill:white;"/>
                </g>
            </g>
        </g>
    </g>
</svg>
