<?xml version="1.0" encoding="UTF-8" standalone="no"?>
<!DOCTYPE svg PUBLIC "-//W3C//DTD SVG 1.1//EN" "http://www.w3.org/Graphics/SVG/1.1/DTD/svg11.dtd">
<svg width="100%" height="100%" viewBox="0 0 2000 1001" version="1.1" xmlns="http://www.w3.org/2000/svg" xmlns:xlink="http://www.w3.org/1999/xlink" xml:space="preserve" style="fill-rule:evenodd;clip-rule:evenodd;stroke-linejoin:round;stroke-miterlimit:1.41421;">
    <g transform="matrix(1,0,0,1,0,-10002)">
        <g id="icon.-panels" transform="matrix(1,0,0,1,0,10002.6)">
            <rect x="0" y="0" width="2000" height="1000" style="fill:none;"/>
            <clipPath id="_clip1">
                <rect x="0" y="0" width="2000" height="1000"/>
            </clipPath>
            <g clip-path="url(#_clip1)">
                <g transform="matrix(-6.12323e-17,1,1,6.12323e-17,-5101.1,9.09495e-13)">
                    <g id="B">
                        <path d="M875,5151.1C875,5137.84 869.732,5125.12 860.355,5115.74C850.979,5106.37 838.261,5101.1 825,5101.1C688.633,5101.1 311.367,5101.1 175,5101.1C161.739,5101.1 149.021,5106.37 139.645,5115.74C130.268,5125.12 125,5137.84 125,5151.1C125,5321.8 125,5880.4 125,6051.1C125,6064.36 130.268,6077.08 139.645,6086.45C149.021,6095.83 161.739,6101.1 175,6101.1C311.367,6101.1 688.633,6101.1 825,6101.1C838.261,6101.1 850.979,6095.83 860.355,6086.45C869.732,6077.08 875,6064.36 875,6051.1C875,5880.4 875,5321.8 875,5151.1ZM825,5601.1L175,5601.1L175,6050.9L825,6050.9L825,5601.1Z" style="fill:rgb(85,85,85);"/>
                    </g>
                </g>
                <g transform="matrix(-6.12323e-17,1,1,6.12323e-17,-4101.1,9.09495e-13)">
                    <g id="B1">
                        <path d="M875,5151.1C875,5137.84 869.732,5125.12 860.355,5115.74C850.979,5106.37 838.261,5101.1 825,5101.1C688.633,5101.1 311.367,5101.1 175,5101.1C161.739,5101.1 149.021,5106.37 139.645,5115.74C130.268,5125.12 125,5137.84 125,5151.1C125,5321.8 125,5880.4 125,6051.1C125,6064.36 130.268,6077.08 139.645,6086.45C149.021,6095.83 161.739,6101.1 175,6101.1C311.367,6101.1 688.633,6101.1 825,6101.1C838.261,6101.1 850.979,6095.83 860.355,6086.45C869.732,6077.08 875,6064.36 875,6051.1C875,5880.4 875,5321.8 875,5151.1ZM825,5601.1L175,5601.1L175,6050.9L825,6050.9L825,5601.1Z" style="fill:white;"/>
                    </g>
                </g>
            </g>
        </g>
    </g>
</svg>
