<?xml version="1.0" encoding="UTF-8" standalone="no"?>
<!DOCTYPE svg PUBLIC "-//W3C//DTD SVG 1.1//EN" "http://www.w3.org/Graphics/SVG/1.1/DTD/svg11.dtd">
<svg width="100%" height="100%" viewBox="0 0 2000 1000" version="1.1" xmlns="http://www.w3.org/2000/svg" xmlns:xlink="http://www.w3.org/1999/xlink" xml:space="preserve" style="fill-rule:evenodd;clip-rule:evenodd;stroke-linejoin:round;stroke-miterlimit:1.41421;">
    <g transform="matrix(1,0,0,1,0,-5200)">
        <g id="icon.-notices" transform="matrix(1,0,0,1,0,5200)">
            <rect x="0" y="0" width="2000" height="1000" style="fill:none;"/>
            <clipPath id="_clip1">
                <rect x="0" y="0" width="2000" height="1000"/>
            </clipPath>
            <g clip-path="url(#_clip1)">
                <g transform="matrix(1,0,0,1,0,-5200)">
                    <path d="M50,6075C36.739,6075 24.021,6069.73 14.645,6060.36C5.268,6050.98 0,6038.26 0,6025C0,5888.63 0,5511.37 0,5375C0,5361.74 5.268,5349.02 14.645,5339.65C24.021,5330.27 36.739,5325 50,5325C220.701,5325 779.299,5325 950,5325C963.261,5325 975.979,5330.27 985.355,5339.65C994.732,5349.02 1000,5361.74 1000,5375C1000,5511.37 1000,5888.63 1000,6025C1000,6038.26 994.732,6050.98 985.355,6060.36C975.979,6069.73 963.261,6075 950,6075C779.299,6075 220.701,6075 50,6075ZM50,6025L50,5877.37L251.063,5700.05L50,5524.29L50,5375L949.8,5375L949.8,6025L50,6025ZM619.889,5959.28L476.305,5959.28L476.305,5832.32L619.889,5832.32L619.889,5959.28ZM595.133,5796.24L500,5796.24L471,5558.94L471,5440.82L624.84,5440.82L624.84,5558.94L595.133,5796.24Z" style="fill:rgb(51,51,51);"/>
                </g>
                <g transform="matrix(1,0,0,1,1000,-5200)">
                    <path d="M50,6075C36.739,6075 24.021,6069.73 14.645,6060.36C5.268,6050.98 0,6038.26 0,6025C0,5888.63 0,5511.37 0,5375C0,5361.74 5.268,5349.02 14.645,5339.65C24.021,5330.27 36.739,5325 50,5325C220.701,5325 779.299,5325 950,5325C963.261,5325 975.979,5330.27 985.355,5339.65C994.732,5349.02 1000,5361.74 1000,5375C1000,5511.37 1000,5888.63 1000,6025C1000,6038.26 994.732,6050.98 985.355,6060.36C975.979,6069.73 963.261,6075 950,6075C779.299,6075 220.701,6075 50,6075ZM50,6025L50,5877.37L251.063,5700.05L50,5524.29L50,5375L949.8,5375L949.8,6025L50,6025ZM619.889,5959.28L476.305,5959.28L476.305,5832.32L619.889,5832.32L619.889,5959.28ZM595.133,5796.24L500,5796.24L471,5558.94L471,5440.82L624.84,5440.82L624.84,5558.94L595.133,5796.24Z" style="fill:rgb(34,119,179);"/>
                </g>
            </g>
        </g>
    </g>
</svg>
