<?xml version="1.0" encoding="UTF-8" standalone="no"?>
<!DOCTYPE svg PUBLIC "-//W3C//DTD SVG 1.1//EN" "http://www.w3.org/Graphics/SVG/1.1/DTD/svg11.dtd">
<svg width="100%" height="100%" viewBox="0 0 2000 1000" version="1.1" xmlns="http://www.w3.org/2000/svg" xmlns:xlink="http://www.w3.org/1999/xlink" xml:space="preserve" style="fill-rule:evenodd;clip-rule:evenodd;stroke-linejoin:round;stroke-miterlimit:1.41421;">
    <g transform="matrix(1,0,0,1,-2200,-1300)">
        <g id="icon.-cards" transform="matrix(1,0,0,1,2200,1300)">
            <rect x="0" y="0" width="2000" height="1000" style="fill:none;"/>
            <clipPath id="_clip1">
                <rect x="0" y="0" width="2000" height="1000"/>
            </clipPath>
            <g clip-path="url(#_clip1)">
                <g transform="matrix(1,0,0,1,0,-5100.9)">
                    <g id="B">
                        <path d="M875,5151.1C875,5137.84 869.732,5125.12 860.355,5115.74C850.979,5106.37 838.261,5101.1 825,5101.1C688.633,5101.1 311.367,5101.1 175,5101.1C161.739,5101.1 149.021,5106.37 139.645,5115.74C130.268,5125.12 125,5137.84 125,5151.1C125,5321.8 125,5880.4 125,6051.1C125,6064.36 130.268,6077.08 139.645,6086.45C149.021,6095.83 161.739,6101.1 175,6101.1C311.367,6101.1 688.633,6101.1 825,6101.1C838.261,6101.1 850.979,6095.83 860.355,6086.45C869.732,6077.08 875,6064.36 875,6051.1C875,5880.4 875,5321.8 875,5151.1ZM825,5900.9L175,5900.9L175,6050.9L825,6050.9L825,5900.9ZM825,5500.9L825,5151.1L175,5151.1L175,5500.9L825,5500.9Z" style="fill:rgb(51,51,51);"/>
                    </g>
                </g>
                <g transform="matrix(1,0,0,1,0,-5100.9)">
                    <g id="B1">
                        <path d="M1874.9,5151.1C1874.9,5137.84 1869.63,5125.12 1860.26,5115.74C1850.88,5106.37 1838.16,5101.1 1824.9,5101.1C1688.53,5101.1 1311.27,5101.1 1174.9,5101.1C1161.64,5101.1 1148.92,5106.37 1139.54,5115.74C1130.17,5125.12 1124.9,5137.84 1124.9,5151.1C1124.9,5321.8 1124.9,5880.4 1124.9,6051.1C1124.9,6064.36 1130.17,6077.08 1139.54,6086.45C1148.92,6095.83 1161.64,6101.1 1174.9,6101.1C1311.27,6101.1 1688.53,6101.1 1824.9,6101.1C1838.16,6101.1 1850.88,6095.83 1860.26,6086.45C1869.63,6077.08 1874.9,6064.36 1874.9,6051.1C1874.9,5880.4 1874.9,5321.8 1874.9,5151.1ZM1824.9,5900.9L1174.9,5900.9L1174.9,6050.9L1824.9,6050.9L1824.9,5900.9ZM1824.9,5500.9L1824.9,5151.1L1174.9,5151.1L1174.9,5500.9L1824.9,5500.9Z" style="fill:rgb(34,119,179);"/>
                    </g>
                </g>
            </g>
        </g>
    </g>
</svg>
