<?xml version="1.0" encoding="UTF-8" standalone="no"?>
<!DOCTYPE svg PUBLIC "-//W3C//DTD SVG 1.1//EN" "http://www.w3.org/Graphics/SVG/1.1/DTD/svg11.dtd">
<svg width="100%" height="100%" viewBox="0 0 2000 1000" version="1.1" xmlns="http://www.w3.org/2000/svg" xmlns:xlink="http://www.w3.org/1999/xlink" xml:space="preserve" style="fill-rule:evenodd;clip-rule:evenodd;stroke-linejoin:round;stroke-miterlimit:1.41421;">
    <g transform="matrix(1,0,0,1,0,-3900)">
        <g id="icon.-heros" transform="matrix(1,0,0,1,0,3900)">
            <rect x="0" y="0" width="2000" height="1000" style="fill:none;"/>
            <g transform="matrix(1,0,0,1,0,-3900)">
                <path d="M0,4400.1L0,4075C0,4061.74 5.268,4049.02 14.645,4039.64C24.021,4030.27 36.739,4025 50,4025C220.701,4025 779.299,4025 950,4025C963.261,4025 975.979,4030.27 985.355,4039.64C994.732,4049.02 1000,4061.74 1000,4075C1000,4211.37 1000,4588.63 1000,4725C1000,4738.26 994.732,4750.98 985.355,4760.36C975.979,4769.73 963.261,4775 950,4775C779.299,4775 220.701,4775 50,4775C36.739,4775 24.021,4769.73 14.645,4760.36C5.268,4750.98 0,4738.26 0,4725L0,4400.1C0,4400.1 0,4400.1 0,4400.1ZM741.746,4411C831.66,4419.72 904.644,4433.14 949.8,4449.37L949.8,4075L50,4075L50,4449.44C95.141,4433.18 168.207,4419.73 258.254,4411C286.519,4303.94 384.102,4224.9 500,4224.9C615.898,4224.9 713.481,4303.94 741.746,4411ZM660.33,4404.7C633.26,4343.02 571.626,4299.9 500,4299.9C428.374,4299.9 366.74,4343.02 339.67,4404.7C390.007,4401.72 443.932,4400.1 500,4400.1C556.068,4400.1 609.992,4401.72 660.33,4404.7Z" style="fill:rgb(85,85,85);"/>
            </g>
            <g transform="matrix(1,0,0,1,1000,-3900)">
                <path d="M0,4400.1L0,4075C0,4061.74 5.268,4049.02 14.645,4039.64C24.021,4030.27 36.739,4025 50,4025C220.701,4025 779.299,4025 950,4025C963.261,4025 975.979,4030.27 985.355,4039.64C994.732,4049.02 1000,4061.74 1000,4075C1000,4211.37 1000,4588.63 1000,4725C1000,4738.26 994.732,4750.98 985.355,4760.36C975.979,4769.73 963.261,4775 950,4775C779.299,4775 220.701,4775 50,4775C36.739,4775 24.021,4769.73 14.645,4760.36C5.268,4750.98 0,4738.26 0,4725L0,4400.1C0,4400.1 0,4400.1 0,4400.1ZM741.746,4411C831.66,4419.72 904.644,4433.14 949.8,4449.37L949.8,4075L50,4075L50,4449.44C95.141,4433.18 168.207,4419.73 258.254,4411C286.519,4303.94 384.102,4224.9 500,4224.9C615.898,4224.9 713.481,4303.94 741.746,4411ZM660.33,4404.7C633.26,4343.02 571.626,4299.9 500,4299.9C428.374,4299.9 366.74,4343.02 339.67,4404.7C390.007,4401.72 443.932,4400.1 500,4400.1C556.068,4400.1 609.992,4401.72 660.33,4404.7Z" style="fill:white;"/>
            </g>
        </g>
    </g>
</svg>
