<?xml version="1.0" encoding="UTF-8" standalone="no"?>
<!DOCTYPE svg PUBLIC "-//W3C//DTD SVG 1.1//EN" "http://www.w3.org/Graphics/SVG/1.1/DTD/svg11.dtd">
<svg width="100%" height="100%" viewBox="0 0 256 100" version="1.1" xmlns="http://www.w3.org/2000/svg" xmlns:xlink="http://www.w3.org/1999/xlink" xml:space="preserve" style="fill-rule:evenodd;clip-rule:evenodd;stroke-linejoin:round;stroke-miterlimit:1.41421;">
    <g transform="matrix(1.17647,0,0,1.17647,0,-0.26)">
        <path d="M3.697,39.568C3.697,34.763 3.697,33.878 3.634,32.867C3.571,31.793 3.318,31.287 2.275,31.066C2.022,31.002 1.485,30.971 1.042,30.971C0.695,30.971 0.505,30.908 0.505,30.686C0.505,30.465 0.726,30.402 1.2,30.402C2.875,30.402 4.867,30.497 5.815,30.497C6.574,30.497 8.565,30.402 9.703,30.402C10.177,30.402 10.398,30.465 10.398,30.686C10.398,30.908 10.209,30.971 9.892,30.971C9.544,30.971 9.355,31.002 8.976,31.066C8.122,31.224 7.87,31.761 7.806,32.867C7.743,33.878 7.743,34.763 7.743,39.568L7.743,43.993C7.743,48.576 8.66,50.503 10.209,51.769C11.63,52.937 13.085,53.064 14.159,53.064C15.55,53.064 17.256,52.622 18.521,51.358C20.259,49.619 20.354,46.775 20.354,43.519L20.354,39.568C20.354,34.763 20.354,33.878 20.291,32.867C20.228,31.793 19.975,31.287 18.932,31.066C18.679,31.002 18.142,30.971 17.793,30.971C17.446,30.971 17.256,30.908 17.256,30.686C17.256,30.465 17.478,30.402 17.92,30.402C19.532,30.402 21.523,30.497 21.555,30.497C21.934,30.497 23.925,30.402 25.158,30.402C25.601,30.402 25.822,30.465 25.822,30.686C25.822,30.908 25.632,30.971 25.253,30.971C24.905,30.971 24.716,31.002 24.336,31.066C23.483,31.224 23.23,31.761 23.167,32.867C23.104,33.878 23.104,34.763 23.104,39.568L23.104,42.95C23.104,46.458 22.756,50.188 20.101,52.463C17.857,54.391 15.582,54.739 13.527,54.739C11.852,54.739 8.818,54.644 6.51,52.558C4.898,51.105 3.697,48.766 3.697,44.183L3.697,39.568Z" style="fill:#212121;fill-rule:nonzero;"/>
        <path d="M33.353,49.999C33.417,52.463 33.828,53.286 34.46,53.506C34.997,53.696 35.597,53.728 36.103,53.728C36.451,53.728 36.64,53.792 36.64,53.98C36.64,54.233 36.356,54.297 35.914,54.297C33.859,54.297 32.594,54.202 31.994,54.202C31.71,54.202 30.224,54.297 28.581,54.297C28.169,54.297 27.885,54.265 27.885,53.98C27.885,53.792 28.075,53.728 28.391,53.728C28.802,53.728 29.371,53.696 29.813,53.57C30.635,53.317 30.761,52.4 30.793,49.651L31.078,30.94C31.078,30.307 31.172,29.865 31.488,29.865C31.836,29.865 32.121,30.275 32.658,30.844C33.037,31.255 37.841,36.408 42.456,40.991C44.605,43.139 48.872,47.691 49.409,48.197L49.567,48.197L49.252,34.005C49.22,32.078 48.935,31.477 48.176,31.161C47.703,30.971 46.944,30.971 46.502,30.971C46.123,30.971 45.996,30.877 45.996,30.686C45.996,30.433 46.343,30.402 46.818,30.402C48.461,30.402 49.978,30.497 50.642,30.497C50.99,30.497 52.191,30.402 53.74,30.402C54.15,30.402 54.466,30.433 54.466,30.686C54.466,30.877 54.277,30.971 53.898,30.971C53.582,30.971 53.329,30.971 52.95,31.066C52.064,31.319 51.812,31.982 51.78,33.753L51.432,53.696C51.432,54.391 51.306,54.676 51.021,54.676C50.673,54.676 50.294,54.329 49.947,53.98C47.956,52.085 43.91,47.944 40.623,44.688C37.177,41.275 33.669,37.324 33.1,36.723L33.005,36.723L33.353,49.999Z" style="fill:#212121;fill-rule:nonzero;"/>
        <path d="M61.113,39.568C61.113,34.763 61.113,33.878 61.049,32.867C60.986,31.793 60.67,31.255 59.975,31.097C59.627,31.002 59.216,30.971 58.837,30.971C58.521,30.971 58.332,30.908 58.332,30.655C58.332,30.465 58.585,30.402 59.09,30.402C60.291,30.402 62.282,30.497 63.199,30.497C63.989,30.497 65.854,30.402 67.055,30.402C67.466,30.402 67.718,30.465 67.718,30.655C67.718,30.908 67.529,30.971 67.212,30.971C66.897,30.971 66.644,31.002 66.265,31.066C65.411,31.224 65.159,31.761 65.095,32.867C65.032,33.878 65.032,34.763 65.032,39.568L65.032,45.131C65.032,48.197 65.032,50.694 65.159,52.052C65.253,52.907 65.474,53.475 66.422,53.601C66.865,53.665 67.561,53.728 68.035,53.728C68.382,53.728 68.541,53.822 68.541,53.98C68.541,54.202 68.288,54.297 67.94,54.297C65.854,54.297 63.863,54.202 63.009,54.202C62.282,54.202 60.291,54.297 59.027,54.297C58.616,54.297 58.395,54.202 58.395,53.98C58.395,53.822 58.521,53.728 58.9,53.728C59.375,53.728 59.753,53.665 60.038,53.601C60.67,53.475 60.86,52.937 60.955,52.021C61.113,50.694 61.113,48.197 61.113,45.131L61.113,39.568Z" style="fill:#212121;fill-rule:nonzero;"/>
        <path d="M72.891,33.5C72.164,31.761 71.627,31.414 70.489,31.097C70.015,30.971 69.509,30.971 69.256,30.971C68.971,30.971 68.877,30.877 68.877,30.686C68.877,30.433 69.225,30.402 69.699,30.402C71.374,30.402 73.175,30.497 74.282,30.497C75.072,30.497 76.589,30.402 78.169,30.402C78.548,30.402 78.896,30.465 78.896,30.686C78.896,30.908 78.707,30.971 78.422,30.971C77.917,30.971 77.442,31.002 77.189,31.192C76.968,31.35 76.874,31.571 76.874,31.856C76.874,32.267 77.158,33.152 77.6,34.29L83.037,48.638L83.163,48.638C84.522,45.162 88.631,34.985 89.39,32.899C89.547,32.488 89.674,32.014 89.674,31.729C89.674,31.477 89.547,31.224 89.263,31.129C88.884,31.002 88.41,30.971 87.999,30.971C87.714,30.971 87.461,30.94 87.461,30.718C87.461,30.465 87.746,30.402 88.346,30.402C89.927,30.402 91.254,30.497 91.666,30.497C92.203,30.497 93.688,30.402 94.636,30.402C95.047,30.402 95.3,30.465 95.3,30.686C95.3,30.908 95.11,30.971 94.794,30.971C94.478,30.971 93.814,30.971 93.246,31.35C92.835,31.635 92.361,32.172 91.507,34.195C90.275,37.166 89.421,38.873 87.714,42.76C85.692,47.375 84.206,50.821 83.511,52.4C82.689,54.233 82.5,54.739 82.057,54.739C81.646,54.739 81.457,54.297 80.856,52.811L72.891,33.5Z" style="fill:#212121;fill-rule:nonzero;"/>
        <path d="M99.64,39.568C99.64,34.763 99.64,33.878 99.577,32.867C99.513,31.793 99.26,31.287 98.217,31.066C97.964,31.002 97.427,30.971 96.985,30.971C96.637,30.971 96.448,30.908 96.448,30.686C96.448,30.465 96.668,30.402 97.142,30.402C97.996,30.402 98.913,30.433 99.703,30.433C100.525,30.465 101.252,30.497 101.694,30.497C102.706,30.497 108.996,30.497 109.597,30.465C110.197,30.402 110.702,30.339 110.955,30.275C111.113,30.244 111.303,30.149 111.461,30.149C111.619,30.149 111.65,30.275 111.65,30.433C111.65,30.655 111.492,31.035 111.398,32.488C111.366,32.804 111.303,34.195 111.24,34.574C111.208,34.732 111.146,34.922 110.924,34.922C110.702,34.922 110.64,34.763 110.64,34.479C110.64,34.258 110.607,33.721 110.449,33.341C110.229,32.773 109.912,32.393 108.332,32.204C107.794,32.14 104.476,32.078 103.844,32.078C103.686,32.078 103.623,32.172 103.623,32.393L103.623,40.39C103.623,40.611 103.654,40.738 103.844,40.738C104.539,40.738 108.174,40.738 108.9,40.674C109.659,40.611 110.133,40.516 110.418,40.2C110.64,39.947 110.766,39.789 110.924,39.789C111.051,39.789 111.146,39.853 111.146,40.043C111.146,40.232 111.019,40.738 110.893,42.349C110.86,42.981 110.766,44.246 110.766,44.467C110.766,44.72 110.766,45.068 110.481,45.068C110.26,45.068 110.197,44.941 110.197,44.783C110.165,44.467 110.165,44.056 110.07,43.645C109.912,43.013 109.47,42.539 108.301,42.413C107.7,42.349 104.57,42.318 103.812,42.318C103.654,42.318 103.623,42.444 103.623,42.634L103.623,45.131C103.623,46.206 103.591,49.114 103.623,50.03C103.686,52.211 104.191,52.684 107.415,52.684C108.237,52.684 109.564,52.684 110.387,52.305C111.208,51.926 111.587,51.262 111.809,49.966C111.872,49.619 111.936,49.493 112.156,49.493C112.409,49.493 112.409,49.746 112.409,50.062C112.409,50.789 112.156,52.937 111.998,53.57C111.777,54.391 111.492,54.391 110.291,54.391C107.921,54.391 106.183,54.329 104.823,54.297C103.464,54.233 102.484,54.202 101.536,54.202C101.188,54.202 100.493,54.202 99.734,54.233C99.007,54.233 98.186,54.297 97.553,54.297C97.142,54.297 96.921,54.202 96.921,53.98C96.921,53.822 97.048,53.728 97.427,53.728C97.901,53.728 98.28,53.665 98.565,53.601C99.197,53.475 99.355,52.78 99.481,51.864C99.64,50.536 99.64,48.039 99.64,45.131L99.64,39.568Z" style="fill:#212121;fill-rule:nonzero;"/>
        <path d="M122.943,42.065C122.943,42.413 123.007,42.539 123.228,42.634C123.892,42.855 124.84,42.95 125.63,42.95C126.895,42.95 127.305,42.823 127.874,42.413C128.822,41.717 129.738,40.264 129.738,37.672C129.738,33.184 126.768,31.888 124.903,31.888C124.113,31.888 123.544,31.919 123.228,32.014C123.007,32.078 122.943,32.204 122.943,32.457L122.943,42.065ZM119.214,39.568C119.214,34.763 119.214,33.878 119.15,32.867C119.087,31.793 118.834,31.287 117.791,31.066C117.539,31.002 117.001,30.971 116.559,30.971C116.211,30.971 116.021,30.908 116.021,30.686C116.021,30.465 116.243,30.402 116.717,30.402C118.393,30.402 120.383,30.497 121.047,30.497C122.122,30.497 124.523,30.402 125.504,30.402C127.495,30.402 129.613,30.592 131.319,31.761C132.205,32.362 133.469,33.974 133.469,36.091C133.469,38.43 132.488,40.58 129.296,43.171C132.109,46.711 134.29,49.524 136.155,51.483C137.925,53.317 139.221,53.538 139.695,53.633C140.043,53.696 140.327,53.728 140.58,53.728C140.833,53.728 140.959,53.822 140.959,53.98C140.959,54.233 140.738,54.297 140.359,54.297L137.356,54.297C135.586,54.297 134.796,54.139 133.975,53.696C132.615,52.969 131.414,51.483 129.644,49.05C128.38,47.312 126.926,45.162 126.515,44.688C126.357,44.499 126.167,44.467 125.946,44.467L123.196,44.404C123.038,44.404 122.943,44.467 122.943,44.657L122.943,45.099C122.943,48.039 122.943,50.536 123.102,51.864C123.196,52.78 123.387,53.475 124.334,53.601C124.809,53.665 125.504,53.728 125.883,53.728C126.136,53.728 126.262,53.822 126.262,53.98C126.262,54.202 126.041,54.297 125.63,54.297C123.797,54.297 121.458,54.202 120.984,54.202C120.383,54.202 118.393,54.297 117.128,54.297C116.717,54.297 116.495,54.202 116.495,53.98C116.495,53.822 116.622,53.728 117.001,53.728C117.476,53.728 117.854,53.665 118.139,53.601C118.771,53.475 118.93,52.78 119.057,51.864C119.214,50.536 119.214,48.039 119.214,45.131L119.214,39.568Z" style="fill:#212121;fill-rule:nonzero;"/>
        <path d="M141.4,53.918C140.895,53.696 140.8,53.538 140.8,52.843C140.8,51.105 140.926,49.208 140.958,48.703C140.99,48.229 141.084,47.88 141.337,47.88C141.622,47.88 141.653,48.165 141.653,48.418C141.653,48.829 141.779,49.493 141.938,50.03C142.633,52.368 144.498,53.222 146.457,53.222C149.302,53.222 150.693,51.294 150.693,49.619C150.693,48.071 150.219,46.616 147.596,44.562L146.142,43.424C142.665,40.706 141.464,38.493 141.464,35.933C141.464,32.457 144.371,29.96 148.766,29.96C150.819,29.96 152.146,30.275 152.969,30.497C153.253,30.56 153.411,30.655 153.411,30.877C153.411,31.287 153.285,32.204 153.285,34.669C153.285,35.365 153.189,35.617 152.937,35.617C152.716,35.617 152.621,35.427 152.621,35.048C152.621,34.763 152.463,33.784 151.799,32.962C151.325,32.362 150.408,31.414 148.354,31.414C146.016,31.414 144.593,32.773 144.593,34.669C144.593,36.123 145.319,37.229 147.943,39.22L148.828,39.884C152.652,42.76 154.012,44.941 154.012,47.944C154.012,49.777 153.316,51.958 151.041,53.443C149.46,54.456 147.69,54.739 146.016,54.739C144.182,54.739 142.76,54.518 141.4,53.918Z" style="fill:#212121;fill-rule:nonzero;"/>
        <path d="M161.532,39.568C161.532,34.763 161.532,33.878 161.469,32.867C161.406,31.793 161.09,31.255 160.395,31.097C160.047,31.002 159.637,30.971 159.257,30.971C158.94,30.971 158.751,30.908 158.751,30.655C158.751,30.465 159.004,30.402 159.51,30.402C160.711,30.402 162.702,30.497 163.619,30.497C164.409,30.497 166.273,30.402 167.475,30.402C167.886,30.402 168.139,30.465 168.139,30.655C168.139,30.908 167.948,30.971 167.633,30.971C167.316,30.971 167.063,31.002 166.685,31.066C165.831,31.224 165.578,31.761 165.515,32.867C165.451,33.878 165.451,34.763 165.451,39.568L165.451,45.131C165.451,48.197 165.451,50.694 165.578,52.052C165.673,52.907 165.895,53.475 166.843,53.601C167.284,53.665 167.98,53.728 168.455,53.728C168.802,53.728 168.961,53.822 168.961,53.98C168.961,54.202 168.707,54.297 168.359,54.297C166.273,54.297 164.282,54.202 163.429,54.202C162.702,54.202 160.711,54.297 159.446,54.297C159.035,54.297 158.814,54.202 158.814,53.98C158.814,53.822 158.94,53.728 159.32,53.728C159.794,53.728 160.173,53.665 160.458,53.601C161.09,53.475 161.279,52.937 161.375,52.021C161.532,50.694 161.532,48.197 161.532,45.131L161.532,39.568Z" style="fill:#212121;fill-rule:nonzero;"/>
        <path d="M180.021,32.172L175.313,32.298C173.479,32.362 172.721,32.52 172.246,33.215C171.93,33.689 171.772,34.069 171.709,34.321C171.646,34.574 171.551,34.701 171.361,34.701C171.141,34.701 171.077,34.543 171.077,34.195C171.077,33.689 171.678,30.813 171.74,30.56C171.836,30.149 171.93,29.96 172.12,29.96C172.373,29.96 172.689,30.275 173.479,30.339C174.396,30.433 175.597,30.497 176.64,30.497L189.156,30.497C190.168,30.497 190.862,30.402 191.337,30.339C191.811,30.244 192.064,30.181 192.19,30.181C192.411,30.181 192.443,30.371 192.443,30.844C192.443,31.508 192.349,33.689 192.349,34.511C192.316,34.827 192.254,35.017 192.064,35.017C191.811,35.017 191.748,34.859 191.717,34.384L191.685,34.037C191.621,33.215 190.768,32.331 187.955,32.267L183.973,32.172L183.973,45.131C183.973,48.039 183.973,50.536 184.131,51.894C184.225,52.78 184.415,53.475 185.363,53.601C185.807,53.665 186.501,53.728 186.975,53.728C187.323,53.728 187.48,53.822 187.48,53.98C187.48,54.202 187.228,54.297 186.881,54.297C184.794,54.297 182.803,54.202 181.918,54.202C181.191,54.202 179.2,54.297 177.936,54.297C177.524,54.297 177.304,54.202 177.304,53.98C177.304,53.822 177.43,53.728 177.81,53.728C178.283,53.728 178.662,53.665 178.947,53.601C179.58,53.475 179.769,52.78 179.863,51.864C180.021,50.536 180.021,48.039 180.021,45.131L180.021,32.172Z" style="fill:#212121;fill-rule:nonzero;"/>
        <path d="M202.903,46.111C202.903,44.404 202.588,43.708 202.177,42.792C201.956,42.287 197.72,35.333 196.614,33.689C195.824,32.52 195.033,31.729 194.434,31.382C194.022,31.161 193.484,30.971 193.105,30.971C192.853,30.971 192.631,30.908 192.631,30.686C192.631,30.497 192.853,30.402 193.232,30.402C193.801,30.402 196.171,30.497 197.214,30.497C197.878,30.497 199.174,30.402 200.596,30.402C200.912,30.402 201.07,30.497 201.07,30.686C201.07,30.877 200.849,30.908 200.375,31.035C200.091,31.097 199.933,31.35 199.933,31.603C199.933,31.856 200.091,32.235 200.312,32.678C200.754,33.627 205.18,41.243 205.685,42.128C206.001,41.37 209.983,34.416 210.426,33.436C210.742,32.741 210.868,32.204 210.868,31.793C210.868,31.477 210.742,31.129 210.205,31.002C209.92,30.94 209.636,30.877 209.636,30.686C209.636,30.465 209.794,30.402 210.173,30.402C211.216,30.402 212.228,30.497 213.144,30.497C213.84,30.497 215.926,30.402 216.525,30.402C216.873,30.402 217.095,30.465 217.095,30.655C217.095,30.877 216.843,30.971 216.494,30.971C216.179,30.971 215.577,31.097 215.104,31.35C214.439,31.666 214.093,32.045 213.396,32.899C212.354,34.163 207.93,41.591 207.36,42.95C206.887,44.088 206.887,45.068 206.887,46.111L206.887,48.703C206.887,49.208 206.887,50.536 206.98,51.864C207.044,52.78 207.328,53.475 208.276,53.601C208.719,53.665 209.414,53.728 209.857,53.728C210.205,53.728 210.363,53.822 210.363,53.98C210.363,54.202 210.11,54.297 209.699,54.297C207.708,54.297 205.717,54.202 204.863,54.202C204.073,54.202 202.082,54.297 200.912,54.297C200.47,54.297 200.217,54.233 200.217,53.98C200.217,53.822 200.375,53.728 200.723,53.728C201.165,53.728 201.545,53.665 201.828,53.601C202.461,53.475 202.746,52.78 202.809,51.864C202.903,50.536 202.903,49.208 202.903,48.703L202.903,46.111Z" style="fill:#212121;fill-rule:nonzero;"/>
        <path d="M15.925,77.392C15.925,72.823 13.294,69.987 9.949,69.987C7.603,69.987 4.931,71.292 4.931,76.372C4.931,80.615 7.277,83.98 11.193,83.98C12.621,83.98 15.925,83.287 15.925,77.392ZM2.116,77.004C2.116,73.516 4.421,69.008 10.541,69.008C15.62,69.008 18.782,71.966 18.782,76.637C18.782,81.308 15.518,85 10.336,85C4.482,85 2.116,80.615 2.116,77.004Z" style="fill:#212121;fill-rule:nonzero;"/>
        <path d="M25.617,78.799C25.617,80.757 25.617,82.288 25.718,83.144C25.78,83.736 25.902,84.184 26.514,84.266C26.799,84.307 27.249,84.347 27.534,84.347C27.799,84.347 27.88,84.409 27.88,84.511C27.88,84.654 27.738,84.714 27.432,84.714C26.147,84.714 24.862,84.654 24.332,84.654C23.801,84.654 22.516,84.714 21.741,84.714C21.456,84.714 21.313,84.674 21.313,84.511C21.313,84.409 21.394,84.347 21.619,84.347C21.924,84.347 22.169,84.307 22.353,84.266C22.761,84.184 22.863,83.736 22.944,83.144C23.046,82.288 23.046,80.757 23.046,78.799L23.046,75.209C23.046,72.109 23.046,71.538 23.005,70.885C22.964,70.191 22.801,69.865 22.128,69.722C21.965,69.681 21.619,69.661 21.333,69.661C21.129,69.661 20.986,69.621 20.986,69.498C20.986,69.334 21.149,69.294 21.456,69.294C21.986,69.294 22.577,69.314 23.107,69.314C23.638,69.334 24.107,69.355 24.393,69.355C25.168,69.355 29.308,69.355 29.778,69.334C30.165,69.314 30.41,69.314 30.614,69.253C30.736,69.212 30.838,69.13 30.94,69.13C31.022,69.13 31.083,69.212 31.083,69.314C31.083,69.457 30.981,69.702 30.92,70.232C30.899,70.436 30.859,71.64 30.818,71.884C30.797,72.047 30.756,72.17 30.614,72.17C30.471,72.17 30.43,72.068 30.41,71.843C30.41,71.68 30.41,71.354 30.288,71.069C30.145,70.783 29.716,70.477 28.941,70.457L25.8,70.395C25.677,70.395 25.617,70.457 25.617,70.681L25.617,75.781C25.617,75.903 25.637,75.964 25.759,75.964L28.37,75.944C28.717,75.944 29.002,75.944 29.288,75.923C29.675,75.903 29.961,75.821 30.165,75.556C30.267,75.434 30.308,75.352 30.43,75.352C30.512,75.352 30.553,75.414 30.553,75.536C30.553,75.658 30.451,76.168 30.389,76.8C30.349,77.208 30.308,78.146 30.308,78.29C30.308,78.473 30.308,78.677 30.104,78.677C29.981,78.677 29.941,78.534 29.941,78.391C29.941,78.248 29.9,78.003 29.818,77.759C29.716,77.473 29.411,77.106 28.778,77.025C28.268,76.963 26.106,76.963 25.759,76.963C25.657,76.963 25.617,77.004 25.617,77.147L25.617,78.799Z" style="fill:#212121;fill-rule:nonzero;"/>
        <path d="M44.261,76.821C44.261,77.045 44.302,77.126 44.445,77.188C44.874,77.331 45.486,77.392 45.996,77.392C46.811,77.392 47.077,77.31 47.444,77.045C48.056,76.596 48.647,75.658 48.647,73.985C48.647,71.089 46.73,70.253 45.526,70.253C45.016,70.253 44.649,70.273 44.445,70.334C44.302,70.375 44.261,70.457 44.261,70.62L44.261,76.821ZM41.855,75.209C41.855,72.109 41.855,71.538 41.814,70.885C41.773,70.191 41.61,69.865 40.937,69.722C40.774,69.681 40.427,69.661 40.141,69.661C39.917,69.661 39.794,69.621 39.794,69.478C39.794,69.334 39.937,69.294 40.243,69.294C41.324,69.294 42.609,69.355 43.038,69.355C43.731,69.355 45.282,69.294 45.914,69.294C47.199,69.294 48.566,69.416 49.667,70.171C50.238,70.559 51.054,71.599 51.054,72.965C51.054,74.475 50.421,75.862 48.362,77.535C50.177,79.819 51.585,81.634 52.788,82.899C53.93,84.082 54.767,84.225 55.073,84.287C55.297,84.327 55.481,84.347 55.644,84.347C55.807,84.347 55.888,84.409 55.888,84.511C55.888,84.674 55.746,84.714 55.501,84.714L53.563,84.714C52.42,84.714 51.911,84.613 51.38,84.327C50.503,83.858 49.728,82.899 48.586,81.329C47.77,80.207 46.832,78.82 46.567,78.514C46.464,78.391 46.342,78.371 46.2,78.371L44.425,78.33C44.323,78.33 44.261,78.371 44.261,78.494L44.261,78.779C44.261,80.676 44.261,82.288 44.364,83.144C44.425,83.736 44.547,84.184 45.159,84.266C45.465,84.307 45.914,84.347 46.159,84.347C46.322,84.347 46.403,84.409 46.403,84.511C46.403,84.654 46.26,84.714 45.996,84.714C44.812,84.714 43.303,84.654 42.997,84.654C42.609,84.654 41.324,84.714 40.508,84.714C40.243,84.714 40.1,84.654 40.1,84.511C40.1,84.409 40.182,84.347 40.427,84.347C40.733,84.347 40.978,84.307 41.161,84.266C41.569,84.184 41.671,83.736 41.752,83.144C41.855,82.288 41.855,80.676 41.855,78.799L41.855,75.209Z" style="fill:#212121;fill-rule:nonzero;"/>
        <path d="M67.72,75.781C67.782,75.781 67.843,75.74 67.843,75.638L67.843,75.209C67.843,72.109 67.843,71.538 67.802,70.885C67.761,70.191 67.598,69.865 66.925,69.722C66.762,69.681 66.415,69.661 66.129,69.661C65.905,69.661 65.783,69.621 65.783,69.478C65.783,69.334 65.925,69.294 66.211,69.294C67.313,69.294 68.598,69.355 69.148,69.355C69.638,69.355 70.923,69.294 71.718,69.294C72.004,69.294 72.147,69.334 72.147,69.478C72.147,69.621 72.024,69.661 71.78,69.661C71.617,69.661 71.433,69.681 71.188,69.722C70.637,69.824 70.474,70.171 70.433,70.885C70.393,71.538 70.393,72.109 70.393,75.209L70.393,78.799C70.393,80.676 70.393,82.288 70.495,83.165C70.556,83.736 70.678,84.184 71.291,84.266C71.576,84.307 72.024,84.347 72.331,84.347C72.555,84.347 72.657,84.409 72.657,84.511C72.657,84.654 72.494,84.714 72.249,84.714C70.923,84.714 69.638,84.654 69.067,84.654C68.598,84.654 67.313,84.714 66.517,84.714C66.231,84.714 66.088,84.654 66.088,84.511C66.088,84.409 66.17,84.347 66.415,84.347C66.721,84.347 66.966,84.307 67.149,84.266C67.557,84.184 67.66,83.736 67.741,83.144C67.843,82.288 67.843,80.676 67.843,78.799L67.843,77.004C67.843,76.922 67.782,76.882 67.72,76.882L59.928,76.882C59.868,76.882 59.806,76.902 59.806,77.004L59.806,78.799C59.806,80.676 59.806,82.288 59.908,83.165C59.969,83.736 60.092,84.184 60.704,84.266C60.989,84.307 61.438,84.347 61.744,84.347C61.968,84.347 62.07,84.409 62.07,84.511C62.07,84.654 61.907,84.714 61.663,84.714C60.336,84.714 59.051,84.654 58.48,84.654C58.011,84.654 56.726,84.714 55.91,84.714C55.645,84.714 55.502,84.654 55.502,84.511C55.502,84.409 55.584,84.347 55.829,84.347C56.134,84.347 56.379,84.307 56.563,84.266C56.971,84.184 57.073,83.736 57.155,83.144C57.256,82.288 57.256,80.676 57.256,78.799L57.256,75.209C57.256,72.109 57.256,71.538 57.215,70.885C57.175,70.191 57.011,69.865 56.338,69.722C56.175,69.681 55.829,69.661 55.543,69.661C55.319,69.661 55.196,69.621 55.196,69.478C55.196,69.334 55.339,69.294 55.625,69.294C56.726,69.294 58.011,69.355 58.562,69.355C59.051,69.355 60.336,69.294 61.132,69.294C61.418,69.294 61.56,69.334 61.56,69.478C61.56,69.621 61.438,69.661 61.193,69.661C61.03,69.661 60.846,69.681 60.602,69.722C60.051,69.824 59.888,70.171 59.847,70.885C59.806,71.538 59.806,72.109 59.806,75.209L59.806,75.638C59.806,75.74 59.868,75.781 59.928,75.781L67.72,75.781Z" style="fill:#212121;fill-rule:nonzero;"/>
        <path d="M87.835,77.392C87.835,72.823 85.204,69.987 81.858,69.987C79.512,69.987 76.84,71.292 76.84,76.372C76.84,80.615 79.186,83.98 83.102,83.98C84.53,83.98 87.835,83.287 87.835,77.392ZM74.025,77.004C74.025,73.516 76.331,69.008 82.45,69.008C87.529,69.008 90.69,71.966 90.69,76.637C90.69,81.308 87.427,85 82.246,85C76.391,85 74.025,80.615 74.025,77.004Z" style="fill:#212121;fill-rule:nonzero;"/>
        <path d="M97.036,77.453C97.036,79.615 97.056,81.186 97.077,81.574C97.097,82.083 97.138,82.899 97.301,83.123C97.566,83.511 98.362,83.94 99.973,83.94C102.054,83.94 103.441,83.532 104.665,82.471C105.971,81.349 106.378,79.493 106.378,77.392C106.378,74.801 105.297,73.128 104.42,72.292C102.544,70.498 100.218,70.253 98.627,70.253C98.219,70.253 97.464,70.314 97.301,70.395C97.117,70.477 97.056,70.579 97.056,70.803C97.036,71.497 97.036,73.271 97.036,74.883L97.036,77.453ZM94.486,75.209C94.486,72.109 94.486,71.538 94.445,70.885C94.404,70.191 94.241,69.865 93.568,69.722C93.405,69.681 93.058,69.661 92.772,69.661C92.548,69.661 92.426,69.621 92.426,69.478C92.426,69.334 92.569,69.294 92.875,69.294C93.956,69.294 95.241,69.355 95.812,69.355C96.444,69.355 97.729,69.294 98.953,69.294C101.503,69.294 104.91,69.294 107.133,71.619C108.153,72.68 109.111,74.373 109.111,76.8C109.111,79.371 108.03,81.329 106.889,82.492C105.95,83.45 103.829,84.898 100.055,84.898C99.32,84.898 98.484,84.837 97.709,84.776C96.934,84.714 96.22,84.654 95.71,84.654C95.485,84.654 95.037,84.654 94.547,84.674C94.078,84.674 93.547,84.714 93.14,84.714C92.875,84.714 92.732,84.654 92.732,84.511C92.732,84.409 92.813,84.347 93.058,84.347C93.364,84.347 93.609,84.307 93.793,84.266C94.201,84.184 94.302,83.736 94.384,83.144C94.486,82.288 94.486,80.676 94.486,78.799L94.486,75.209Z" style="fill:#212121;fill-rule:nonzero;"/>
        <path d="M113.377,75.209C113.377,72.109 113.377,71.538 113.336,70.885C113.295,70.191 113.132,69.865 112.459,69.722C112.295,69.681 111.949,69.661 111.663,69.661C111.438,69.661 111.316,69.621 111.316,69.478C111.316,69.334 111.459,69.294 111.766,69.294C112.315,69.294 112.907,69.314 113.417,69.314C113.947,69.334 114.417,69.355 114.702,69.355C115.355,69.355 119.414,69.355 119.802,69.334C120.189,69.294 120.516,69.253 120.679,69.212C120.781,69.192 120.903,69.13 121.006,69.13C121.107,69.13 121.128,69.212 121.128,69.314C121.128,69.457 121.025,69.702 120.965,70.64C120.944,70.844 120.903,71.742 120.862,71.986C120.842,72.088 120.802,72.211 120.658,72.211C120.516,72.211 120.475,72.109 120.475,71.925C120.475,71.783 120.455,71.436 120.353,71.191C120.21,70.824 120.006,70.579 118.986,70.457C118.639,70.415 116.497,70.375 116.09,70.375C115.987,70.375 115.946,70.436 115.946,70.579L115.946,75.74C115.946,75.882 115.967,75.964 116.09,75.964C116.538,75.964 118.884,75.964 119.354,75.923C119.843,75.882 120.148,75.821 120.332,75.617C120.475,75.454 120.557,75.352 120.658,75.352C120.74,75.352 120.802,75.393 120.802,75.515C120.802,75.638 120.72,75.964 120.639,77.004C120.618,77.413 120.557,78.228 120.557,78.371C120.557,78.534 120.557,78.758 120.373,78.758C120.23,78.758 120.189,78.677 120.189,78.575C120.169,78.371 120.169,78.106 120.107,77.84C120.006,77.433 119.721,77.126 118.966,77.045C118.578,77.004 116.559,76.984 116.069,76.984C115.967,76.984 115.946,77.065 115.946,77.188L115.946,78.799C115.946,79.493 115.926,81.37 115.946,81.961C115.987,83.369 116.313,83.674 118.395,83.674C118.925,83.674 119.781,83.674 120.312,83.43C120.842,83.185 121.087,82.756 121.229,81.92C121.271,81.696 121.312,81.614 121.454,81.614C121.617,81.614 121.617,81.777 121.617,81.981C121.617,82.451 121.454,83.837 121.352,84.246C121.209,84.776 121.025,84.776 120.251,84.776C118.721,84.776 117.599,84.735 116.722,84.714C115.845,84.674 115.213,84.654 114.601,84.654C114.376,84.654 113.928,84.654 113.438,84.674C112.969,84.674 112.438,84.714 112.03,84.714C111.766,84.714 111.622,84.654 111.622,84.511C111.622,84.409 111.704,84.347 111.949,84.347C112.255,84.347 112.499,84.307 112.683,84.266C113.091,84.184 113.193,83.736 113.274,83.144C113.377,82.288 113.377,80.676 113.377,78.799L113.377,75.209Z" style="fill:#212121;fill-rule:nonzero;"/>
        <path d="M132.389,75.209C132.389,72.109 132.389,71.538 132.348,70.885C132.308,70.191 132.104,69.844 131.654,69.743C131.431,69.681 131.165,69.661 130.92,69.661C130.716,69.661 130.593,69.621 130.593,69.457C130.593,69.334 130.757,69.294 131.084,69.294C131.858,69.294 133.144,69.355 133.735,69.355C134.245,69.355 135.449,69.294 136.224,69.294C136.489,69.294 136.652,69.334 136.652,69.457C136.652,69.621 136.529,69.661 136.326,69.661C136.122,69.661 135.959,69.681 135.714,69.722C135.163,69.824 135,70.171 134.959,70.885C134.918,71.538 134.918,72.109 134.918,75.209L134.918,78.799C134.918,80.778 134.918,82.389 135,83.266C135.062,83.817 135.204,84.184 135.816,84.266C136.102,84.307 136.55,84.347 136.856,84.347C137.08,84.347 137.183,84.409 137.183,84.511C137.183,84.654 137.02,84.714 136.795,84.714C135.449,84.714 134.164,84.654 133.613,84.654C133.144,84.654 131.858,84.714 131.043,84.714C130.776,84.714 130.634,84.654 130.634,84.511C130.634,84.409 130.716,84.347 130.961,84.347C131.268,84.347 131.512,84.307 131.695,84.266C132.104,84.184 132.226,83.837 132.287,83.246C132.389,82.389 132.389,80.778 132.389,78.799L132.389,75.209Z" style="fill:#212121;fill-rule:nonzero;"/>
        <path d="M140.202,84.47C139.876,84.327 139.814,84.225 139.814,83.776C139.814,82.655 139.896,81.431 139.917,81.104C139.938,80.798 139.998,80.574 140.161,80.574C140.345,80.574 140.365,80.757 140.365,80.92C140.365,81.186 140.447,81.614 140.549,81.961C140.998,83.47 142.201,84.021 143.466,84.021C145.302,84.021 146.199,82.777 146.199,81.696C146.199,80.696 145.894,79.758 144.2,78.432L143.262,77.698C141.019,75.944 140.243,74.516 140.243,72.864C140.243,70.62 142.119,69.008 144.955,69.008C146.281,69.008 147.138,69.212 147.668,69.355C147.852,69.396 147.953,69.457 147.953,69.6C147.953,69.865 147.872,70.457 147.872,72.047C147.872,72.497 147.811,72.66 147.647,72.66C147.505,72.66 147.443,72.537 147.443,72.292C147.443,72.109 147.342,71.476 146.913,70.946C146.607,70.559 146.016,69.947 144.689,69.947C143.181,69.947 142.263,70.824 142.263,72.047C142.263,72.986 142.731,73.7 144.425,74.985L144.996,75.414C147.464,77.27 148.341,78.677 148.341,80.615C148.341,81.798 147.893,83.206 146.424,84.164C145.404,84.817 144.262,85 143.181,85C141.997,85 141.079,84.857 140.202,84.47Z" style="fill:#212121;fill-rule:nonzero;"/>
        <path d="M155.746,78.799C155.746,81.41 155.746,82.818 156.175,83.185C156.521,83.491 157.052,83.633 158.643,83.633C159.725,83.633 160.52,83.613 161.029,83.063C161.274,82.797 161.52,82.226 161.561,81.838C161.58,81.655 161.621,81.533 161.784,81.533C161.928,81.533 161.947,81.634 161.947,81.879C161.947,82.104 161.805,83.633 161.642,84.225C161.52,84.674 161.417,84.776 160.356,84.776C158.888,84.776 157.827,84.735 156.909,84.714C155.991,84.674 155.257,84.654 154.421,84.654C154.196,84.654 153.748,84.654 153.258,84.674C152.789,84.674 152.259,84.714 151.851,84.714C151.586,84.714 151.442,84.654 151.442,84.511C151.442,84.409 151.524,84.347 151.77,84.347C152.075,84.347 152.319,84.307 152.503,84.266C152.911,84.184 153.014,83.736 153.095,83.144C153.197,82.288 153.197,80.676 153.197,78.799L153.197,75.209C153.197,72.109 153.197,71.538 153.156,70.885C153.115,70.191 152.952,69.865 152.279,69.722C152.115,69.681 151.871,69.661 151.605,69.661C151.381,69.661 151.259,69.621 151.259,69.478C151.259,69.334 151.402,69.294 151.708,69.294C152.666,69.294 153.951,69.355 154.502,69.355C154.992,69.355 156.48,69.294 157.276,69.294C157.563,69.294 157.705,69.334 157.705,69.478C157.705,69.621 157.582,69.661 157.338,69.661C157.113,69.661 156.787,69.681 156.542,69.722C155.991,69.824 155.828,70.171 155.787,70.885C155.746,71.538 155.746,72.109 155.746,75.209L155.746,78.799Z" style="fill:#212121;fill-rule:nonzero;"/>
        <path d="M170.924,78.371C171.025,78.371 171.046,78.31 171.025,78.248L169.189,73.211C169.169,73.128 169.148,73.027 169.088,73.027C169.026,73.027 168.985,73.128 168.965,73.211L167.089,78.228C167.068,78.31 167.089,78.371 167.17,78.371L170.924,78.371ZM166.763,79.391C166.66,79.391 166.619,79.432 166.579,79.554L165.478,82.471C165.273,82.981 165.172,83.47 165.172,83.715C165.172,84.082 165.355,84.347 165.987,84.347L166.293,84.347C166.538,84.347 166.6,84.388 166.6,84.511C166.6,84.674 166.477,84.714 166.252,84.714C165.6,84.714 164.723,84.654 164.09,84.654C163.866,84.654 162.744,84.714 161.684,84.714C161.418,84.714 161.296,84.674 161.296,84.511C161.296,84.388 161.377,84.347 161.541,84.347C161.725,84.347 162.01,84.327 162.173,84.307C163.111,84.184 163.499,83.491 163.906,82.471L169.026,69.661C169.271,69.07 169.394,68.845 169.598,68.845C169.781,68.845 169.903,69.029 170.107,69.498C170.598,70.62 173.861,78.942 175.166,82.042C175.941,83.878 176.533,84.164 176.961,84.266C177.268,84.327 177.573,84.347 177.818,84.347C177.981,84.347 178.083,84.368 178.083,84.511C178.083,84.674 177.899,84.714 177.145,84.714C176.41,84.714 174.922,84.714 173.29,84.674C172.923,84.654 172.678,84.654 172.678,84.511C172.678,84.388 172.76,84.347 172.963,84.327C173.106,84.287 173.249,84.103 173.146,83.858L171.516,79.534C171.475,79.432 171.413,79.391 171.311,79.391L166.763,79.391Z" style="fill:#212121;fill-rule:nonzero;"/>
        <path d="M181.369,81.941C181.41,83.532 181.675,84.062 182.083,84.205C182.43,84.327 182.817,84.347 183.144,84.347C183.368,84.347 183.49,84.388 183.49,84.511C183.49,84.674 183.307,84.714 183.021,84.714C181.695,84.714 180.879,84.654 180.492,84.654C180.309,84.654 179.35,84.714 178.289,84.714C178.023,84.714 177.84,84.694 177.84,84.511C177.84,84.388 177.963,84.347 178.166,84.347C178.432,84.347 178.799,84.327 179.084,84.246C179.614,84.082 179.696,83.491 179.717,81.716L179.9,69.641C179.9,69.233 179.961,68.947 180.165,68.947C180.39,68.947 180.573,69.212 180.92,69.58C181.165,69.844 184.266,73.169 187.243,76.128C188.631,77.514 191.385,80.452 191.73,80.778L191.833,80.778L191.629,71.619C191.608,70.375 191.425,69.987 190.936,69.784C190.629,69.661 190.14,69.661 189.854,69.661C189.609,69.661 189.528,69.6 189.528,69.478C189.528,69.314 189.752,69.294 190.059,69.294C191.119,69.294 192.098,69.355 192.526,69.355C192.751,69.355 193.525,69.294 194.525,69.294C194.791,69.294 194.994,69.314 194.994,69.478C194.994,69.6 194.872,69.661 194.627,69.661C194.424,69.661 194.26,69.661 194.016,69.722C193.444,69.885 193.281,70.314 193.261,71.456L193.036,84.327C193.036,84.776 192.955,84.959 192.771,84.959C192.547,84.959 192.302,84.735 192.078,84.511C190.793,83.287 188.182,80.615 186.061,78.514C183.837,76.311 181.572,73.761 181.205,73.373L181.145,73.373L181.369,81.941Z" style="fill:#212121;fill-rule:nonzero;"/>
        <path d="M201.483,77.453C201.483,79.615 201.504,81.186 201.524,81.574C201.545,82.083 201.585,82.899 201.748,83.123C202.014,83.511 202.809,83.94 204.421,83.94C206.501,83.94 207.889,83.532 209.112,82.471C210.418,81.349 210.825,79.493 210.825,77.392C210.825,74.801 209.744,73.128 208.867,72.292C206.99,70.498 204.665,70.253 203.074,70.253C202.666,70.253 201.912,70.314 201.748,70.395C201.564,70.477 201.504,70.579 201.504,70.803C201.483,71.497 201.483,73.271 201.483,74.883L201.483,77.453ZM198.934,75.209C198.934,72.109 198.934,71.538 198.893,70.885C198.852,70.191 198.688,69.865 198.016,69.722C197.853,69.681 197.506,69.661 197.221,69.661C196.996,69.661 196.873,69.621 196.873,69.478C196.873,69.334 197.016,69.294 197.322,69.294C198.403,69.294 199.688,69.355 200.26,69.355C200.892,69.355 202.177,69.294 203.4,69.294C205.95,69.294 209.357,69.294 211.58,71.619C212.6,72.68 213.559,74.373 213.559,76.8C213.559,79.371 212.478,81.329 211.336,82.492C210.397,83.45 208.275,84.898 204.502,84.898C203.768,84.898 202.932,84.837 202.156,84.776C201.381,84.714 200.667,84.654 200.157,84.654C199.934,84.654 199.484,84.654 198.995,84.674C198.525,84.674 197.995,84.714 197.587,84.714C197.322,84.714 197.18,84.654 197.18,84.511C197.18,84.409 197.261,84.347 197.506,84.347C197.812,84.347 198.057,84.307 198.24,84.266C198.648,84.184 198.75,83.736 198.832,83.144C198.934,82.288 198.934,80.676 198.934,78.799L198.934,75.209Z" style="fill:#212121;fill-rule:nonzero;"/>
        <path d="M5.829,1.664L2.76,1.746C1.565,1.787 1.071,1.89 0.762,2.343C0.556,2.652 0.453,2.899 0.412,3.064C0.371,3.229 0.309,3.312 0.185,3.312C0.041,3.312 0,3.208 0,2.982C0,2.652 0.391,0.778 0.432,0.613C0.494,0.345 0.556,0.221 0.679,0.221C0.844,0.221 1.05,0.427 1.565,0.469C2.163,0.531 2.945,0.572 3.625,0.572L11.783,0.572C12.442,0.572 12.895,0.51 13.204,0.469C13.513,0.407 13.677,0.366 13.76,0.366C13.904,0.366 13.924,0.49 13.924,0.798C13.924,1.231 13.863,2.652 13.863,3.188C13.842,3.394 13.801,3.517 13.677,3.517C13.513,3.517 13.471,3.415 13.451,3.105L13.43,2.879C13.389,2.343 12.833,1.767 11,1.725L8.404,1.664L8.404,10.109C8.404,12.004 8.404,13.632 8.507,14.518C8.569,15.094 8.692,15.547 9.31,15.63C9.599,15.671 10.052,15.712 10.361,15.712C10.587,15.712 10.691,15.774 10.691,15.877C10.691,16.021 10.526,16.083 10.299,16.083C8.94,16.083 7.642,16.021 7.065,16.021C6.591,16.021 5.293,16.083 4.469,16.083C4.202,16.083 4.058,16.021 4.058,15.877C4.058,15.774 4.14,15.712 4.387,15.712C4.696,15.712 4.943,15.671 5.128,15.63C5.541,15.547 5.665,15.094 5.726,14.497C5.829,13.632 5.829,12.004 5.829,10.109L5.829,1.664Z" style="fill:#212121;fill-rule:nonzero;"/>
        <path d="M28.283,7.061C28.344,7.061 28.406,7.019 28.406,6.917L28.406,6.484C28.406,3.353 28.406,2.776 28.365,2.117C28.324,1.417 28.159,1.086 27.479,0.943C27.314,0.901 26.964,0.88 26.676,0.88C26.45,0.88 26.326,0.839 26.326,0.695C26.326,0.551 26.47,0.51 26.758,0.51C27.871,0.51 29.168,0.572 29.725,0.572C30.219,0.572 31.517,0.51 32.32,0.51C32.609,0.51 32.752,0.551 32.752,0.695C32.752,0.839 32.629,0.88 32.382,0.88C32.217,0.88 32.032,0.901 31.785,0.943C31.228,1.045 31.064,1.396 31.022,2.117C30.981,2.776 30.981,3.353 30.981,6.484L30.981,10.109C30.981,12.004 30.981,13.632 31.085,14.518C31.146,15.094 31.27,15.547 31.887,15.63C32.176,15.671 32.629,15.712 32.938,15.712C33.165,15.712 33.268,15.774 33.268,15.877C33.268,16.021 33.103,16.083 32.856,16.083C31.517,16.083 30.219,16.021 29.642,16.021C29.168,16.021 27.871,16.083 27.067,16.083C26.779,16.083 26.635,16.021 26.635,15.877C26.635,15.774 26.717,15.712 26.964,15.712C27.273,15.712 27.521,15.671 27.706,15.63C28.118,15.547 28.221,15.094 28.303,14.497C28.406,13.632 28.406,12.004 28.406,10.109L28.406,8.296C28.406,8.214 28.344,8.173 28.283,8.173L20.414,8.173C20.352,8.173 20.29,8.194 20.29,8.296L20.29,10.109C20.29,12.004 20.29,13.632 20.393,14.518C20.455,15.094 20.579,15.547 21.197,15.63C21.485,15.671 21.938,15.712 22.247,15.712C22.474,15.712 22.577,15.774 22.577,15.877C22.577,16.021 22.412,16.083 22.165,16.083C20.826,16.083 19.528,16.021 18.951,16.021C18.477,16.021 17.18,16.083 16.356,16.083C16.088,16.083 15.944,16.021 15.944,15.877C15.944,15.774 16.026,15.712 16.273,15.712C16.583,15.712 16.83,15.671 17.015,15.63C17.427,15.547 17.53,15.094 17.612,14.497C17.715,13.632 17.715,12.004 17.715,10.109L17.715,6.484C17.715,3.353 17.715,2.776 17.674,2.117C17.633,1.417 17.468,1.086 16.789,0.943C16.624,0.901 16.273,0.88 15.985,0.88C15.758,0.88 15.635,0.839 15.635,0.695C15.635,0.551 15.779,0.51 16.067,0.51C17.18,0.51 18.477,0.572 19.034,0.572C19.528,0.572 20.826,0.51 21.629,0.51C21.918,0.51 22.062,0.551 22.062,0.695C22.062,0.839 21.938,0.88 21.691,0.88C21.526,0.88 21.34,0.901 21.093,0.943C20.538,1.045 20.373,1.396 20.332,2.117C20.29,2.776 20.29,3.353 20.29,6.484L20.29,6.917C20.29,7.019 20.352,7.061 20.414,7.061L28.283,7.061Z" style="fill:#212121;fill-rule:nonzero;"/>
        <path d="M37.738,6.484C37.738,3.353 37.738,2.776 37.697,2.117C37.656,1.417 37.491,1.086 36.811,0.943C36.646,0.901 36.296,0.88 36.007,0.88C35.781,0.88 35.658,0.839 35.658,0.695C35.658,0.551 35.802,0.51 36.111,0.51C36.667,0.51 37.264,0.531 37.779,0.531C38.315,0.551 38.789,0.572 39.077,0.572C39.736,0.572 43.835,0.572 44.227,0.551C44.618,0.51 44.948,0.469 45.113,0.427C45.216,0.407 45.339,0.345 45.442,0.345C45.545,0.345 45.566,0.427 45.566,0.531C45.566,0.675 45.462,0.922 45.401,1.87C45.38,2.076 45.339,2.982 45.298,3.229C45.278,3.332 45.236,3.456 45.092,3.456C44.948,3.456 44.907,3.353 44.907,3.167C44.907,3.023 44.886,2.673 44.783,2.426C44.639,2.055 44.433,1.808 43.403,1.684C43.052,1.643 40.89,1.602 40.478,1.602C40.375,1.602 40.334,1.664 40.334,1.808L40.334,7.019C40.334,7.164 40.354,7.246 40.478,7.246C40.931,7.246 43.3,7.246 43.774,7.205C44.268,7.164 44.577,7.102 44.762,6.896C44.907,6.731 44.989,6.628 45.092,6.628C45.174,6.628 45.236,6.669 45.236,6.792C45.236,6.917 45.154,7.246 45.071,8.296C45.051,8.708 44.989,9.533 44.989,9.677C44.989,9.841 44.989,10.068 44.804,10.068C44.66,10.068 44.618,9.986 44.618,9.882C44.597,9.677 44.597,9.409 44.536,9.141C44.433,8.729 44.144,8.42 43.382,8.337C42.991,8.296 40.952,8.276 40.458,8.276C40.354,8.276 40.334,8.358 40.334,8.482L40.334,10.109C40.334,10.81 40.313,12.705 40.334,13.302C40.375,14.723 40.705,15.033 42.806,15.033C43.341,15.033 44.207,15.033 44.742,14.786C45.278,14.538 45.525,14.105 45.669,13.261C45.71,13.035 45.752,12.952 45.896,12.952C46.06,12.952 46.06,13.117 46.06,13.323C46.06,13.796 45.896,15.197 45.793,15.609C45.648,16.145 45.462,16.145 44.68,16.145C43.135,16.145 42.002,16.104 41.116,16.083C40.231,16.041 39.592,16.021 38.974,16.021C38.748,16.021 38.294,16.021 37.8,16.041C37.326,16.041 36.791,16.083 36.378,16.083C36.111,16.083 35.966,16.021 35.966,15.877C35.966,15.774 36.049,15.712 36.296,15.712C36.605,15.712 36.852,15.671 37.038,15.63C37.45,15.547 37.553,15.094 37.635,14.497C37.738,13.632 37.738,12.004 37.738,10.109L37.738,6.484Z" style="fill:#212121;fill-rule:nonzero;"/>
    </g>
</svg>
