<?xml version="1.0" encoding="UTF-8" standalone="no"?>
<!DOCTYPE svg PUBLIC "-//W3C//DTD SVG 1.1//EN" "http://www.w3.org/Graphics/SVG/1.1/DTD/svg11.dtd">
<svg width="100%" height="100%" viewBox="0 0 213 199" version="1.1" xmlns="http://www.w3.org/2000/svg" xmlns:xlink="http://www.w3.org/1999/xlink" xml:space="preserve" style="fill-rule:evenodd;clip-rule:evenodd;stroke-linejoin:round;stroke-miterlimit:1.41421;">
    <g transform="matrix(1,0,0,1,-407.207,-90.7488)">
        <g transform="matrix(0.707039,0,0,0.707039,225.852,-99.4446)">
            <g transform="matrix(1.25523,0,0,0.584162,45.6213,173.197)">
                <rect x="168" y="164" width="239" height="480" style="fill:rgb(204,204,204);"/>
            </g>
            <g transform="matrix(0.876832,0,0,0.283951,37.9797,381.355)">
                <rect x="284" y="100" width="272.5" height="162" style="fill:rgb(240,175,188);"/>
            </g>
            <g transform="matrix(0.876832,0,0,0.283951,37.9797,445.753)">
                <rect x="284" y="100" width="272.5" height="162" style="fill:rgb(255,116,144);"/>
            </g>
            <g transform="matrix(1,0,0,0.97561,-9,2.15244)">
                <rect x="296" y="303.5" width="203" height="20.5" style="fill:white;"/>
            </g>
            <g transform="matrix(1,0,0,0.243902,-9,273.476)">
                <rect x="296" y="303.5" width="203" height="20.5" style="fill:white;"/>
            </g>
            <g transform="matrix(0.625616,0,0,0.243902,101.818,287.476)">
                <rect x="296" y="303.5" width="203" height="20.5" style="fill:white;"/>
            </g>
            <g transform="matrix(0.458128,0,0,0.243902,293.894,287.476)">
                <rect x="296" y="303.5" width="203" height="20.5" style="fill:white;"/>
            </g>
            <g transform="matrix(1,0,0,0.243902,-9,301.476)">
                <rect x="296" y="303.5" width="203" height="20.5" style="fill:white;"/>
            </g>
        </g>
    </g>
</svg>
