<?xml version="1.0" encoding="UTF-8" standalone="no"?>
<!DOCTYPE svg PUBLIC "-//W3C//DTD SVG 1.1//EN" "http://www.w3.org/Graphics/SVG/1.1/DTD/svg11.dtd">
<svg width="100%" height="100%" viewBox="0 0 442 206" version="1.1" xmlns="http://www.w3.org/2000/svg" xmlns:xlink="http://www.w3.org/1999/xlink" xml:space="preserve" style="fill-rule:evenodd;clip-rule:evenodd;stroke-linejoin:round;stroke-miterlimit:1.41421;">
    <g transform="matrix(1,0,0,1,-419.444,-297.242)">
        <g transform="matrix(0.707039,0,0,0.707039,238.089,107.049)">
            <g transform="matrix(2.6104,0,0,0.25787,-182.047,226.709)">
                <rect x="168" y="164" width="239" height="480" style="fill:rgb(204,204,204);"/>
            </g>
            <g transform="matrix(1,0,0,0.97561,-9,2.15244)">
                <rect x="296" y="303.5" width="203" height="20.5" style="fill:white;"/>
            </g>
            <g transform="matrix(1,0,0,0.243902,-9,273.476)">
                <rect x="296" y="303.5" width="203" height="20.5" style="fill:white;"/>
            </g>
            <g transform="matrix(0.625616,0,0,0.243902,318.213,273.476)">
                <rect x="296" y="303.5" width="203" height="20.5" style="fill:white;"/>
            </g>
            <g transform="matrix(0.458128,0,0,0.243902,510.29,273.476)">
                <rect x="296" y="303.5" width="203" height="20.5" style="fill:white;"/>
            </g>
            <g transform="matrix(0.686474,0,0,0.243902,83.8036,284.503)">
                <rect x="296" y="303.5" width="203" height="20.5" style="fill:white;"/>
            </g>
            <g transform="matrix(0.686474,0,0,0.243902,239.903,284.503)">
                <rect x="296" y="303.5" width="203" height="20.5" style="fill:white;"/>
            </g>
            <g transform="matrix(2.6104,0,0,0.25787,-182.047,393.602)">
                <rect x="168" y="164" width="239" height="480" style="fill:rgb(128,128,128);"/>
            </g>
            <g transform="matrix(1,0,0,0.97561,-9,169.046)">
                <rect x="296" y="303.5" width="203" height="20.5" style="fill:white;"/>
            </g>
            <g transform="matrix(1,0,0,0.243902,-9,440.369)">
                <rect x="296" y="303.5" width="203" height="20.5" style="fill:white;"/>
            </g>
            <g transform="matrix(0.625616,0,0,0.243902,318.213,440.369)">
                <rect x="296" y="303.5" width="203" height="20.5" style="fill:white;"/>
            </g>
            <g transform="matrix(0.458128,0,0,0.243902,510.29,440.369)">
                <rect x="296" y="303.5" width="203" height="20.5" style="fill:white;"/>
            </g>
            <g transform="matrix(0.686474,0,0,0.243902,83.8036,451.397)">
                <rect x="296" y="303.5" width="203" height="20.5" style="fill:white;"/>
            </g>
            <g transform="matrix(0.686474,0,0,0.243902,239.903,451.397)">
                <rect x="296" y="303.5" width="203" height="20.5" style="fill:white;"/>
            </g>
        </g>
    </g>
</svg>
