<?xml version="1.0" encoding="UTF-8" standalone="no"?>
<!DOCTYPE svg PUBLIC "-//W3C//DTD SVG 1.1//EN" "http://www.w3.org/Graphics/SVG/1.1/DTD/svg11.dtd">
<svg width="100%" height="100%" viewBox="0 0 1075 800" version="1.1" xmlns="http://www.w3.org/2000/svg" xmlns:xlink="http://www.w3.org/1999/xlink" xml:space="preserve" style="fill-rule:evenodd;clip-rule:evenodd;stroke-linejoin:round;stroke-miterlimit:1.41421;">
    <g transform="matrix(1,0,0,1,-102.5,0)">
        <g transform="matrix(1.04603,0,0,0.520833,-73.2322,-85.4167)">
            <rect x="168" y="164" width="239" height="480" style="fill:rgb(204,204,204);"/>
        </g>
        <g transform="matrix(1.04603,0,0,0.520833,201.768,-85.4167)">
            <rect x="168" y="164" width="239" height="480" style="fill:rgb(204,204,204);"/>
        </g>
        <g transform="matrix(1.04603,0,0,0.520833,476.768,-85.4167)">
            <rect x="168" y="164" width="239" height="480" style="fill:rgb(204,204,204);"/>
        </g>
        <g transform="matrix(1.04603,0,0,0.520833,751.768,-85.4167)">
            <rect x="168" y="164" width="239" height="480" style="fill:rgb(204,204,204);"/>
        </g>
        <g transform="matrix(1.04603,0,0,0.520833,-73.2322,189.583)">
            <rect x="168" y="164" width="239" height="480" style="fill:rgb(204,204,204);"/>
        </g>
        <g transform="matrix(1.04603,0,0,0.520833,201.768,189.583)">
            <rect x="168" y="164" width="239" height="480" style="fill:rgb(204,204,204);"/>
        </g>
        <g transform="matrix(1.04603,0,0,0.520833,476.768,189.583)">
            <rect x="168" y="164" width="239" height="480" style="fill:rgb(204,204,204);"/>
        </g>
        <g transform="matrix(1.04603,0,0,0.520833,751.768,189.583)">
            <rect x="168" y="164" width="239" height="480" style="fill:rgb(204,204,204);"/>
        </g>
        <g transform="matrix(1.04603,0,0,0.520833,-73.2322,464.583)">
            <rect x="168" y="164" width="239" height="480" style="fill:rgb(204,204,204);"/>
        </g>
        <g transform="matrix(1.04603,0,0,0.520833,201.768,464.583)">
            <rect x="168" y="164" width="239" height="480" style="fill:rgb(204,204,204);"/>
        </g>
        <g transform="matrix(1.04603,0,0,0.520833,476.768,464.583)">
            <rect x="168" y="164" width="239" height="480" style="fill:rgb(204,204,204);"/>
        </g>
    </g>
</svg>
